<svg width="212" height="199" viewBox="0 0 212 199" fill="none" xmlns="http://www.w3.org/2000/svg">
<g filter="url(#filter0_d_19_1245)">
<path d="M25.7379 2.11674C30.8275 2.13953 35.9125 2.33699 40.9961 2.71706L40.9962 2.71707C51.1158 3.47316 61.0892 5.16357 70.9316 7.72602C81.3021 10.4264 91.3592 14.1033 101.1 18.7561L101.697 17.5069L101.1 18.7561C112.193 24.0546 122.623 30.524 132.376 38.2056L133.233 37.118L132.376 38.2056C140.812 44.8488 148.533 52.2706 155.553 60.4527C155.318 60.7996 154.98 61.2531 154.554 61.7931C153.54 63.0792 152.115 64.7424 150.648 66.3794C149.181 68.0157 147.69 69.6044 146.545 70.7423C146.21 71.0761 145.912 71.3632 145.658 71.5977C145.544 71.4628 145.43 71.3281 145.316 71.1936L145.316 71.1934C134.297 58.2672 121.546 47.6436 107.214 39.1289C92.6147 30.4548 77.0521 24.4979 60.6522 20.9838C54.7473 19.7184 48.7984 18.845 42.8193 18.2266C34.8644 17.4038 26.9161 17.3561 18.9933 17.6496M25.7379 2.11674L25.7441 0.732268M25.7379 2.11674L25.7441 0.732268M25.7379 2.11674C21.3663 2.09749 16.9923 2.42409 12.5572 2.75522C12.4602 2.76246 12.3633 2.7697 12.2663 2.77694C8.42192 3.06382 5.24853 6.54783 5.33978 10.5301L5.33978 10.5301C5.43914 14.8704 8.63481 18.0251 12.6905 18.0028H12.6906C13.7005 17.9973 14.7182 17.9315 15.7727 17.8544C15.9305 17.8429 16.0894 17.831 16.2493 17.8192C17.1444 17.7526 18.0692 17.6838 18.9933 17.6496M25.7441 0.732268C21.317 0.712775 16.8953 1.04295 12.4767 1.37288C12.3722 1.38069 12.2677 1.38849 12.1632 1.39629C7.57191 1.73891 3.8478 5.85508 3.95565 10.5618C4.07115 15.6073 7.83832 19.414 12.6981 19.3873C13.9202 19.3806 15.139 19.29 16.3571 19.1995C17.253 19.1328 18.1484 19.0663 19.0444 19.0332M25.7441 0.732268C30.8655 0.755195 35.9828 0.953891 41.0993 1.33643C51.305 2.09894 61.3605 3.80358 71.2805 6.38621L60.3621 22.3376M18.9933 17.6496L19.0444 19.0332M18.9933 17.6496C18.9933 17.6496 18.9932 17.6496 18.9932 17.6496L19.0444 19.0332M19.0444 19.0332C26.9297 18.7411 34.8085 18.7899 42.6768 19.6038C48.6171 20.2181 54.5156 21.0847 60.3621 22.3376M60.3621 22.3376C76.6216 25.8215 92.0423 31.7251 106.507 40.3192C120.711 48.7583 133.345 59.2841 144.262 72.0916L60.3621 22.3376ZM146.479 72.5847L146.479 72.5841L146.479 72.5847Z" fill="#5AC4EC" stroke="black" stroke-width="2.76898"/>
<path d="M197.76 116.391L197.76 116.392C197.641 116.689 197.562 116.954 197.467 117.272C197.409 117.465 197.346 117.677 197.264 117.928L197.264 117.929C196.418 120.528 195.571 123.126 194.675 125.878C194.405 126.708 194.13 127.552 193.849 128.414L192.461 132.674L191.203 128.374C191.101 128.022 191.007 127.703 190.92 127.408C190.748 126.825 190.602 126.331 190.464 125.84C187.95 116.861 184.759 108.159 180.867 99.7505L182.123 99.1689L180.867 99.7505C175.935 89.0951 169.987 79.1083 163.052 69.7758C161.151 67.2165 159.187 64.7238 157.163 62.2974C153.838 66.0201 150.526 69.756 147.224 73.5014C154.625 82.5234 160.987 92.3042 166.221 102.909L164.979 103.522L166.221 102.909C172.951 116.547 177.637 130.94 180.23 146.078L197.76 116.391ZM197.76 116.391C198.911 113.51 201.823 111.908 204.486 112.444M197.76 116.391L196.474 115.878C197.848 112.439 201.377 110.405 204.759 111.087L204.486 112.444M204.486 112.444C207.466 113.046 209.509 115.489 209.643 118.75M204.486 112.444L209.643 118.75M209.643 118.75C209.699 120.096 209.562 121.441 209.355 122.845C209.278 123.37 209.186 123.93 209.092 124.503C208.946 125.388 208.795 126.306 208.685 127.177L210.059 127.351L208.685 127.177C208.264 130.503 207.496 133.709 206.707 136.999C206.388 138.333 206.065 139.681 205.76 141.056C203.775 150.022 202.305 159.078 200.914 168.117L202.282 168.327L200.914 168.117C200.719 169.378 200.53 170.637 200.341 171.894C199.657 176.44 198.978 180.951 198.099 185.431C197.612 187.913 196.852 189.992 195.21 191.495C193.207 193.33 191.007 193.862 188.541 193.132C185.765 192.311 183.8 190.54 182.488 187.612C177.138 175.667 170.878 164.26 163.428 153.585C160.757 149.759 158.018 145.988 155.206 142.275L155.206 142.275C154.378 141.183 153.506 140.14 152.59 139.134L152.59 139.134C150.447 136.779 149.963 134.087 151.068 131.021C152.095 128.173 154.593 126.468 157.509 126.406C160.091 126.352 162.196 127.519 163.954 129.605C167.437 133.736 170.569 138.179 173.74 142.676C173.959 142.987 174.178 143.297 174.397 143.608C175.146 144.67 175.874 145.74 176.636 146.861C177.002 147.399 177.375 147.948 177.764 148.515L179.089 150.448L180.142 148.354C180.449 147.745 180.466 147.18 180.389 146.721C180.355 146.522 180.305 146.347 180.276 146.244L180.274 146.237C180.257 146.178 180.247 146.145 180.239 146.113C180.233 146.092 180.231 146.082 180.23 146.079L209.643 118.75Z" fill="#EA92B6" stroke="black" stroke-width="2.76898"/>
</g>
<defs>
<filter id="filter0_d_19_1245" x="0.492144" y="0.731445" width="210.548" height="197.562" filterUnits="userSpaceOnUse" color-interpolation-filters="sRGB">
<feFlood flood-opacity="0" result="BackgroundImageFix"/>
<feColorMatrix in="SourceAlpha" type="matrix" values="0 0 0 0 0 0 0 0 0 0 0 0 0 0 0 0 0 0 127 0" result="hardAlpha"/>
<feOffset dx="-3.46123" dy="3.46123"/>
<feComposite in2="hardAlpha" operator="out"/>
<feColorMatrix type="matrix" values="0 0 0 0 0 0 0 0 0 0 0 0 0 0 0 0 0 0 1 0"/>
<feBlend mode="normal" in2="BackgroundImageFix" result="effect1_dropShadow_19_1245"/>
<feBlend mode="normal" in="SourceGraphic" in2="effect1_dropShadow_19_1245" result="shape"/>
</filter>
</defs>
</svg>
