<svg width="85" height="85" viewBox="0 0 85 85" fill="none" xmlns="http://www.w3.org/2000/svg">
<path d="M67.0683 26.2041C63.5878 23.8543 59.6067 22.0832 56.0301 19.8461C52.9638 17.9279 49.8939 15.9087 47.1616 13.5286C45.5093 12.0903 43.3809 11.7106 41.3404 12.6951C39.6143 13.5293 38.0247 14.9942 36.3714 16.0129C34.8054 16.9785 33.1787 17.8408 31.5389 18.6711C27.721 20.6042 23.7126 22.1545 19.7364 23.7235C17.7167 24.521 16.9908 26.7221 16.8498 28.7044C16.5436 32.9966 17.3246 37.6896 18.0747 41.8996C19.5637 50.2532 23.0409 57.9809 28.5206 64.4605C32.0138 68.5902 38.0814 75.4718 43.7696 71.7931C49.192 68.2871 54.586 64.4653 59.0449 59.7669C60.0712 58.6859 60.9921 57.5087 61.7764 56.242C66.0576 48.6987 68.6057 40.0941 69.4185 31.4594C69.6185 29.3324 68.8363 27.3982 67.0683 26.2041Z" fill="#19A6DC"/>
<path d="M61.8594 25.6262C58.9523 23.9772 56.0708 22.2737 53.2764 20.4397C50.9022 18.8812 48.5625 17.2735 46.3777 15.4563C43.193 12.8073 40.8894 15.5528 38.091 17.2784C35.4728 18.8917 32.7703 20.3534 29.9659 21.6187C26.9379 22.9846 23.5672 23.9329 20.6475 25.4877C17.5616 27.1297 18.9085 33.1109 19.2022 35.8C19.616 39.5883 20.2263 43.3837 21.339 47.0368C23.5363 54.2525 27.2553 60.9397 32.8322 66.1048C35.1312 68.2348 39.0748 72.4776 42.3874 70.3351C44.528 68.9507 46.6443 67.5253 48.6954 66.0107C52.8496 62.9423 57.3607 59.6056 60.1174 55.1519C64.1398 48.066 66.6355 39.8656 67.4001 31.7476C67.7475 28.0539 64.5705 27.1647 61.8594 25.6262ZM62.8771 34.1717C62.0309 40.8191 60.3436 47.2737 57.0703 53.1592C56.1571 54.6668 54.9796 56.0085 53.708 57.2246C51.6385 59.2045 49.4029 61.0048 47.083 62.6835C45.6571 63.7152 43.9994 65.2667 42.3616 65.9312C40.0986 66.848 38.294 65.4869 36.5589 64.0837C34.2653 62.23 32.1621 60.1282 30.4442 57.7217C26.6815 52.4519 24.5013 46.341 23.6567 39.9318C23.2781 37.0605 22.7539 33.8474 23.1641 30.9629C23.4706 28.8087 24.9218 28.1513 26.7588 27.3983C29.7052 26.19 32.6645 24.963 35.4553 23.4184C36.7139 22.7219 37.9581 21.996 39.1521 21.1916C40.0073 20.616 41.094 19.4825 42.1326 19.1999C44.4083 18.5802 45.3466 19.5706 47.0165 20.8972C49.1411 22.5843 51.3931 24.1109 53.6907 25.5509C56.287 27.1773 59.143 28.5068 61.656 30.2425C62.8162 31.044 63.0399 32.8923 62.8771 34.1717Z" fill="#5AC4EC"/>
<path d="M57.5052 29.2363C55.3605 27.996 53.2359 26.7152 51.1724 25.3435C49.3818 24.1538 47.5759 22.9431 45.9393 21.5439C45.0464 20.7818 44.0948 19.8981 42.8027 20.2502C41.7041 20.5488 40.6567 21.6248 39.6988 22.2498C35.5637 24.9468 31.0982 26.9221 26.5349 28.7698C23.2647 30.0942 24.2343 34.2742 24.5222 37.1219C24.809 39.955 25.2311 42.7925 26.0004 45.5397C27.5729 51.1529 30.2407 56.4076 34.4043 60.558C35.9239 62.0724 39.6848 66.2735 42.1216 64.6733C43.7074 63.6318 45.2738 62.5584 46.7963 61.4246C50.1738 58.9091 53.8611 56.1611 56.0748 52.5045C59.181 46.9202 61.0985 40.4758 61.6879 34.1093C61.9569 31.2039 59.6395 30.4701 57.5052 29.2363ZM58.0621 37.449C57.7405 38.5505 57.0248 38.9637 56.2009 39.4354C51.1351 42.3455 47.0483 46.521 43.9024 51.4376C43.1534 52.6473 42.2182 54.2173 40.5547 54.1074C39.0273 54.0063 38.0481 52.9181 37.2194 51.7405C35.4818 49.2763 33.6984 46.7784 31.3665 44.8336C30.6902 44.2914 30.1223 43.8587 29.9712 42.9503C29.8317 42.1085 29.9184 41.1349 30.4589 40.4328C31.0572 39.6557 32.0771 39.1671 33.0842 39.1602C34.465 39.1502 35.1042 39.9362 35.8563 40.766C37.2238 42.2791 38.3246 44.0468 39.7838 45.4002C40.2909 45.8698 43.6576 41.0873 44.0672 40.63C46.4459 37.9735 49.1216 35.7593 52.1341 33.9246C53.6081 33.0278 54.5875 32.373 56.0412 33.0482C57.5846 33.7659 58.543 35.8006 58.0621 37.449Z" fill="#19A6DC"/>
<path d="M42.2432 50.3471C41.895 50.9099 41.4434 52.0775 40.6585 52.1257C39.7814 52.1802 39.1174 51.0153 38.6934 50.4132C36.9415 47.9281 35.1369 45.5119 32.8442 43.5058C32.2911 43.0217 31.6181 42.4727 32.0048 41.7021C32.7102 40.2985 34.1301 41.8176 34.332 42.0309C35.9485 43.7443 37.2388 45.7357 38.9478 47.32C39.8876 48.1914 41.1822 47.6506 41.9213 46.8473C43.674 44.9432 44.9095 42.5738 46.726 40.6613C48.9877 38.2801 51.6878 36.3816 54.558 34.8113C55.7065 34.3041 56.9093 36.6942 55.8861 37.3367C50.2562 40.4161 45.6911 44.9606 42.2432 50.3471Z" fill="#5AC4EC"/>
<path d="M67.2295 29.889C67.0761 37.3937 64.3688 45.0839 61.1332 51.7319C59.171 55.7641 55.8052 59.1048 52.5004 62.054C50.8516 63.5245 49.1122 64.8931 47.337 66.2065C45.4661 67.5906 43.4631 69.1008 41.1866 69.7384C37.261 70.8394 33.5968 66.3074 31.281 63.8033C28.2909 60.5717 25.9253 56.8902 24.1199 52.8802C22.2721 48.7764 21.0904 44.3907 20.2291 39.9839C19.5377 36.4434 18.824 32.5864 18.744 28.8876C18.4474 31.2551 19.0218 34.1482 19.202 35.7999C19.6158 39.5882 20.2261 43.3836 21.3388 47.0367C23.5361 54.2524 27.2551 60.9396 32.832 66.1047C35.131 68.2347 39.0746 72.4775 42.3872 70.335C44.5278 68.9506 46.644 67.5252 48.6952 66.0106C52.8494 62.9422 57.3605 59.6055 60.1171 55.1518C64.1396 48.0659 66.6353 39.8655 67.3999 31.7475C67.4675 31.0301 67.3986 30.42 67.2295 29.889Z" fill="#5AC4EC"/>
<path d="M23.1642 30.963C23.4707 28.8087 24.9218 28.1514 26.7589 27.3983C29.7053 26.1901 32.6645 24.9631 35.4553 23.4185C36.7139 22.7219 37.9582 21.996 39.1521 21.1917C40.0073 20.616 41.0941 19.4826 42.1326 19.1999C44.4084 18.5803 45.3466 19.5707 47.0166 20.8973C49.1412 22.5844 51.3932 24.111 53.6908 25.551C56.287 27.1774 59.1431 28.5069 61.656 30.2426C62.5076 30.8304 62.8516 31.9825 62.9119 33.059C62.9539 31.8149 62.6623 30.6305 61.6445 29.6333C59.185 27.2248 55.4942 25.9999 52.6518 24.0997C50.732 22.8168 48.9044 21.4004 47.0196 20.0669C45.9089 19.2812 44.7116 18.31 43.3006 18.2092C42.0915 18.1223 40.8662 19.0906 39.9386 19.7139C37.8133 21.1415 35.6503 22.5041 33.3897 23.7077C30.3726 25.3144 26.4224 26.0579 23.9141 28.4751C22.7917 29.557 22.7282 31.3675 23.0155 33.1448C23.0198 32.4045 23.0629 31.6734 23.1642 30.963Z" fill="#5AC4EC"/>
<path d="M53.2762 20.4397C50.902 18.8812 48.5622 17.2735 46.3774 15.4563C43.1927 12.8073 40.8891 15.5528 38.0907 17.2784C35.4726 18.8917 32.77 20.3534 29.9656 21.6187C26.9377 22.9846 23.5669 23.9328 20.6472 25.4876C20.2312 25.7091 19.9009 26.0141 19.6332 26.3746C21.0075 25.4233 22.7409 24.8992 24.2698 24.3597C26.5906 23.5412 28.8759 22.625 31.1263 21.6309C32.6647 20.9517 34.1663 20.2043 35.6397 19.3954C38.0172 18.0904 40.2487 16.0337 42.8727 15.2682C45.4549 14.5148 48.024 17.509 49.9271 18.8518C52.2824 20.5141 54.7521 22.047 57.215 23.5435C59.2767 24.7963 61.3896 25.9842 63.5912 26.9739C64.4727 27.37 65.3217 27.7494 66.1194 28.1798C65.0098 27.1354 63.364 26.4799 61.8591 25.6261C58.952 23.9772 56.0706 22.2737 53.2762 20.4397Z" fill="#5AC4EC"/>
<path d="M62.8244 34.559C61.9622 41.0694 60.2798 47.3885 57.0703 53.1591C56.1572 54.6667 54.9796 56.0085 53.7081 57.2246C51.6386 59.2044 49.4029 61.0048 47.083 62.6834C45.6571 63.7152 43.9994 65.2666 42.3616 65.9311C40.0987 66.848 38.294 65.4868 36.559 64.0836C34.2653 62.2299 32.1621 60.1281 30.4443 57.7217C26.6815 52.4518 24.5013 46.341 23.6567 39.9318C23.4468 38.3417 23.1978 36.6471 23.0827 34.9608C23.0011 35.886 23.0446 36.8267 23.1245 37.7512C23.3338 40.1894 23.6214 42.6287 24.1028 45.0293C24.9513 49.257 26.9077 53.2413 29.2058 56.8565C31.1554 59.9232 33.5121 62.7859 36.3167 65.1061C38.8864 67.2324 41.2524 67.6338 44.1426 65.9118C47.593 63.8565 50.9655 61.0585 53.8187 58.2453C56.6428 55.4605 58.4746 52.1681 59.8934 48.4983C61.4131 44.5666 62.4468 40.4302 62.8237 36.2307C62.8747 35.6652 62.8855 35.1013 62.8244 34.559Z" fill="#19A6DC"/>
<path d="M26.0004 45.5398C27.5729 51.153 30.2407 56.4077 34.4043 60.5582C35.9239 62.0725 39.6848 66.2736 42.1216 64.6734C43.7074 63.6319 45.2738 62.5586 46.7963 61.4247C50.1738 58.9092 53.8611 56.1612 56.0748 52.5046C59.181 46.9203 61.0985 40.4759 61.6879 34.1094C61.8277 32.6017 61.268 31.6808 60.4012 30.9689C60.8303 32.8306 60.596 34.9401 60.3324 36.739C59.7577 40.6551 58.5032 44.4965 57.1762 48.2136C55.172 53.8277 50.3152 57.4675 45.7021 60.8883C44.6515 61.6671 43.5809 62.4286 42.4474 63.0827C41.1015 63.86 39.7727 63.5857 38.4315 62.8759C35.252 61.1928 32.8478 57.6008 31.0238 54.6096C28.4264 50.3509 27.0142 45.665 25.9102 40.8367C25.3995 38.6031 25.0711 36.3515 24.7197 34.0903C24.5827 33.2081 24.4308 32.2434 24.3777 31.2768C23.9029 33.0701 24.3437 35.353 24.5221 37.1221C24.809 39.9551 25.2311 42.7926 26.0004 45.5398Z" fill="#19A6DC"/>
<path d="M58.062 37.4491C57.7404 38.5505 57.0248 38.9638 56.2008 39.4354C51.1351 42.3456 47.0483 46.5211 43.9023 51.4376C43.1534 52.6473 42.2181 54.2174 40.5547 54.1074C39.0273 54.0064 38.0481 52.9181 37.2193 51.7405C35.4817 49.2764 33.6983 46.7785 31.3664 44.8336C30.6902 44.2915 30.1222 43.8588 29.9712 42.9504C29.91 42.58 29.8957 42.1843 29.9414 41.7974C29.7898 42.1482 29.7251 42.5404 29.7741 42.9202C29.999 44.6809 31.4281 45.7575 32.6105 46.9437C34.1348 48.4723 35.3812 50.2109 36.64 51.9559C37.6571 53.3663 38.627 54.7522 40.444 55.013C41.738 55.1997 42.7782 54.2401 43.5041 53.3154C44.8967 51.543 46.0533 49.5823 47.456 47.8074C49.7578 44.8937 52.2712 42.7082 55.3893 40.7385C57.3287 39.5139 58.7684 38.1568 58.1677 36.2343C58.2035 36.6462 58.176 37.0584 58.062 37.4491Z" fill="#19A6DC"/>
<path d="M35.9356 25.223C37.2859 24.5538 38.6107 23.8133 39.8215 22.913C41.6587 21.5462 43.2356 20.5691 45.3408 21.9386C47.8869 23.5947 50.2037 25.4921 52.8575 27.0166C54.2718 27.8285 55.7342 28.5594 57.2331 29.2021C57.5412 29.3335 57.9149 29.5127 58.3101 29.6814C58.0427 29.5374 57.773 29.3905 57.5051 29.2363C55.3603 27.996 53.2357 26.7152 51.1722 25.3434C49.3817 24.1537 47.5758 22.943 45.9391 21.5439C45.0463 20.7817 44.0946 19.898 42.8025 20.2502C41.7039 20.5488 40.6565 21.6247 39.6987 22.2498C35.5636 24.9468 31.0981 26.9221 26.5347 28.7697C25.9148 29.021 25.4484 29.3755 25.0991 29.8035C26.7226 28.8976 28.4989 28.3858 30.2407 27.722C32.1783 26.9835 34.0784 26.1443 35.9356 25.223Z" fill="#19A6DC"/>
<path d="M55.8862 37.3369C56.3123 37.0693 56.3493 36.4979 56.1674 35.9596C54.9979 37.5413 52.6013 38.3191 51.0116 39.4214C48.5794 41.1085 46.4676 43.3981 44.5747 45.6588C43.6667 46.7438 42.911 47.9406 42.1218 49.1125C41.2866 50.3523 40.3781 51.0896 39.0428 49.9083C38.3134 49.2625 37.7056 48.4251 37.0807 47.683C36.0803 46.4935 35.0878 45.3014 33.9761 44.2135C33.5144 43.7614 32.9597 43.4063 32.3838 43.0836C32.5306 43.2318 32.6907 43.3716 32.8445 43.5059C35.1371 45.512 36.9416 47.9281 38.6937 50.4133C39.1177 51.0154 39.7815 52.1803 40.6588 52.1258C41.4437 52.0775 41.8952 50.91 42.2434 50.3472C45.6912 44.9607 50.2562 40.4162 55.8862 37.3369Z" fill="#5AC4EC"/>
</svg>
