<svg width="1440" height="1664" viewBox="0 0 1440 1664" fill="none" xmlns="http://www.w3.org/2000/svg">
<path d="M-4.80265 30.7162L-6 31.2408V32.5481V149.933V151.933H-4H1455H1457V149.933V19.8414V18.2182L1455.41 17.8842C1440.11 14.6668 1405.16 8.16016 1388.73 8.16016C1383.32 8.16016 1374.81 10.3059 1365.09 13.3572C1355.27 16.4362 1343.93 20.5363 1332.71 24.6178L1330.48 25.4319C1320.01 29.2433 1309.74 32.9794 1300.96 35.8265C1296.26 37.3509 1292.02 38.6104 1288.41 39.4871C1284.78 40.3718 1281.93 40.8343 1279.96 40.8343C1277.97 40.8343 1274.76 40.3643 1270.43 39.4717C1266.15 38.588 1260.92 37.321 1254.97 35.7919C1248.52 34.1323 1241.27 32.1808 1233.51 30.0896C1226.92 28.3168 1219.97 26.4437 1212.81 24.5628C1181.75 16.4102 1146.96 8.16016 1124.15 8.16016C1101.25 8.16016 1074.37 16.7572 1048.78 25.0485L1047.32 25.5224C1034.98 29.5241 1022.93 33.4276 1011.67 36.3017C999.958 39.2922 989.233 41.1289 980.029 40.8354C963.72 40.3152 949.928 34.0751 934.41 27.0539C932.341 26.1179 930.242 25.1681 928.102 24.2161C909.984 16.1566 889.318 8.16016 860.574 8.16016C832.032 8.16016 811.127 12.1276 789.755 16.9063C786.73 17.5826 783.698 18.2747 780.634 18.9741C762.062 23.2128 742.332 27.716 716.178 30.5598C685.705 33.8732 656.216 33.8759 627.224 33.0449C617.405 32.7634 607.628 32.3855 597.888 32.009C578.922 31.2759 560.094 30.5481 541.354 30.5481C513.245 30.5481 481.798 24.9899 454.874 19.3959C448.149 17.9988 441.716 16.6014 435.69 15.2896L434.691 15.072C429.046 13.8429 423.767 12.6934 418.97 11.6998C408.887 9.6114 400.707 8.16016 395.657 8.16016C391.599 8.16016 382.045 9.11907 369.026 10.4259C366.204 10.7091 363.221 11.0086 360.094 11.3182C342.443 13.0665 320.057 15.1622 296.258 16.5591C272.454 17.9562 247.266 18.6522 224.011 17.6071C200.726 16.5606 179.515 13.7728 163.599 8.26994C137.193 -0.859464 103.549 1.08659 72.4419 7.07685C41.277 13.0782 12.3494 23.2009 -4.80265 30.7162Z" fill="#5AC4EC" stroke="black" stroke-width="4"/>
<rect width="1459" height="1535.74" transform="translate(-4 128.263)" fill="#5AC4EC"/>
</svg>
