<svg width="57" height="58" viewBox="0 0 57 58" fill="none" xmlns="http://www.w3.org/2000/svg">
<g clip-path="url(#clip0_54_523)">
<path d="M35.4593 43.1483L34.2576 44.2374L35.7704 44.822C38.0153 45.6894 40.6646 45.2665 42.4913 43.4398C44.318 41.6131 44.7409 38.9637 43.8736 36.7189L43.289 35.2059L42.1998 36.4077C41.1841 37.5285 40.1112 38.6717 38.9172 39.8657C37.7233 41.0596 36.58 42.1324 35.4593 43.1483Z" fill="#5AC4EC" stroke="black" stroke-width="2"/>
<path d="M45.7905 21.921L45.7917 21.9211C47.1885 22.0874 48.4165 22.9284 49.0683 24.1796L49.0684 24.1797C49.7061 25.4042 49.7009 26.8616 49.0404 28.0762C49.0403 28.0764 49.0401 28.0767 49.04 28.0769L48.1616 27.599C47.2863 29.2108 45.6654 31.6612 42.7698 34.9801L45.7905 21.921ZM45.7905 21.921C44.2251 21.7366 42.0177 21.3651 39.7942 20.6272C37.5608 19.886 35.3844 18.7988 33.812 17.2265C30.2437 13.6581 24.8358 12.6202 20.2538 14.5116C18.3763 13.181 15.7563 13.349 14.0784 15.027C12.3993 16.706 12.2325 19.3251 13.563 21.2023C11.6706 25.7853 12.7084 31.1932 16.2768 34.7617C17.8498 36.3346 18.9372 38.5109 19.6784 40.7439C20.4163 42.967 20.7875 45.1741 20.9713 46.7398L20.9714 46.7403C21.1364 48.1398 21.9796 49.3666 23.2301 50.0179L23.2302 50.018C24.4552 50.6559 25.9136 50.649 27.1275 49.989L45.7905 21.921Z" fill="#5AC4EC" stroke="black" stroke-width="2"/>
</g>
<defs>
<clipPath id="clip0_54_523">
<rect width="38" height="42" fill="white" transform="translate(0 27.8198) rotate(-45)"/>
</clipPath>
</defs>
</svg>
