<svg width="1440" height="87" viewBox="0 0 1440 87" fill="none" xmlns="http://www.w3.org/2000/svg">
<path d="M29.1837 41.1622L63.4522 2.9937L97.7206 41.1622L99.2088 42.8198L100.697 41.1622L134.966 2.99371L169.234 41.1622L170.722 42.8198L172.21 41.1622L206.479 2.99352L240.756 41.1624L242.244 42.8198L243.732 41.162L277.993 2.99369L312.269 41.1624L313.757 42.8196L315.245 41.1622L349.514 2.99369L383.782 41.1622L385.27 42.8198L386.759 41.1622L421.027 2.9935L455.304 41.1624L456.792 42.8196L458.28 41.1622L492.549 2.99369L526.817 41.1622L528.305 42.8198L529.794 41.1622L564.062 2.99352L598.339 41.1624L599.827 42.8196L601.315 41.1622L635.584 2.99373L669.852 41.1622L671.34 42.8198L672.828 41.1622L707.097 2.99352L741.374 41.1624L742.862 42.8198L744.35 41.162L778.61 2.9939L812.879 41.1622L814.367 42.8198L815.855 41.1622L850.124 2.99373L884.392 41.1622L885.88 42.8196L887.368 41.1624L921.645 2.99352L955.914 41.1622L957.402 42.8198L958.89 41.1622L993.159 2.99373L1027.43 41.1622L1028.92 42.8196L1030.4 41.1624L1064.68 2.99349L1098.95 41.1622L1100.44 42.8196L1101.92 41.1624L1136.2 2.99349L1170.47 41.1622L1171.96 42.8196L1173.45 41.1624L1207.72 2.99349L1241.99 41.1622L1243.48 42.8198L1244.97 41.1622L1279.24 2.99348L1313.51 41.1624L1315 42.8194L1316.49 41.1624L1350.77 2.99331L1385.04 41.1623L1386.53 42.8194L1388.02 41.1624L1422.3 2.99331L1456.06 40.5923V85H-6.06116V5.22132L26.2073 41.1622L27.6955 42.8198L29.1837 41.1622Z" fill="#5AC4EC" stroke="black" stroke-width="4"/>
</svg>
