<svg width="155" height="62" viewBox="0 0 155 62" fill="none" xmlns="http://www.w3.org/2000/svg">
<mask id="path-1-outside-1_19_1064" maskUnits="userSpaceOnUse" x="0" y="0" width="155" height="62" fill="black">
<rect fill="white" width="155" height="62"/>
<path fill-rule="evenodd" clip-rule="evenodd" d="M23.2843 4C21.1701 4 19.4561 5.71395 19.4561 7.82821V23.0956L4.76826 31.5371C3.74391 32.1258 3.74391 33.6037 4.76826 34.1924L19.4561 42.6339V54.1718C19.4561 56.286 21.1701 58 23.2843 58H147.172C149.286 58 151 56.286 151 54.1718V7.82822C151 5.71395 149.286 4 147.172 4H23.2843Z"/>
</mask>
<path fill-rule="evenodd" clip-rule="evenodd" d="M23.2843 4C21.1701 4 19.4561 5.71395 19.4561 7.82821V23.0956L4.76826 31.5371C3.74391 32.1258 3.74391 33.6037 4.76826 34.1924L19.4561 42.6339V54.1718C19.4561 56.286 21.1701 58 23.2843 58H147.172C149.286 58 151 56.286 151 54.1718V7.82822C151 5.71395 149.286 4 147.172 4H23.2843Z" fill="#5AC4EC"/>
<path d="M19.4561 23.0956L21.4493 26.5637L23.4561 25.4103V23.0956H19.4561ZM4.76826 31.5371L6.76143 35.0052H6.76143L4.76826 31.5371ZM4.76826 34.1924L6.76143 30.7244H6.76143L4.76826 34.1924ZM19.4561 42.6339H23.4561V40.3192L21.4493 39.1659L19.4561 42.6339ZM23.4561 7.82821C23.4561 7.92309 23.3792 8 23.2843 8V0C18.9609 0 15.4561 3.50481 15.4561 7.82821H23.4561ZM23.4561 23.0956V7.82821H15.4561V23.0956H23.4561ZM6.76143 35.0052L21.4493 26.5637L17.4629 19.6276L2.77509 28.0691L6.76143 35.0052ZM6.76143 30.7244C8.41286 31.6735 8.41285 34.056 6.76143 35.0052L2.77509 28.0691C-0.925023 30.1956 -0.925037 35.5339 2.77509 37.6604L6.76143 30.7244ZM21.4493 39.1659L6.76143 30.7244L2.77509 37.6604L17.463 46.1019L21.4493 39.1659ZM23.4561 54.1718V42.6339H15.4561V54.1718H23.4561ZM23.2843 54C23.3792 54 23.4561 54.0769 23.4561 54.1718H15.4561C15.4561 58.4952 18.9609 62 23.2843 62V54ZM147.172 54H23.2843V62H147.172V54ZM147 54.1718C147 54.0769 147.077 54 147.172 54V62C151.495 62 155 58.4952 155 54.1718H147ZM147 7.82822V54.1718H155V7.82822H147ZM147.172 8C147.077 8 147 7.92308 147 7.82822H155C155 3.50482 151.495 0 147.172 0V8ZM23.2843 8H147.172V0H23.2843V8Z" fill="black" mask="url(#path-1-outside-1_19_1064)"/>
</svg>
