<svg width="40" height="40" viewBox="0 0 40 40" fill="none" xmlns="http://www.w3.org/2000/svg">
<path d="M19.9999 38.6667C30.3092 38.6667 38.6666 30.3093 38.6666 20C38.6666 9.69069 30.3092 1.33334 19.9999 1.33334C9.6906 1.33334 1.33325 9.69069 1.33325 20C1.33325 30.3093 9.6906 38.6667 19.9999 38.6667Z" fill="black"/>
<path d="M20 36C28.8366 36 36 28.8366 36 20C36 11.1634 28.8366 4 20 4C11.1634 4 4 11.1634 4 20C4 28.8366 11.1634 36 20 36Z" fill="white"/>
<path d="M13.4146 20.9514C15.7352 22.1838 18.1569 23.4738 20.0272 24.472L26.5858 20.9514C24.211 24.4792 22.2323 27.4162 20.0272 30.6667C17.8181 27.4234 15.3786 23.8447 13.4146 20.9514Z" fill="black"/>
<path d="M13.6667 19.9782L20.0343 16.5804L26.319 19.9534L20.0379 23.3549L13.6667 19.9782Z" fill="black"/>
<path d="M20.0272 15.4919L13.4146 18.9729L19.9983 9.33334L26.5857 18.9946L20.0272 15.4919Z" fill="black"/>
</svg>
