<svg width="37" height="38" viewBox="0 0 37 38" fill="none" xmlns="http://www.w3.org/2000/svg">
<g clip-path="url(#clip0_92_424)">
<path d="M30.1376 18.6278C28.6645 14.3891 25.9354 12.2092 23.5276 10.2853C21.2981 8.50433 19.3727 6.96641 18.6287 4.145C18.569 3.91837 18.3874 3.74469 18.1588 3.6939C17.9294 3.64266 17.6914 3.72372 17.543 3.90548C15.3778 6.51887 13.9997 10.3247 14.0316 13.6008C14.0554 15.8813 14.6177 18.3037 15.0263 19.8939C12.4229 20.0173 10.8925 16.478 10.876 16.4393C10.7979 16.2554 10.6372 16.1198 10.4432 16.0738C10.2478 16.0294 10.0443 16.0761 9.89287 16.2082C9.78013 16.3048 7.14482 18.6534 8.59557 24.8735C8.63731 25.0821 8.69107 25.2883 8.74537 25.4942C10.3268 31.4918 16.4937 35.0849 22.4917 33.5033C22.5001 33.5017 22.5093 33.5006 22.5159 33.497C22.5183 33.4963 22.5206 33.4957 22.5236 33.4949C28.5023 31.9001 32.0804 25.7445 30.5018 19.7575C30.4222 19.456 30.1376 18.6278 30.1376 18.6278Z" fill="#DF5537"/>
</g>
<defs>
<clipPath id="clip0_92_424">
<rect width="30" height="30" fill="white" transform="translate(0.338867 8.32019) rotate(-14.7714)"/>
</clipPath>
</defs>
</svg>
