<svg width="275" height="193" viewBox="0 0 275 193" fill="none" xmlns="http://www.w3.org/2000/svg">
<g filter="url(#filter0_d_277_859)">
<path d="M20.5521 68.9328L16.3357 66.0572C16.0714 65.8697 15.9032 65.5696 15.8912 65.232L15.7711 59.9934C15.7471 59.1557 14.8101 58.6931 14.1854 59.2307L10.2573 62.5189C10.005 62.7315 9.66867 62.794 9.36835 62.7065L4.53924 61.2062C3.75842 60.9686 3.0617 61.7563 3.35 62.544L5.13987 67.445C5.26 67.7576 5.21199 68.1076 5.0318 68.3827L2.17278 72.6961C1.7163 73.3838 2.22079 74.334 3.02564 74.2965L8.05894 74.0339C8.38328 74.0214 8.6836 74.1715 8.88782 74.434L11.951 78.5974C12.4435 79.2725 13.4647 79.06 13.6689 78.2473L14.9903 73.1838C15.0744 72.8587 15.3026 72.5961 15.6149 72.4961L20.3719 70.7582C21.1047 70.4707 21.2369 69.3954 20.5521 68.9328Z" fill="#FEDB63"/>
<path d="M1.75621 72.4196C1.09508 73.4156 1.79608 74.8543 3.04891 74.7959L3.04891 74.7959L3.05168 74.7958L8.08096 74.5335C8.22882 74.5287 8.37709 74.5944 8.48961 74.7365L11.5471 78.8921C11.5473 78.8924 11.5476 78.8927 11.5478 78.8931C12.2996 79.922 13.8484 79.5769 14.1532 78.3716C14.1534 78.3708 14.1536 78.37 14.1538 78.3692L15.4741 73.31L15.4743 73.309C15.5204 73.1308 15.6366 73.0141 15.7674 72.9722L15.777 72.9692L15.7865 72.9657L20.5435 71.2279L20.5435 71.228L20.5546 71.2237C21.6655 70.7877 21.8469 69.2054 20.8332 68.5193C20.8328 68.519 20.8324 68.5188 20.832 68.5185L16.6218 65.6472C16.4847 65.5484 16.3981 65.3934 16.391 65.2169L16.271 59.9819L16.271 59.9819L16.2709 59.979C16.2365 58.7786 14.848 58.0045 13.8621 58.8493L9.93634 62.1355L9.93511 62.1366C9.81576 62.2371 9.65554 62.2681 9.51171 62.2275L4.68759 60.7287L4.68759 60.7287L4.68477 60.7278C3.46409 60.3564 2.46702 61.5855 2.88034 62.7155C2.88036 62.7155 2.88038 62.7156 2.8804 62.7156C2.88042 62.7157 2.88044 62.7158 2.88046 62.7158L4.67021 67.6165L4.67015 67.6165L4.67316 67.6244C4.73173 67.7768 4.71157 67.9585 4.61416 68.1078L4.61504 68.1065L5.0318 68.3827L4.61356 68.1087L1.75621 72.4196ZM1.75621 72.4196L2.17277 72.6961L1.75602 72.4199L1.75621 72.4196Z" stroke="black"/>
</g>
<g filter="url(#filter1_d_277_859)">
<path d="M273.156 46.1893C267.63 41.5126 265.75 34.5057 264.743 32.6515C264.315 31.8474 263.275 31.7817 262.714 32.4874C262.104 33.2422 261.791 34.1611 261.428 35.0472C258.723 41.611 254.995 44.5976 253.494 46.0416C253.114 46.4026 252.718 47.7646 253.279 48.4046C254.879 50.2753 258.211 52.6054 261.098 60.2851C261.362 60.9743 261.626 61.6635 261.989 62.3035C262.5 63.1896 263.572 63.2388 264.183 62.4019C265.535 60.482 265.618 57.4298 270.137 52.1624C272.793 49.0446 275.383 48.06 273.156 46.1893Z" fill="#DF5537"/>
<path d="M260.631 60.4639L260.63 60.461C259.204 56.6677 257.674 54.2102 256.313 52.4751C255.631 51.6061 254.987 50.9133 254.411 50.318C254.263 50.1656 254.118 50.0178 253.977 49.874C253.576 49.4652 253.207 49.0887 252.901 48.7317C252.474 48.2417 252.456 47.5521 252.54 47.0377C252.585 46.7646 252.664 46.5008 252.762 46.2743C252.856 46.0576 252.984 45.8364 253.148 45.6803C253.148 45.68 253.149 45.6797 253.149 45.6794L253.494 46.0416C253.648 45.8927 253.827 45.7274 254.025 45.5435C255.753 43.9437 259.002 40.9342 261.428 35.0472L260.631 60.4639ZM260.631 60.4639L260.637 60.4793C260.897 61.158 261.172 61.877 261.554 62.5501L261.556 62.5534C261.888 63.1296 262.431 63.4714 263.026 63.4983C263.62 63.5252 264.194 63.2353 264.586 62.6965L264.587 62.6966L264.591 62.6899C264.962 62.1636 265.238 61.5713 265.509 60.9266C265.597 60.716 265.685 60.5009 265.776 60.2788C265.968 59.8073 266.173 59.304 266.427 58.7443C267.164 57.1217 268.29 55.0826 270.517 52.488L270.518 52.4866C271.165 51.7271 271.81 51.0952 272.389 50.537C272.444 50.4848 272.497 50.433 272.551 50.3816C273.058 49.8939 273.527 49.4435 273.867 49.022C274.24 48.5592 274.539 48.0359 274.496 47.4377C274.453 46.8341 274.075 46.3081 273.478 45.8069C270.787 43.5287 268.972 40.6733 267.702 38.138C267.067 36.8714 266.571 35.6896 266.168 34.7025C266.104 34.5459 266.042 34.3931 265.982 34.2447C265.671 33.4768 265.409 32.8298 265.184 32.4146C264.576 31.278 263.097 31.2048 262.324 32.1745C261.753 32.8819 261.418 33.7245 261.116 34.4813C261.065 34.6094 261.015 34.735 260.965 34.8571L260.631 60.4639Z" stroke="black"/>
</g>
<g filter="url(#filter2_d_277_859)">
<path d="M28.9419 145.283C24.5494 145.735 23.3841 146.294 24.4688 144.955C24.4598 144.946 24.4508 144.937 24.4419 144.928C25.4548 143.873 26.3602 143.013 26.7367 142.108C27.1132 141.212 26.0375 140.414 25.3204 140.955C24.155 141.842 22.8732 143.846 22.5236 143.713C22.174 143.58 22.3263 143.11 22.3263 142.782C22.2994 140.946 22.4428 139.829 22.2008 138.632C22.0215 137.727 20.5246 137.851 20.3363 138.641C20.157 139.403 20.2556 140.255 20.2018 144.183C20.1839 145.487 19.1261 144.503 17.6919 143.571C16.8761 143.039 15.6211 142.676 15.2177 143.554C14.8861 144.272 15.5315 144.716 16.1859 145.168C19.664 147.58 19.7357 146.897 14.7516 148.263C13.8372 148.511 12.7347 148.901 13.0574 149.815C13.3891 150.746 14.4558 150.356 16.6072 149.877C16.894 149.815 17.154 149.655 17.4408 149.62C18.0683 149.531 18.66 149.203 19.3144 149.292C19.4219 150.063 18.7407 150.471 18.4717 151.065C18.0415 152.023 17.2347 152.475 17.4588 153.566C17.5484 153.992 17.9877 154.258 18.3821 154.098C20.3273 153.309 20.7666 150.116 21.6002 151.89C22.667 154.178 22.8373 154.746 23.4738 155.606C24.0744 156.413 25.2307 155.881 25.0335 154.905C24.7198 153.282 23.0973 150.542 23.411 150.232C23.7427 149.912 26.665 152.493 27.7945 152.529C28.6102 152.555 28.9777 151.855 28.5923 151.252C28.0006 150.338 27.4897 150.161 25.1859 148.573C25.0066 148.449 24.7466 148.325 24.8453 148.05C24.9349 147.802 25.2128 147.784 25.4369 147.757C26.5664 147.589 29.1302 147.261 29.2467 147.225C30.3672 146.924 30.2148 145.159 28.9419 145.283Z" fill="#5AC4EC"/>
<path d="M28.8933 144.785L28.8933 144.785C29.3343 144.742 29.7225 144.863 30.012 145.114C30.2941 145.359 30.4466 145.697 30.4881 146.033C30.5699 146.696 30.2211 147.481 29.3766 147.708C29.3397 147.718 29.3012 147.725 29.2849 147.728L29.2821 147.728C29.2519 147.733 29.2141 147.739 29.1711 147.746C29.0846 147.759 28.9681 147.776 28.8304 147.795C28.5545 147.833 28.1866 147.883 27.7885 147.937L27.6673 147.953C26.9333 148.052 26.1202 148.162 25.585 148.241C26.0662 148.571 26.4747 148.844 26.8219 149.075C27.2384 149.353 27.5665 149.572 27.8257 149.761C28.3537 150.146 28.6761 150.461 29.0119 150.98L29.0136 150.982C29.2954 151.423 29.3269 151.952 29.0746 152.38C28.8209 152.811 28.3369 153.046 27.7788 153.028C27.7786 153.028 27.7784 153.028 27.7782 153.028L27.7945 152.529C27.1894 152.51 26.0698 151.76 25.1097 151.117C24.2775 150.56 23.565 150.084 23.411 150.232L28.8933 144.785ZM28.8933 144.785L28.8907 144.786M28.8933 144.785L28.8907 144.786M16.7145 150.365C16.715 150.365 16.7154 150.365 16.7158 150.365L16.6072 149.877L16.7145 150.365ZM16.7145 150.365C16.4687 150.42 16.2319 150.475 16.0053 150.528C15.2816 150.696 14.6621 150.84 14.1853 150.873C13.8625 150.896 13.5279 150.878 13.2323 150.735C12.9128 150.581 12.7051 150.316 12.5864 149.983L12.586 149.981C12.4688 149.65 12.4702 149.323 12.5977 149.025C12.7195 148.741 12.935 148.532 13.1554 148.379C13.5841 148.081 14.1668 147.904 14.6197 147.781C15.4671 147.548 16.1803 147.372 16.7448 147.233C17.0107 147.167 17.2436 147.11 17.4421 147.058C17.6274 147.01 17.7799 146.968 17.9042 146.93C17.8842 146.916 17.8631 146.901 17.8407 146.885C17.6564 146.754 17.4221 146.599 17.13 146.406C17.1043 146.389 17.0782 146.372 17.0516 146.355C16.726 146.139 16.3408 145.884 15.9014 145.579C15.8895 145.571 15.8774 145.562 15.8652 145.554C15.5639 145.346 15.1869 145.086 14.9386 144.769C14.8015 144.594 14.6846 144.38 14.6434 144.125C14.6015 143.864 14.6449 143.602 14.7638 143.344L15.2177 143.554L14.7634 143.345C14.9154 143.014 15.1602 142.783 15.461 142.653C15.7503 142.527 16.0627 142.507 16.351 142.536C16.9211 142.595 17.5146 142.859 17.9646 143.152C18.2056 143.309 18.442 143.471 18.6581 143.619C18.7665 143.693 18.8697 143.764 18.966 143.829C19.2692 144.033 19.5036 144.179 19.6822 144.259C19.6877 144.262 19.6931 144.264 19.6983 144.266C19.7001 144.241 19.7014 144.211 19.7019 144.177M16.7145 150.365L27.198 142.301C27.4868 141.613 27.206 140.959 26.7469 140.599C26.2954 140.246 25.5949 140.122 25.0193 140.556L25.0176 140.557C24.4103 141.02 23.789 141.746 23.3014 142.316C23.2794 142.341 23.2577 142.367 23.2363 142.392C23.0831 142.57 22.9457 142.73 22.8243 142.864C22.8256 142.837 22.8263 142.809 22.8263 142.782H22.8264L22.8263 142.775C22.8177 142.191 22.8264 141.695 22.8344 141.234C22.839 140.971 22.8434 140.719 22.8442 140.469C22.8465 139.799 22.8219 139.181 22.6911 138.534C22.5345 137.746 21.8077 137.479 21.2522 137.501C20.7151 137.523 20.0173 137.823 19.8499 138.525L19.8496 138.526C19.7453 138.97 19.7265 139.427 19.722 140.222C19.7207 140.458 19.7207 140.726 19.7207 141.037C19.7208 141.788 19.7209 142.787 19.7019 144.177M19.7019 144.177L20.2018 144.183L19.7019 144.177ZM28.8907 144.786C27.7844 144.9 26.8815 145.02 26.171 145.115C25.5967 145.192 25.1664 145.25 24.8517 145.277C24.8535 145.274 24.8554 145.272 24.8573 145.27L25.1171 144.949L28.8907 144.786ZM24.445 151.876C24.3099 151.567 24.1882 151.287 24.0908 151.045L23.4738 155.606C24.0744 156.413 25.2307 155.881 25.0335 154.905L25.5244 154.811C25.5243 154.81 25.5242 154.809 25.5241 154.809C25.3608 153.966 24.8825 152.874 24.4951 151.99C24.4782 151.952 24.4615 151.914 24.445 151.876ZM22.4332 143.244C22.4145 143.256 22.416 143.252 22.4334 143.244L22.4332 143.244ZM18.2007 147.18C18.2007 147.18 18.2001 147.179 18.1991 147.178C18.2003 147.179 18.2008 147.18 18.2007 147.18ZM18.2625 146.792C18.2641 146.791 18.2649 146.791 18.265 146.791C18.265 146.791 18.2643 146.791 18.2625 146.792ZM24.5793 145.67C24.5791 145.67 24.5798 145.668 24.5818 145.663C24.5805 145.668 24.5795 145.67 24.5793 145.67Z" stroke="black"/>
</g>
<g filter="url(#filter3_d_277_859)">
<g clip-path="url(#clip0_277_859)">
<path d="M235 1H47V189H235V1Z" fill="#FEDB63"/>
<path d="M153.157 1C145.052 1 136.947 1 128.843 1C108.695 28.7857 103.706 45.7875 101.395 58.1346C99.5163 70.3546 100.315 77.9164 101.757 83.8871C104.745 95.4091 108.984 100.464 112.596 104.323C119.97 111.419 125.502 112.439 129.608 113.111C137.724 113.845 141.324 111.241 143.844 109.441C148.431 105.3 148.323 101.829 148.071 99.7209C147.618 97.5484 146.661 96.3821 145.293 95.7346C143.963 95.0888 142.163 95.0383 141 95C143.616 95.6771 146.972 97.0019 146.664 101.369C146.363 103.479 145.561 106.919 139.774 109.723C136.577 110.867 132.493 112.301 124.21 108.985C119.967 106.771 115.011 104.057 109.755 93.6039C107.325 87.7951 105.214 80.9818 107.021 67.1081C109.766 53.3388 116.426 32.5091 153.157 1Z" fill="#DF5537"/>
<path d="M101.813 1C90.9453 1 80.0796 1 69.2121 1C66.2599 40.7516 72.1 62.9721 79.5591 79.725C87.2236 95.9766 96.507 106.76 105.15 112.066C122.613 123.139 134.659 120.147 140.713 117.08C153.252 109.855 151.816 102.01 151.323 98.7878C148.552 91.3392 143.803 93.4977 141 95.0017C143.843 94.3072 147.613 93.6039 149.542 98.5877C150.24 100.985 150.738 105.157 145.629 110.689C142.779 113.137 138.588 116.693 128.756 116.315C123.809 115.821 117.178 114.745 108.292 107.204C103.867 103.199 98.8848 97.7051 94.2544 86.2737C91.8627 80.4648 90.0662 72.8752 89.3926 61.0799C89.1053 48.9278 89.9426 32.5718 101.813 1Z" fill="#DF5537"/>
<path d="M47 23.2119C47 34.0794 47 44.9451 47 55.8125C55.9143 76.348 68.425 93.6197 80.088 104.686C91.8659 116.026 102.794 121.163 111.176 123.792C128.352 128.483 136.899 124.157 142.689 121.414C153.673 114.512 154.219 107.911 155.077 103.822C155.385 95.3082 151.636 92.9947 149.606 91.5638C144.704 89.327 142.535 92.516 141.002 94.9983C143.308 92.8276 147.322 89.4367 151.958 95.9871C152.818 97.6059 153.734 100.083 153.415 103.711C152.973 107.286 151.469 112.124 144.925 117.355C141.722 119.766 136.89 122.218 129.469 122.899C122.092 123.449 112.125 122.225 99.6261 114.263C87.2877 107.1 74.0703 90.7579 64.8617 72.4435C55.3869 54.2946 49.9227 34.1699 47 23.2119Z" fill="#DF5537"/>
<path d="M47 82.8428C47 90.9477 47 99.0526 47 107.157C74.7857 127.305 91.7875 132.294 104.135 134.605C116.355 136.484 123.916 135.685 129.887 134.243C141.409 131.255 146.464 127.016 150.323 123.404C157.419 116.03 158.439 110.5 159.111 106.393C159.845 98.2779 157.243 94.6781 155.441 92.1575C151.3 87.5706 147.829 87.6786 145.721 87.931C143.548 88.3836 142.382 89.341 141.735 90.7092C141.089 92.0391 141.038 93.839 141 95.0018C141.677 92.3855 143.002 89.0294 147.369 89.3375C149.479 89.6386 152.919 90.4411 155.723 96.2273C156.867 99.4251 158.301 103.509 154.985 111.791C152.771 116.035 150.057 120.991 139.604 126.246C133.795 128.676 126.982 130.788 113.108 128.981C99.3389 126.234 78.5091 119.574 47 82.8428Z" fill="#DF5537"/>
<path d="M47 134.187C47 145.055 47 155.921 47 166.788C86.7516 169.74 108.972 163.9 125.725 156.441C141.977 148.777 152.76 139.493 158.066 130.85C169.139 113.387 166.147 101.341 163.08 95.2871C155.855 82.7486 148.01 84.1847 144.788 84.6773C137.339 87.4486 139.496 92.1973 141.002 94.9999C140.307 92.1573 139.604 88.3868 144.588 86.4581C146.985 85.7601 151.157 85.2622 156.689 90.3713C159.137 93.2209 162.693 97.4126 162.315 107.244C161.821 112.191 160.745 118.822 153.204 127.708C149.199 132.133 143.705 137.115 132.274 141.746C126.465 144.138 118.875 145.934 107.08 146.608C94.9278 146.895 78.5718 146.056 47 134.187Z" fill="#DF5537"/>
<path d="M69.2119 189C80.0794 189 90.9451 189 101.813 189C122.348 180.086 139.62 167.575 150.686 155.912C162.026 144.134 167.163 133.206 169.794 124.824C174.485 107.648 170.159 99.101 167.416 93.3113C160.514 82.3272 153.913 81.7807 149.824 80.9225C141.31 80.6161 138.998 84.3639 137.566 86.3936C135.329 91.2955 138.518 93.4645 141 94.9981C138.829 92.6916 135.438 88.6775 141.989 84.0419C143.608 83.182 146.085 82.2663 149.712 82.5849C153.288 83.027 158.125 84.531 163.356 91.0745C165.767 94.2774 168.22 99.1097 168.901 106.531C169.451 113.908 168.227 123.875 160.265 136.374C153.102 148.712 136.76 161.93 118.445 171.138C100.295 180.611 80.1699 186.077 69.2119 189Z" fill="#DF5537"/>
<path d="M128.843 189C136.948 189 145.053 189 153.157 189C173.305 161.216 178.294 144.212 180.605 131.865C182.484 119.645 181.685 112.083 180.243 106.113C177.255 94.5907 173.016 89.5356 169.404 85.6764C162.03 78.5811 156.5 77.561 152.392 76.8891C144.276 76.1545 140.676 78.7587 138.156 80.5586C133.569 84.6998 133.677 88.1709 133.929 90.2789C134.382 92.4513 135.339 93.6176 136.707 94.2652C138.037 94.911 139.837 94.9615 141 94.9998C138.384 94.3226 135.028 92.9979 135.336 88.6304C135.637 86.5206 136.439 83.0809 142.226 80.2766C145.423 79.1329 149.507 77.6986 157.79 81.0147C162.033 83.2289 166.989 85.9427 172.245 96.3959C174.675 102.203 176.786 109.018 174.979 122.892C172.234 136.661 165.574 157.491 128.843 189Z" fill="#DF5537"/>
<path d="M180.187 189C191.055 189 201.921 189 212.788 189C215.74 149.248 209.9 127.028 202.441 110.273C194.777 94.0215 185.493 83.2377 176.85 77.9336C159.387 66.8608 147.341 69.8531 141.287 72.9203C128.749 80.1444 130.185 87.9899 130.677 91.212C133.449 98.6606 138.197 96.5021 141 94.9981C138.157 95.6927 134.387 96.3959 132.458 91.4122C131.76 89.0152 131.262 84.8426 136.371 79.3105C139.221 76.8631 143.413 73.3085 153.244 73.6845C158.191 74.1788 164.822 75.2546 173.708 82.7955C178.133 86.7992 183.115 92.2947 187.746 103.726C190.138 109.535 191.934 117.125 192.608 128.92C192.895 141.072 192.058 157.428 180.187 189Z" fill="#DF5537"/>
<path d="M235 166.788C235 155.921 235 145.055 235 134.188C226.086 113.652 213.575 96.3804 201.912 85.3128C190.134 73.9719 179.206 68.8349 170.824 66.2064C153.647 61.5151 145.102 65.8409 139.312 68.5843C128.328 75.4863 127.781 82.0872 126.923 86.1762C126.617 94.6902 130.364 97.0019 132.394 98.4345C137.296 100.671 139.465 97.4823 140.999 95C138.692 97.1707 134.678 100.562 130.042 94.0113C129.182 92.3924 128.267 89.9153 128.585 86.2876C129.028 82.7121 130.532 77.8746 137.077 72.6437C140.28 70.2328 145.112 67.7801 152.533 67.0994C159.91 66.5494 169.877 67.7731 182.376 75.7352C194.714 82.8984 207.932 99.2405 217.14 117.555C226.613 135.705 232.078 155.83 235 166.788Z" fill="#DF5537"/>
<path d="M235 107.157C235 99.0523 235 90.9475 235 82.8426C207.214 62.6952 190.212 57.7063 177.865 55.3946C165.645 53.5163 158.083 54.3153 152.113 55.7566C140.591 58.7455 135.536 62.9842 131.676 66.5962C124.581 73.97 123.561 79.5021 122.889 83.6085C122.153 91.7238 124.759 95.3237 126.559 97.8443C130.7 102.431 134.171 102.323 136.279 102.071C138.451 101.618 139.618 100.661 140.265 99.2926C140.911 97.9626 140.961 96.1627 141 94.9999C140.323 97.6162 138.998 100.972 134.63 100.664C132.521 100.363 129.081 99.5606 126.277 93.7744C125.133 90.5767 123.699 86.4929 127.015 78.2105C129.229 73.9665 131.943 69.0106 142.396 63.7553C148.205 61.3253 155.018 59.2137 168.892 61.0206C182.661 63.7658 203.491 70.4259 235 107.157Z" fill="#DF5537"/>
<path d="M235 55.8123C235 44.9448 235 34.0791 235 23.2117C195.249 20.2594 173.028 26.0995 156.273 33.5586C140.022 41.2231 129.238 50.5065 123.932 59.1493C112.859 76.6124 115.852 88.6583 118.919 94.7126C126.143 107.251 133.988 105.815 137.211 105.322C144.659 102.551 142.501 97.8024 140.997 94.9998C141.691 97.8424 142.394 101.613 137.411 103.542C135.014 104.24 130.841 104.738 125.309 99.6284C122.862 96.7788 119.305 92.5871 119.683 82.7554C120.177 77.8083 121.253 71.1778 128.794 62.2913C132.798 57.8663 138.293 52.8843 149.725 48.254C155.534 45.8622 163.123 44.0657 174.918 43.3921C187.072 43.1048 203.428 43.9421 235 55.8123Z" fill="#DF5537"/>
<path d="M212.788 1C201.921 1 191.055 1 180.188 1C159.652 9.91433 142.38 22.425 131.315 34.088C119.974 45.8659 114.837 56.7942 112.206 65.1759C107.515 82.3535 111.841 90.8988 114.584 96.6885C121.486 107.673 128.087 108.219 132.176 109.077C140.69 109.384 143.004 105.636 144.434 103.606C146.671 98.7043 143.482 96.5353 141 95.0017C143.171 97.3082 146.562 101.322 140.011 105.958C138.392 106.818 135.915 107.734 132.288 107.415C128.712 106.973 123.875 105.471 118.644 98.9254C116.233 95.7224 113.78 90.8901 113.099 83.4693C112.549 76.0921 113.773 66.1246 121.735 53.6261C128.898 41.2877 145.24 28.0703 163.555 18.8617C181.705 9.38689 201.83 3.9227 212.788 1Z" fill="#DF5537"/>
<g filter="url(#filter4_d_277_859)">
<mask id="path-22-outside-1_277_859" maskUnits="userSpaceOnUse" x="111" y="17" width="59" height="21" fill="black">
<rect fill="white" x="111" y="17" width="59" height="21"/>
<path d="M119.467 36.264C117.771 36.264 116.331 35.832 115.147 34.968C113.979 34.088 113.155 32.824 112.675 31.176L116.467 29.76C117.011 31.632 117.971 32.568 119.347 32.568C120.003 32.568 120.523 32.344 120.907 31.896C121.307 31.432 121.507 30.824 121.507 30.072V19.2H125.635V30.072C125.635 31.304 125.379 32.392 124.867 33.336C124.371 34.264 123.659 34.984 122.731 35.496C121.819 36.008 120.731 36.264 119.467 36.264ZM133.809 36.264C132.545 36.264 131.401 35.928 130.377 35.256C129.353 34.584 128.537 33.608 127.929 32.328C127.337 31.032 127.041 29.456 127.041 27.6C127.041 25.744 127.337 24.176 127.929 22.896C128.537 21.6 129.353 20.616 130.377 19.944C131.401 19.272 132.545 18.936 133.809 18.936C135.073 18.936 136.217 19.272 137.241 19.944C138.265 20.616 139.073 21.6 139.665 22.896C140.273 24.176 140.577 25.744 140.577 27.6C140.577 29.456 140.273 31.032 139.665 32.328C139.073 33.608 138.265 34.584 137.241 35.256C136.217 35.928 135.073 36.264 133.809 36.264ZM133.809 32.592C134.305 32.592 134.745 32.416 135.129 32.064C135.529 31.712 135.841 31.168 136.065 30.432C136.305 29.696 136.425 28.752 136.425 27.6C136.425 26.448 136.305 25.504 136.065 24.768C135.841 24.032 135.529 23.488 135.129 23.136C134.745 22.784 134.305 22.608 133.809 22.608C133.313 22.608 132.865 22.784 132.465 23.136C132.081 23.488 131.769 24.032 131.529 24.768C131.305 25.504 131.193 26.448 131.193 27.6C131.193 28.752 131.305 29.696 131.529 30.432C131.769 31.168 132.081 31.712 132.465 32.064C132.865 32.416 133.313 32.592 133.809 32.592ZM142.056 36V32.544H146.136V22.656H142.056V19.2H154.344V22.656H150.264V32.544H154.344V36H142.056ZM156.519 36V19.2H160.407L165.303 28.656L165.255 19.2H168.663V36H165.015L159.879 26.184L159.927 36H156.519Z"/>
</mask>
<path d="M119.467 36.264C117.771 36.264 116.331 35.832 115.147 34.968C113.979 34.088 113.155 32.824 112.675 31.176L116.467 29.76C117.011 31.632 117.971 32.568 119.347 32.568C120.003 32.568 120.523 32.344 120.907 31.896C121.307 31.432 121.507 30.824 121.507 30.072V19.2H125.635V30.072C125.635 31.304 125.379 32.392 124.867 33.336C124.371 34.264 123.659 34.984 122.731 35.496C121.819 36.008 120.731 36.264 119.467 36.264ZM133.809 36.264C132.545 36.264 131.401 35.928 130.377 35.256C129.353 34.584 128.537 33.608 127.929 32.328C127.337 31.032 127.041 29.456 127.041 27.6C127.041 25.744 127.337 24.176 127.929 22.896C128.537 21.6 129.353 20.616 130.377 19.944C131.401 19.272 132.545 18.936 133.809 18.936C135.073 18.936 136.217 19.272 137.241 19.944C138.265 20.616 139.073 21.6 139.665 22.896C140.273 24.176 140.577 25.744 140.577 27.6C140.577 29.456 140.273 31.032 139.665 32.328C139.073 33.608 138.265 34.584 137.241 35.256C136.217 35.928 135.073 36.264 133.809 36.264ZM133.809 32.592C134.305 32.592 134.745 32.416 135.129 32.064C135.529 31.712 135.841 31.168 136.065 30.432C136.305 29.696 136.425 28.752 136.425 27.6C136.425 26.448 136.305 25.504 136.065 24.768C135.841 24.032 135.529 23.488 135.129 23.136C134.745 22.784 134.305 22.608 133.809 22.608C133.313 22.608 132.865 22.784 132.465 23.136C132.081 23.488 131.769 24.032 131.529 24.768C131.305 25.504 131.193 26.448 131.193 27.6C131.193 28.752 131.305 29.696 131.529 30.432C131.769 31.168 132.081 31.712 132.465 32.064C132.865 32.416 133.313 32.592 133.809 32.592ZM142.056 36V32.544H146.136V22.656H142.056V19.2H154.344V22.656H150.264V32.544H154.344V36H142.056ZM156.519 36V19.2H160.407L165.303 28.656L165.255 19.2H168.663V36H165.015L159.879 26.184L159.927 36H156.519Z" fill="#FEDB63"/>
<path d="M115.147 34.968L114.545 35.7667L114.551 35.7713L114.557 35.7758L115.147 34.968ZM112.675 31.176L112.325 30.2392L111.455 30.564L111.715 31.4556L112.675 31.176ZM116.467 29.76L117.427 29.4809L117.126 28.4462L116.117 28.8232L116.467 29.76ZM120.907 31.896L120.149 31.2431L120.147 31.2452L120.907 31.896ZM121.507 19.2V18.2H120.507V19.2H121.507ZM125.635 19.2H126.635V18.2H125.635V19.2ZM124.867 33.336L123.988 32.8592L123.985 32.8646L124.867 33.336ZM122.731 35.496L122.248 34.6204L122.241 34.624L122.731 35.496ZM119.467 35.264C117.948 35.264 116.723 34.8804 115.736 34.1602L114.557 35.7758C115.938 36.7836 117.593 37.264 119.467 37.264V35.264ZM115.748 34.1693C114.781 33.4407 114.065 32.3745 113.635 30.8964L111.715 31.4556C112.244 33.2735 113.176 34.7353 114.545 35.7667L115.748 34.1693ZM113.025 32.1128L116.817 30.6968L116.117 28.8232L112.325 30.2392L113.025 32.1128ZM115.506 30.0391C115.806 31.0705 116.249 31.9509 116.897 32.582C117.569 33.2374 118.406 33.568 119.347 33.568V31.568C118.912 31.568 118.581 31.4306 118.293 31.15C117.98 30.8451 117.671 30.3215 117.427 29.4809L115.506 30.0391ZM119.347 33.568C120.258 33.568 121.069 33.2428 121.666 32.5468L120.147 31.2452C119.976 31.4452 119.747 31.568 119.347 31.568V33.568ZM121.664 32.5489C122.254 31.8646 122.507 31.007 122.507 30.072H120.507C120.507 30.641 120.359 30.9994 120.149 31.2431L121.664 32.5489ZM122.507 30.072V19.2H120.507V30.072H122.507ZM121.507 20.2H125.635V18.2H121.507V20.2ZM124.635 19.2V30.072H126.635V19.2H124.635ZM124.635 30.072C124.635 31.1622 124.409 32.0819 123.988 32.8592L125.746 33.8128C126.348 32.7021 126.635 31.4458 126.635 30.072H124.635ZM123.985 32.8646C123.581 33.6209 123.008 34.2011 122.248 34.6204L123.214 36.3716C124.31 35.7669 125.161 34.9071 125.749 33.8074L123.985 32.8646ZM122.241 34.624C121.507 35.0362 120.595 35.264 119.467 35.264V37.264C120.867 37.264 122.131 36.9798 123.22 36.368L122.241 34.624ZM130.377 35.256L129.829 36.092L130.377 35.256ZM127.929 32.328L127.02 32.7435L127.023 32.7503L127.026 32.7571L127.929 32.328ZM127.929 22.896L127.024 22.4713L127.022 22.4762L127.929 22.896ZM130.377 19.944L129.829 19.108L130.377 19.944ZM139.665 22.896L138.756 23.3115L138.759 23.3183L138.762 23.3251L139.665 22.896ZM139.665 32.328L138.76 31.9033L138.758 31.9082L139.665 32.328ZM137.241 35.256L137.79 36.092L137.241 35.256ZM135.129 32.064L134.469 31.3133L134.461 31.32L134.454 31.3268L135.129 32.064ZM136.065 30.432L135.115 30.122L135.112 30.1314L135.109 30.1408L136.065 30.432ZM136.065 24.768L135.109 25.0592L135.112 25.0686L135.115 25.078L136.065 24.768ZM135.129 23.136L134.454 23.8732L134.461 23.88L134.469 23.8867L135.129 23.136ZM132.465 23.136L131.805 22.3853L131.797 22.392L131.79 22.3988L132.465 23.136ZM131.529 24.768L130.579 24.458L130.576 24.4674L130.573 24.4768L131.529 24.768ZM131.529 30.432L130.573 30.7232L130.576 30.7326L130.579 30.742L131.529 30.432ZM132.465 32.064L131.79 32.8012L131.797 32.808L131.805 32.8147L132.465 32.064ZM133.809 35.264C132.734 35.264 131.782 34.9814 130.926 34.42L129.829 36.092C131.021 36.8746 132.357 37.264 133.809 37.264V35.264ZM130.926 34.42C130.078 33.8635 129.375 33.0398 128.833 31.8989L127.026 32.7571C127.7 34.1762 128.629 35.3045 129.829 36.092L130.926 34.42ZM128.839 31.9125C128.322 30.7801 128.041 29.3542 128.041 27.6H126.041C126.041 29.5578 126.353 31.2839 127.02 32.7435L128.839 31.9125ZM128.041 27.6C128.041 25.8452 128.322 24.4295 128.837 23.3158L127.022 22.4762C126.353 23.9225 126.041 25.6428 126.041 27.6H128.041ZM128.835 23.3207C129.378 22.1635 130.081 21.3345 130.926 20.78L129.829 19.108C128.626 19.8975 127.697 21.0365 127.024 22.4713L128.835 23.3207ZM130.926 20.78C131.782 20.2186 132.734 19.936 133.809 19.936V17.936C132.357 17.936 131.021 18.3254 129.829 19.108L130.926 20.78ZM133.809 19.936C134.885 19.936 135.837 20.2186 136.693 20.78L137.79 19.108C136.598 18.3254 135.262 17.936 133.809 17.936V19.936ZM136.693 20.78C137.535 21.3327 138.229 22.1584 138.756 23.3115L140.575 22.4805C139.918 21.0416 138.996 19.8993 137.79 19.108L136.693 20.78ZM138.762 23.3251C139.29 24.4362 139.577 25.8484 139.577 27.6H141.577C141.577 25.6396 141.257 23.9158 140.569 22.4669L138.762 23.3251ZM139.577 27.6C139.577 29.351 139.29 30.7735 138.76 31.9033L140.571 32.7527C141.257 31.2905 141.577 29.561 141.577 27.6H139.577ZM138.758 31.9082C138.232 33.0449 137.538 33.8652 136.693 34.42L137.79 36.092C138.993 35.3028 139.915 34.1711 140.573 32.7478L138.758 31.9082ZM136.693 34.42C135.837 34.9814 134.885 35.264 133.809 35.264V37.264C135.262 37.264 136.598 36.8746 137.79 36.092L136.693 34.42ZM133.809 33.592C134.569 33.592 135.247 33.3129 135.805 32.8012L134.454 31.3268C134.244 31.5191 134.042 31.592 133.809 31.592V33.592ZM135.79 32.8147C136.378 32.2971 136.767 31.5623 137.022 30.7232L135.109 30.1408C134.916 30.7737 134.681 31.1269 134.469 31.3133L135.79 32.8147ZM137.016 30.742C137.301 29.8698 137.425 28.8111 137.425 27.6H135.425C135.425 28.6929 135.31 29.5222 135.115 30.122L137.016 30.742ZM137.425 27.6C137.425 26.3889 137.301 25.3302 137.016 24.458L135.115 25.078C135.31 25.6778 135.425 26.5071 135.425 27.6H137.425ZM137.022 24.4768C136.767 23.6377 136.378 22.9029 135.79 22.3853L134.469 23.8867C134.681 24.0731 134.916 24.4263 135.109 25.0592L137.022 24.4768ZM135.805 22.3988C135.247 21.8871 134.569 21.608 133.809 21.608V23.608C134.042 23.608 134.244 23.6809 134.454 23.8732L135.805 22.3988ZM133.809 21.608C133.051 21.608 132.373 21.8856 131.805 22.3853L133.126 23.8867C133.358 23.6824 133.575 23.608 133.809 23.608V21.608ZM131.79 22.3988C131.232 22.9103 130.848 23.6321 130.579 24.458L132.48 25.078C132.691 24.4319 132.931 24.0657 133.141 23.8732L131.79 22.3988ZM130.573 24.4768C130.31 25.3416 130.193 26.3932 130.193 27.6H132.193C132.193 26.5027 132.301 25.6664 132.486 25.0592L130.573 24.4768ZM130.193 27.6C130.193 28.8067 130.31 29.8584 130.573 30.7232L132.486 30.1408C132.301 29.5336 132.193 28.6972 132.193 27.6H130.193ZM130.579 30.742C130.848 31.5679 131.232 32.2897 131.79 32.8012L133.141 31.3268C132.931 31.1343 132.691 30.7681 132.48 30.122L130.579 30.742ZM131.805 32.8147C132.373 33.3144 133.051 33.592 133.809 33.592V31.592C133.575 31.592 133.358 31.5176 133.126 31.3133L131.805 32.8147ZM142.056 36H141.056V37H142.056V36ZM142.056 32.544V31.544H141.056V32.544H142.056ZM146.136 32.544V33.544H147.136V32.544H146.136ZM146.136 22.656H147.136V21.656H146.136V22.656ZM142.056 22.656H141.056V23.656H142.056V22.656ZM142.056 19.2V18.2H141.056V19.2H142.056ZM154.344 19.2H155.344V18.2H154.344V19.2ZM154.344 22.656V23.656H155.344V22.656H154.344ZM150.264 22.656V21.656H149.264V22.656H150.264ZM150.264 32.544H149.264V33.544H150.264V32.544ZM154.344 32.544H155.344V31.544H154.344V32.544ZM154.344 36V37H155.344V36H154.344ZM143.056 36V32.544H141.056V36H143.056ZM142.056 33.544H146.136V31.544H142.056V33.544ZM147.136 32.544V22.656H145.136V32.544H147.136ZM146.136 21.656H142.056V23.656H146.136V21.656ZM143.056 22.656V19.2H141.056V22.656H143.056ZM142.056 20.2H154.344V18.2H142.056V20.2ZM153.344 19.2V22.656H155.344V19.2H153.344ZM154.344 21.656H150.264V23.656H154.344V21.656ZM149.264 22.656V32.544H151.264V22.656H149.264ZM150.264 33.544H154.344V31.544H150.264V33.544ZM153.344 32.544V36H155.344V32.544H153.344ZM154.344 35H142.056V37H154.344V35ZM156.519 36H155.519V37H156.519V36ZM156.519 19.2V18.2H155.519V19.2H156.519ZM160.407 19.2L161.295 18.7402L161.015 18.2H160.407V19.2ZM165.303 28.656L164.415 29.1158L166.303 28.6509L165.303 28.656ZM165.255 19.2V18.2H164.25L164.255 19.2051L165.255 19.2ZM168.663 19.2H169.663V18.2H168.663V19.2ZM168.663 36V37H169.663V36H168.663ZM165.015 36L164.129 36.4636L164.409 37H165.015V36ZM159.879 26.184L160.765 25.7204L158.879 26.1889L159.879 26.184ZM159.927 36V37H160.932L160.927 35.9951L159.927 36ZM157.519 36V19.2H155.519V36H157.519ZM156.519 20.2H160.407V18.2H156.519V20.2ZM159.519 19.6598L164.415 29.1158L166.191 28.1962L161.295 18.7402L159.519 19.6598ZM166.303 28.6509L166.255 19.1949L164.255 19.2051L164.303 28.6611L166.303 28.6509ZM165.255 20.2H168.663V18.2H165.255V20.2ZM167.663 19.2V36H169.663V19.2H167.663ZM168.663 35H165.015V37H168.663V35ZM165.901 35.5364L160.765 25.7204L158.993 26.6476L164.129 36.4636L165.901 35.5364ZM158.879 26.1889L158.927 36.0049L160.927 35.9951L160.879 26.1791L158.879 26.1889ZM159.927 35H156.519V37H159.927V35Z" fill="black" mask="url(#path-22-outside-1_277_859)"/>
</g>
<g filter="url(#filter5_d_277_859)">
<mask id="path-24-outside-2_277_859" maskUnits="userSpaceOnUse" x="118" y="151" width="45" height="19" fill="black">
<rect fill="white" x="118" y="151" width="45" height="19"/>
<path d="M119.438 169L124.262 152.2H128.966L133.79 169H129.686L128.846 165.712H124.238L123.374 169H119.438ZM125.078 162.52H128.03L126.566 156.784L125.078 162.52ZM135.173 169V152.2H141.581C142.781 152.2 143.821 152.44 144.701 152.92C145.597 153.4 146.285 154.056 146.765 154.888C147.261 155.72 147.509 156.672 147.509 157.744C147.509 158.752 147.261 159.664 146.765 160.48C146.285 161.296 145.597 161.944 144.701 162.424C143.821 162.904 142.781 163.144 141.581 163.144H139.301V169H135.173ZM139.301 159.832H140.861C141.693 159.832 142.309 159.632 142.709 159.232C143.125 158.816 143.333 158.312 143.333 157.72C143.333 157.112 143.125 156.608 142.709 156.208C142.309 155.808 141.693 155.608 140.861 155.608H139.301V159.832ZM149.563 169V152.2H155.971C157.171 152.2 158.211 152.44 159.091 152.92C159.987 153.4 160.675 154.056 161.155 154.888C161.651 155.72 161.899 156.672 161.899 157.744C161.899 158.752 161.651 159.664 161.155 160.48C160.675 161.296 159.987 161.944 159.091 162.424C158.211 162.904 157.171 163.144 155.971 163.144H153.691V169H149.563ZM153.691 159.832H155.251C156.083 159.832 156.699 159.632 157.099 159.232C157.515 158.816 157.723 158.312 157.723 157.72C157.723 157.112 157.515 156.608 157.099 156.208C156.699 155.808 156.083 155.608 155.251 155.608H153.691V159.832Z"/>
</mask>
<path d="M119.438 169L124.262 152.2H128.966L133.79 169H129.686L128.846 165.712H124.238L123.374 169H119.438ZM125.078 162.52H128.03L126.566 156.784L125.078 162.52ZM135.173 169V152.2H141.581C142.781 152.2 143.821 152.44 144.701 152.92C145.597 153.4 146.285 154.056 146.765 154.888C147.261 155.72 147.509 156.672 147.509 157.744C147.509 158.752 147.261 159.664 146.765 160.48C146.285 161.296 145.597 161.944 144.701 162.424C143.821 162.904 142.781 163.144 141.581 163.144H139.301V169H135.173ZM139.301 159.832H140.861C141.693 159.832 142.309 159.632 142.709 159.232C143.125 158.816 143.333 158.312 143.333 157.72C143.333 157.112 143.125 156.608 142.709 156.208C142.309 155.808 141.693 155.608 140.861 155.608H139.301V159.832ZM149.563 169V152.2H155.971C157.171 152.2 158.211 152.44 159.091 152.92C159.987 153.4 160.675 154.056 161.155 154.888C161.651 155.72 161.899 156.672 161.899 157.744C161.899 158.752 161.651 159.664 161.155 160.48C160.675 161.296 159.987 161.944 159.091 162.424C158.211 162.904 157.171 163.144 155.971 163.144H153.691V169H149.563ZM153.691 159.832H155.251C156.083 159.832 156.699 159.632 157.099 159.232C157.515 158.816 157.723 158.312 157.723 157.72C157.723 157.112 157.515 156.608 157.099 156.208C156.699 155.808 156.083 155.608 155.251 155.608H153.691V159.832Z" fill="#FEDB63"/>
<path d="M119.438 169L118.477 168.724L118.111 170H119.438V169ZM124.262 152.2V151.2H123.509L123.301 151.924L124.262 152.2ZM128.966 152.2L129.927 151.924L129.719 151.2H128.966V152.2ZM133.79 169V170H135.118L134.751 168.724L133.79 169ZM129.686 169L128.717 169.248L128.909 170H129.686V169ZM128.846 165.712L129.815 165.464L129.623 164.712H128.846V165.712ZM124.238 165.712V164.712H123.467L123.271 165.458L124.238 165.712ZM123.374 169V170H124.145L124.341 169.254L123.374 169ZM125.078 162.52L124.11 162.269L123.786 163.52H125.078V162.52ZM128.03 162.52V163.52H129.317L128.999 162.273L128.03 162.52ZM126.566 156.784L127.535 156.537L125.598 156.533L126.566 156.784ZM120.399 169.276L125.223 152.476L123.301 151.924L118.477 168.724L120.399 169.276ZM124.262 153.2H128.966V151.2H124.262V153.2ZM128.005 152.476L132.829 169.276L134.751 168.724L129.927 151.924L128.005 152.476ZM133.79 168H129.686V170H133.79V168ZM130.655 168.752L129.815 165.464L127.877 165.96L128.717 169.248L130.655 168.752ZM128.846 164.712H124.238V166.712H128.846V164.712ZM123.271 165.458L122.407 168.746L124.341 169.254L125.205 165.966L123.271 165.458ZM123.374 168H119.438V170H123.374V168ZM125.078 163.52H128.03V161.52H125.078V163.52ZM128.999 162.273L127.535 156.537L125.597 157.031L127.061 162.767L128.999 162.273ZM125.598 156.533L124.11 162.269L126.046 162.771L127.534 157.035L125.598 156.533ZM135.173 169H134.173V170H135.173V169ZM135.173 152.2V151.2H134.173V152.2H135.173ZM144.701 152.92L144.222 153.798L144.228 153.801L144.701 152.92ZM146.765 154.888L145.899 155.388L145.902 155.394L145.906 155.4L146.765 154.888ZM146.765 160.48L145.91 159.961L145.906 159.967L145.903 159.973L146.765 160.48ZM144.701 162.424L144.228 161.542L144.222 161.546L144.701 162.424ZM139.301 163.144V162.144H138.301V163.144H139.301ZM139.301 169V170H140.301V169H139.301ZM139.301 159.832H138.301V160.832H139.301V159.832ZM142.709 159.232L143.416 159.939V159.939L142.709 159.232ZM142.709 156.208L142.002 156.915L142.009 156.922L142.016 156.929L142.709 156.208ZM139.301 155.608V154.608H138.301V155.608H139.301ZM136.173 169V152.2H134.173V169H136.173ZM135.173 153.2H141.581V151.2H135.173V153.2ZM141.581 153.2C142.646 153.2 143.515 153.412 144.222 153.798L145.18 152.042C144.126 151.468 142.915 151.2 141.581 151.2V153.2ZM144.228 153.801C144.97 154.199 145.517 154.727 145.899 155.388L147.631 154.388C147.052 153.385 146.223 152.601 145.173 152.039L144.228 153.801ZM145.906 155.4C146.3 156.061 146.509 156.832 146.509 157.744H148.509C148.509 156.512 148.222 155.379 147.624 154.376L145.906 155.4ZM146.509 157.744C146.509 158.579 146.306 159.31 145.91 159.961L147.619 160.999C148.216 160.018 148.509 158.925 148.509 157.744H146.509ZM145.903 159.973C145.523 160.619 144.975 161.143 144.228 161.543L145.173 163.305C146.218 162.745 147.047 161.973 147.627 160.987L145.903 159.973ZM144.222 161.546C143.515 161.932 142.646 162.144 141.581 162.144V164.144C142.915 164.144 144.126 163.876 145.18 163.302L144.222 161.546ZM141.581 162.144H139.301V164.144H141.581V162.144ZM138.301 163.144V169H140.301V163.144H138.301ZM139.301 168H135.173V170H139.301V168ZM139.301 160.832H140.861V158.832H139.301V160.832ZM140.861 160.832C141.834 160.832 142.756 160.599 143.416 159.939L142.002 158.525C141.862 158.665 141.552 158.832 140.861 158.832V160.832ZM143.416 159.939C144.021 159.334 144.333 158.575 144.333 157.72H142.333C142.333 158.049 142.229 158.298 142.002 158.525L143.416 159.939ZM144.333 157.72C144.333 156.856 144.025 156.087 143.402 155.487L142.016 156.929C142.224 157.129 142.333 157.368 142.333 157.72H144.333ZM143.416 155.501C142.756 154.841 141.834 154.608 140.861 154.608V156.608C141.552 156.608 141.862 156.775 142.002 156.915L143.416 155.501ZM140.861 154.608H139.301V156.608H140.861V154.608ZM138.301 155.608V159.832H140.301V155.608H138.301ZM149.563 169H148.563V170H149.563V169ZM149.563 152.2V151.2H148.563V152.2H149.563ZM159.091 152.92L158.612 153.798L158.619 153.801L159.091 152.92ZM161.155 154.888L160.289 155.388L160.293 155.394L160.296 155.4L161.155 154.888ZM161.155 160.48L160.301 159.961L160.297 159.967L160.293 159.973L161.155 160.48ZM159.091 162.424L158.619 161.542L158.612 161.546L159.091 162.424ZM153.691 163.144V162.144H152.691V163.144H153.691ZM153.691 169V170H154.691V169H153.691ZM153.691 159.832H152.691V160.832H153.691V159.832ZM157.099 159.232L157.806 159.939V159.939L157.099 159.232ZM157.099 156.208L156.392 156.915L156.399 156.922L156.406 156.929L157.099 156.208ZM153.691 155.608V154.608H152.691V155.608H153.691ZM150.563 169V152.2H148.563V169H150.563ZM149.563 153.2H155.971V151.2H149.563V153.2ZM155.971 153.2C157.037 153.2 157.906 153.412 158.612 153.798L159.57 152.042C158.517 151.468 157.306 151.2 155.971 151.2V153.2ZM158.619 153.801C159.361 154.199 159.908 154.727 160.289 155.388L162.021 154.388C161.443 153.385 160.614 152.601 159.564 152.039L158.619 153.801ZM160.296 155.4C160.69 156.061 160.899 156.832 160.899 157.744H162.899C162.899 156.512 162.612 155.379 162.014 154.376L160.296 155.4ZM160.899 157.744C160.899 158.579 160.696 159.31 160.301 159.961L162.01 160.999C162.606 160.018 162.899 158.925 162.899 157.744H160.899ZM160.293 159.973C159.913 160.619 159.366 161.143 158.619 161.543L159.564 163.305C160.609 162.745 161.437 161.973 162.017 160.987L160.293 159.973ZM158.612 161.546C157.906 161.932 157.037 162.144 155.971 162.144V164.144C157.306 164.144 158.517 163.876 159.57 163.302L158.612 161.546ZM155.971 162.144H153.691V164.144H155.971V162.144ZM152.691 163.144V169H154.691V163.144H152.691ZM153.691 168H149.563V170H153.691V168ZM153.691 160.832H155.251V158.832H153.691V160.832ZM155.251 160.832C156.224 160.832 157.146 160.599 157.806 159.939L156.392 158.525C156.252 158.665 155.942 158.832 155.251 158.832V160.832ZM157.806 159.939C158.411 159.334 158.723 158.575 158.723 157.72H156.723C156.723 158.049 156.619 158.298 156.392 158.525L157.806 159.939ZM158.723 157.72C158.723 156.856 158.416 156.087 157.792 155.487L156.406 156.929C156.615 157.129 156.723 157.368 156.723 157.72H158.723ZM157.806 155.501C157.146 154.841 156.224 154.608 155.251 154.608V156.608C155.942 156.608 156.252 156.775 156.392 156.915L157.806 155.501ZM155.251 154.608H153.691V156.608H155.251V154.608ZM152.691 155.608V159.832H154.691V155.608H152.691Z" fill="black" mask="url(#path-24-outside-2_277_859)"/>
</g>
<g filter="url(#filter6_d_277_859)">
<path d="M99.4805 86.1381L99.4804 86.1381C96.8964 86.5957 94.398 86.6872 91.9511 86.3994C89.5144 86.1128 87.0354 85.5077 84.4866 84.5892L84.0097 84.4173L84.1881 83.9428C85.0609 81.6218 85.9678 79.3025 86.9107 76.9887L87.0904 76.5476L87.5397 76.7057C90.0378 77.5849 92.0874 78.1814 93.7362 78.4768C95.3736 78.7702 96.8976 78.7883 98.3331 78.5351C99.3711 78.3512 100.209 78.0695 100.87 77.6967C101.537 77.3177 102.003 76.8845 102.296 76.4032C102.584 75.9314 102.685 75.4362 102.601 74.8934C102.476 74.0904 102.103 73.5691 101.483 73.259C100.772 72.9038 99.8513 72.6637 98.7034 72.5634C97.532 72.4612 96.2414 72.4181 94.8365 72.4387C93.4038 72.4596 91.9578 72.431 90.4968 72.351L99.4805 86.1381ZM99.4805 86.1381C102.225 85.6515 104.559 84.8161 106.496 83.5782C108.43 82.3464 109.883 80.8165 110.83 78.9579L110.83 78.9577C111.777 77.0983 112.132 75.059 111.866 72.8465C111.643 70.9816 111.088 69.4431 110.154 68.2692L110.154 68.2689C109.24 67.1219 108.094 66.2679 106.72 65.7197L106.72 65.7195C105.384 65.1884 103.951 64.8307 102.421 64.6482L102.421 64.6482C100.912 64.4701 99.41 64.3838 97.919 64.3896L97.9184 64.3896C96.4532 64.3971 95.0975 64.3726 93.847 64.3145C92.6171 64.2574 91.6368 64.0813 90.8871 63.7967C90.2288 63.5462 89.8549 63.108 89.7197 62.4378C89.5786 61.7331 89.794 61.0572 90.4975 60.377M99.4805 86.1381L90.4975 60.377M90.4975 60.377C91.1964 59.7012 92.322 59.185 93.9331 58.8938C95.6825 58.5806 97.4198 58.5682 99.1306 58.8551C100.846 59.1446 102.596 59.7268 104.365 60.6104L104.788 60.8214L105.022 60.4115C106.271 58.2306 107.552 56.0593 108.871 53.8957L109.145 53.4448L108.68 53.195C106.626 52.0918 104.214 51.3562 101.465 51.0077L101.465 51.0077C98.7142 50.661 95.9025 50.7384 93.0633 51.244L93.0632 51.244C89.9326 51.8025 87.3127 52.7667 85.2461 54.1059C83.1804 55.4434 81.7191 57.0734 80.8923 58.9733L80.8922 58.9734C80.0626 60.8817 79.9379 62.9629 80.4615 65.1893L80.4615 65.1893M90.4975 60.377L80.4615 65.1893M80.4615 65.1893C80.8921 67.0195 81.6256 68.4653 82.6814 69.4861C83.7077 70.4784 84.9042 71.1835 86.2665 71.609C87.5983 72.025 89.0078 72.2696 90.4968 72.351L80.4615 65.1893Z" fill="#5AC4EC" stroke="black" stroke-miterlimit="10"/>
<path d="M115.956 83.2699L115.904 82.7725L112.423 49.5263L112.371 49.029L112.868 48.9769C117.745 48.4657 122.632 48.0852 127.526 47.8353L127.526 47.8353C130.332 47.6922 132.822 48.0949 134.954 49.0357L134.954 49.0359C137.076 49.975 138.729 51.3195 139.897 53.0519L139.897 53.0522C141.067 54.7908 141.632 56.7836 141.636 59.0057L115.956 83.2699ZM115.956 83.2699L116.454 83.2177M115.956 83.2699L116.454 83.2177M116.454 83.2177C119.205 82.9292 121.959 82.6897 124.714 82.4954L125.213 82.4603L125.178 81.9618C124.919 78.254 124.659 74.5462 124.398 70.8385M116.454 83.2177L124.398 70.8385M124.398 70.8385C125.83 70.7413 127.259 70.655 128.69 70.5824L128.69 70.5824C131.275 70.4509 133.528 69.8829 135.464 68.8393C137.388 67.8017 138.905 66.4398 139.993 64.727L139.993 64.7266C141.08 63.0131 141.64 61.1055 141.636 59.0057L124.398 70.8385ZM126.293 55.1948C128.147 55.0889 129.551 55.4272 130.49 56.1832L130.176 56.5723C129.372 55.9255 128.112 55.5917 126.321 55.694L126.321 55.694C125.33 55.7505 124.34 55.8125 123.35 55.8801C123.523 58.3425 123.696 60.8051 123.867 63.2677C124.826 63.2022 125.785 63.1432 126.743 63.0884L126.743 63.0884C128.477 62.9898 129.655 62.5448 130.387 61.8175C131.145 61.0634 131.497 60.1879 131.459 59.1554L131.459 59.155C131.421 58.0896 131.001 57.2378 130.177 56.5727L126.293 55.1948ZM126.293 55.1948C125.299 55.2514 124.307 55.3136 123.314 55.3814L126.293 55.1948Z" fill="#5AC4EC" stroke="black" stroke-miterlimit="10"/>
<path d="M144.2 81.4158L144.194 81.9155L144.693 81.922C152.914 82.0276 161.129 82.55 169.311 83.4948L169.807 83.5522L169.865 83.0554C169.996 81.9167 170.127 80.778 170.258 79.6395L170.258 79.6393C170.389 78.5007 170.519 77.3621 170.651 76.2236L170.708 75.7266L170.211 75.6696C167.573 75.3667 164.93 75.1041 162.285 74.8848L163.792 56.2707C166.647 56.5077 169.499 56.7902 172.348 57.1182L172.844 57.1754L172.902 56.6788C173.033 55.5407 173.164 54.4027 173.294 53.2648L173.295 53.2627C173.426 52.124 173.556 50.9855 173.688 49.847L173.745 49.3502L173.248 49.293C163.903 48.2157 154.518 47.6193 145.128 47.5L144.627 47.4937L144.621 47.9938C144.607 49.126 144.593 50.2669 144.578 51.4082C144.563 52.5643 144.548 53.7209 144.534 54.8691L144.528 55.369L145.028 55.3752C147.891 55.4109 150.754 55.492 153.613 55.6202C153.469 58.7287 153.324 61.8377 153.179 64.9466L153.179 64.9495C153.034 68.0578 152.889 71.1661 152.745 74.274C150.095 74.1564 147.444 74.0806 144.793 74.0468L144.293 74.0404L144.287 74.5405C144.273 75.6728 144.258 76.8137 144.244 77.9549C144.229 79.1111 144.214 80.2676 144.2 81.4158Z" fill="#5AC4EC" stroke="black" stroke-miterlimit="10"/>
<path d="M173.238 83.4724L173.172 83.9682L173.668 84.0342C175.933 84.336 178.194 84.6716 180.453 85.0394L180.949 85.1202L181.027 84.6237C181.941 78.8215 182.854 73.0177 183.763 67.2151C186.133 73.6373 188.265 80.0866 190.159 86.5499L190.243 86.8382L190.538 86.899C192.94 87.395 195.337 87.9287 197.727 88.4983L198.213 88.6142L198.329 88.1278C199.758 82.1341 201.186 76.1411 202.615 70.1483C203.771 65.3025 204.926 60.4568 206.081 55.6111L206.197 55.1247L205.711 55.0087C203.161 54.401 200.603 53.8292 198.039 53.2953L197.547 53.1928L197.447 53.6857C196.331 59.2005 195.212 64.7168 194.092 70.232C192.095 63.9836 189.881 57.7509 187.451 51.5482L187.348 51.284L187.068 51.2373C184.126 50.747 181.18 50.304 178.228 49.9102L177.732 49.844L177.666 50.3395L173.238 83.4724Z" fill="#5AC4EC" stroke="black" stroke-miterlimit="10"/>
<path d="M132.198 77.877L132.198 77.8781C132.22 78.1409 132.313 78.4047 132.495 78.6756L132.498 78.6799L132.498 78.6799C132.647 78.9073 132.872 79.1724 133.178 79.4819C133.652 79.2256 134.045 78.9946 134.356 78.7816C134.732 78.5233 134.983 78.2905 135.134 78.085C135.278 77.886 135.335 77.7062 135.336 77.5357C135.337 77.323 135.251 77.1297 134.971 76.9435C134.681 76.7498 134.284 76.6389 133.759 76.6586L132.198 77.877ZM132.198 77.877C132.167 77.5283 132.271 77.274 132.518 77.0635L132.198 77.877ZM133.91 91.6127L133.91 91.6126C134.829 91.5655 135.685 91.4276 136.498 91.1773L136.498 91.1772C137.182 90.9661 137.832 90.6791 138.455 90.3098C138.667 90.5142 138.888 90.7256 139.12 90.944C139.448 91.2538 139.793 91.5952 140.151 91.9719L140.464 92.3001L140.821 92.0219C141.693 91.3434 142.619 90.6997 143.595 90.0966L144.115 89.7747L143.696 89.3288C143.457 89.0753 143.177 88.7779 142.847 88.4384C142.752 88.3407 142.646 88.2296 142.527 88.1061C142.321 87.892 142.079 87.6404 141.8 87.3555C142.211 86.8636 142.615 86.3251 143.011 85.7385C143.504 85.0081 143.985 84.2024 144.451 83.318L144.724 82.7984L144.168 82.6113C142.854 82.1697 141.516 81.7892 140.154 81.4737L139.722 81.3736L139.571 81.7904C139.366 82.3581 139.144 82.8783 138.912 83.3532C138.777 83.6279 138.642 83.8872 138.506 84.1315C138.087 83.7514 137.681 83.3906 137.291 83.0479L137.29 83.0466C136.988 82.7836 136.702 82.5383 136.434 82.3102C137.206 81.9295 137.887 81.5675 138.463 81.21C139.211 80.7454 139.822 80.2419 140.25 79.6721C140.679 79.1022 140.944 78.4618 141.019 77.7512L141.019 77.7511C141.113 76.8484 140.848 76.0073 140.216 75.2643L140.216 75.2637C139.6 74.5419 138.726 73.9682 137.617 73.5565L137.616 73.5563C136.499 73.143 135.203 72.9491 133.77 73.0002L133.77 73.0002C132.283 73.0533 130.939 73.3626 129.784 73.8987L129.784 73.8989C128.635 74.4336 127.759 75.1298 127.186 75.9627L127.186 75.9632C126.603 76.8137 126.411 77.7319 126.587 78.6805L126.587 78.6807C126.725 79.4237 127.013 80.089 127.434 80.6756C127.759 81.1305 128.204 81.5931 128.742 82.0728C127.875 82.7949 127.26 83.5627 126.889 84.3502L126.889 84.3506C126.445 85.2956 126.366 86.2758 126.591 87.2634L126.591 87.2636C126.831 88.3119 127.34 89.1699 128.071 89.8486C128.792 90.5202 129.653 90.9839 130.643 91.2805C131.639 91.5787 132.716 91.6733 133.91 91.6127ZM132.176 87.3892L132.176 87.3889C131.757 87.1122 131.504 86.7181 131.434 86.1465C131.404 85.9018 131.448 85.649 131.595 85.3723L131.595 85.3723L131.596 85.3696C131.703 85.1666 131.876 84.946 132.131 84.7141C132.773 85.2152 133.385 85.7162 133.971 86.217C134.461 86.6354 134.927 87.0443 135.372 87.4424C135.251 87.4968 135.128 87.5452 135.003 87.5878C134.676 87.6991 134.341 87.7621 133.99 87.7771L133.989 87.7771C133.184 87.8121 132.607 87.6744 132.176 87.3892ZM132.519 77.0634C132.788 76.8347 133.186 76.6801 133.759 76.6586L132.519 77.0634Z" fill="#5AC4EC" stroke="black" stroke-miterlimit="10"/>
<path d="M90.577 142.998L90.7198 143.421L91.1564 143.327C94.2455 142.659 97.3458 142.054 100.452 141.513L100.868 141.44L100.866 141.017C100.827 133.533 100.904 126.038 101.098 118.536C103.551 125.624 105.892 132.739 108.121 139.88L108.247 140.285L108.667 140.226C111.788 139.795 114.915 139.425 118.047 139.118L118.492 139.074L118.498 138.626C118.689 123.872 119.182 109.107 119.977 94.3374L120.008 93.7682L119.439 93.812C115.907 94.0846 112.38 94.4235 108.856 94.8306L108.401 94.8832L108.414 95.3417C108.599 101.747 108.821 108.15 109.081 114.549C107.007 108.353 104.841 102.177 102.583 96.0244L102.444 95.6455L102.045 95.7015C99.1782 96.1028 96.3156 96.5496 93.4607 97.04L93.0607 97.1087L93.0457 97.5143C92.8009 104.145 92.6508 110.771 92.5956 117.389C90.8585 111.13 89.0825 104.88 87.2674 98.6385L87.1396 98.1991L86.6906 98.2876C83.0784 98.9994 79.4737 99.7832 75.8841 100.639L75.3282 100.771L75.5333 101.305C80.8451 115.113 85.8603 129.014 90.577 142.998Z" fill="#5AC4EC" stroke="black" stroke-miterlimit="10"/>
<path d="M125.66 137.994L125.691 138.493L126.19 138.461C136.973 137.779 147.793 137.835 158.574 138.637L159.073 138.674L159.11 138.175C159.317 135.351 159.526 132.528 159.735 129.704L159.777 129.145L159.814 128.647L159.315 128.61C155.751 128.348 152.183 128.161 148.612 128.053C148.731 123.842 148.85 119.633 148.969 115.425C149.085 111.336 149.201 107.247 149.317 103.158C153.264 103.277 157.212 103.482 161.152 103.773L161.65 103.81L161.687 103.311C161.798 101.814 161.909 100.317 162.019 98.8206L162.021 98.7962L162.022 98.7817C162.133 97.2817 162.243 95.7818 162.355 94.2815L162.391 93.7828L161.893 93.7459C149.064 92.7974 136.187 92.7293 123.351 93.5415L122.852 93.573L122.883 94.0718C123.072 97.0762 123.262 100.082 123.453 103.088L123.454 103.107L123.486 103.606L123.985 103.575C127.927 103.325 131.874 103.162 135.824 103.084L136.265 127.985C132.694 128.055 129.122 128.202 125.556 128.428L125.057 128.46L125.089 128.958C125.278 131.969 125.469 134.982 125.66 137.994Z" fill="#5AC4EC" stroke="black" stroke-miterlimit="10"/>
<path d="M163.864 138.581L163.815 139.078L164.313 139.127C167.298 139.421 170.278 139.772 173.252 140.18L173.75 140.248L173.815 139.75C174.856 131.871 175.892 123.99 176.925 116.11C180.44 124.699 183.514 133.355 186.148 142.04L186.235 142.328L186.53 142.386C189.691 143.005 192.844 143.687 195.984 144.436L196.47 144.552L196.586 144.066C198.294 136.903 200.001 129.739 201.709 122.576C203.403 115.468 205.097 108.36 206.792 101.253L206.907 100.767L206.421 100.651C202.93 99.8176 199.426 99.0527 195.912 98.356L195.418 98.2582L195.324 98.7521C193.886 106.238 192.445 113.724 191 121.209C188.153 112.788 184.903 104.404 181.248 96.0864L181.136 95.8318L180.861 95.7926C176.824 95.217 172.779 94.7305 168.725 94.331L168.228 94.282L168.179 94.7796L163.864 138.581Z" fill="#5AC4EC" stroke="black" stroke-miterlimit="10"/>
</g>
</g>
<rect x="46.5" y="0.5" width="189" height="189" rx="16.5" stroke="black" shape-rendering="crispEdges"/>
</g>
<defs>
<filter id="filter0_d_277_859" x="0.00488281" y="57.9873" width="21.9951" height="23.0151" filterUnits="userSpaceOnUse" color-interpolation-filters="sRGB">
<feFlood flood-opacity="0" result="BackgroundImageFix"/>
<feColorMatrix in="SourceAlpha" type="matrix" values="0 0 0 0 0 0 0 0 0 0 0 0 0 0 0 0 0 0 127 0" result="hardAlpha"/>
<feOffset dx="-1" dy="1"/>
<feComposite in2="hardAlpha" operator="out"/>
<feColorMatrix type="matrix" values="0 0 0 0 0 0 0 0 0 0 0 0 0 0 0 0 0 0 1 0"/>
<feBlend mode="normal" in2="BackgroundImageFix" result="effect1_dropShadow_277_859"/>
<feBlend mode="normal" in="SourceGraphic" in2="effect1_dropShadow_277_859" result="shape"/>
</filter>
<filter id="filter1_d_277_859" x="251" y="31.0005" width="23.9995" height="33.9995" filterUnits="userSpaceOnUse" color-interpolation-filters="sRGB">
<feFlood flood-opacity="0" result="BackgroundImageFix"/>
<feColorMatrix in="SourceAlpha" type="matrix" values="0 0 0 0 0 0 0 0 0 0 0 0 0 0 0 0 0 0 127 0" result="hardAlpha"/>
<feOffset dx="-1" dy="1"/>
<feComposite in2="hardAlpha" operator="out"/>
<feColorMatrix type="matrix" values="0 0 0 0 0 0 0 0 0 0 0 0 0 0 0 0 0 0 1 0"/>
<feBlend mode="normal" in2="BackgroundImageFix" result="effect1_dropShadow_277_859"/>
<feBlend mode="normal" in="SourceGraphic" in2="effect1_dropShadow_277_859" result="shape"/>
</filter>
<filter id="filter2_d_277_859" x="11" y="137" width="19.9995" height="20.9995" filterUnits="userSpaceOnUse" color-interpolation-filters="sRGB">
<feFlood flood-opacity="0" result="BackgroundImageFix"/>
<feColorMatrix in="SourceAlpha" type="matrix" values="0 0 0 0 0 0 0 0 0 0 0 0 0 0 0 0 0 0 127 0" result="hardAlpha"/>
<feOffset dx="-1" dy="1"/>
<feComposite in2="hardAlpha" operator="out"/>
<feColorMatrix type="matrix" values="0 0 0 0 0 0 0 0 0 0 0 0 0 0 0 0 0 0 1 0"/>
<feBlend mode="normal" in2="BackgroundImageFix" result="effect1_dropShadow_277_859"/>
<feBlend mode="normal" in="SourceGraphic" in2="effect1_dropShadow_277_859" result="shape"/>
</filter>
<filter id="filter3_d_277_859" x="43" y="0" width="193" height="193" filterUnits="userSpaceOnUse" color-interpolation-filters="sRGB">
<feFlood flood-opacity="0" result="BackgroundImageFix"/>
<feColorMatrix in="SourceAlpha" type="matrix" values="0 0 0 0 0 0 0 0 0 0 0 0 0 0 0 0 0 0 127 0" result="hardAlpha"/>
<feOffset dx="-3" dy="3"/>
<feComposite in2="hardAlpha" operator="out"/>
<feColorMatrix type="matrix" values="0 0 0 0 0 0 0 0 0 0 0 0 0 0 0 0 0 0 1 0"/>
<feBlend mode="normal" in2="BackgroundImageFix" result="effect1_dropShadow_277_859"/>
<feBlend mode="normal" in="SourceGraphic" in2="effect1_dropShadow_277_859" result="shape"/>
</filter>
<filter id="filter4_d_277_859" x="111.675" y="18.936" width="56.9878" height="18.3281" filterUnits="userSpaceOnUse" color-interpolation-filters="sRGB">
<feFlood flood-opacity="0" result="BackgroundImageFix"/>
<feColorMatrix in="SourceAlpha" type="matrix" values="0 0 0 0 0 0 0 0 0 0 0 0 0 0 0 0 0 0 127 0" result="hardAlpha"/>
<feOffset dx="-1" dy="1"/>
<feComposite in2="hardAlpha" operator="out"/>
<feColorMatrix type="matrix" values="0 0 0 0 0 0 0 0 0 0 0 0 0 0 0 0 0 0 1 0"/>
<feBlend mode="normal" in2="BackgroundImageFix" result="effect1_dropShadow_277_859"/>
<feBlend mode="normal" in="SourceGraphic" in2="effect1_dropShadow_277_859" result="shape"/>
</filter>
<filter id="filter5_d_277_859" x="118.438" y="152.2" width="43.4614" height="17.7998" filterUnits="userSpaceOnUse" color-interpolation-filters="sRGB">
<feFlood flood-opacity="0" result="BackgroundImageFix"/>
<feColorMatrix in="SourceAlpha" type="matrix" values="0 0 0 0 0 0 0 0 0 0 0 0 0 0 0 0 0 0 127 0" result="hardAlpha"/>
<feOffset dx="-1" dy="1"/>
<feComposite in2="hardAlpha" operator="out"/>
<feColorMatrix type="matrix" values="0 0 0 0 0 0 0 0 0 0 0 0 0 0 0 0 0 0 1 0"/>
<feBlend mode="normal" in2="BackgroundImageFix" result="effect1_dropShadow_277_859"/>
<feBlend mode="normal" in="SourceGraphic" in2="effect1_dropShadow_277_859" result="shape"/>
</filter>
<filter id="filter6_d_277_859" x="73.6562" y="46.9873" width="133.854" height="99.167" filterUnits="userSpaceOnUse" color-interpolation-filters="sRGB">
<feFlood flood-opacity="0" result="BackgroundImageFix"/>
<feColorMatrix in="SourceAlpha" type="matrix" values="0 0 0 0 0 0 0 0 0 0 0 0 0 0 0 0 0 0 127 0" result="hardAlpha"/>
<feOffset dx="-1" dy="1"/>
<feComposite in2="hardAlpha" operator="out"/>
<feColorMatrix type="matrix" values="0 0 0 0 0 0 0 0 0 0 0 0 0 0 0 0 0 0 1 0"/>
<feBlend mode="normal" in2="BackgroundImageFix" result="effect1_dropShadow_277_859"/>
<feBlend mode="normal" in="SourceGraphic" in2="effect1_dropShadow_277_859" result="shape"/>
</filter>
<clipPath id="clip0_277_859">
<rect x="47" y="1" width="188" height="188" rx="16" fill="white"/>
</clipPath>
</defs>
</svg>
