<svg width="80" height="80" viewBox="0 0 80 80" fill="none" xmlns="http://www.w3.org/2000/svg">
<path d="M72.5428 33.4733C71.4681 30.5831 68.8929 29.6703 66.0062 29.7703C64.4933 29.823 62.988 29.9519 61.4732 29.9429C60.7315 29.9392 59.9902 29.9111 59.2508 29.8509C59.0896 29.8382 58.9289 29.8238 58.768 29.8078C57.5074 29.6807 57.1466 29.52 57.994 28.3832C58.2942 27.9815 58.5849 27.5751 58.8543 27.1511C59.6084 25.9641 60.2216 24.6926 60.7153 23.3765C61.7094 20.7282 62.103 17.8131 61.7492 15.0021C61.4233 12.4207 60.4801 9.80989 58.5665 7.97224C56.7486 6.22601 54.1649 5.43879 51.6859 5.92443C49.2853 6.3944 47.7573 8.05577 47.4911 10.446C47.366 11.5618 47.4324 12.684 47.3877 13.8036C47.3422 14.9528 46.9585 16.0574 46.5545 17.1253C44.7931 21.7782 41.1948 25.5533 37.0206 28.1559C36.0891 28.7369 35.1221 29.2538 34.1371 29.7367C33.3646 27.2259 31.7639 25.7008 27.8945 25.3166C24.0273 24.9325 20.1342 25.006 16.2638 25.3029C13.7573 25.496 10.007 25.6064 8.29683 27.7729C7.32179 29.0078 7.45789 31.3758 7.33794 32.8611C7.09791 35.811 7.04813 38.7779 7.01972 41.7359C6.95004 48.8042 7.20755 55.9085 7.96162 62.9389C8.46717 67.6535 8.47858 72.0327 13.7015 73.392C17.7891 74.4548 27.7603 74.9932 31.9138 71.5808C37.3952 72.3524 42.8947 72.838 48.4369 72.7613C51.4261 72.7205 54.4111 72.5508 57.3923 72.3373C60.0728 72.1443 62.7106 71.8788 65.1241 70.6006C67.1288 69.5392 68.9983 67.8803 69.4844 65.5745C69.714 64.4837 69.6594 63.2762 69.0903 62.2902C68.5601 61.3735 68.9713 61.8178 70.0028 60.3624C71.4929 58.2581 71.6404 55.1816 70.4216 52.9199C69.8511 51.859 69.5859 51.8172 70.2134 51.0632C71.0561 50.0439 71.5844 48.8019 71.7837 47.4963C72.0038 46.0513 71.8126 44.6114 71.2217 43.2726C70.627 41.9234 70.3206 41.8333 71.1634 40.8924C72.9521 38.8878 73.4794 35.9916 72.5428 33.4733Z" fill="black"/>
<path d="M32.6725 41.2241C32.5914 38.3431 33.4597 28.9628 29.532 28.1769C24.6766 27.2051 17.9474 26.9125 12.9298 28.2376C11.1044 28.7208 9.7803 29.2758 9.6901 32.3627C9.62514 34.5575 9.62842 38.1633 9.60426 39.772C9.52692 44.9361 9.60183 50.1093 9.9045 55.2658C10.1615 59.6584 10.3489 64.2226 11.4169 68.5099C12.3384 72.2091 24.0748 72.5435 29.0232 70.3106C30.9287 69.4508 30.9629 68.7973 31.3233 67.0691C33.0566 58.7374 32.9068 49.6089 32.6725 41.2241ZM25.9096 62.1188C25.5824 64.8998 23.638 66.8395 20.7279 66.6484C19.1871 66.5474 17.9763 65.7359 17.2274 64.5778C16.0181 62.7079 16.082 60.3265 17.5836 58.5899C18.4875 57.5452 19.8449 56.9528 21.4929 57.0248C23.978 57.1325 26.206 59.6072 25.9096 62.1188Z" fill="#19A6DC"/>
<path d="M18.9353 61.6839C19.1383 58.834 23.2695 59.0039 23.3648 61.7849C23.4705 64.8766 18.9704 64.7675 18.9353 61.6839Z" fill="#5AC4EC"/>
<path d="M70.3517 37.0368C70.0923 38.2633 69.4133 38.9679 68.5662 39.8026C67.6139 40.7416 67.3929 42.0354 68.1607 43.1366C69.5616 45.1479 69.877 48.0196 67.8766 49.8146C66.9983 50.6013 66.1029 51.5082 66.9238 52.7456C67.1927 53.1501 67.6266 53.3768 67.9259 53.7548C68.3299 54.2637 68.5476 54.948 68.6349 55.584C68.7791 56.6354 68.5903 57.777 68.0421 58.6908C67.3923 59.7755 65.9226 60.1321 65.9027 61.5833C65.8885 62.629 66.7801 63.0422 67.0106 63.9446C67.2415 64.8467 66.7896 65.9137 66.219 66.6019C64.671 68.47 61.9891 69.3179 59.6756 69.5916C56.564 69.9601 53.3827 70.0663 50.2537 70.1603C45.4707 70.3035 40.7154 70.0625 35.9744 69.5343C33.8265 69.2947 33.5471 68.9638 33.9146 67.1815C36.0986 56.5502 35.7823 44.6113 34.8371 34.0126C34.6834 32.3015 35.4825 31.9581 36.5796 31.3653C40.2764 29.3644 43.5743 26.6696 46.0774 23.2669C47.4557 21.3936 48.5511 19.3121 49.2758 17.1016C50.1911 14.3092 49.9212 11.9052 50.0133 10.8344C50.0968 9.85543 50.3491 9.22665 51.2572 8.75898C52.1934 8.27711 53.3165 8.22454 54.329 8.46869C56.7497 9.0534 58.2084 11.1989 58.8543 13.4887C59.5372 15.9084 59.4409 18.513 58.8073 20.9317C58.464 22.2416 57.9707 23.5007 57.3267 24.6926C56.6798 25.8887 55.7437 26.877 55.066 28.0361C54.54 28.9357 54.5775 29.9986 55.1466 30.8598C55.822 31.8814 56.788 32.1266 57.9343 32.2732C60.7542 32.6331 63.5153 32.3675 66.3381 32.322C67.5778 32.3025 68.9342 32.3979 69.7176 33.4948C70.4143 34.4697 70.5941 35.8901 70.3517 37.0368Z" fill="white"/>
<path d="M18.4649 57.1949C16.0448 58.6689 15.4046 62.4682 17.2153 64.6692C17.3618 64.8466 17.5164 65.0059 17.6738 65.1549C17.5131 64.9732 17.3604 64.7835 17.2275 64.5777C16.0182 62.7077 16.0822 60.3264 17.5837 58.5898C18.4876 57.5451 19.845 56.9527 21.493 57.0247C23.9781 57.1324 26.2061 59.6071 25.9097 62.1187C25.7803 63.219 25.3947 64.1841 24.7991 64.9409C26.2973 63.6766 26.6449 61.4325 25.9605 59.5302C24.884 56.5363 20.9889 55.6574 18.4649 57.1949Z" fill="#A4DEF4"/>
<path d="M9.6901 32.3626C9.62514 34.5574 9.62842 38.1631 9.60426 39.7718C9.52692 44.9359 9.60183 50.1092 9.9045 55.2657C10.1615 59.6583 10.3489 64.2224 11.4169 68.5097C12.3384 72.209 24.0748 72.5433 29.0232 70.3105C30.9287 69.4507 30.9629 68.7971 31.3233 67.069C31.4831 66.2978 31.6121 65.5134 31.7415 64.7299C31.2639 65.5323 30.7006 66.285 30.0095 66.958C28.1561 68.762 25.1014 69.0466 22.6533 69.3469C20.4789 69.6143 18.2395 69.6172 16.1162 69.0339C12.6921 68.0929 11.8987 64.8035 11.5804 61.6848C10.9639 55.6547 10.5191 36.2543 10.483 33.1565C10.4631 31.398 10.4303 30.1976 11.3267 28.8228C10.3721 29.3563 9.7508 30.2859 9.6901 32.3626Z" fill="#A4DEF4"/>
<path d="M24.5757 31.4526C22.8128 31.077 20.8608 31.0765 19.4442 31.1869C17.7653 31.3178 14.9032 31.7318 14.3336 33.5231C13.2138 37.0392 13.7375 41.2748 14.1861 44.8592C14.5645 47.874 15.385 49.404 16.3871 50.2084C18.8798 52.2116 24.623 52.1708 26.8311 50.3071C27.6715 49.5985 28.2691 48.2389 28.5189 45.5204C28.8533 41.8871 29.0078 37.0777 28.8291 35.4164C28.6078 33.3501 27.7304 32.1256 24.5757 31.4526Z" fill="#5AC4EC"/>
<path d="M36.6653 46.7541C36.6909 43.0848 36.9276 38.2167 34.9063 34.8271C35.795 45.2209 36.0436 56.8202 33.9147 67.1813C33.5472 68.9635 33.8264 69.2945 35.9744 69.534C40.7155 70.0624 45.4709 70.3033 50.2537 70.16C53.3828 70.0662 56.5642 69.96 59.6756 69.5914C61.9891 69.3177 64.671 68.4698 66.219 66.6017C66.267 66.5437 66.3125 66.4798 66.358 66.4167C62.9794 68.3175 58.639 68.5514 54.8184 68.7155C51.361 68.8635 47.9128 68.9892 44.4531 68.825C40.9066 68.6566 36.6981 68.4727 36.184 64.1816C35.9355 62.1039 36.405 59.9494 36.4757 57.8703C36.6012 54.1683 36.6397 50.4586 36.6653 46.7541Z" fill="#D2D2CE"/>
<path d="M19.4265 62.1492C19.0855 61.564 19.188 60.9304 19.4489 60.3589C19.168 60.6885 18.9751 61.1262 18.9353 61.6839C18.9704 64.7675 23.4705 64.8766 23.3648 61.785C23.3459 61.2319 23.1633 60.7871 22.8877 60.4437C23.1181 60.8724 23.1248 61.3068 23.0015 61.822C22.8085 62.6283 22.0763 63.1622 21.2809 63.2428C20.5055 63.3207 19.7937 62.7814 19.4265 62.1492Z" fill="#19A6DC"/>
<path d="M58.1663 20.0539C57.2908 23.4813 52.821 26.9539 53.6485 30.7228C54.2001 33.2348 56.7313 33.5271 58.9379 33.5863C60.9578 33.6408 62.9705 33.5527 64.9899 33.5119C67.4053 33.4639 69.1506 33.9535 70.4149 35.4407C70.3333 34.7364 70.1109 34.045 69.7178 33.4949C68.9343 32.398 67.578 32.3027 66.3382 32.3221C63.5155 32.3676 60.7544 32.6333 57.9344 32.2733C56.7882 32.1267 55.8221 31.8815 55.1467 30.86C54.5776 29.9987 54.5402 28.9359 55.0661 28.0362C55.7438 26.8771 56.68 25.8887 57.3269 24.6927C57.971 23.501 58.4641 22.2417 58.8075 20.9318C59.4411 18.5131 59.5374 15.9085 58.8545 13.4888C58.2086 11.1992 56.7497 9.05364 54.3292 8.46881C54.1689 8.43044 54.0038 8.41235 53.8398 8.38965C57.8566 10.7201 59.3235 15.5218 58.1663 20.0539Z" fill="white"/>
</svg>
