<svg width="220" height="216" viewBox="0 0 220 216" fill="none" xmlns="http://www.w3.org/2000/svg">
<g filter="url(#filter0_d_141_662)">
<path d="M152 5.4569L152.224 5.56871L152.447 5.4569L161.357 1.00213C162.696 0.332465 164.272 0.33278 165.611 1.00213L176.87 6.63218L177.094 6.18497L176.87 6.63218C178.482 7.43787 179.5 9.08479 179.5 10.8864V168.524C179.5 170.326 178.482 171.973 176.871 172.779L165.611 178.409C164.272 179.078 162.696 179.078 161.357 178.409L152.448 173.954L152.224 173.842L152 173.954L143.091 178.409C141.752 179.078 140.176 179.078 138.837 178.409L129.928 173.954L129.704 173.842L129.48 173.954L120.571 178.409C119.232 179.078 117.656 179.078 116.317 178.409L107.408 173.954L107.184 173.842L106.961 173.954L98.0515 178.409C96.7121 179.078 95.1363 179.078 93.7976 178.409L84.8884 173.954L84.6648 173.842L84.4412 173.954L75.5316 178.409C74.1923 179.078 72.6164 179.078 71.2777 178.409L62.3685 173.954L62.1449 173.842L61.9213 173.954L53.0118 178.409C51.6724 179.078 50.0966 179.078 48.7579 178.409L37.4982 172.779C35.8867 171.972 34.8689 170.326 34.8689 168.524V10.8864C34.8689 9.08477 35.8867 7.43787 37.4981 6.63218L37.4981 6.63218L48.7578 1.00217C50.0972 0.332799 51.6727 0.332784 53.0121 1.00213C53.0121 1.00214 53.0122 1.00216 53.0122 1.00217L61.9213 5.4569L62.1449 5.56871L62.3685 5.4569L71.2776 1.00217C71.2777 1.00216 71.2777 1.00214 71.2777 1.00213C72.6171 0.3328 74.1926 0.332799 75.5319 1.00213C75.532 1.00214 75.532 1.00216 75.532 1.00217L84.4408 5.4569L84.6644 5.56871L84.888 5.4569L93.7971 1.00218C95.1365 0.332799 96.7121 0.332784 98.0514 1.00213C98.0515 1.00214 98.0515 1.00216 98.0515 1.00217L106.961 5.4569L107.184 5.56871L107.408 5.4569L116.317 1.00213C117.657 0.332466 119.233 0.332779 120.571 1.00213L129.48 5.4569L129.704 5.56871L129.927 5.4569L138.837 1.00213C140.176 0.332465 141.752 0.33278 143.091 1.00213L152 5.4569Z" fill="#3185FC" stroke="black"/>
<path d="M152.224 43.7892H62.1448C59.5182 43.7892 57.3887 41.6597 57.3887 39.033C57.3887 36.4064 59.5182 34.2769 62.1448 34.2769H152.224C154.85 34.2769 156.98 36.4064 156.98 39.033C156.98 41.6597 154.85 43.7892 152.224 43.7892Z" fill="#FEDB63" stroke="black"/>
</g>
<g filter="url(#filter1_d_141_662)">
<mask id="path-3-inside-1_141_662" fill="white">
<path d="M81.5361 98.2734C80.1803 98.2734 78.9442 98.0114 77.8276 97.4873C76.7111 96.9632 75.8224 96.1885 75.1616 95.1631C74.5122 94.1263 74.1875 92.856 74.1875 91.3521V83.8154H80.1348V90.9932C80.1348 91.5173 80.2373 91.9388 80.4424 92.2578C80.6589 92.5768 81.0007 92.7363 81.4678 92.7363C82.3678 92.7363 82.8179 92.1838 82.8179 91.0786V67.9219H88.8848V90.4805C88.8848 92.0755 88.5715 93.4598 87.9448 94.6333C87.3182 95.7954 86.4523 96.6955 85.3472 97.3335C84.242 97.9601 82.9717 98.2734 81.5361 98.2734ZM98.3867 98.2734C95.9827 98.2734 94.1427 97.55 92.8667 96.103C91.6021 94.6447 90.9697 92.5426 90.9697 89.7969V75.5098C90.9697 72.9349 91.5964 70.981 92.8496 69.6479C94.1143 68.3149 95.96 67.6484 98.3867 67.6484C100.813 67.6484 102.653 68.3149 103.907 69.6479C105.171 70.981 105.804 72.9349 105.804 75.5098V89.7969C105.804 92.5426 105.166 94.6447 103.89 96.103C102.625 97.55 100.791 98.2734 98.3867 98.2734ZM98.438 92.7363C99.3494 92.7363 99.8052 91.8534 99.8052 90.0874V75.4072C99.8052 73.9261 99.3608 73.1855 98.4722 73.1855C97.4696 73.1855 96.9683 73.9432 96.9683 75.4585V90.1216C96.9683 91.0558 97.0822 91.728 97.3101 92.1382C97.5379 92.5369 97.9139 92.7363 98.438 92.7363ZM107.957 98V67.9219H113.768V98H107.957ZM116.16 98V67.9219H122.347L125.115 82.3286V67.9219H130.926V98H125.047L122.039 82.9609V98H116.16ZM55.6621 143V112.922H61.6777V137.873H67.8643V143H55.6621ZM76.751 143.273C74.347 143.273 72.507 142.55 71.231 141.103C69.9663 139.645 69.334 137.543 69.334 134.797V120.51C69.334 117.935 69.9606 115.981 71.2139 114.648C72.4785 113.315 74.3242 112.648 76.751 112.648C79.1777 112.648 81.0177 113.315 82.271 114.648C83.5356 115.981 84.168 117.935 84.168 120.51V134.797C84.168 137.543 83.5299 139.645 82.2539 141.103C80.9893 142.55 79.1549 143.273 76.751 143.273ZM76.8022 137.736C77.7137 137.736 78.1694 136.853 78.1694 135.087V120.407C78.1694 118.926 77.7251 118.186 76.8364 118.186C75.8338 118.186 75.3325 118.943 75.3325 120.458V135.122C75.3325 136.056 75.4465 136.728 75.6743 137.138C75.9022 137.537 76.2782 137.736 76.8022 137.736ZM89.1753 143V118.698H85.6035V112.922H98.7627V118.698H95.1909V143H89.1753ZM103.018 143V118.698H99.4463V112.922H112.605V118.698H109.034V143H103.018ZM114.28 143V112.922H126.312V118.732H120.398V124.594H126.072V130.251H120.398V137.138H126.705V143H114.28ZM128.704 143V112.922H137.933C139.471 112.922 140.633 113.275 141.419 113.981C142.205 114.676 142.729 115.656 142.991 116.921C143.265 118.174 143.401 119.65 143.401 121.347C143.401 122.988 143.191 124.298 142.769 125.278C142.359 126.258 141.578 126.936 140.428 127.312C141.373 127.505 142.034 127.978 142.41 128.73C142.798 129.471 142.991 130.433 142.991 131.618V143H137.061V131.225C137.061 130.348 136.879 129.807 136.514 129.602C136.161 129.385 135.586 129.277 134.788 129.277V143H128.704ZM134.822 124.064H136.275C137.107 124.064 137.522 123.159 137.522 121.347C137.522 120.174 137.431 119.405 137.249 119.04C137.067 118.675 136.725 118.493 136.224 118.493H134.822V124.064ZM149.024 143V133.105L144.222 112.922H150.186L151.861 123.107L153.536 112.922H159.483L154.698 133.105V143H149.024Z"/>
</mask>
<path d="M81.5361 98.2734C80.1803 98.2734 78.9442 98.0114 77.8276 97.4873C76.7111 96.9632 75.8224 96.1885 75.1616 95.1631C74.5122 94.1263 74.1875 92.856 74.1875 91.3521V83.8154H80.1348V90.9932C80.1348 91.5173 80.2373 91.9388 80.4424 92.2578C80.6589 92.5768 81.0007 92.7363 81.4678 92.7363C82.3678 92.7363 82.8179 92.1838 82.8179 91.0786V67.9219H88.8848V90.4805C88.8848 92.0755 88.5715 93.4598 87.9448 94.6333C87.3182 95.7954 86.4523 96.6955 85.3472 97.3335C84.242 97.9601 82.9717 98.2734 81.5361 98.2734ZM98.3867 98.2734C95.9827 98.2734 94.1427 97.55 92.8667 96.103C91.6021 94.6447 90.9697 92.5426 90.9697 89.7969V75.5098C90.9697 72.9349 91.5964 70.981 92.8496 69.6479C94.1143 68.3149 95.96 67.6484 98.3867 67.6484C100.813 67.6484 102.653 68.3149 103.907 69.6479C105.171 70.981 105.804 72.9349 105.804 75.5098V89.7969C105.804 92.5426 105.166 94.6447 103.89 96.103C102.625 97.55 100.791 98.2734 98.3867 98.2734ZM98.438 92.7363C99.3494 92.7363 99.8052 91.8534 99.8052 90.0874V75.4072C99.8052 73.9261 99.3608 73.1855 98.4722 73.1855C97.4696 73.1855 96.9683 73.9432 96.9683 75.4585V90.1216C96.9683 91.0558 97.0822 91.728 97.3101 92.1382C97.5379 92.5369 97.9139 92.7363 98.438 92.7363ZM107.957 98V67.9219H113.768V98H107.957ZM116.16 98V67.9219H122.347L125.115 82.3286V67.9219H130.926V98H125.047L122.039 82.9609V98H116.16ZM55.6621 143V112.922H61.6777V137.873H67.8643V143H55.6621ZM76.751 143.273C74.347 143.273 72.507 142.55 71.231 141.103C69.9663 139.645 69.334 137.543 69.334 134.797V120.51C69.334 117.935 69.9606 115.981 71.2139 114.648C72.4785 113.315 74.3242 112.648 76.751 112.648C79.1777 112.648 81.0177 113.315 82.271 114.648C83.5356 115.981 84.168 117.935 84.168 120.51V134.797C84.168 137.543 83.5299 139.645 82.2539 141.103C80.9893 142.55 79.1549 143.273 76.751 143.273ZM76.8022 137.736C77.7137 137.736 78.1694 136.853 78.1694 135.087V120.407C78.1694 118.926 77.7251 118.186 76.8364 118.186C75.8338 118.186 75.3325 118.943 75.3325 120.458V135.122C75.3325 136.056 75.4465 136.728 75.6743 137.138C75.9022 137.537 76.2782 137.736 76.8022 137.736ZM89.1753 143V118.698H85.6035V112.922H98.7627V118.698H95.1909V143H89.1753ZM103.018 143V118.698H99.4463V112.922H112.605V118.698H109.034V143H103.018ZM114.28 143V112.922H126.312V118.732H120.398V124.594H126.072V130.251H120.398V137.138H126.705V143H114.28ZM128.704 143V112.922H137.933C139.471 112.922 140.633 113.275 141.419 113.981C142.205 114.676 142.729 115.656 142.991 116.921C143.265 118.174 143.401 119.65 143.401 121.347C143.401 122.988 143.191 124.298 142.769 125.278C142.359 126.258 141.578 126.936 140.428 127.312C141.373 127.505 142.034 127.978 142.41 128.73C142.798 129.471 142.991 130.433 142.991 131.618V143H137.061V131.225C137.061 130.348 136.879 129.807 136.514 129.602C136.161 129.385 135.586 129.277 134.788 129.277V143H128.704ZM134.822 124.064H136.275C137.107 124.064 137.522 123.159 137.522 121.347C137.522 120.174 137.431 119.405 137.249 119.04C137.067 118.675 136.725 118.493 136.224 118.493H134.822V124.064ZM149.024 143V133.105L144.222 112.922H150.186L151.861 123.107L153.536 112.922H159.483L154.698 133.105V143H149.024Z" fill="white"/>
<path d="M75.1616 95.1631L74.3141 95.694L74.3211 95.7048L75.1616 95.1631ZM74.1875 83.8154V82.8154H73.1875V83.8154H74.1875ZM80.1348 83.8154H81.1348V82.8154H80.1348V83.8154ZM80.4424 92.2578L79.6012 92.7986L79.6079 92.809L79.6149 92.8193L80.4424 92.2578ZM82.8179 67.9219V66.9219H81.8179V67.9219H82.8179ZM88.8848 67.9219H89.8848V66.9219H88.8848V67.9219ZM87.9448 94.6333L88.825 95.1079L88.8269 95.1043L87.9448 94.6333ZM85.3472 97.3335L85.8404 98.2034L85.8471 98.1995L85.3472 97.3335ZM81.5361 97.2734C80.3125 97.2734 79.2234 97.0378 78.2525 96.5821L77.4027 98.3925C78.6649 98.985 80.0482 99.2734 81.5361 99.2734V97.2734ZM78.2525 96.5821C77.3039 96.1368 76.5601 95.4871 76.0022 94.6214L74.3211 95.7048C75.0847 96.8898 76.1183 97.7896 77.4027 98.3925L78.2525 96.5821ZM76.0091 94.6323C75.48 93.7875 75.1875 92.7113 75.1875 91.3521H73.1875C73.1875 93.0006 73.5444 94.4651 74.3141 95.6939L76.0091 94.6323ZM75.1875 91.3521V83.8154H73.1875V91.3521H75.1875ZM74.1875 84.8154H80.1348V82.8154H74.1875V84.8154ZM79.1348 83.8154V90.9932H81.1348V83.8154H79.1348ZM79.1348 90.9932C79.1348 91.6384 79.2599 92.2677 79.6012 92.7986L81.2836 91.7171C81.2147 91.6099 81.1348 91.3961 81.1348 90.9932H79.1348ZM79.6149 92.8193C80.0584 93.4728 80.7493 93.7363 81.4678 93.7363V91.7363C81.3463 91.7363 81.2948 91.7156 81.284 91.7105C81.2809 91.7091 81.2795 91.7082 81.2792 91.708C81.279 91.7078 81.2789 91.7078 81.2789 91.7078C81.2789 91.7078 81.279 91.7079 81.279 91.7079C81.279 91.7079 81.279 91.7079 81.279 91.7079C81.279 91.7079 81.279 91.7079 81.2789 91.7078C81.2789 91.7078 81.2788 91.7077 81.2787 91.7076C81.2784 91.7073 81.2779 91.7068 81.2773 91.7061C81.2759 91.7046 81.2734 91.7015 81.2699 91.6963L79.6149 92.8193ZM81.4678 93.7363C82.1324 93.7363 82.7924 93.5223 83.2557 92.9534C83.6871 92.4237 83.8179 91.7412 83.8179 91.0786H81.8179C81.8179 91.5212 81.7236 91.6675 81.705 91.6904C81.7006 91.6958 81.6975 91.6999 81.6797 91.7072C81.6557 91.7171 81.5923 91.7363 81.4678 91.7363V93.7363ZM83.8179 91.0786V67.9219H81.8179V91.0786H83.8179ZM82.8179 68.9219H88.8848V66.9219H82.8179V68.9219ZM87.8848 67.9219V90.4805H89.8848V67.9219H87.8848ZM87.8848 90.4805C87.8848 91.9437 87.5979 93.1599 87.0627 94.1623L88.8269 95.1043C89.545 93.7597 89.8848 92.2073 89.8848 90.4805H87.8848ZM87.0646 94.1587C86.5228 95.1635 85.786 95.9255 84.8472 96.4675L85.8471 98.1995C87.1186 97.4655 88.1136 96.4273 88.825 95.1079L87.0646 94.1587ZM84.8539 96.4636C83.9179 96.9943 82.8217 97.2734 81.5361 97.2734V99.2734C83.1217 99.2734 84.5661 98.9259 85.8404 98.2034L84.8539 96.4636ZM92.8667 96.103L92.1112 96.7582L92.1167 96.7645L92.8667 96.103ZM92.8496 69.6479L92.1241 68.9597L92.121 68.963L92.8496 69.6479ZM103.907 69.6479L103.178 70.3329L103.181 70.3362L103.907 69.6479ZM103.89 96.103L103.137 95.4445L103.137 95.4449L103.89 96.103ZM97.3101 92.1382L96.4358 92.6239L96.4418 92.6343L97.3101 92.1382ZM98.3867 97.2734C96.1935 97.2734 94.6577 96.6221 93.6167 95.4416L92.1167 96.7645C93.6277 98.4779 95.772 99.2734 98.3867 99.2734V97.2734ZM93.6222 95.4479C92.5705 94.2351 91.9697 92.4024 91.9697 89.7969H89.9697C89.9697 92.6829 90.6336 95.0543 92.1112 96.7582L93.6222 95.4479ZM91.9697 89.7969V75.5098H89.9697V89.7969H91.9697ZM91.9697 75.5098C91.9697 73.0854 92.5594 71.4165 93.5782 70.3329L92.121 68.963C90.6333 70.5454 89.9697 72.7844 89.9697 75.5098H91.9697ZM93.5751 70.3362C94.5958 69.2603 96.1423 68.6484 98.3867 68.6484V66.6484C95.7776 66.6484 93.6327 67.3696 92.1241 68.9597L93.5751 70.3362ZM98.3867 68.6484C100.632 68.6484 102.17 69.2605 103.178 70.3329L104.635 68.963C103.137 67.3694 100.995 66.6484 98.3867 66.6484V68.6484ZM103.181 70.3362C104.209 71.4199 104.804 73.0876 104.804 75.5098H106.804C106.804 72.7822 106.133 70.542 104.632 68.9597L103.181 70.3362ZM104.804 75.5098V89.7969H106.804V75.5098H104.804ZM104.804 89.7969C104.804 92.4005 104.198 94.2318 103.137 95.4445L104.642 96.7615C106.133 95.0575 106.804 92.6848 106.804 89.7969H104.804ZM103.137 95.4449C102.108 96.622 100.58 97.2734 98.3867 97.2734V99.2734C101.001 99.2734 103.142 98.478 104.643 96.7611L103.137 95.4449ZM98.438 93.7363C98.8345 93.7363 99.2271 93.6378 99.5787 93.4108C99.9254 93.1868 100.176 92.8745 100.352 92.5327C100.69 91.8783 100.805 91.0239 100.805 90.0874H98.8052C98.8052 90.9168 98.6927 91.3869 98.5748 91.6155C98.5488 91.6658 98.5269 91.6955 98.513 91.7117C98.5061 91.7197 98.501 91.7246 98.4981 91.7272C98.4951 91.7298 98.4936 91.7307 98.4936 91.7307C98.4936 91.7307 98.494 91.7305 98.4944 91.7303C98.4949 91.7301 98.4941 91.7305 98.4917 91.7312C98.4872 91.7324 98.4708 91.7363 98.438 91.7363V93.7363ZM100.805 90.0874V75.4072H98.8052V90.0874H100.805ZM100.805 75.4072C100.805 74.5993 100.69 73.8271 100.329 73.2265C99.9202 72.5444 99.2553 72.1855 98.4722 72.1855V74.1855C98.5138 74.1855 98.5396 74.1899 98.553 74.1931C98.5597 74.1947 98.564 74.1961 98.5662 74.197C98.5684 74.1979 98.5694 74.1984 98.5697 74.1986C98.57 74.1987 98.5704 74.199 98.5713 74.1996C98.5721 74.2003 98.5742 74.2019 98.5774 74.2051C98.5836 74.2113 98.5968 74.2261 98.6144 74.2555C98.6984 74.3954 98.8052 74.734 98.8052 75.4072H100.805ZM98.4722 72.1855C97.6763 72.1855 96.9676 72.5107 96.5103 73.202C96.1008 73.8208 95.9683 74.6223 95.9683 75.4585H97.9683C97.9683 74.7794 98.0863 74.4444 98.1782 74.3056C98.2153 74.2496 98.2439 74.2309 98.2641 74.2207C98.2883 74.2085 98.3482 74.1855 98.4722 74.1855V72.1855ZM95.9683 75.4585V90.1216H97.9683V75.4585H95.9683ZM95.9683 90.1216C95.9683 91.0885 96.0777 91.9791 96.4359 92.6238L98.1842 91.6525C98.0866 91.4769 97.9683 91.0232 97.9683 90.1216H95.9683ZM96.4418 92.6343C96.876 93.3941 97.6159 93.7363 98.438 93.7363V91.7363C98.302 91.7363 98.2454 91.7108 98.2314 91.7033C98.2239 91.6994 98.2061 91.6906 98.1783 91.642L96.4418 92.6343ZM107.957 98H106.957V99H107.957V98ZM107.957 67.9219V66.9219H106.957V67.9219H107.957ZM113.768 67.9219H114.768V66.9219H113.768V67.9219ZM113.768 98V99H114.768V98H113.768ZM108.957 98V67.9219H106.957V98H108.957ZM107.957 68.9219H113.768V66.9219H107.957V68.9219ZM112.768 67.9219V98H114.768V67.9219H112.768ZM113.768 97H107.957V99H113.768V97ZM116.16 98H115.16V99H116.16V98ZM116.16 67.9219V66.9219H115.16V67.9219H116.16ZM122.347 67.9219L123.329 67.7332L123.173 66.9219H122.347V67.9219ZM125.115 82.3286L124.133 82.5173L126.115 82.3286H125.115ZM125.115 67.9219V66.9219H124.115V67.9219H125.115ZM130.926 67.9219H131.926V66.9219H130.926V67.9219ZM130.926 98V99H131.926V98H130.926ZM125.047 98L124.066 98.1961L124.227 99H125.047V98ZM122.039 82.9609L123.02 82.7648L121.039 82.9609H122.039ZM122.039 98V99H123.039V98H122.039ZM117.16 98V67.9219H115.16V98H117.16ZM116.16 68.9219H122.347V66.9219H116.16V68.9219ZM121.365 68.1106L124.133 82.5173L126.097 82.1399L123.329 67.7332L121.365 68.1106ZM126.115 82.3286V67.9219H124.115V82.3286H126.115ZM125.115 68.9219H130.926V66.9219H125.115V68.9219ZM129.926 67.9219V98H131.926V67.9219H129.926ZM130.926 97H125.047V99H130.926V97ZM126.027 97.8039L123.02 82.7648L121.058 83.1571L124.066 98.1961L126.027 97.8039ZM121.039 82.9609V98H123.039V82.9609H121.039ZM122.039 97H116.16V99H122.039V97ZM55.6621 143H54.6621V144H55.6621V143ZM55.6621 112.922V111.922H54.6621V112.922H55.6621ZM61.6777 112.922H62.6777V111.922H61.6777V112.922ZM61.6777 137.873H60.6777V138.873H61.6777V137.873ZM67.8643 137.873H68.8643V136.873H67.8643V137.873ZM67.8643 143V144H68.8643V143H67.8643ZM56.6621 143V112.922H54.6621V143H56.6621ZM55.6621 113.922H61.6777V111.922H55.6621V113.922ZM60.6777 112.922V137.873H62.6777V112.922H60.6777ZM61.6777 138.873H67.8643V136.873H61.6777V138.873ZM66.8643 137.873V143H68.8643V137.873H66.8643ZM67.8643 142H55.6621V144H67.8643V142ZM71.231 141.103L70.4754 141.758L70.4809 141.764L71.231 141.103ZM71.2139 114.648L70.4884 113.96L70.4853 113.963L71.2139 114.648ZM82.271 114.648L81.5424 115.333L81.5455 115.336L82.271 114.648ZM82.2539 141.103L81.5013 140.445L81.501 140.445L82.2539 141.103ZM75.6743 137.138L74.8001 137.624L74.8061 137.634L75.6743 137.138ZM76.751 142.273C74.5578 142.273 73.022 141.622 71.981 140.442L70.4809 141.764C71.992 143.478 74.1362 144.273 76.751 144.273V142.273ZM71.9865 140.448C70.9348 139.235 70.334 137.402 70.334 134.797H68.334C68.334 137.683 68.9978 140.054 70.4755 141.758L71.9865 140.448ZM70.334 134.797V120.51H68.334V134.797H70.334ZM70.334 120.51C70.334 118.085 70.9237 116.416 71.9424 115.333L70.4853 113.963C68.9975 115.545 68.334 117.784 68.334 120.51H70.334ZM71.9393 115.336C72.96 114.26 74.5066 113.648 76.751 113.648V111.648C74.1418 111.648 71.997 112.37 70.4884 113.96L71.9393 115.336ZM76.751 113.648C78.9959 113.648 80.5342 114.261 81.5424 115.333L82.9996 113.963C81.5013 112.369 79.3595 111.648 76.751 111.648V113.648ZM81.5455 115.336C82.5737 116.42 83.168 118.088 83.168 120.51H85.168C85.168 117.782 84.4976 115.542 82.9965 113.96L81.5455 115.336ZM83.168 120.51V134.797H85.168V120.51H83.168ZM83.168 134.797C83.168 137.4 82.5624 139.232 81.5013 140.445L83.0065 141.762C84.4975 140.058 85.168 137.685 85.168 134.797H83.168ZM81.501 140.445C80.4722 141.622 78.9446 142.273 76.751 142.273V144.273C79.3653 144.273 81.5063 143.478 83.0068 141.761L81.501 140.445ZM76.8022 138.736C77.1987 138.736 77.5914 138.638 77.9429 138.411C78.2897 138.187 78.5399 137.875 78.7163 137.533C79.054 136.878 79.1694 136.024 79.1694 135.087H77.1694C77.1694 135.917 77.057 136.387 76.939 136.615C76.913 136.666 76.8912 136.696 76.8773 136.712C76.8704 136.72 76.8653 136.725 76.8623 136.727C76.8594 136.73 76.8579 136.731 76.8579 136.731C76.8579 136.731 76.8583 136.73 76.8587 136.73C76.8591 136.73 76.8584 136.73 76.8559 136.731C76.8514 136.732 76.8351 136.736 76.8022 136.736V138.736ZM79.1694 135.087V120.407H77.1694V135.087H79.1694ZM79.1694 120.407C79.1694 119.599 79.0541 118.827 78.6937 118.226C78.2845 117.544 77.6195 117.186 76.8364 117.186V119.186C76.8781 119.186 76.9038 119.19 76.9172 119.193C76.924 119.195 76.9282 119.196 76.9305 119.197C76.9327 119.198 76.9337 119.198 76.934 119.199C76.9342 119.199 76.9347 119.199 76.9355 119.2C76.9364 119.2 76.9384 119.202 76.9416 119.205C76.9478 119.211 76.9611 119.226 76.9787 119.255C77.0626 119.395 77.1694 119.734 77.1694 120.407H79.1694ZM76.8364 117.186C76.0406 117.186 75.3319 117.511 74.8745 118.202C74.4651 118.821 74.3325 119.622 74.3325 120.458H76.3325C76.3325 119.779 76.4506 119.444 76.5425 119.306C76.5795 119.25 76.6082 119.231 76.6284 119.221C76.6526 119.208 76.7125 119.186 76.8364 119.186V117.186ZM74.3325 120.458V135.122H76.3325V120.458H74.3325ZM74.3325 135.122C74.3325 136.088 74.442 136.979 74.8002 137.624L76.5485 136.653C76.4509 136.477 76.3325 136.023 76.3325 135.122H74.3325ZM74.8061 137.634C75.2402 138.394 75.9802 138.736 76.8022 138.736V136.736C76.6663 136.736 76.6097 136.711 76.5957 136.703C76.5882 136.699 76.5703 136.691 76.5426 136.642L74.8061 137.634ZM89.1753 143H88.1753V144H89.1753V143ZM89.1753 118.698H90.1753V117.698H89.1753V118.698ZM85.6035 118.698H84.6035V119.698H85.6035V118.698ZM85.6035 112.922V111.922H84.6035V112.922H85.6035ZM98.7627 112.922H99.7627V111.922H98.7627V112.922ZM98.7627 118.698V119.698H99.7627V118.698H98.7627ZM95.1909 118.698V117.698H94.1909V118.698H95.1909ZM95.1909 143V144H96.1909V143H95.1909ZM90.1753 143V118.698H88.1753V143H90.1753ZM89.1753 117.698H85.6035V119.698H89.1753V117.698ZM86.6035 118.698V112.922H84.6035V118.698H86.6035ZM85.6035 113.922H98.7627V111.922H85.6035V113.922ZM97.7627 112.922V118.698H99.7627V112.922H97.7627ZM98.7627 117.698H95.1909V119.698H98.7627V117.698ZM94.1909 118.698V143H96.1909V118.698H94.1909ZM95.1909 142H89.1753V144H95.1909V142ZM103.018 143H102.018V144H103.018V143ZM103.018 118.698H104.018V117.698H103.018V118.698ZM99.4463 118.698H98.4463V119.698H99.4463V118.698ZM99.4463 112.922V111.922H98.4463V112.922H99.4463ZM112.605 112.922H113.605V111.922H112.605V112.922ZM112.605 118.698V119.698H113.605V118.698H112.605ZM109.034 118.698V117.698H108.034V118.698H109.034ZM109.034 143V144H110.034V143H109.034ZM104.018 143V118.698H102.018V143H104.018ZM103.018 117.698H99.4463V119.698H103.018V117.698ZM100.446 118.698V112.922H98.4463V118.698H100.446ZM99.4463 113.922H112.605V111.922H99.4463V113.922ZM111.605 112.922V118.698H113.605V112.922H111.605ZM112.605 117.698H109.034V119.698H112.605V117.698ZM108.034 118.698V143H110.034V118.698H108.034ZM109.034 142H103.018V144H109.034V142ZM114.28 143H113.28V144H114.28V143ZM114.28 112.922V111.922H113.28V112.922H114.28ZM126.312 112.922H127.312V111.922H126.312V112.922ZM126.312 118.732V119.732H127.312V118.732H126.312ZM120.398 118.732V117.732H119.398V118.732H120.398ZM120.398 124.594H119.398V125.594H120.398V124.594ZM126.072 124.594H127.072V123.594H126.072V124.594ZM126.072 130.251V131.251H127.072V130.251H126.072ZM120.398 130.251V129.251H119.398V130.251H120.398ZM120.398 137.138H119.398V138.138H120.398V137.138ZM126.705 137.138H127.705V136.138H126.705V137.138ZM126.705 143V144H127.705V143H126.705ZM115.28 143V112.922H113.28V143H115.28ZM114.28 113.922H126.312V111.922H114.28V113.922ZM125.312 112.922V118.732H127.312V112.922H125.312ZM126.312 117.732H120.398V119.732H126.312V117.732ZM119.398 118.732V124.594H121.398V118.732H119.398ZM120.398 125.594H126.072V123.594H120.398V125.594ZM125.072 124.594V130.251H127.072V124.594H125.072ZM126.072 129.251H120.398V131.251H126.072V129.251ZM119.398 130.251V137.138H121.398V130.251H119.398ZM120.398 138.138H126.705V136.138H120.398V138.138ZM125.705 137.138V143H127.705V137.138H125.705ZM126.705 142H114.28V144H126.705V142ZM128.704 143H127.704V144H128.704V143ZM128.704 112.922V111.922H127.704V112.922H128.704ZM141.419 113.981L140.751 114.725L140.757 114.731L141.419 113.981ZM142.991 116.921L142.012 117.124L142.014 117.134L142.991 116.921ZM142.769 125.278L141.85 124.883L141.847 124.892L142.769 125.278ZM140.428 127.312L140.117 126.361L136.528 127.534L140.227 128.291L140.428 127.312ZM142.41 128.73L141.516 129.177L141.52 129.185L141.524 129.193L142.41 128.73ZM142.991 143V144H143.991V143H142.991ZM137.061 143H136.061V144H137.061V143ZM136.514 129.602L135.992 130.454L136.008 130.464L136.024 130.473L136.514 129.602ZM134.788 129.277V128.277H133.788V129.277H134.788ZM134.788 143V144H135.788V143H134.788ZM134.822 124.064H133.822V125.064H134.822V124.064ZM134.822 118.493V117.493H133.822V118.493H134.822ZM129.704 143V112.922H127.704V143H129.704ZM128.704 113.922H137.933V111.922H128.704V113.922ZM137.933 113.922C139.335 113.922 140.216 114.245 140.751 114.725L142.087 113.238C141.049 112.305 139.607 111.922 137.933 111.922V113.922ZM140.757 114.731C141.347 115.252 141.783 116.021 142.012 117.124L143.97 116.718C143.675 115.292 143.064 114.101 142.081 113.232L140.757 114.731ZM142.014 117.134C142.268 118.299 142.401 119.7 142.401 121.347H144.401C144.401 119.599 144.261 118.049 143.968 116.708L142.014 117.134ZM142.401 121.347C142.401 122.918 142.197 124.076 141.85 124.883L143.688 125.673C144.184 124.52 144.401 123.058 144.401 121.347H142.401ZM141.847 124.892C141.565 125.564 141.035 126.061 140.117 126.361L140.738 128.262C142.122 127.81 143.153 126.951 143.691 125.664L141.847 124.892ZM140.227 128.291C140.922 128.434 141.298 128.743 141.516 129.177L143.305 128.283C142.77 127.213 141.824 126.577 140.628 126.332L140.227 128.291ZM141.524 129.193C141.812 129.744 141.991 130.531 141.991 131.618H143.991C143.991 130.335 143.783 129.197 143.296 128.266L141.524 129.193ZM141.991 131.618V143H143.991V131.618H141.991ZM142.991 142H137.061V144H142.991V142ZM138.061 143V131.225H136.061V143H138.061ZM138.061 131.225C138.061 130.73 138.011 130.255 137.872 129.842C137.731 129.423 137.47 128.992 137.004 128.73L136.024 130.473C135.923 130.416 135.935 130.358 135.977 130.48C136.02 130.609 136.061 130.843 136.061 131.225H138.061ZM137.037 128.749C136.438 128.382 135.628 128.277 134.788 128.277V130.277C135.544 130.277 135.884 130.388 135.992 130.454L137.037 128.749ZM133.788 129.277V143H135.788V129.277H133.788ZM134.788 142H128.704V144H134.788V142ZM134.822 125.064H136.275V123.064H134.822V125.064ZM136.275 125.064C136.676 125.064 137.068 124.951 137.408 124.704C137.738 124.464 137.964 124.14 138.119 123.802C138.418 123.151 138.522 122.298 138.522 121.347H136.522C136.522 122.208 136.419 122.713 136.302 122.968C136.249 123.083 136.215 123.098 136.233 123.085C136.262 123.065 136.289 123.064 136.275 123.064V125.064ZM138.522 121.347C138.522 120.739 138.499 120.211 138.447 119.773C138.398 119.357 138.314 118.934 138.143 118.593L136.355 119.487C136.354 119.486 136.359 119.495 136.367 119.52C136.375 119.544 136.385 119.578 136.397 119.624C136.419 119.717 136.442 119.843 136.461 120.008C136.5 120.339 136.522 120.782 136.522 121.347H138.522ZM138.143 118.593C137.749 117.805 136.999 117.493 136.224 117.493V119.493C136.357 119.493 136.396 119.518 136.385 119.512C136.38 119.509 136.37 119.502 136.36 119.493C136.351 119.483 136.35 119.479 136.355 119.487L138.143 118.593ZM136.224 117.493H134.822V119.493H136.224V117.493ZM133.822 118.493V124.064H135.822V118.493H133.822ZM149.024 143H148.024V144H149.024V143ZM149.024 133.105H150.024V132.988L149.997 132.874L149.024 133.105ZM144.222 112.922V111.922H142.956L143.249 113.153L144.222 112.922ZM150.186 112.922L151.173 112.76L151.035 111.922H150.186V112.922ZM151.861 123.107L150.874 123.27H152.848L151.861 123.107ZM153.536 112.922V111.922H152.687L152.549 112.76L153.536 112.922ZM159.483 112.922L160.456 113.153L160.748 111.922H159.483V112.922ZM154.698 133.105L153.725 132.874L153.698 132.988V133.105H154.698ZM154.698 143V144H155.698V143H154.698ZM150.024 143V133.105H148.024V143H150.024ZM149.997 132.874L145.195 112.69L143.249 113.153L148.051 133.336L149.997 132.874ZM144.222 113.922H150.186V111.922H144.222V113.922ZM149.199 113.084L150.874 123.27L152.848 122.945L151.173 112.76L149.199 113.084ZM152.848 123.27L154.522 113.084L152.549 112.76L150.874 122.945L152.848 123.27ZM153.536 113.922H159.483V111.922H153.536V113.922ZM158.51 112.691L153.725 132.874L155.671 133.336L160.456 113.153L158.51 112.691ZM153.698 133.105V143H155.698V133.105H153.698ZM154.698 142H149.024V144H154.698V142Z" fill="black" mask="url(#path-3-inside-1_141_662)"/>
</g>
<path d="M0.756214 103.42C0.0950809 104.416 0.796079 105.854 2.04891 105.796L2.04891 105.796L2.05168 105.796L7.08096 105.533C7.22882 105.529 7.37709 105.594 7.48961 105.737L10.5471 109.892C10.5473 109.892 10.5476 109.893 10.5478 109.893C11.2996 110.922 12.8484 110.577 13.1532 109.372C13.1534 109.371 13.1536 109.37 13.1538 109.369L14.4741 104.31L14.4743 104.309C14.5204 104.131 14.6366 104.014 14.7674 103.972L14.777 103.969L14.7865 103.966L19.5435 102.228L19.5435 102.228L19.5546 102.224C20.6655 101.788 20.8469 100.205 19.8332 99.5193C19.8328 99.519 19.8324 99.5188 19.832 99.5185L15.6218 96.6472C15.4847 96.5484 15.3981 96.3934 15.391 96.2169L15.271 90.9819L15.271 90.9819L15.2709 90.979C15.2365 89.7786 13.848 89.0045 12.8621 89.8493L8.93634 93.1355L8.93511 93.1366C8.81576 93.2371 8.65554 93.2681 8.51171 93.2275L3.68759 91.7287L3.68759 91.7287L3.68477 91.7278C2.46409 91.3564 1.46702 92.5855 1.88034 93.7155C1.88036 93.7155 1.88038 93.7156 1.8804 93.7156C1.88042 93.7157 1.88044 93.7158 1.88046 93.7158L3.67021 98.6165L3.67015 98.6165L3.67316 98.6244C3.73173 98.7768 3.71157 98.9585 3.61416 99.1078L3.61504 99.1065L4.0318 99.3827L3.61356 99.1087L0.756214 103.42ZM0.756214 103.42L1.17277 103.696L0.756019 103.42L0.756214 103.42Z" fill="#3185FC" stroke="black"/>
<path d="M60.6975 60.4256L60.454 60.7407C60.3933 60.8193 60.3414 60.8891 60.2973 60.9512C60.7054 60.9213 61.3184 60.8224 62.194 60.681L62.2071 60.6789C63.0873 60.5368 64.2039 60.3572 65.5725 60.1794C66.0216 60.1196 66.4415 60.2017 66.7825 60.4373C67.1222 60.6718 67.3355 61.0254 67.4346 61.4211L67.4369 61.4302L67.4368 61.4302C67.5493 61.9181 67.5118 62.3488 67.3209 62.7082C67.133 63.0622 66.831 63.2816 66.5391 63.4193C66.082 63.6349 65.5175 63.6981 65.2393 63.7292C65.1857 63.7352 65.1428 63.74 65.1133 63.7445C64.4935 63.8453 63.9471 63.9287 63.4673 64.002C62.8674 64.0936 62.3716 64.1692 61.9668 64.2431C61.6904 64.2936 61.4763 64.3399 61.3153 64.3848C61.3873 64.4423 61.4776 64.5096 61.5895 64.5877C62.0245 64.8915 62.6765 65.2861 63.5665 65.8247C63.7414 65.9305 63.9254 66.0419 64.1188 66.1592L63.8595 66.5867L64.1188 66.1592C64.9486 66.6627 65.5148 67.2023 65.8322 67.7348C66.1484 68.2656 66.2427 68.8448 65.997 69.3359C65.7496 69.8302 65.2366 70.0778 64.68 70.1072C64.1233 70.1367 63.4777 69.9585 62.8125 69.5661L60.6975 60.4256ZM60.6975 60.4256C60.7455 60.3742 60.7941 60.3223 60.8431 60.27C61.5151 59.5526 62.2643 58.7528 62.7544 58.0075C63.0554 57.5498 63.303 57.0499 63.346 56.5519C63.393 56.008 63.191 55.509 62.6966 55.1378L62.6961 55.1374C62.3835 54.9034 62.0529 54.7697 61.7038 54.7615C61.3573 54.7534 61.0501 54.8703 60.7852 55.0338C60.3275 55.3165 59.898 55.8075 59.5012 56.2613C59.4659 56.3017 59.4308 56.3418 59.3961 56.3814C59.2566 56.539 59.07 56.7719 58.8741 57.0163L58.8723 57.0185L58.8671 57.0251C58.6675 57.2741 58.452 57.543 58.2428 57.7899C58.0896 57.9708 57.9464 58.1318 57.821 58.2604C57.8207 58.2424 57.8205 58.2237 57.8202 58.2042C57.8187 58.0719 57.8191 57.9121 57.8196 57.7198C57.8213 57.0636 57.824 56.0294 57.7549 54.422L57.7548 54.4209C57.7283 53.8315 57.6881 53.0945 57.4664 52.5268C57.3518 52.2334 57.172 51.9387 56.8782 51.7376C56.5739 51.5294 56.2071 51.4623 55.8038 51.5198L55.8036 51.5198C55.3808 51.5802 54.9388 51.6758 54.6185 52.0002C54.2949 52.3279 54.1874 52.792 54.1437 53.3269C54.0991 53.8735 54.1147 54.6215 54.1459 55.6276C54.1517 55.8162 54.1582 56.0148 54.1649 56.2239C54.1947 57.1419 54.231 58.2633 54.2532 59.6424L54.2532 59.6429C54.2554 59.7742 54.2463 59.8573 54.2368 59.9075M60.6975 60.4256L49.5337 61.3898M61.0356 70.8157C60.6814 70.0106 60.3546 69.311 60.0902 68.745C59.9397 68.4228 59.8094 68.1438 59.7057 67.9133C59.6669 67.8269 59.6317 67.7472 59.6001 67.6737C59.6631 67.7077 59.7312 67.7452 59.8046 67.7863C60.1882 68.0014 60.6735 68.2918 61.2843 68.6572C61.7253 68.9211 62.2316 69.224 62.8124 69.5661L60.5825 71.0273C61.087 72.1718 61.614 73.3671 60.5779 73.886C59.6071 74.3664 58.9098 73.2321 58.4039 72.2847C57.0161 69.6354 56.6276 68.418 56.1808 68.3962C55.8264 68.3789 55.4352 69.1138 54.4796 70.4832M61.0356 70.8157L60.5779 71.017L61.0355 70.8153C61.0355 70.8154 61.0356 70.8155 61.0356 70.8157ZM61.0356 70.8157C61.0426 70.8316 61.0497 70.8477 61.0568 70.8638C61.2956 71.4049 61.5774 72.0438 61.6531 72.6217C61.6935 72.9299 61.6825 73.2638 61.5463 73.5783C61.4054 73.9036 61.1524 74.1575 60.8018 74.3331L60.7997 74.3341C60.4569 74.5038 60.109 74.5412 59.7761 74.4561C59.4558 74.3743 59.1887 74.1896 58.9717 73.9828C58.5471 73.5783 58.2133 72.9893 57.9628 72.5202L57.9609 72.5167L57.9609 72.5167C57.5137 71.6628 57.1663 70.9502 56.8916 70.3867C56.7826 70.1631 56.685 69.9629 56.5972 69.7868C56.4396 69.4708 56.3176 69.2402 56.215 69.0769C56.1901 69.0373 56.1682 69.0048 56.1493 68.9782M56.1493 68.9782C56.1663 68.9594 56.182 68.9431 56.1963 68.929C56.2156 68.91 56.2306 68.897 56.2416 68.8884C56.2517 68.8805 56.2567 68.8776 56.2566 68.8776L56.2565 68.8777C56.2537 68.8792 56.2214 68.896 56.1679 68.8959C56.1122 68.8957 56.0732 68.8774 56.0587 68.8686C56.0578 68.8681 56.0581 68.8683 56.0594 68.8695C56.0655 68.8751 56.0952 68.9023 56.1493 68.9782ZM56.1493 68.9782C56.1195 69.0111 56.0854 69.0515 56.0464 69.1008C55.8904 69.298 55.7112 69.5636 55.4741 69.9147C55.3106 70.157 55.1196 70.4399 54.8897 70.7694M54.8897 70.7694C54.8899 70.769 54.8901 70.7687 54.8903 70.7684L54.4796 70.4832M54.8897 70.7694C54.4334 71.4259 53.7451 72.0391 53.0732 72.2949C52.7368 72.423 52.332 72.4878 51.9539 72.3292C51.5519 72.1605 51.3104 71.7965 51.2038 71.3456L51.2037 71.3452C51.007 70.5108 51.2333 69.8997 51.5456 69.3727C51.6424 69.2093 51.758 69.0375 51.8664 68.8766C51.9174 68.8008 51.9669 68.7273 52.012 68.6583C52.1629 68.4273 52.2985 68.1985 52.4043 67.9432L52.4066 67.9377L52.4066 67.9377C52.5068 67.704 52.6429 67.4981 52.7689 67.3218C52.8225 67.2466 52.8711 67.181 52.9168 67.1191C52.9892 67.0212 53.0544 66.9329 53.1215 66.832C53.2118 66.6962 53.2791 66.5741 53.321 66.4549M54.8897 70.7694L54.4796 70.4832M54.4796 70.4832C53.6456 71.6842 52.0185 72.6183 51.6903 71.2305M51.6903 71.2305C51.4812 70.3431 51.8525 69.7921 52.2695 69.1733C52.4796 68.8615 52.7013 68.5325 52.8662 68.1346C52.9732 67.8849 53.1404 67.6583 53.308 67.4312C53.6328 66.9911 53.9589 66.5491 53.8506 65.9328M51.6903 71.2305L55.8743 52.0148C54.5351 52.206 54.5484 52.6173 54.6647 56.2066C54.6944 57.1247 54.7308 58.2508 54.7531 59.6344C54.776 60.971 53.8365 60.3737 52.4677 59.5033C52.1967 59.331 51.9088 59.148 51.6083 58.9671M51.6903 71.2305L52.2623 63.1052M53.8506 65.9328C53.2024 65.8636 52.072 66.2265 50.8674 66.6132C48.8198 67.2705 46.5577 67.9967 46.0843 66.7868M53.8506 65.9328L53.3582 66.0193C53.3852 66.1729 53.3714 66.3118 53.321 66.4549M53.8506 65.9328L53.7976 66.43C53.6831 66.4178 53.5253 66.4246 53.321 66.4549M46.0843 66.7868C45.6467 65.6793 47.0004 65.1588 48.1352 64.8252M46.0843 66.7868L45.6186 66.9691C45.6188 66.9693 45.6189 66.9696 45.619 66.9699M46.0843 66.7868L45.6192 66.9706C45.6191 66.9703 45.619 66.9701 45.619 66.9699M48.1352 64.8252C51.3868 63.845 52.9009 63.6139 52.9542 63.1964C53.0017 62.8238 51.886 62.3028 49.8034 60.9688M48.1352 64.8252L47.9942 64.3455C47.9937 64.3457 47.9932 64.3458 47.9926 64.346M48.1352 64.8252L47.9909 64.3465C47.9915 64.3463 47.9921 64.3462 47.9926 64.346M49.8034 60.9688L49.7935 60.9624C48.9629 60.4309 48.1505 59.911 48.5318 59.0205C48.9967 57.9396 50.5691 58.34 51.6083 58.9671M49.8034 60.9688L49.5337 61.3898M49.8034 60.9688L49.5339 61.3899M51.6083 58.9671L51.8667 58.5391C51.8666 58.539 51.8665 58.539 51.8664 58.5389M51.6083 58.9671L51.8661 58.5387C51.8662 58.5388 51.8663 58.5388 51.8664 58.5389M51.8664 58.5389C51.304 58.1995 50.5753 57.9057 49.8919 57.8547C49.5473 57.829 49.1837 57.8628 48.8547 58.0132C48.5138 58.169 48.2382 58.4377 48.0725 58.8229L48.0722 58.8237C47.9423 59.127 47.903 59.4295 47.9612 59.7239C48.0183 60.013 48.1613 60.2541 48.3298 60.453C48.6388 60.8176 49.1032 61.1145 49.4908 61.3623C49.5052 61.3716 49.5195 61.3807 49.5337 61.3898M51.8664 58.5389C52.1716 58.7226 52.4697 58.9121 52.7439 59.0864C52.8812 59.1737 53.0126 59.2572 53.1358 59.3342C53.5201 59.5745 53.8257 59.752 54.0623 59.8488C54.1373 59.8795 54.1946 59.8975 54.2368 59.9075M49.5337 61.3898L49.5339 61.3899M54.2368 59.9075C54.2274 59.9571 54.2175 59.9746 54.2178 59.9748C54.2181 59.9749 54.2281 59.9587 54.2574 59.9397C54.2882 59.9198 54.3109 59.9182 54.311 59.9181C54.311 59.9181 54.3059 59.9185 54.2942 59.9175C54.2797 59.9162 54.2607 59.9131 54.2368 59.9075ZM49.5339 61.3899C50.0907 61.7466 50.5786 62.0454 50.9917 62.2974C51.0209 62.3153 51.0497 62.3329 51.0782 62.3502C51.4542 62.5796 51.7578 62.7649 51.9966 62.9218C52.1046 62.9928 52.1921 63.0535 52.2623 63.1052M49.5339 61.3899L52.2623 63.1052M47.9926 64.346C49.0214 64.0359 49.8892 63.7971 50.5809 63.6067C50.9222 63.5127 51.2206 63.4306 51.4744 63.3575C51.8194 63.2581 52.0767 63.1771 52.2623 63.1052M47.9926 64.346C47.4284 64.5119 46.7289 64.7448 46.2255 65.1118C45.9681 65.2994 45.7257 65.5476 45.5957 65.8758C45.4601 66.218 45.4692 66.5903 45.619 66.9699M52.2623 63.1052C52.3652 63.1811 52.4309 63.2379 52.4693 63.28C52.4819 63.2938 52.4863 63.3005 52.4863 63.3005C52.4862 63.3005 52.4762 63.2858 52.4675 63.257C52.4471 63.1889 52.452 63.1021 52.4907 63.0288C52.5068 62.9984 52.5228 62.9817 52.5281 62.9767M52.2623 63.1052C52.289 63.0949 52.3142 63.0848 52.338 63.0748C52.4321 63.0353 52.4869 63.0052 52.5157 62.9858C52.522 62.9815 52.526 62.9784 52.5281 62.9767M45.619 66.9699C45.9231 67.7458 46.6782 67.9429 47.3726 67.9378C48.0751 67.9326 48.9169 67.7294 49.7337 67.4902C50.148 67.3689 50.5689 67.2341 50.9753 67.1037L51.0177 67.0901C51.4113 66.9637 51.7899 66.8422 52.1459 66.7373C52.5152 66.6284 52.8493 66.5408 53.1385 66.4859C53.203 66.4737 53.2638 66.4634 53.321 66.4549M52.5281 62.9767C52.5294 62.9757 52.53 62.9752 52.5299 62.9752C52.5299 62.9752 52.5292 62.9757 52.5281 62.9767ZM59.7853 60.8523C59.7859 60.8526 59.7855 60.8524 59.7846 60.8518L59.7853 60.8523ZM57.5154 58.5251C57.5156 58.5246 57.5202 58.5219 57.5289 58.5184C57.5195 58.5238 57.5152 58.5256 57.5154 58.5251ZM61.0903 64.1686C61.0904 64.1686 61.0911 64.1697 61.0922 64.1717C61.0908 64.1696 61.0902 64.1686 61.0903 64.1686ZM61.0291 64.4919C61.0278 64.4929 61.0271 64.4934 61.0271 64.4933C61.0271 64.4933 61.0278 64.4928 61.0291 64.4919ZM60.1073 61.2721C60.1072 61.2721 60.1074 61.2713 60.108 61.2695C60.1076 61.2712 60.1073 61.2721 60.1073 61.2721Z" fill="#FEDB63" stroke="black"/>
<path d="M147.468 86.4723L147.468 86.4723C149.514 85.4651 151.864 85.0065 153.692 84.7944C153.962 81.9386 154.547 79.4857 155.461 77.4874C155.736 76.8738 156.336 76.5 157.001 76.5C157.658 76.5 158.263 76.8556 158.542 77.4771C159.455 79.4856 160.041 81.9489 160.311 84.7965C162.148 85.0186 164.498 85.4864 166.554 86.4929C167.405 86.9015 167.746 87.9244 167.311 88.7585C167.148 89.0757 166.876 89.3389 166.555 89.4954C166.555 89.4954 166.555 89.4955 166.555 89.4955L166.336 89.046C164.2 90.0921 161.714 90.5435 159.86 90.7417L147.468 86.4723ZM147.468 86.4723L147.466 86.4738C146.888 86.7629 146.5 87.3487 146.5 88.011C146.5 88.6629 146.868 89.2586 147.473 89.5411C149.163 90.3742 151.302 90.941 153.686 91.2172C153.809 92.346 154.057 94.0228 154.417 95.546C154.62 96.4039 154.862 97.232 155.147 97.891C155.289 98.2203 155.447 98.5225 155.626 98.7693C155.801 99.0107 156.023 99.2377 156.305 99.3597L156.305 99.3597L156.311 99.3623C156.532 99.4544 156.767 99.5 157.001 99.5C157.191 99.5 157.417 99.4725 157.628 99.387C158.035 99.2249 158.394 98.9199 158.578 98.4842C159.479 96.4879 160.063 94.0374 160.324 91.192L147.468 86.4723Z" fill="#FEDB63" stroke="black"/>
<path d="M93.8203 164.692L93.822 164.694L97.3589 168.099L97.3593 168.099C98.2385 168.943 99.6651 168.376 99.7866 167.186L99.7868 167.185L100.272 162.26C100.272 162.259 100.272 162.258 100.272 162.258C100.291 162.092 100.375 161.969 100.502 161.898L100.502 161.898L100.505 161.897L104.756 159.51C104.757 159.51 104.757 159.51 104.758 159.509C105.799 158.93 105.728 157.379 104.651 156.891L104.65 156.891L100.211 154.893L100.211 154.893C100.077 154.833 99.983 154.713 99.954 154.559C99.954 154.559 99.954 154.559 99.954 154.559L99.0526 149.69L99.0526 149.69L99.0519 149.686C98.826 148.513 97.3607 148.075 96.5559 148.989L96.5549 148.99L93.3195 152.69C93.3194 152.69 93.3192 152.69 93.3191 152.69C93.2167 152.806 93.0828 152.853 92.9491 152.833L92.9491 152.833L92.9388 152.832L88.132 152.205C86.9185 152.04 86.1137 153.359 86.694 154.389L86.6949 154.39L89.132 158.679C89.2088 158.819 89.2164 158.98 89.1505 159.121L89.1492 159.123L87.0807 163.603C87.0806 163.603 87.0805 163.603 87.0804 163.604C86.5837 164.673 87.4995 165.925 88.6966 165.649C88.6974 165.649 88.6983 165.649 88.6992 165.648L93.4334 164.597L93.4456 164.595L93.4577 164.591C93.5809 164.557 93.7114 164.587 93.8203 164.692Z" fill="#FEDB63" stroke="black"/>
<path d="M205.631 65.4639L205.63 65.461C204.204 61.6677 202.674 59.2102 201.313 57.4751C200.631 56.6061 199.987 55.9133 199.411 55.318C199.263 55.1656 199.118 55.0178 198.977 54.874C198.576 54.4652 198.207 54.0887 197.901 53.7317C197.474 53.2417 197.456 52.5521 197.54 52.0377C197.585 51.7646 197.664 51.5008 197.762 51.2743C197.856 51.0576 197.984 50.8364 198.148 50.6803C198.148 50.68 198.149 50.6797 198.149 50.6794L198.494 51.0416C198.648 50.8927 198.827 50.7274 199.025 50.5435C200.753 48.9437 204.002 45.9342 206.428 40.0472L205.631 65.4639ZM205.631 65.4639L205.637 65.4793C205.897 66.158 206.172 66.877 206.554 67.5501L206.556 67.5534C206.888 68.1296 207.431 68.4714 208.026 68.4983C208.62 68.5252 209.194 68.2353 209.586 67.6965L209.587 67.6966L209.591 67.6899C209.962 67.1636 210.238 66.5713 210.509 65.9266C210.597 65.716 210.685 65.5009 210.776 65.2788C210.968 64.8073 211.173 64.304 211.427 63.7443C212.164 62.1217 213.29 60.0826 215.517 57.488L215.518 57.4866C216.165 56.7271 216.81 56.0952 217.389 55.537C217.444 55.4848 217.497 55.433 217.551 55.3816C218.058 54.8939 218.527 54.4435 218.867 54.022C219.24 53.5592 219.539 53.0359 219.496 52.4377C219.453 51.8341 219.075 51.3081 218.478 50.8069C215.787 48.5287 213.972 45.6733 212.702 43.138C212.067 41.8714 211.571 40.6896 211.168 39.7025C211.104 39.5459 211.042 39.3931 210.982 39.2447C210.671 38.4768 210.409 37.8298 210.184 37.4146C209.576 36.278 208.097 36.2048 207.324 37.1745C206.753 37.8819 206.418 38.7245 206.116 39.4813C206.065 39.6094 206.015 39.735 205.965 39.8571L205.631 65.4639Z" fill="#3185FC" stroke="black"/>
<path d="M85.518 200.213L85.5206 200.213C86.0716 200.16 86.5461 200.308 86.8978 200.609C87.2426 200.904 87.4331 201.316 87.4851 201.731C87.5881 202.554 87.1488 203.507 86.1113 203.783C86.07 203.794 86.0236 203.802 85.9999 203.806L85.9976 203.807C85.9584 203.813 85.9086 203.821 85.8509 203.83C85.735 203.847 85.5782 203.869 85.3921 203.895C85.0195 203.946 84.5221 204.013 83.9835 204.084L83.8188 204.106C82.7792 204.244 81.6206 204.399 80.8992 204.505L80.8919 204.506L80.8845 204.507C80.8632 204.509 80.8432 204.511 80.8241 204.513C80.7665 204.52 80.7179 204.525 80.6672 204.533C80.6277 204.539 80.5953 204.546 80.5685 204.553C80.571 204.554 80.5736 204.556 80.5763 204.558C80.6026 204.576 80.6305 204.594 80.6636 204.616L80.6686 204.619C80.6986 204.638 80.7341 204.661 80.7684 204.685M85.518 200.213L80.4868 205.098M85.518 200.213C84.0242 200.365 82.805 200.525 81.844 200.652C80.8713 200.781 80.1916 200.87 79.7435 200.888C79.7173 200.889 79.6925 200.89 79.6692 200.891L85.518 200.213ZM80.7684 204.685C80.7685 204.685 80.7686 204.685 80.7687 204.685L80.4868 205.098M80.7684 204.685C80.7682 204.684 80.7679 204.684 80.7677 204.684L80.4868 205.098M80.7684 204.685C81.4944 205.178 82.0986 205.575 82.6042 205.907C83.1636 206.275 83.6023 206.563 83.9515 206.814C84.6523 207.318 85.0724 207.723 85.5133 208.394L85.5149 208.397C85.8667 208.939 85.9007 209.579 85.5943 210.092C85.2876 210.605 84.6991 210.894 84.0006 210.871M80.4868 205.098C81.2329 205.604 81.84 206.003 82.3429 206.334C83.9409 207.384 84.4866 207.742 85.0954 208.669C85.6169 209.473 85.1197 210.407 84.0161 210.372M84.0006 210.871L84.0161 210.372M84.0006 210.871C83.7289 210.863 83.4398 210.782 83.162 210.676C82.8787 210.567 82.5759 210.42 82.2688 210.252C81.6556 209.919 80.9879 209.486 80.3712 209.081C80.2816 209.022 80.1932 208.963 80.1063 208.906C79.585 208.562 79.115 208.252 78.7371 208.035C78.7118 208.02 78.6872 208.006 78.6634 207.993L84.0161 210.372M84.0006 210.871C84.0004 210.871 84.0002 210.871 84 210.871L84.0161 210.372M79.4802 200.238L79.5166 200.273L79.5166 200.273L79.8383 200.587C79.8472 200.578 79.856 200.569 79.8648 200.56C79.9729 200.449 80.0808 200.339 80.188 200.23L79.8656 199.915L79.8471 199.897L79.83 199.881C79.7338 199.978 79.6367 200.077 79.5388 200.178C79.5193 200.198 79.4997 200.218 79.4802 200.238ZM70.6182 198.008C70.618 198.008 70.6179 198.008 70.6177 198.008C70.6176 198.008 70.6174 198.008 70.6173 198.007L70.3478 198.429L70.6182 198.008ZM73.2279 199.581C73.2207 199.58 73.2128 199.579 73.2042 199.577C73.1943 199.609 73.1866 199.62 73.187 199.62C73.1873 199.621 73.1952 199.61 73.2161 199.598C73.2388 199.584 73.2547 199.582 73.2547 199.582C73.2547 199.582 73.2469 199.583 73.2279 199.581ZM73.7436 199.245L73.2437 199.238C73.2437 199.238 73.2437 199.238 73.2437 199.238L73.7436 199.245ZM76.9383 191.744C76.9383 191.743 76.9382 191.743 76.9382 191.743C76.9381 191.742 76.938 191.742 76.938 191.742L76.4482 191.842L76.9383 191.744ZM77.0738 198.078C77.0725 198.041 77.0736 198 77.0763 197.954C76.9742 198.049 76.9026 198.105 76.8582 198.132C76.8528 198.136 76.8483 198.138 76.8445 198.14C76.8755 198.129 76.9556 198.11 77.0604 198.15C77.0598 198.149 77.0598 198.15 77.0603 198.15C77.0606 198.15 77.0611 198.151 77.0618 198.151C77.0666 198.155 77.0794 198.165 77.087 198.179C77.0871 198.18 77.0872 198.18 77.0872 198.18C77.0873 198.18 77.0762 198.154 77.0738 198.078ZM82.5849 196.478L83.0448 196.674C83.0451 196.673 83.0453 196.673 83.0455 196.672L82.5849 196.478Z" fill="#3185FC" stroke="black"/>
<defs>
<filter id="filter0_d_141_662" x="31.3689" y="0" width="148.631" height="182.411" filterUnits="userSpaceOnUse" color-interpolation-filters="sRGB">
<feFlood flood-opacity="0" result="BackgroundImageFix"/>
<feColorMatrix in="SourceAlpha" type="matrix" values="0 0 0 0 0 0 0 0 0 0 0 0 0 0 0 0 0 0 127 0" result="hardAlpha"/>
<feOffset dx="-3" dy="3"/>
<feComposite in2="hardAlpha" operator="out"/>
<feColorMatrix type="matrix" values="0 0 0 0 0 0 0 0 0 0 0 0 0 0 0 0 0 0 1 0"/>
<feBlend mode="normal" in2="BackgroundImageFix" result="effect1_dropShadow_141_662"/>
<feBlend mode="normal" in="SourceGraphic" in2="effect1_dropShadow_141_662" result="shape"/>
</filter>
<filter id="filter1_d_141_662" x="52.6621" y="67.6484" width="106.821" height="78.625" filterUnits="userSpaceOnUse" color-interpolation-filters="sRGB">
<feFlood flood-opacity="0" result="BackgroundImageFix"/>
<feColorMatrix in="SourceAlpha" type="matrix" values="0 0 0 0 0 0 0 0 0 0 0 0 0 0 0 0 0 0 127 0" result="hardAlpha"/>
<feOffset dx="-3" dy="3"/>
<feComposite in2="hardAlpha" operator="out"/>
<feColorMatrix type="matrix" values="0 0 0 0 0 0 0 0 0 0 0 0 0 0 0 0 0 0 1 0"/>
<feBlend mode="normal" in2="BackgroundImageFix" result="effect1_dropShadow_141_662"/>
<feBlend mode="normal" in="SourceGraphic" in2="effect1_dropShadow_141_662" result="shape"/>
</filter>
</defs>
</svg>
