<svg width="149" height="183" viewBox="0 0 149 183" fill="none" xmlns="http://www.w3.org/2000/svg">
<g filter="url(#filter0_d_56_466)">
<path d="M121 5.4569L121.224 5.56871L121.447 5.4569L130.357 1.00213C131.696 0.332465 133.272 0.33278 134.611 1.00213L145.87 6.63218L146.094 6.18497L145.87 6.63218C147.482 7.43787 148.5 9.08479 148.5 10.8864V168.524C148.5 170.326 147.482 171.973 145.871 172.779L134.611 178.409C133.272 179.078 131.696 179.078 130.357 178.409L121.448 173.954L121.224 173.842L121 173.954L112.091 178.409C110.752 179.078 109.176 179.078 107.837 178.409L98.9277 173.954L98.7041 173.842L98.4805 173.954L89.5714 178.409C88.232 179.078 86.6564 179.078 85.3171 178.409L76.4079 173.954L76.1843 173.842L75.9606 173.954L67.0515 178.409C65.7121 179.078 64.1363 179.078 62.7976 178.409L53.8884 173.954L53.6648 173.842L53.4412 173.954L44.5316 178.409C43.1923 179.078 41.6164 179.078 40.2777 178.409L31.3685 173.954L31.1449 173.842L30.9213 173.954L22.0118 178.409C20.6724 179.078 19.0966 179.078 17.7579 178.409L6.49818 172.779C4.88668 171.972 3.8689 170.326 3.8689 168.524V10.8864C3.8689 9.08477 4.88672 7.43787 6.49811 6.63218L6.49812 6.63218L17.7578 1.00217C19.0972 0.332799 20.6727 0.332784 22.0121 1.00213C22.0121 1.00214 22.0122 1.00216 22.0122 1.00217L30.9213 5.4569L31.1449 5.56871L31.3685 5.4569L40.2776 1.00217C40.2777 1.00216 40.2777 1.00214 40.2777 1.00213C41.6171 0.3328 43.1926 0.332799 44.5319 1.00213C44.532 1.00214 44.532 1.00216 44.532 1.00217L53.4408 5.4569L53.6644 5.56871L53.888 5.4569L62.7971 1.00218C64.1365 0.332799 65.7121 0.332784 67.0514 1.00213C67.0515 1.00214 67.0515 1.00216 67.0515 1.00217L75.9606 5.4569L76.1842 5.56871L76.4079 5.4569L85.3174 1.00213C86.6567 0.332466 88.2326 0.332779 89.5713 1.00213L98.4801 5.4569L98.7037 5.56871L98.9274 5.4569L107.837 1.00213C109.176 0.332465 110.752 0.33278 112.091 1.00213L121 5.4569Z" fill="#DF5537" stroke="black"/>
<path d="M121.224 43.7892H31.1448C28.5182 43.7892 26.3887 41.6597 26.3887 39.033C26.3887 36.4064 28.5182 34.2769 31.1448 34.2769H121.224C123.85 34.2769 125.98 36.4064 125.98 39.033C125.98 41.6597 123.85 43.7892 121.224 43.7892Z" fill="#FEDB63" stroke="black"/>
</g>
<defs>
<filter id="filter0_d_56_466" x="0.368896" y="0" width="148.631" height="182.411" filterUnits="userSpaceOnUse" color-interpolation-filters="sRGB">
<feFlood flood-opacity="0" result="BackgroundImageFix"/>
<feColorMatrix in="SourceAlpha" type="matrix" values="0 0 0 0 0 0 0 0 0 0 0 0 0 0 0 0 0 0 127 0" result="hardAlpha"/>
<feOffset dx="-3" dy="3"/>
<feComposite in2="hardAlpha" operator="out"/>
<feColorMatrix type="matrix" values="0 0 0 0 0 0 0 0 0 0 0 0 0 0 0 0 0 0 1 0"/>
<feBlend mode="normal" in2="BackgroundImageFix" result="effect1_dropShadow_56_466"/>
<feBlend mode="normal" in="SourceGraphic" in2="effect1_dropShadow_56_466" result="shape"/>
</filter>
</defs>
</svg>
