<svg width="1439" height="1577" viewBox="0 0 1439 1577" fill="none" xmlns="http://www.w3.org/2000/svg">
<g clip-path="url(#clip0_19_1111)">
<path d="M369.059 212.424C310.958 247.901 258.535 291.927 213.557 343.02L661.547 718.822L369.059 212.424Z" fill="#FEE89A"/>
<path d="M193.286 367.159C150.674 420.218 116.363 479.436 91.5259 542.788L641.096 742.78L193.286 367.159Z" fill="#FEE89A"/>
<path d="M213.557 1233.69C258.525 1284.79 310.949 1328.82 369.059 1364.28L661.547 857.84L213.557 1233.69Z" fill="#FEE89A"/>
<path d="M45.6682 804.115C47.1452 872.188 58.9778 939.639 80.7596 1004.15L630.329 804.115H45.6682Z" fill="#FEE89A"/>
<path d="M91.5259 1033.78C116.369 1097.13 150.68 1156.35 193.286 1209.41L641.276 833.612L91.5259 1033.78Z" fill="#FEE89A"/>
<path d="M80.7596 572.555C58.9833 637.069 47.1508 704.52 45.6682 772.592H630.51L80.7596 572.555Z" fill="#FEE89A"/>
<path d="M1226.25 343.02C1181.27 291.927 1128.85 247.901 1070.75 212.424L778.263 718.822L1226.25 343.02Z" fill="#FEE89A"/>
<path d="M1348.28 542.968C1323.44 479.626 1289.15 420.411 1246.57 367.339L798.534 743.141L1348.28 542.968Z" fill="#FEE89A"/>
<path d="M587.265 127.177C520.47 140.497 456.096 163.913 396.357 196.618L688.845 703.061L587.265 127.177Z" fill="#FEE89A"/>
<path d="M1394.19 772.592C1392.66 704.524 1380.83 637.08 1359.09 572.555L809.525 772.592H1394.19Z" fill="#FEE89A"/>
<path d="M821.462 121.728C754.138 111.58 685.672 111.58 618.347 121.728L719.927 697.432L821.462 121.728Z" fill="#FEE89A"/>
<path d="M1043.45 196.618C983.658 163.896 919.221 140.479 852.364 127.177L750.964 703.061L1043.45 196.618Z" fill="#FEE89A"/>
<path d="M852.364 1449.49C919.161 1436.15 983.535 1412.72 1043.27 1380L750.964 873.646L852.364 1449.49Z" fill="#FEE89A"/>
<path d="M396.357 1380.09C456.099 1412.78 520.473 1436.18 587.265 1449.49L688.845 873.646L396.357 1380.09Z" fill="#FEE89A"/>
<path d="M618.347 1455.02C685.672 1465.17 754.138 1465.17 821.462 1455.02L719.927 879.141L618.347 1455.02Z" fill="#FEE89A"/>
<path d="M809.345 804.115L1358.91 1004.15C1380.66 939.629 1392.49 872.184 1394.01 804.115H809.345Z" fill="#FEE89A"/>
<path d="M1070.75 1364.33C1128.87 1328.86 1181.31 1284.84 1226.3 1233.73L778.263 857.93L1070.75 1364.33Z" fill="#FEE89A"/>
<path d="M1246.57 1209.55C1289.14 1156.47 1323.44 1097.26 1348.28 1033.92L798.714 833.882L1246.57 1209.55Z" fill="#FEE89A"/>
<g clip-path="url(#clip1_19_1111)">
<g filter="url(#filter0_d_19_1111)">
<path d="M362.597 335.747L362.901 336.151L363.302 335.842L383.473 320.279L383.864 319.977L383.566 319.582L321.899 237.79L333.645 229.093L334.052 228.791L333.745 228.388L318.92 208.934L318.619 208.538L318.221 208.838L273.748 242.396L273.347 242.699L273.651 243.098L288.476 262.553L288.775 262.945L289.171 262.651L300.924 253.949L362.597 335.747Z" fill="#5BC4EC" stroke="black"/>
<path d="M398.3 309.696L398.573 310.123L398.996 309.844L419.653 296.226L420.065 295.954L419.799 295.538L351.023 188.297L350.752 187.874L350.33 188.147L329.673 201.522L329.255 201.792L329.523 202.211L398.3 309.696Z" fill="#5BC4EC" stroke="black"/>
<path d="M424.031 290.919L424.249 291.369L424.699 291.152L445.356 281.181L445.806 280.964L445.589 280.514L408.32 203.201L458.826 274.454L459.071 274.799L459.451 274.616L480.109 264.645L480.493 264.46L480.37 264.051L455.461 181.12L492.564 258.09L492.783 258.542L493.234 258.322L514.134 248.108L514.581 247.89L514.365 247.442L458.955 132.662L458.738 132.211L458.288 132.429L423.049 149.451L422.656 149.641L422.791 150.056L445.963 221.239L404.484 158.865L404.243 158.503L403.851 158.691L368.856 175.471L368.404 175.687L368.621 176.139L424.031 290.919Z" fill="#5BC4EC" stroke="black"/>
<path d="M520.972 246.594L521.123 247.071L521.6 246.92L572.149 230.87L572.626 230.718L572.474 230.241L564.94 206.653L564.789 206.179L564.314 206.328L539.273 214.203L530.824 187.432L553.194 180.289L553.67 180.137L553.518 179.66L546.227 156.802L546.075 156.325L545.599 156.477L523.231 163.621L516.002 140.986L539.34 133.599L539.818 133.448L539.666 132.97L532.132 109.382L531.98 108.907L531.505 109.057L482.9 124.377L482.423 124.528L482.574 125.005L520.972 246.594Z" fill="#5BC4EC" stroke="black"/>
<path d="M576.612 229.279L576.714 229.77L577.204 229.667L627.997 218.967L628.484 218.864L628.383 218.376L624.009 197.22L623.907 196.73L623.417 196.832L598.146 202.08L576.619 98.975L576.516 98.4833L576.025 98.5883L550.993 103.938L550.507 104.042L550.608 104.529L576.612 229.279Z" fill="#EB92B7" stroke="black"/>
<path d="M662.451 216.544L662.452 216.543C672.526 215.56 680.206 211.615 685.168 204.664L685.17 204.661C689.878 197.967 691.828 188.837 690.606 177.088C690.605 177.087 690.605 177.086 690.605 177.086L684.773 116.781L684.773 116.781L684.772 116.773C683.549 106.005 680.116 97.8411 674.155 92.6216C668.185 87.3947 660.01 85.4398 649.718 86.4206C639.411 87.4029 631.981 91.0967 627.017 97.306C622.043 103.527 620.342 112.189 621.32 123.196L621.32 123.2L627.153 183.508L627.153 183.512C628.376 195.257 632.052 203.896 637.998 209.598C643.965 215.32 652.146 217.526 662.451 216.544ZM664.336 181.077L664.336 181.078C664.698 184.7 664.506 187.402 663.79 189.236C663.435 190.145 662.957 190.828 662.365 191.31C661.775 191.79 661.047 192.092 660.158 192.204C659.135 192.317 658.253 192.201 657.497 191.876C656.743 191.553 656.084 191.011 655.524 190.228C655.085 189.567 654.679 188.538 654.32 187.164C653.963 185.795 653.663 184.118 653.422 182.189L647.347 120.428L647.347 120.428L647.346 120.42C646.987 117.305 647.298 114.992 648.141 113.418C648.967 111.875 650.333 110.986 652.255 110.76L652.258 110.76C653.164 110.646 653.924 110.735 654.569 111C655.212 111.264 655.772 111.716 656.258 112.382C657.242 113.732 657.898 115.933 658.261 119.071C658.261 119.072 658.261 119.074 658.261 119.075L664.336 181.077Z" fill="#EB92B7" stroke="black"/>
<path d="M710.994 211.904L710.986 212.402L711.485 212.412L737.002 212.898L737.504 212.908L737.512 212.406L739.205 110.042L753.773 110.277L754.271 110.285L754.281 109.787L754.767 85.226L754.777 84.7249L754.276 84.7162L698.623 83.7435L698.124 83.7348L698.114 84.2335L697.628 108.794L697.618 109.296L698.12 109.304L712.687 109.539L710.994 211.904Z" fill="#EB92B7" stroke="black"/>
<path d="M767.136 213.805L767.083 214.307L767.585 214.355L792.86 216.787L793.353 216.834L793.405 216.341L804.046 114.465L818.612 116.11L819.111 116.166L819.165 115.668L821.839 91.3502L821.894 90.8509L821.394 90.7983L765.984 84.9621L765.489 84.9099L765.435 85.4047L762.762 109.722L762.707 110.218L763.202 110.274L777.777 111.921L767.136 213.805Z" fill="#EB92B7" stroke="black"/>
<path d="M811.86 218.862L811.758 219.35L812.246 219.453L863.767 230.396L864.257 230.5L864.36 230.01L869.464 205.692L869.567 205.2L869.074 205.099L843.317 199.849L848.95 172.135L872.033 176.898L872.523 176.999L872.624 176.509L877.484 152.92L877.585 152.431L877.095 152.33L854.013 147.568L858.911 124.229L882.968 129.234L883.456 129.336L883.559 128.849L888.663 104.774L888.767 104.284L888.276 104.181L838.456 93.7243L837.966 93.6215L837.864 94.1117L811.86 218.862Z" fill="#EB92B7" stroke="black"/>
<path d="M868.742 230.969L868.587 231.446L869.065 231.599L893.368 239.381L893.841 239.532L893.995 239.059L911.815 184.362C914.69 185.506 916.634 186.626 917.712 187.704C918.193 188.185 918.477 188.948 918.477 190.087C918.477 191.227 918.19 192.689 917.591 194.488L917.59 194.493L902.279 241.912L902.126 242.386L902.6 242.541L926.416 250.323L926.893 250.479L927.047 250.001L941.872 204.04L941.872 204.04L941.875 204.031C943.345 199.128 943.849 194.916 943.349 191.414C942.909 188.329 941.321 185.631 938.459 183.654C942.92 183.313 946.608 181.585 949.303 178.443C952.534 174.958 954.989 169.77 957.181 163.191L957.183 163.186C959.375 156.361 960.843 150.005 961.335 144.608C962.075 139.159 961.085 134.432 958.844 130.445C956.569 126.399 952.057 123.424 945.925 121.46C945.924 121.46 945.923 121.46 945.923 121.46L908.743 109.302L908.267 109.146L908.112 109.623L868.742 230.969ZM932.413 155.344L932.413 155.344L932.411 155.351C931.326 158.972 930.077 161.437 928.728 162.873C928.059 163.586 927.377 164.032 926.689 164.251C926.008 164.469 925.293 164.473 924.532 164.257L919.179 162.472L926.161 140.815L931.262 142.59C933.096 143.279 934.131 144.377 934.339 145.838C934.448 146.599 934.343 147.804 934.01 149.437C933.681 151.055 933.14 153.043 932.413 155.344Z" fill="#EB92B7" stroke="black"/>
<path d="M946.774 258.637L946.565 259.092L947.021 259.3L968.894 269.27L969.348 269.477L969.556 269.024L987.029 230.898L1040.94 161.638L1041.33 161.139L1040.76 160.876L1017.91 150.419L1017.53 150.243L1017.29 150.596L994.676 184.313L1005.31 144.925L1005.42 144.515L1005.03 144.339L981.945 133.883L981.37 133.622L981.248 134.241L964.247 220.512L946.774 258.637Z" fill="#EB92B7" stroke="black"/>
<path d="M1007.31 246.926L1007.06 247.357L1007.49 247.605L1039.81 266.33L1040.25 266.583L1040.5 266.144L1048.76 251.553L1049.01 251.122L1048.58 250.874L1016.26 232.149L1015.82 231.896L1015.57 232.336L1007.31 246.926Z" fill="white" stroke="black"/>
<path d="M1036.98 307.681L1036.69 308.094L1037.11 308.379L1058.01 322.727L1058.42 323.008L1058.7 322.6L1117.23 238.63L1129.21 247.095L1129.62 247.385L1129.91 246.972L1144 226.789L1144.29 226.379L1143.88 226.092L1098.19 194.236L1097.78 193.95L1097.49 194.36L1083.4 214.544L1083.11 214.951L1083.52 215.238L1095.51 223.706L1036.98 307.681Z" fill="#5BC4EC" stroke="black"/>
<path d="M1073.21 333.671L1072.9 334.057L1073.28 334.374L1092.24 349.937L1092.63 350.255L1092.94 349.867L1173.63 251.137L1173.94 250.75L1173.56 250.434L1154.6 234.87L1154.22 234.552L1153.9 234.94L1073.21 333.671Z" fill="#5BC4EC" stroke="black"/>
<path d="M1098.77 352.109L1098.41 352.457L1098.76 352.817L1114.8 369.353L1115.15 369.711L1115.51 369.365L1177.3 309.801L1125.45 379.894L1125.2 380.232L1125.49 380.536L1141.29 397.072L1141.58 397.382L1141.93 397.137L1212.83 347.728L1151.27 407.067L1150.9 407.415L1151.25 407.775L1167.54 424.554L1167.88 424.912L1168.24 424.566L1259.86 336.049L1260.22 335.702L1259.88 335.342L1232.66 307.133L1232.35 306.82L1232 307.077L1171.76 351.13L1218.11 292.227L1218.38 291.884L1218.08 291.57L1191.1 263.605L1190.75 263.245L1190.39 263.592L1098.77 352.109Z" fill="#5BC4EC" stroke="black"/>
<path d="M1171.25 430.61L1170.84 430.903L1171.14 431.309L1202 473.865L1202.29 474.269L1202.7 473.976L1222.87 459.386L1223.27 459.094L1222.98 458.689L1207.72 437.451L1230.48 421.013L1244.29 440.063L1244.58 440.468L1244.99 440.174L1264.43 426.07L1264.83 425.776L1264.54 425.372L1250.74 406.323L1270.09 392.32L1284.38 412.338L1284.68 412.746L1285.08 412.453L1305.01 398.105L1305.42 397.813L1305.12 397.407L1275.23 356.066L1274.94 355.661L1274.53 355.954L1171.25 430.61Z" fill="#5BC4EC" stroke="black"/>
<path d="M1205.07 478.002L1204.64 478.254L1204.89 478.686L1230.89 523.431L1231.14 523.864L1231.58 523.611L1250.29 512.668L1250.72 512.417L1250.47 511.986L1237.6 489.802L1328.54 437.041L1328.98 436.789L1328.72 436.357L1315.84 414.227L1315.59 413.796L1315.16 414.047L1205.07 478.002Z" fill="#EB92B7" stroke="black"/>
<path d="M1264.42 511.536L1264.42 511.536L1264.41 511.538C1253.67 516.425 1246.5 522.329 1243.02 530.023C1239.55 537.477 1239.82 546.142 1243.99 555.483C1248.17 564.824 1254.34 570.781 1262.28 573.265C1270.22 575.746 1279.58 574.488 1290.34 569.842L1290.34 569.84L1345.75 545.28C1355.78 540.874 1362.46 534.965 1365.45 527.755C1368.68 520.528 1367.91 512.106 1363.75 502.553C1359.57 492.976 1353.65 487.021 1346.21 484.288C1338.75 481.552 1329.86 482.569 1319.83 486.975L1319.83 486.975L1264.42 511.536ZM1266.54 545.853L1266.54 545.844L1266.53 545.835C1266.07 544.8 1265.91 543.908 1265.97 543.124C1266.02 542.344 1266.29 541.639 1266.73 540.972C1267.86 539.394 1270.17 537.984 1273.82 536.28C1273.82 536.279 1273.82 536.278 1273.82 536.278L1330.68 510.991L1330.69 510.989C1333.56 509.67 1335.88 509.228 1337.65 509.537C1339.38 509.84 1340.65 510.87 1341.44 512.678C1342.11 514.232 1341.99 515.691 1341.06 517.062C1340.11 518.466 1338.27 519.816 1335.39 521.016L1335.39 521.016L1335.38 521.02L1278.51 546.311L1278.51 546.311L1278.5 546.314C1275.13 547.882 1272.42 548.572 1270.42 548.457C1269.43 548.4 1268.62 548.147 1267.99 547.721C1267.36 547.297 1266.87 546.683 1266.54 545.853Z" fill="#EB92B7" stroke="black"/>
<path d="M1263.74 600.52L1263.26 600.671L1263.41 601.147L1271.19 625.708L1271.34 626.185L1271.82 626.034L1369.53 595.058L1373.99 608.931L1374.14 609.408L1374.62 609.254L1397.95 601.715L1398.43 601.562L1398.27 601.088L1381.26 547.831L1381.11 547.354L1380.63 547.508L1357.3 555.046L1356.83 555.2L1356.98 555.675L1361.44 569.545L1263.74 600.52Z" fill="#EB92B7" stroke="black"/>
<path d="M1279.34 654.25L1278.85 654.354L1278.96 654.844L1284.3 679.648L1284.41 680.136L1284.89 680.032L1385.02 658.736L1388.07 673.081L1388.18 673.571L1388.67 673.466L1412.48 668.359L1412.97 668.254L1412.87 667.766L1401.2 613.294L1401.1 612.805L1400.61 612.91L1376.79 618.016L1376.3 618.121L1376.41 618.609L1379.46 632.954L1279.34 654.25Z" fill="#EB92B7" stroke="black"/>
<path d="M1288.38 698.257L1287.89 698.312L1287.94 698.807L1293.53 750.847L1293.58 751.345L1294.08 751.291L1318.87 748.616L1319.37 748.562L1319.31 748.064L1316.45 722.055L1344.38 719.003L1346.99 742.339L1347.05 742.835L1347.55 742.78L1371.36 740.105L1371.86 740.049L1371.8 739.552L1369.19 716.22L1392.98 713.652L1395.6 737.959L1395.65 738.457L1396.15 738.403L1420.7 735.728L1421.19 735.673L1421.14 735.176L1415.55 684.595L1415.49 684.097L1415 684.153L1288.38 698.257Z" fill="#EB92B7" stroke="black"/>
<path d="M1294.26 755.644L1293.76 755.652L1293.77 756.153L1294.25 781.93L1294.26 782.427L1294.76 782.421L1352.09 781.698C1352.08 783.173 1352.02 784.435 1351.86 785.494C1351.68 786.676 1351.39 787.567 1350.96 788.209L1350.95 788.235L1350.93 788.263C1350.65 788.834 1349.99 789.378 1348.9 789.78C1347.81 790.18 1346.36 790.418 1344.57 790.418L1344.57 790.418L1294.75 791.148L1294.24 791.155L1294.25 791.662L1294.98 816.71L1295 817.203L1295.49 817.195L1343.61 816.466L1343.62 816.465L1343.63 816.465C1348.51 816.221 1352.73 815.487 1355.99 813.731C1358.86 812.184 1360.77 809.861 1361.71 806.479C1363.51 810.608 1366.32 813.394 1370.14 814.969L1370.14 814.969L1370.15 814.973C1374.61 816.707 1380.03 817.438 1387.1 817.438C1394.19 817.438 1400.54 816.705 1405.93 815.481C1411.35 814.248 1415.59 812.017 1418.59 808.509C1421.62 804.972 1422.84 799.964 1422.84 793.35L1422.84 793.341L1422.11 754.189L1422.1 753.691L1421.61 753.699L1294.26 755.644ZM1375.45 787.028V781.443L1398.03 781.21V786.541C1398.03 788.616 1397.35 789.856 1396.12 790.471C1395.46 790.797 1394.32 791.093 1392.69 791.304C1391.08 791.513 1389.03 791.634 1386.62 791.634C1382.75 791.634 1379.92 791.209 1378.07 790.4C1377.15 789.997 1376.5 789.511 1376.08 788.959C1375.66 788.413 1375.45 787.776 1375.45 787.028Z" fill="#EB92B7" stroke="black"/>
<path d="M1292.62 839.057L1292.13 839.002L1292.07 839.498L1289.4 863.33L1289.34 863.827L1289.84 863.882L1331.34 868.496L1414.16 897.901L1414.75 898.114L1414.82 897.483L1417.49 872.436L1417.54 872.015L1417.13 871.901L1378.01 861.041L1418.73 858.778L1419.15 858.754L1419.19 858.332L1421.87 833.284L1421.93 832.657L1421.31 832.735L1334.12 843.671L1292.62 839.057Z" fill="#EB92B7" stroke="black"/>
<path d="M1322.8 893.05L1322.31 892.949L1322.21 893.439L1314.68 930.159L1314.58 930.648L1315.07 930.749L1331.59 934.153L1332.08 934.254L1332.18 933.764L1339.72 897.044L1339.82 896.555L1339.33 896.454L1322.8 893.05Z" fill="white" stroke="black"/>
<path d="M1274.48 940.237L1274.01 940.094L1273.86 940.572L1266.57 964.89L1266.43 965.37L1266.91 965.513L1365.1 994.794L1360.86 1008.91L1360.72 1009.38L1361.2 1009.53L1384.53 1016.58L1385.01 1016.72L1385.15 1016.24L1401.19 962.745L1401.34 962.268L1400.86 962.123L1377.53 955.071L1377.05 954.926L1376.9 955.406L1372.67 969.519L1274.48 940.237Z" fill="#5BC4EC" stroke="black"/>
<path d="M1261.15 982.562L1260.68 982.382L1260.51 982.852L1251.76 1005.95L1251.58 1006.42L1252.05 1006.6L1370.89 1052.31L1371.35 1052.5L1371.53 1052.03L1380.28 1028.92L1380.46 1028.46L1379.99 1028.28L1261.15 982.562Z" fill="#5BC4EC" stroke="black"/>
<path d="M1251.49 1012.74L1251.05 1012.51L1250.81 1012.95L1240.12 1033.13L1239.88 1033.57L1240.33 1033.81L1316.28 1074.08L1233.43 1046.75L1233.03 1046.62L1232.83 1046.99L1222.13 1067.18L1221.93 1067.55L1222.28 1067.81L1291.57 1119.93L1216.01 1079.86L1215.56 1079.62L1215.33 1080.07L1204.39 1100.74L1204.16 1101.18L1204.6 1101.41L1317.12 1160.75L1317.56 1160.98L1317.8 1160.54L1336.03 1126.01L1336.23 1125.62L1335.87 1125.37L1275.18 1081.79L1345.38 1107.52L1345.78 1107.67L1345.99 1107.28L1364.22 1073L1364.45 1072.55L1364.01 1072.32L1251.49 1012.74Z" fill="#5BC4EC" stroke="black"/>
<path d="M1199.78 1105.92L1199.38 1105.62L1199.08 1106.03L1167.98 1148.83L1167.68 1149.23L1168.09 1149.52L1188.26 1164.12L1188.66 1164.41L1188.96 1164L1204.46 1142.77L1227.23 1159.44L1213.42 1178.49L1213.13 1178.9L1213.53 1179.19L1232.98 1193.3L1233.38 1193.59L1233.67 1193.18L1247.48 1174.14L1266.83 1188.14L1252.31 1207.92L1252.01 1208.32L1252.42 1208.62L1272.34 1223.21L1272.75 1223.5L1273.04 1223.1L1302.94 1181.76L1303.23 1181.35L1302.83 1181.06L1199.78 1105.92Z" fill="#5BC4EC" stroke="black"/>
<path d="M1165.07 1152.88L1164.7 1152.55L1164.36 1152.92L1129.61 1191.58L1129.27 1191.96L1129.65 1192.29L1145.94 1206.64L1146.31 1206.97L1146.64 1206.6L1163.8 1187.52L1242.42 1257.46L1242.79 1257.79L1243.12 1257.42L1260.13 1238.46L1260.47 1238.08L1260.09 1237.75L1165.07 1152.88Z" fill="#EB92B7" stroke="black"/>
<path d="M1127.61 1205.28L1127.61 1205.28C1135.8 1206.28 1143.92 1211.23 1151.74 1219.79L1151.74 1219.79L1192.33 1264.78L1127.61 1205.28ZM1127.61 1205.28C1119.17 1204.29 1111.26 1207.28 1103.64 1214.16C1096.03 1221.05 1092.3 1228.71 1092.3 1236.91V1236.91L1092.3 1236.92C1092.55 1245.35 1096.51 1253.72 1104.34 1262.53L1104.34 1262.53L1144.92 1307.52C1144.92 1307.52 1144.92 1307.52 1144.92 1307.52C1152.27 1315.85 1159.91 1320.07 1167.85 1320.81L1167.86 1320.82M1127.61 1205.28L1167.86 1320.82M1167.86 1320.82L1167.86 1320.82M1167.86 1320.82L1167.86 1320.82M1167.86 1320.82C1175.81 1321.31 1183.71 1318.08 1191.32 1311.2C1198.92 1304.33 1202.9 1296.92 1203.15 1288.96C1203.4 1281.01 1199.67 1272.86 1192.33 1264.78L1167.86 1320.82ZM1164.62 1290.07L1164.62 1290.07L1123.07 1243.87C1123.07 1243.87 1123.07 1243.87 1123.07 1243.87C1120.65 1241.09 1119.2 1238.79 1118.68 1236.9C1118.42 1235.96 1118.4 1235.14 1118.6 1234.41C1118.79 1233.69 1119.2 1233.03 1119.87 1232.42C1121.42 1231.09 1122.95 1230.86 1124.51 1231.07C1126.33 1231.77 1128.44 1233.4 1131.07 1236.27C1131.07 1236.27 1131.07 1236.27 1131.07 1236.27L1172.63 1282.47C1174.79 1284.88 1175.93 1286.91 1176.18 1288.65C1176.43 1290.35 1175.84 1291.83 1174.36 1293.2L1174.35 1293.21L1174.35 1293.21C1173.73 1293.83 1173.08 1294.2 1172.4 1294.37C1171.72 1294.53 1170.98 1294.5 1170.17 1294.24C1168.54 1293.74 1166.67 1292.36 1164.62 1290.07Z" fill="#EB92B7" stroke="black"/>
<path d="M1067.2 1246.83L1066.91 1246.43L1066.51 1246.71L1045.61 1261.55L1045.2 1261.84L1045.49 1262.25L1105.47 1345.26L1093.72 1353.96L1093.32 1354.25L1093.61 1354.65L1107.95 1374.59L1108.24 1375L1108.65 1374.71L1153.85 1341.88L1154.25 1341.59L1153.96 1341.18L1139.62 1321.24L1139.33 1320.83L1138.92 1321.13L1127.18 1329.83L1067.2 1246.83Z" fill="#EB92B7" stroke="black"/>
<path d="M1021.05 1278.48L1020.8 1278.05L1020.37 1278.3L998.255 1291.19L997.823 1291.44L998.075 1291.87L1049.83 1380.44L1037.14 1387.73L1036.7 1387.98L1036.96 1388.42L1049.35 1409.57L1049.61 1410L1050.04 1409.75L1098.4 1381.79L1098.83 1381.54L1098.58 1381.1L1086.18 1359.95L1085.93 1359.52L1085.5 1359.76L1072.81 1367.06L1021.05 1278.48Z" fill="#EB92B7" stroke="black"/>
<path d="M981.949 1301.14L981.742 1300.69L981.289 1300.89L933.413 1322.54L932.954 1322.74L933.165 1323.2L943.615 1345.82L943.825 1346.27L944.278 1346.06L968.126 1335.08L979.86 1360.68L958.443 1370.44L957.989 1370.65L958.196 1371.1L968.16 1392.99L968.367 1393.45L968.822 1393.24L990.242 1383.47L1000.27 1405.18L977.885 1415.43L977.431 1415.64L977.638 1416.09L987.845 1438.47L988.052 1438.92L988.507 1438.71L1034.93 1417.56L1035.38 1417.35L1035.17 1416.89L981.949 1301.14Z" fill="#EB92B7" stroke="black"/>
<path d="M929.234 1325.02L929.073 1324.54L928.592 1324.71L904.533 1333.22L904.071 1333.38L904.225 1333.85L922.291 1388.56C920.922 1388.97 919.715 1389.27 918.66 1389.43C917.478 1389.61 916.526 1389.6 915.773 1389.38L915.74 1389.38L915.706 1389.37C915.033 1389.27 914.349 1388.84 913.666 1387.92C912.982 1387.01 912.335 1385.67 911.735 1383.87L895.939 1336.45L895.78 1335.98L895.305 1336.14L871.488 1344.16L871.018 1344.32L871.173 1344.79L886.239 1390.5C887.716 1395.43 889.939 1399.15 892.438 1401.65L892.446 1401.66L892.455 1401.66C894.889 1403.88 897.715 1404.93 901.221 1404.83C897.778 1407.87 895.905 1411.52 895.454 1415.59C894.956 1420.07 895.953 1425.74 898.149 1432.33C900.346 1439.17 903.033 1445.04 905.725 1449.69C908.441 1454.39 912.16 1457.88 916.164 1459.63C920.214 1461.4 925.702 1461.12 931.828 1459.16L931.833 1459.16L969.016 1446.76L969.49 1446.6L969.333 1446.13L929.234 1325.02ZM922.674 1424L922.674 1424L922.672 1424C921.464 1420.37 921.005 1417.6 921.236 1415.61C921.35 1414.62 921.631 1413.85 922.056 1413.26C922.476 1412.68 923.056 1412.25 923.819 1411.98C923.82 1411.98 923.822 1411.98 923.824 1411.98L929.169 1410.2L936.151 1431.62L931.025 1433.41L931.025 1433.41L931.013 1433.41C929.201 1434.09 927.724 1433.84 926.682 1432.8C926.14 1432.26 925.502 1431.23 924.808 1429.72C924.121 1428.23 923.399 1426.3 922.674 1424Z" fill="#EB92B7" stroke="black"/>
<path d="M849.779 1349.15L849.678 1348.66L849.188 1348.76L825.857 1353.63L825.368 1353.73L825.47 1354.22L833.964 1395.26L831.535 1482.99L831.518 1483.62L832.137 1483.49L856.682 1478.38L857.099 1478.3L857.08 1477.87L855.271 1437.15L869.966 1475.16L870.119 1475.55L870.534 1475.47L895.322 1470.36L895.944 1470.23L895.674 1469.66L858.273 1390.19L849.779 1349.15Z" fill="#EB92B7" stroke="black"/>
<path d="M807.986 1394.67L807.929 1394.18L807.434 1394.23L770.251 1398.37L769.752 1398.42L769.81 1398.92L771.754 1415.7L771.811 1416.19L772.306 1416.14L809.489 1412.01L809.988 1411.95L809.93 1411.45L807.986 1394.67Z" fill="white" stroke="black"/>
<path d="M748.205 1363.35L748.192 1362.85L747.695 1362.86L722.178 1363.35L721.674 1363.36L721.687 1363.86L724.348 1466.23L709.777 1466.7L709.278 1466.71L709.293 1467.21L710.022 1491.77L710.037 1492.27L710.535 1492.26L766.188 1490.8L766.69 1490.78L766.675 1490.28L765.946 1465.72L765.931 1465.22L765.43 1465.24L750.865 1465.71L748.205 1363.35Z" fill="#5BC4EC" stroke="black"/>
<path d="M703.731 1363.87L703.754 1363.37L703.256 1363.35L678.71 1362.13L678.21 1362.1L678.186 1362.61L672.111 1490.03L672.087 1490.53L672.585 1490.55L697.131 1491.77L697.631 1491.79L697.655 1491.29L703.731 1363.87Z" fill="#5BC4EC" stroke="black"/>
<path d="M671.888 1364.17L671.971 1363.68L671.475 1363.6L649.117 1359.95L648.627 1359.87L648.544 1360.36L634.226 1444.95V1357.77V1357.34L633.811 1357.27L611.21 1353.38L610.788 1353.31L610.651 1353.72L583.028 1435.73L597.279 1351.53L597.363 1351.03L596.869 1350.95L573.782 1347.06L573.289 1346.98L573.206 1347.47L552.063 1473.19L551.98 1473.68L552.472 1473.77L591.113 1480.33L591.544 1480.41L591.674 1479.99L613.914 1408.59L611.597 1483.23L611.584 1483.67L612.012 1483.74L650.167 1490.3L650.662 1490.39L650.745 1489.89L671.888 1364.17Z" fill="#5BC4EC" stroke="black"/>
<path d="M567.127 1344.06L567.281 1343.58L566.801 1343.43L516.495 1327.62L516.02 1327.47L515.869 1327.95L508.335 1351.53L508.183 1352.01L508.657 1352.16L533.699 1360.28L525.015 1387.05L502.645 1379.91L502.168 1379.75L502.016 1380.23L494.725 1403.09L494.574 1403.56L495.05 1403.72L517.418 1410.86L510.189 1433.49L486.851 1425.87L486.374 1425.71L486.22 1426.19L478.686 1449.53L478.532 1450.01L479.01 1450.16L527.615 1465.73L528.091 1465.88L528.243 1465.4L567.127 1344.06Z" fill="#5BC4EC" stroke="black"/>
<path d="M511.943 1325.87L512.142 1325.41L511.685 1325.21L464.538 1304.54L464.081 1304.34L463.88 1304.8L455.131 1324.74L454.929 1325.2L455.389 1325.4L478.99 1335.65L436.903 1432.22L436.704 1432.68L437.161 1432.88L460.492 1443.09L460.951 1443.29L461.151 1442.83L511.943 1325.87Z" fill="#EB92B7" stroke="black"/>
<path d="M434.698 1286.57L434.691 1286.57L434.683 1286.56C425.608 1281.65 417.202 1280.39 409.503 1282.88L409.496 1282.88L409.49 1282.88C401.805 1285.61 394.92 1292.04 389.052 1302.32L358.917 1354.84L358.915 1354.85C353.538 1364.38 351.532 1373.03 353.518 1380.74C355.262 1388.46 360.729 1394.88 369.797 1400.03C378.866 1405.18 387.027 1406.69 394.729 1404.45L394.733 1404.45C402.186 1402.21 408.837 1396.26 414.223 1386.71C414.223 1386.71 414.224 1386.71 414.224 1386.71L444.357 1334.18L444.358 1334.18C450.222 1323.91 452.468 1314.79 450.731 1306.59C448.993 1298.4 443.534 1291.73 434.698 1286.57ZM422.289 1307.86L422.301 1307.87L422.314 1307.88C424.092 1308.76 424.928 1310.28 424.714 1311.99L424.711 1312.02V1312.05C424.711 1313.86 423.797 1316.43 421.86 1319.83L390.996 1373.81L390.995 1373.81C389.434 1376.58 387.855 1378.3 386.285 1379.08C384.757 1379.85 383.177 1379.76 381.48 1378.74L381.48 1378.74L381.471 1378.73C379.912 1377.84 379.168 1376.6 379.141 1374.96C379.113 1373.28 379.847 1371.12 381.411 1368.48L381.414 1368.47L412.274 1314.49C414.207 1311.35 415.981 1309.24 417.647 1308.15C418.473 1307.61 419.257 1307.33 420.009 1307.28C420.758 1307.23 421.512 1307.42 422.289 1307.86Z" fill="#EB92B7" stroke="black"/>
<path d="M392.078 1262L392.374 1261.6L391.962 1261.3L371.062 1246.47L370.659 1246.18L370.368 1246.58L310.151 1329.58L298.406 1320.89L298.001 1320.59L297.704 1321L283.366 1340.69L283.071 1341.1L283.476 1341.39L328.679 1374.22L329.083 1374.51L329.377 1374.11L343.715 1354.41L344.007 1354.01L343.608 1353.72L331.855 1345.01L392.078 1262Z" fill="#EB92B7" stroke="black"/>
<path d="M347.817 1228L348.146 1227.63L347.776 1227.29L328.82 1210.27L328.446 1209.94L328.112 1210.31L260.151 1287.03L249.103 1277.38L248.73 1277.06L248.401 1277.43L232.118 1295.67L231.784 1296.04L232.16 1296.37L273.961 1333.34L274.333 1333.67L274.665 1333.29L290.947 1315.06L291.284 1314.68L290.903 1314.35L279.861 1304.71L347.817 1228Z" fill="#EB92B7" stroke="black"/>
<path d="M314.245 1197.88L314.614 1197.54L314.27 1197.17L278.059 1158.5L277.72 1158.14L277.356 1158.48L259.129 1175.26L258.76 1175.6L259.1 1175.97L276.989 1195.3L256.336 1214.55L240.394 1197.17L240.053 1196.8L239.685 1197.15L222.187 1213.44L221.824 1213.78L222.159 1214.14L238.104 1231.53L220.613 1247.63L203.939 1229.52L203.598 1229.15L203.23 1229.49L185.247 1246.27L184.882 1246.61L185.221 1246.97L219.974 1284.42L220.313 1284.79L220.68 1284.45L314.245 1197.88Z" fill="#EB92B7" stroke="black"/>
<path d="M274.833 1155.11L275.231 1154.82L274.938 1154.42L259.628 1133.5L259.33 1133.1L258.925 1133.4L212.667 1167.87C210.714 1165.19 209.871 1163.2 209.656 1161.69C209.56 1161.02 209.791 1160.24 210.448 1159.32C211.105 1158.41 212.153 1157.41 213.591 1156.33C213.592 1156.33 213.592 1156.33 213.593 1156.33L253.689 1126.66L254.093 1126.36L253.792 1125.96L238.725 1105.78L238.426 1105.38L238.026 1105.68L199.39 1134.37C195.22 1137.31 192.231 1140.54 190.723 1143.8L190.723 1143.8L190.718 1143.82C189.405 1146.88 189.232 1149.96 190.354 1153.18C186.519 1150.88 182.48 1150.16 178.431 1151.06C173.954 1152.06 169.026 1154.78 163.418 1158.93L163.415 1158.93C157.564 1163.32 152.919 1167.48 149.245 1171.65C145.54 1175.85 143.546 1180.32 143.047 1184.81L143.046 1184.83L143.045 1184.84C142.794 1189.62 144.559 1194.35 148.486 1199.75L148.49 1199.76L171.82 1231.13L172.118 1231.53L172.52 1231.23L274.833 1155.11ZM179.083 1179.92L179.086 1179.91C182.106 1177.62 184.588 1176.27 186.546 1175.84C187.518 1175.63 188.337 1175.64 189.023 1175.86C189.703 1176.07 190.287 1176.49 190.777 1177.14L194.126 1181.61L176.207 1195.35L172.868 1190.89C171.73 1189.3 171.559 1187.8 172.182 1186.55L172.189 1186.54L172.195 1186.52C172.518 1185.77 173.246 1184.85 174.419 1183.74C175.582 1182.63 177.144 1181.37 179.083 1179.92Z" fill="#EB92B7" stroke="black"/>
<path d="M227.152 1087.3L227.585 1087.05L227.335 1086.62L215.427 1065.95L215.177 1065.51L214.744 1065.76L178.583 1086.65L94.5523 1111.92L93.9475 1112.1L94.2633 1112.65L106.901 1134.54L107.114 1134.9L107.512 1134.75L145.472 1120.28L114.064 1146.06L113.736 1146.33L113.948 1146.69L126.586 1168.58L126.903 1169.13L127.363 1168.69L190.993 1108.18L227.152 1087.3Z" fill="#EB92B7" stroke="black"/>
<path d="M170.972 1061.79L171.425 1061.58L171.218 1061.12L155.664 1027.08L155.456 1026.62L155 1026.83L139.69 1033.89L139.237 1034.09L139.444 1034.55L154.998 1068.59L155.206 1069.05L155.662 1068.84L170.972 1061.79Z" fill="white" stroke="black"/>
<path d="M181.868 995.172L182.338 995.004L182.17 994.533L173.664 970.702L173.496 970.23L173.025 970.399L76.5294 1005L71.5939 991.129L71.426 990.657L70.9542 990.826L47.8668 999.094L47.3969 999.263L47.5644 999.733L66.2773 1052.26L66.4454 1052.73L66.9169 1052.56L90.0043 1044.29L90.474 1044.13L90.3068 1043.66L85.3704 1029.78L181.868 995.172Z" fill="#5BC4EC" stroke="black"/>
<path d="M167.493 953.114L167.97 952.983L167.844 952.505L161.526 928.43L161.397 927.941L160.91 928.075L37.9388 961.877L37.4564 962.009L37.5892 962.492L44.1509 986.323L44.2834 986.804L44.7649 986.673L167.493 953.114Z" fill="#5BC4EC" stroke="black"/>
<path d="M157.47 922.972L157.965 922.899L157.891 922.404L154.489 899.545L154.415 899.05L153.92 899.124L69.0107 911.846L151.718 885.018L152.122 884.887L152.058 884.468L148.656 861.852L148.593 861.431L148.167 861.426L61.5992 860.519L146.292 847.83L146.785 847.756L146.712 847.263L143.31 824.161L143.237 823.666L142.742 823.739L16.6116 842.464L16.1159 842.538L16.1907 843.033L22.0233 881.698L22.0882 882.129L22.5239 882.124L97.3852 881.196L25.5361 902.301L25.1197 902.423L25.1822 902.852L30.7718 941.274L30.844 941.771L31.34 941.697L157.47 922.972Z" fill="#5BC4EC" stroke="black"/>
<path d="M144.038 816.952L144.537 816.944L144.53 816.445L143.801 763.189L143.794 762.686L143.291 762.696L118.503 763.183L118.004 763.192L118.013 763.692L118.49 789.94L90.3256 790.41L89.8496 766.834L89.8395 766.334L89.3396 766.344L65.2801 766.83L64.7802 766.84L64.7903 767.34L65.2662 790.915L41.4779 791.381L41.0015 766.834L40.9918 766.334L40.4917 766.344L15.9461 766.83L15.449 766.84L15.4561 767.337L16.1852 818.405L16.1923 818.905L16.6928 818.897L144.038 816.952Z" fill="#5BC4EC" stroke="black"/>
<path d="M143.984 758.83L144.481 758.876L144.528 758.38L149.389 707.069L149.436 706.569L148.936 706.524L127.306 704.579L126.81 704.534L126.764 705.03L124.38 730.553L19.6474 720.872L19.1513 720.826L19.1037 721.322L16.6734 746.612L16.6254 747.112L17.1253 747.158L143.984 758.83Z" fill="#EB92B7" stroke="black"/>
<path d="M115.01 697.298L115.016 697.299C126.497 699.499 135.873 698.785 143.068 694.565C150.265 690.343 154.95 683.152 156.915 673.073C158.879 663.004 157.418 654.578 152.447 648.111C147.485 641.658 139.092 637.24 127.609 634.795L127.605 634.795L68.3068 622.636L68.3067 622.636C57.5427 620.432 48.6501 621.393 41.9419 625.617C35.2208 629.605 30.7922 637.05 28.8316 647.104C26.8704 657.162 28.0827 665.579 32.5566 672.045L32.5588 672.049C37.2756 678.756 44.9465 682.936 55.7117 685.139C55.7117 685.139 55.7118 685.139 55.7119 685.139L115.01 697.298ZM132.846 668.021L132.842 668.04L132.84 668.058C132.728 669.066 132.399 669.813 131.873 670.391C131.343 670.976 130.578 671.425 129.534 671.773L129.514 671.78L129.495 671.788C128.747 672.108 127.682 672.233 126.28 672.173C124.889 672.114 123.216 671.876 121.282 671.513C121.281 671.513 121.279 671.513 121.278 671.513L60.5358 659.113C57.4149 658.392 55.2773 657.387 54.0089 656.118C52.7743 654.882 52.323 653.357 52.6554 651.442C53.1036 649.782 54.0822 648.706 55.6436 648.158C57.2505 647.594 59.515 647.576 62.518 648.176C62.5182 648.177 62.5185 648.177 62.5187 648.177L123.509 660.577C127.133 661.424 129.651 662.436 131.169 663.668C131.921 664.279 132.414 664.933 132.684 665.636C132.954 666.339 133.014 667.125 132.846 668.021Z" fill="#EB92B7" stroke="black"/>
<path d="M166.965 625.061L167.442 625.213L167.594 624.737L175.371 600.419L175.523 599.943L175.047 599.791L77.5848 568.573L82.0489 554.703L82.2019 554.227L81.7266 554.074L58.3962 546.535L57.9195 546.381L57.7664 546.858L40.7546 599.871L40.6022 600.346L41.077 600.499L64.4074 608.038L64.8837 608.192L65.0371 607.715L69.5016 593.843L166.965 625.061Z" fill="#EB92B7" stroke="black"/>
<path d="M185.389 572.031L185.852 572.231L186.048 571.766L196.012 548.178L196.205 547.721L195.75 547.525L101.675 506.87L107.548 493.469L107.75 493.01L107.29 492.81L84.9317 483.083L84.4716 482.883L84.2731 483.344L62.1578 534.654L61.9605 535.112L62.4175 535.311L84.7758 545.038L85.233 545.237L85.4332 544.78L91.3091 531.374L185.389 572.031Z" fill="#EB92B7" stroke="black"/>
<path d="M203.329 530.912L203.765 531.154L204.008 530.718L229.526 485.001L229.769 484.566L229.334 484.321L207.705 472.162L207.266 471.915L207.022 472.357L194.384 495.264L169.743 481.644L181.164 461.169L181.407 460.733L180.971 460.489L160.071 448.817L159.634 448.573L159.39 449.01L147.97 469.485L127.211 457.815L139.121 436.364L139.365 435.926L138.925 435.684L117.296 423.768L116.86 423.528L116.618 423.962L91.8293 468.464L91.5856 468.902L92.0235 469.145L203.329 530.912Z" fill="#EB92B7" stroke="black"/>
<path d="M231.716 480.302L232.129 480.594L232.417 480.179L247.241 458.779L247.523 458.372L247.119 458.086L200.145 424.822C201.951 422.401 203.497 420.926 204.984 420.288C205.693 419.984 206.598 419.965 207.708 420.307C208.819 420.649 210.104 421.344 211.534 422.417L211.534 422.418L211.544 422.425L252.129 451.363L252.536 451.653L252.827 451.246L267.408 430.819L267.699 430.411L267.291 430.121L227.921 402.156L227.92 402.155C223.748 399.208 219.785 397.463 216.28 396.962C213.206 396.522 210.154 397.41 207.45 399.417C208.577 395.051 207.94 391.056 205.697 387.465L205.693 387.458L205.689 387.452C203.211 383.733 199.026 379.802 193.419 375.655L193.419 375.655L193.411 375.649C187.56 371.502 182.182 368.32 177.036 366.113C171.851 363.89 167.127 363.384 162.635 364.383C158.096 365.392 153.87 368.658 150.182 374.069L127.583 405.922L127.293 406.33L127.702 406.619L231.716 480.302ZM178.495 396.649L178.498 396.652C181.636 398.826 183.628 400.78 184.606 402.506C185.091 403.362 185.317 404.146 185.323 404.863C185.33 405.573 185.122 406.248 184.69 406.9L181.339 411.594L162.952 398.552L166.067 394.099C166.067 394.099 166.068 394.098 166.068 394.097C167.203 392.509 168.491 391.905 169.963 392.115C170.73 392.225 171.825 392.62 173.266 393.371C174.698 394.117 176.441 395.198 178.495 396.649Z" fill="#EB92B7" stroke="black"/>
<path d="M281.493 413.879L281.866 414.212L282.199 413.839L298.239 395.844L298.571 395.471L298.198 395.138L266.892 367.212L216.619 295.036L216.258 294.517L215.836 294.988L199.068 313.713L198.784 314.03L199.051 314.36L224.618 346.057L190.229 324.324L189.869 324.096L189.588 324.415L172.819 343.383L172.402 343.854L172.955 344.154L250.186 385.953L281.493 413.879Z" fill="#EB92B7" stroke="black"/>
<path d="M288.019 352.321L288.36 352.69L288.728 352.348L316.19 326.815L316.554 326.476L316.217 326.11L304.795 313.708L304.454 313.338L304.086 313.68L276.625 339.214L276.26 339.553L276.597 339.919L288.019 352.321Z" fill="white" stroke="black"/>
</g>
</g>
</g>
<defs>
<filter id="filter0_d_19_1111" x="11.9419" y="83.2261" width="1411.4" height="1412.56" filterUnits="userSpaceOnUse" color-interpolation-filters="sRGB">
<feFlood flood-opacity="0" result="BackgroundImageFix"/>
<feColorMatrix in="SourceAlpha" type="matrix" values="0 0 0 0 0 0 0 0 0 0 0 0 0 0 0 0 0 0 127 0" result="hardAlpha"/>
<feOffset dx="-3" dy="3"/>
<feComposite in2="hardAlpha" operator="out"/>
<feColorMatrix type="matrix" values="0 0 0 0 0 0 0 0 0 0 0 0 0 0 0 0 0 0 1 0"/>
<feBlend mode="normal" in2="BackgroundImageFix" result="effect1_dropShadow_19_1111"/>
<feBlend mode="normal" in="SourceGraphic" in2="effect1_dropShadow_19_1111" result="shape"/>
</filter>
<clipPath id="clip0_19_1111">
<rect width="1438.15" height="1576.75" fill="white" transform="translate(0.854492)"/>
</clipPath>
<clipPath id="clip1_19_1111">
<rect width="1446" height="1408" fill="white" transform="translate(-3 84)"/>
</clipPath>
</defs>
</svg>
