<svg width="48" height="51" viewBox="0 0 48 51" fill="none" xmlns="http://www.w3.org/2000/svg">
<g clip-path="url(#clip0_54_524)">
<path d="M15.3252 38.3729L13.7811 37.8768L14.0313 39.4792C14.4025 41.857 16.0934 43.94 18.5887 44.6086C21.084 45.2772 23.5899 44.3188 25.1003 42.4452L26.1183 41.1825L24.5329 40.8401C23.0544 40.5208 21.5279 40.1633 19.8969 39.7263C18.266 39.2893 16.7653 38.8356 15.3252 38.3729Z" fill="#EA92B6" stroke="black" stroke-width="2"/>
<path d="M38.8743 36.7064L38.8747 36.7075C39.4292 38.0003 39.3148 39.4843 38.5571 40.6744L38.5571 40.6745C37.8155 41.8391 36.5507 42.5632 35.1686 42.5985C35.1684 42.5985 35.1681 42.5985 35.1678 42.5985L35.1425 41.5989C33.309 41.6468 30.3764 41.4681 26.0543 40.6199L38.8743 36.7064ZM38.8743 36.7064C38.2512 35.2585 37.4692 33.1611 36.9966 30.8666C36.5218 28.5618 36.3751 26.1334 36.9506 23.9855C38.2567 19.111 36.4516 13.9088 32.5226 10.8863C32.7361 8.59505 31.2807 6.41008 28.9886 5.79591C26.695 5.18134 24.3433 6.34638 23.3828 8.43722C18.4677 9.08985 14.3032 12.6926 12.9971 17.5672C12.4213 19.7159 11.0803 21.7458 9.51707 23.5041C7.96075 25.2547 6.23497 26.6797 4.97095 27.6217L4.97055 27.622C3.841 28.4648 3.20021 29.8084 3.26138 31.217L3.26138 31.2171C3.32138 32.597 4.05657 33.8565 5.23511 34.5778L38.8743 36.7064Z" fill="#EA92B6" stroke="black" stroke-width="2"/>
</g>
<defs>
<clipPath id="clip0_54_524">
<rect width="38" height="42" fill="white" transform="translate(10.8704) rotate(15)"/>
</clipPath>
</defs>
</svg>
