<svg width="621" height="401" viewBox="0 0 621 401" fill="none" xmlns="http://www.w3.org/2000/svg">
<g filter="url(#filter0_dd_62_212)">
<path d="M600.819 368.725C600.819 365.085 603.685 362.254 607.37 362.254V354.771C603.685 354.771 600.819 351.94 600.819 348.3C600.819 344.659 603.685 341.828 607.37 341.828V334.143C603.685 334.143 600.819 331.312 600.819 327.672C600.819 324.031 603.685 321.2 607.37 321.2V313.717C603.685 313.717 600.819 310.886 600.819 307.246C600.819 303.606 603.685 300.774 607.37 300.774V293.292C603.685 293.292 600.819 290.46 600.819 286.82C600.819 283.18 603.685 280.349 607.37 280.349V272.866C603.685 272.866 600.819 270.035 600.819 266.394C600.819 262.754 603.685 259.923 607.37 259.923V252.44C603.685 252.44 600.819 249.609 600.819 245.969C600.819 242.328 603.685 239.497 607.37 239.497V232.014C603.685 232.014 600.819 229.183 600.819 225.543C600.819 221.903 603.685 219.071 607.37 219.071V210.78C603.685 210.78 600.819 207.948 600.819 204.308C600.819 200.668 603.685 197.837 607.37 197.837V190.354C603.685 190.354 600.819 187.523 600.819 183.882C600.819 180.242 603.685 177.411 607.37 177.411V169.928C603.685 169.928 600.819 167.097 600.819 163.457C600.819 159.816 603.685 156.985 607.37 156.985V149.502C603.685 149.502 600.819 146.671 600.819 143.031C600.819 139.391 603.685 136.559 607.37 136.559V129.077C603.685 129.077 600.819 126.245 600.819 122.605C600.819 118.965 603.685 116.134 607.37 116.134V108.651C603.685 108.651 600.819 105.82 600.819 102.179C600.819 98.5391 603.685 95.7078 607.37 95.7078V87.4162C603.685 87.4162 600.819 84.5849 600.819 80.9446C600.819 77.3044 603.685 74.4731 607.37 74.4731V66.9904C603.685 66.9904 600.819 64.1591 600.819 60.5189C600.819 56.8786 603.685 54.0474 607.37 54.0474V46.5647C603.685 46.5647 600.819 43.7334 600.819 40.0931C600.819 36.4529 603.685 33.6216 607.37 33.6216V26.1389C603.685 26.1389 600.819 23.3076 600.819 19.6674C600.819 16.0271 603.685 13.1958 607.37 13.1958V2.88184H594.064C594.064 6.52207 591.198 9.35337 587.513 9.35337C583.828 9.35337 580.962 6.52207 580.962 2.88184H573.388C573.388 6.52207 570.522 9.35337 566.838 9.35337C563.153 9.35337 560.287 6.52207 560.287 2.88184H552.713C552.713 6.52207 549.847 9.35337 546.162 9.35337C542.477 9.35337 539.611 6.52207 539.611 2.88184H532.037C532.037 6.52207 529.171 9.35337 525.486 9.35337C521.802 9.35337 518.936 6.52207 518.936 2.88184H510.747C510.747 6.52207 507.882 9.35337 504.197 9.35337C500.512 9.35337 497.646 6.52207 497.646 2.88184H490.072C490.072 6.52207 487.206 9.35337 483.521 9.35337C479.837 9.35337 476.971 6.52207 476.971 2.88184H469.396C469.396 6.52207 466.53 9.35337 462.846 9.35337C459.161 9.35337 456.295 6.52207 456.295 2.88184H448.721C448.721 6.52207 445.855 9.35337 442.17 9.35337C438.485 9.35337 435.619 6.52207 435.619 2.88184H428.045C428.045 6.52207 425.179 9.35337 421.495 9.35337C417.81 9.35337 414.944 6.52207 414.944 2.88184H407.37C407.37 6.52207 404.504 9.35337 400.819 9.35337C397.134 9.35337 394.268 6.52207 394.268 2.88184H385.875C385.875 6.52207 383.009 9.35337 379.325 9.35337C375.64 9.35337 372.774 6.52207 372.774 2.88184H365.2C365.2 6.52207 362.334 9.35337 358.649 9.35337C354.964 9.35337 352.098 6.52207 352.098 2.88184H344.524C344.524 6.52207 341.658 9.35337 337.974 9.35337C334.289 9.35337 331.423 6.52207 331.423 2.88184H323.849C323.849 6.52207 320.983 9.35337 317.298 9.35337C313.613 9.35337 310.747 6.52207 310.747 2.88184H303.173C303.173 6.52207 300.307 9.35337 296.623 9.35337C292.938 9.35337 290.072 6.52207 290.072 2.88184H282.498C282.498 6.52207 279.632 9.35337 275.947 9.35337C272.262 9.35337 269.396 6.52207 269.396 2.88184H261.003C261.003 6.52207 258.137 9.35337 254.453 9.35337C250.768 9.35337 247.902 6.52207 247.902 2.88184H240.328C240.328 6.52207 237.462 9.35337 233.777 9.35337C230.092 9.35337 227.226 6.52207 227.226 2.88184H219.652C219.652 6.52207 216.786 9.35337 213.102 9.35337C209.417 9.35337 206.551 6.52207 206.551 2.88184H198.977C198.977 6.52207 196.111 9.35337 192.426 9.35337C188.741 9.35337 185.875 6.52207 185.875 2.88184H178.301C178.301 6.52207 175.435 9.35337 171.75 9.35337C168.066 9.35337 165.2 6.52207 165.2 2.88184H157.626C157.626 6.52207 154.76 9.35337 151.075 9.35337C147.39 9.35337 144.524 6.52207 144.524 2.88184H136.95C136.95 6.52207 134.084 9.35337 130.399 9.35337C126.715 9.35337 123.849 6.52207 123.849 2.88184H116.275C116.275 6.52207 113.409 9.35337 109.724 9.35337C106.039 9.35337 103.173 6.52207 103.173 2.88184H95.599C95.599 6.52207 92.7331 9.35337 89.0483 9.35337C85.3636 9.35337 82.4977 6.52207 82.4977 2.88184H74.9234C74.9234 6.52207 72.0575 9.35337 68.3728 9.35337C64.688 9.35337 61.8221 6.52207 61.8221 2.88184H54.2479C54.2479 6.52207 51.382 9.35337 47.6972 9.35337C44.0125 9.35337 41.1466 6.52207 41.1466 2.88184H33.5724C33.5724 6.52207 30.7064 9.35337 27.0217 9.35337C23.3369 9.35337 20.471 6.52207 20.471 2.88184H10.645V13.1958C14.3298 13.1958 17.1957 16.0271 17.1957 19.6674C17.1957 23.3076 14.3298 26.1389 10.645 26.1389V33.6216C14.3298 33.6216 17.1957 36.4529 17.1957 40.0931C17.1957 43.7334 14.3298 46.5647 10.645 46.5647V54.0474C14.3298 54.0474 17.1957 56.8786 17.1957 60.5189C17.1957 64.1591 14.3298 66.9904 10.645 66.9904V74.4731C14.3298 74.4731 17.1957 77.3044 17.1957 80.9446C17.1957 84.5849 14.3298 87.4162 10.645 87.4162V94.8989C14.3298 94.8989 17.1957 97.7301 17.1957 101.37C17.1957 105.011 14.3298 107.842 10.645 107.842V115.325C14.3298 115.325 17.1957 118.156 17.1957 121.796C17.1957 125.436 14.3298 128.268 10.645 128.268V135.75C14.3298 135.75 17.1957 138.582 17.1957 142.222C17.1957 145.862 14.3298 148.693 10.645 148.693V156.176C14.3298 156.176 17.1957 159.007 17.1957 162.648C17.1957 166.288 14.3298 169.119 10.645 169.119V176.602C14.3298 176.602 17.1957 179.433 17.1957 183.073C17.1957 186.714 14.3298 189.545 10.645 189.545V197.028C14.3298 197.028 17.1957 199.859 17.1957 203.499C17.1957 207.139 14.3298 209.971 10.645 209.971V217.453C14.3298 217.453 17.1957 220.285 17.1957 223.925C17.1957 227.565 14.3298 230.396 10.645 230.396V237.879C14.3298 237.879 17.1957 240.71 17.1957 244.351C17.1957 247.991 14.3298 250.822 10.645 250.822V258.305C14.3298 258.305 17.1957 261.136 17.1957 264.776C17.1957 268.417 14.3298 271.248 10.645 271.248V278.731C14.3298 278.731 17.1957 281.562 17.1957 285.202C17.1957 288.842 14.3298 291.674 10.645 291.674V299.156C14.3298 299.156 17.1957 301.988 17.1957 305.628C17.1957 309.268 14.3298 312.1 10.645 312.1V319.582C14.3298 319.582 17.1957 322.413 17.1957 326.054C17.1957 329.694 14.3298 332.525 10.645 332.525V340.008C14.3298 340.008 17.1957 342.839 17.1957 346.479C17.1957 350.12 14.3298 352.951 10.645 352.951V360.434C14.3298 360.434 17.1957 363.265 17.1957 366.905C17.1957 370.546 14.3298 373.377 10.645 373.377V382.882H20.471C20.6757 379.444 23.5416 376.815 27.0217 376.815C30.5017 376.815 33.3677 379.444 33.5724 382.882H41.3513C41.556 379.444 44.4219 376.815 47.9019 376.815C51.382 376.815 54.2479 379.444 54.4526 382.882H62.2315C62.4362 379.444 65.3022 376.815 68.7822 376.815C72.2622 376.815 75.1282 379.444 75.3329 382.882H83.1118C83.3165 379.444 86.1824 376.815 89.6624 376.815C93.1425 376.815 96.0084 379.444 96.2131 382.882H103.992C104.197 379.444 107.063 376.815 110.543 376.815C114.023 376.815 116.889 379.444 117.093 382.882H124.872C125.077 379.444 127.943 376.815 131.423 376.815C134.903 376.815 137.769 379.444 137.974 382.882H145.753C145.957 379.444 148.823 376.815 152.303 376.815C155.783 376.815 158.649 379.444 158.854 382.882H166.633C166.837 379.444 169.703 376.815 173.183 376.815C176.663 376.815 179.529 379.444 179.734 382.882H187.513C187.718 379.444 190.584 376.815 194.064 376.815C197.544 376.815 200.41 379.444 200.614 382.882H208.393C208.598 379.444 211.464 376.815 214.944 376.815C218.424 376.815 221.29 379.444 221.495 382.882H229.273C229.478 379.444 232.344 376.815 235.824 376.815C239.304 376.815 242.17 379.444 242.375 382.882H250.154C250.358 379.444 253.224 376.815 256.704 376.815C260.184 376.815 263.05 379.444 263.255 382.882H271.034C271.239 379.444 274.105 376.815 277.585 376.815C281.065 376.815 283.931 379.444 284.135 382.882H291.914C292.119 379.444 294.985 376.815 298.465 376.815C301.945 376.815 304.811 379.444 305.016 382.882H312.794C312.999 379.444 315.865 376.815 319.345 376.815C322.825 376.815 325.691 379.444 325.896 382.882H333.675C333.879 379.444 336.745 376.815 340.225 376.815C343.705 376.815 346.571 379.444 346.776 382.882H354.555C354.76 379.444 357.626 376.815 361.106 376.815C364.586 376.815 367.452 379.444 367.656 382.882H375.435C375.64 379.444 378.506 376.815 381.986 376.815C385.466 376.815 388.332 379.444 388.537 382.882H396.315C396.52 379.444 399.386 376.815 402.866 376.815C406.346 376.815 409.212 379.444 409.417 382.882H417.196C417.4 379.444 420.266 376.815 423.746 376.815C427.226 376.815 430.092 379.444 430.297 382.882H438.076C438.281 379.444 441.147 376.815 444.627 376.815C448.107 376.815 450.973 379.444 451.177 382.882H458.956C459.161 379.444 462.027 376.815 465.507 376.815C468.987 376.815 471.853 379.444 472.058 382.882H479.836C480.041 379.444 482.907 376.815 486.387 376.815C489.867 376.815 492.733 379.444 492.938 382.882H500.717C500.921 379.444 503.787 376.815 507.267 376.815C510.747 376.815 513.613 379.444 513.818 382.882H521.597C521.802 379.444 524.668 376.815 528.148 376.815C531.628 376.815 534.494 379.444 534.698 382.882H542.477C542.682 379.444 545.548 376.815 549.028 376.815C552.508 376.815 555.374 379.444 555.579 382.882H563.357C563.562 379.444 566.428 376.815 569.908 376.815C573.388 376.815 576.254 379.444 576.459 382.882H584.238C584.442 379.444 587.308 376.815 590.788 376.815C594.268 376.815 597.134 379.444 597.339 382.882H610.645V373.377C603.685 375.197 600.819 372.366 600.819 368.725Z" fill="#FFF7EA"/>
</g>
<defs>
<filter id="filter0_dd_62_212" x="0.64502" y="0.881836" width="620" height="400" filterUnits="userSpaceOnUse" color-interpolation-filters="sRGB">
<feFlood flood-opacity="0" result="BackgroundImageFix"/>
<feColorMatrix in="SourceAlpha" type="matrix" values="0 0 0 0 0 0 0 0 0 0 0 0 0 0 0 0 0 0 127 0" result="hardAlpha"/>
<feMorphology radius="6" operator="erode" in="SourceAlpha" result="effect1_dropShadow_62_212"/>
<feOffset dy="8"/>
<feGaussianBlur stdDeviation="8"/>
<feColorMatrix type="matrix" values="0 0 0 0 0.0941176 0 0 0 0 0.152941 0 0 0 0 0.294118 0 0 0 0.08 0"/>
<feBlend mode="normal" in2="BackgroundImageFix" result="effect1_dropShadow_62_212"/>
<feColorMatrix in="SourceAlpha" type="matrix" values="0 0 0 0 0 0 0 0 0 0 0 0 0 0 0 0 0 0 127 0" result="hardAlpha"/>
<feMorphology radius="6" operator="erode" in="SourceAlpha" result="effect2_dropShadow_62_212"/>
<feOffset dy="6"/>
<feGaussianBlur stdDeviation="4"/>
<feColorMatrix type="matrix" values="0 0 0 0 0.0941176 0 0 0 0 0.152941 0 0 0 0 0.294118 0 0 0 0.12 0"/>
<feBlend mode="normal" in2="effect1_dropShadow_62_212" result="effect2_dropShadow_62_212"/>
<feBlend mode="normal" in="SourceGraphic" in2="effect2_dropShadow_62_212" result="shape"/>
</filter>
</defs>
</svg>
