<svg width="588" height="320" viewBox="0 0 588 320" fill="none" xmlns="http://www.w3.org/2000/svg">
<g clip-path="url(#clip0_19_1217)">
<g filter="url(#filter0_d_19_1217)">
<path d="M223.259 234.581C222.071 236.339 220.494 237.799 218.651 238.848L104.645 303.872C102.962 304.832 101.013 305.221 99.091 304.98C97.1685 304.739 95.3759 303.881 93.982 302.535C92.5882 301.189 91.6681 299.428 91.3598 297.515C91.0515 295.602 91.3715 293.641 92.2719 291.925L136.987 208.128L183.067 211.2L223.259 234.581Z" fill="#FEDB63"/>
<path d="M226.114 233.929L224.916 235.701C223.556 237.713 221.751 239.384 219.641 240.585L226.114 233.929ZM226.114 233.929L224.264 232.853L184.072 209.471L183.667 209.236L183.2 209.204L137.12 206.132L135.83 206.046L135.222 207.186L90.5074 290.984L90.5074 290.984L90.501 290.996C89.3996 293.094 89.0081 295.493 89.3853 297.833C89.7624 300.173 90.8879 302.328 92.5929 303.974C94.2979 305.62 96.4906 306.669 98.8422 306.964C101.194 307.259 103.578 306.784 105.636 305.609C105.636 305.609 105.636 305.609 105.636 305.609L219.64 240.586L226.114 233.929Z" stroke="black" stroke-width="4"/>
</g>
<g filter="url(#filter1_d_19_1217)">
<path d="M225.733 168.533V226.645C225.724 229.479 224.862 232.245 223.259 234.581L136.987 208.128L63.6001 185.6L225.733 168.533Z" fill="#FDBC26"/>
<path d="M227.733 168.533V166.312L225.524 166.544L63.3907 183.611L63.0132 187.512L136.4 210.04L136.4 210.04L222.672 236.493L224.077 236.924L224.908 235.713C226.739 233.045 227.723 229.887 227.733 226.652V226.645V168.533Z" stroke="black" stroke-width="4"/>
</g>
<g filter="url(#filter2_d_19_1217)">
<path d="M456.133 14.9331H63.5999C59.0735 14.9331 54.7325 16.7312 51.5319 19.9318C48.3313 23.1324 46.5332 27.4734 46.5332 31.9998V168.533C46.5332 173.059 48.3313 177.4 51.5319 180.601C54.7325 183.802 59.0735 185.6 63.5999 185.6H456.133C460.659 185.599 464.999 183.8 468.199 180.599L536.466 112.333C539.666 109.132 541.463 104.792 541.463 100.266C541.463 95.741 539.666 91.4008 536.466 88.2003L468.199 19.9336C464.999 16.7328 460.659 14.9341 456.133 14.9331Z" fill="#FEDB63"/>
<path d="M537.88 113.747L537.88 113.747C541.455 110.171 543.463 105.322 543.463 100.266C543.463 95.2106 541.455 90.3618 537.88 86.7863L537.88 86.7861L469.614 18.5196C466.039 14.9437 461.19 12.9342 456.134 12.9331H63.5999C58.5431 12.9331 53.6934 14.9419 50.1177 18.5176C46.542 22.0933 44.5332 26.943 44.5332 31.9998V168.533C44.5332 173.59 46.542 178.44 50.1177 182.015C53.6934 185.591 58.5431 187.6 63.5999 187.6H456.133C461.19 187.599 466.039 185.589 469.614 182.013C469.614 182.013 469.614 182.013 469.614 182.013L537.88 113.747Z" stroke="black" stroke-width="4"/>
</g>
<g filter="url(#filter3_d_19_1217)">
<mask id="path-7-outside-1_19_1217" maskUnits="userSpaceOnUse" x="101" y="51" width="358" height="87" fill="black">
<rect fill="white" x="101" y="51" width="358" height="87"/>
<path d="M119.292 135.966V129.418C113.784 128.773 109.844 126.84 107.471 123.617C105.098 120.395 103.911 115.707 103.911 109.555V107.138H119.204V108.983C119.204 113.495 120.625 115.751 123.467 115.751C124.697 115.751 125.591 115.37 126.147 114.608C126.733 113.847 127.026 112.953 127.026 111.928C127.026 110.111 126.104 108.266 124.258 106.391L111.646 93.6904C107.017 89.0615 104.702 84.0371 104.702 78.6172C104.702 75.6875 105.361 73.1094 106.68 70.8828C108.027 68.627 109.8 66.7959 111.997 65.3896C114.224 63.9541 116.655 63.002 119.292 62.5332V57.2158H126.895V62.4014C131.904 63.0459 135.713 65.1113 138.32 68.5977C140.928 72.084 142.231 76.6982 142.231 82.4404H126.543V79.584C126.543 78.3242 126.206 77.3574 125.532 76.6836C124.858 76.0098 123.965 75.6729 122.852 75.6729C121.621 75.6729 120.698 75.9805 120.083 76.5957C119.468 77.2109 119.16 78.0312 119.16 79.0566C119.16 80.5215 120.61 82.6895 123.511 85.5605L135.815 97.6895C137.632 99.4766 139.185 101.645 140.474 104.193C141.792 106.742 142.451 109.628 142.451 112.851C142.451 117.685 140.972 121.552 138.013 124.452C135.054 127.323 131.348 129.008 126.895 129.506V135.966H119.292ZM154.053 131V68.5098H144.868V53.6562H178.706V68.5098H169.521V131H154.053ZM182.31 131V53.6562H197.251V131H182.31ZM203.403 131V53.6562H226.958L233.462 100.81L239.922 53.6562H263.696V131H249.546V75.2773L240.669 131H226.782L217.378 75.2773V131H203.403ZM270.552 131V53.6562H301.489V68.5977H286.284V83.6709H300.874V98.2168H286.284V115.927H302.5V131H270.552Z"/>
<path d="M307.642 131V53.6562H331.196L337.7 100.81L344.16 53.6562H367.935V131H353.784V75.2773L344.907 131H331.021L321.616 75.2773V131H307.642ZM372.681 131L380.151 53.6562H406.387L413.726 131H399.092L397.993 118.52H388.677L387.71 131H372.681ZM389.775 106.171H396.807L393.423 66.8398H392.72L389.775 106.171ZM418.472 131V53.6562H438.906C443.184 53.6562 446.567 54.6084 449.058 56.5127C451.577 58.417 453.379 61.127 454.463 64.6426C455.547 68.1582 456.089 72.3477 456.089 77.2109C456.089 81.8984 455.635 85.9854 454.727 89.4717C453.818 92.9287 452.192 95.6094 449.849 97.5137C447.534 99.418 444.238 100.37 439.961 100.37H433.677V131H418.472ZM433.677 86.4834H434.556C437.427 86.4834 439.185 85.6777 439.829 84.0664C440.474 82.4551 440.796 80.082 440.796 76.9473C440.796 74.0176 440.474 71.7617 439.829 70.1797C439.214 68.5684 437.734 67.7627 435.391 67.7627H433.677V86.4834Z"/>
</mask>
<path d="M119.292 135.966V129.418C113.784 128.773 109.844 126.84 107.471 123.617C105.098 120.395 103.911 115.707 103.911 109.555V107.138H119.204V108.983C119.204 113.495 120.625 115.751 123.467 115.751C124.697 115.751 125.591 115.37 126.147 114.608C126.733 113.847 127.026 112.953 127.026 111.928C127.026 110.111 126.104 108.266 124.258 106.391L111.646 93.6904C107.017 89.0615 104.702 84.0371 104.702 78.6172C104.702 75.6875 105.361 73.1094 106.68 70.8828C108.027 68.627 109.8 66.7959 111.997 65.3896C114.224 63.9541 116.655 63.002 119.292 62.5332V57.2158H126.895V62.4014C131.904 63.0459 135.713 65.1113 138.32 68.5977C140.928 72.084 142.231 76.6982 142.231 82.4404H126.543V79.584C126.543 78.3242 126.206 77.3574 125.532 76.6836C124.858 76.0098 123.965 75.6729 122.852 75.6729C121.621 75.6729 120.698 75.9805 120.083 76.5957C119.468 77.2109 119.16 78.0312 119.16 79.0566C119.16 80.5215 120.61 82.6895 123.511 85.5605L135.815 97.6895C137.632 99.4766 139.185 101.645 140.474 104.193C141.792 106.742 142.451 109.628 142.451 112.851C142.451 117.685 140.972 121.552 138.013 124.452C135.054 127.323 131.348 129.008 126.895 129.506V135.966H119.292ZM154.053 131V68.5098H144.868V53.6562H178.706V68.5098H169.521V131H154.053ZM182.31 131V53.6562H197.251V131H182.31ZM203.403 131V53.6562H226.958L233.462 100.81L239.922 53.6562H263.696V131H249.546V75.2773L240.669 131H226.782L217.378 75.2773V131H203.403ZM270.552 131V53.6562H301.489V68.5977H286.284V83.6709H300.874V98.2168H286.284V115.927H302.5V131H270.552Z" fill="#5AC4EC"/>
<path d="M307.642 131V53.6562H331.196L337.7 100.81L344.16 53.6562H367.935V131H353.784V75.2773L344.907 131H331.021L321.616 75.2773V131H307.642ZM372.681 131L380.151 53.6562H406.387L413.726 131H399.092L397.993 118.52H388.677L387.71 131H372.681ZM389.775 106.171H396.807L393.423 66.8398H392.72L389.775 106.171ZM418.472 131V53.6562H438.906C443.184 53.6562 446.567 54.6084 449.058 56.5127C451.577 58.417 453.379 61.127 454.463 64.6426C455.547 68.1582 456.089 72.3477 456.089 77.2109C456.089 81.8984 455.635 85.9854 454.727 89.4717C453.818 92.9287 452.192 95.6094 449.849 97.5137C447.534 99.418 444.238 100.37 439.961 100.37H433.677V131H418.472ZM433.677 86.4834H434.556C437.427 86.4834 439.185 85.6777 439.829 84.0664C440.474 82.4551 440.796 80.082 440.796 76.9473C440.796 74.0176 440.474 71.7617 439.829 70.1797C439.214 68.5684 437.734 67.7627 435.391 67.7627H433.677V86.4834Z" fill="white"/>
<path d="M119.292 135.966H117.292V137.966H119.292V135.966ZM119.292 129.418H121.292V127.638L119.524 127.432L119.292 129.418ZM103.911 107.138V105.138H101.911V107.138H103.911ZM119.204 107.138H121.204V105.138H119.204V107.138ZM126.147 114.608L124.562 113.389L124.547 113.408L124.533 113.428L126.147 114.608ZM124.258 106.391L125.683 104.988L125.677 104.981L124.258 106.391ZM111.646 93.6904L113.065 92.2811L113.06 92.2762L111.646 93.6904ZM106.68 70.8828L104.963 69.8571L104.959 69.8638L106.68 70.8828ZM111.997 65.3896L113.075 67.0742L113.081 67.0706L111.997 65.3896ZM119.292 62.5332L119.642 64.5023L121.292 64.209V62.5332H119.292ZM119.292 57.2158V55.2158H117.292V57.2158H119.292ZM126.895 57.2158H128.895V55.2158H126.895V57.2158ZM126.895 62.4014H124.895V64.1605L126.639 64.385L126.895 62.4014ZM142.231 82.4404V84.4404H144.231V82.4404H142.231ZM126.543 82.4404H124.543V84.4404H126.543V82.4404ZM123.511 85.5605L122.104 86.9819L122.107 86.9849L123.511 85.5605ZM135.815 97.6895L134.411 99.1138L134.413 99.1151L135.815 97.6895ZM140.474 104.193L138.689 105.096L138.693 105.104L138.697 105.112L140.474 104.193ZM138.013 124.452L139.405 125.888L139.413 125.88L138.013 124.452ZM126.895 129.506L126.672 127.518L124.895 127.717V129.506H126.895ZM126.895 135.966V137.966H128.895V135.966H126.895ZM121.292 135.966V129.418H117.292V135.966H121.292ZM119.524 127.432C114.348 126.826 111.015 125.057 109.081 122.431L105.86 124.803C108.673 128.623 113.22 130.721 119.06 131.404L119.524 127.432ZM109.081 122.431C107.064 119.692 105.911 115.496 105.911 109.555H101.911C101.911 115.918 103.131 121.097 105.86 124.803L109.081 122.431ZM105.911 109.555V107.138H101.911V109.555H105.911ZM103.911 109.138H119.204V105.138H103.911V109.138ZM117.204 107.138V108.983H121.204V107.138H117.204ZM117.204 108.983C117.204 111.385 117.571 113.526 118.577 115.125C119.682 116.879 121.413 117.751 123.467 117.751V113.751C122.678 113.751 122.278 113.495 121.962 112.993C121.548 112.336 121.204 111.094 121.204 108.983H117.204ZM123.467 117.751C125.122 117.751 126.719 117.216 127.762 115.788L124.533 113.428C124.463 113.524 124.272 113.751 123.467 113.751V117.751ZM127.733 115.828C128.606 114.692 129.026 113.363 129.026 111.928H125.026C125.026 112.544 124.861 113.001 124.562 113.389L127.733 115.828ZM129.026 111.928C129.026 109.39 127.732 107.069 125.683 104.988L122.833 107.794C124.475 109.462 125.026 110.832 125.026 111.928H129.026ZM125.677 104.981L113.065 92.2811L110.226 95.0997L122.839 107.8L125.677 104.981ZM113.06 92.2762C108.723 87.9391 106.702 83.3995 106.702 78.6172H102.702C102.702 84.6747 105.311 90.1839 110.231 95.1046L113.06 92.2762ZM106.702 78.6172C106.702 75.9976 107.288 73.7807 108.401 71.9018L104.959 69.8638C103.435 72.438 102.702 75.3774 102.702 78.6172H106.702ZM108.397 71.9085C109.587 69.9168 111.141 68.3121 113.075 67.0742L110.919 63.7051C108.459 65.2797 106.468 67.3371 104.963 69.8571L108.397 71.9085ZM113.081 67.0706C115.082 65.7804 117.264 64.9252 119.642 64.5023L118.942 60.5641C116.047 61.0788 113.365 62.1278 110.913 63.7087L113.081 67.0706ZM121.292 62.5332V57.2158H117.292V62.5332H121.292ZM119.292 59.2158H126.895V55.2158H119.292V59.2158ZM124.895 57.2158V62.4014H128.895V57.2158H124.895ZM126.639 64.385C131.206 64.9725 134.488 66.8125 136.719 69.7955L139.922 67.3998C136.938 63.4102 132.603 61.1193 127.15 60.4177L126.639 64.385ZM136.719 69.7955C138.996 72.8402 140.231 76.9928 140.231 82.4404H144.231C144.231 76.4037 142.86 71.3277 139.922 67.3998L136.719 69.7955ZM142.231 80.4404H126.543V84.4404H142.231V80.4404ZM128.543 82.4404V79.584H124.543V82.4404H128.543ZM128.543 79.584C128.543 77.9708 128.104 76.4272 126.946 75.2694L124.118 78.0978C124.308 78.2876 124.543 78.6777 124.543 79.584H128.543ZM126.946 75.2694C125.835 74.1575 124.399 73.6729 122.852 73.6729V77.6729C123.531 77.6729 123.882 77.8621 124.118 78.0978L126.946 75.2694ZM122.852 73.6729C121.313 73.6729 119.791 74.0589 118.669 75.1815L121.497 78.0099C121.605 77.902 121.929 77.6729 122.852 77.6729V73.6729ZM118.669 75.1815C117.612 76.2382 117.16 77.6027 117.16 79.0566H121.16C121.16 78.4598 121.323 78.1837 121.497 78.0099L118.669 75.1815ZM117.16 79.0566C117.16 80.3885 117.79 81.7045 118.585 82.8932C119.414 84.1326 120.605 85.4985 122.104 86.9819L124.918 84.1392C123.516 82.7515 122.531 81.5978 121.91 80.6693C121.255 79.6901 121.16 79.1896 121.16 79.0566H117.16ZM122.107 86.9849L134.411 99.1138L137.219 96.2651L124.915 84.1362L122.107 86.9849ZM134.413 99.1151C136.057 100.733 137.486 102.718 138.689 105.096L142.258 103.291C140.883 100.571 139.207 98.2206 137.218 96.2638L134.413 99.1151ZM138.697 105.112C139.851 107.344 140.451 109.908 140.451 112.851H144.451C144.451 109.348 143.733 106.141 142.25 103.275L138.697 105.112ZM140.451 112.851C140.451 117.244 139.124 120.563 136.613 123.024L139.413 125.88C142.82 122.541 144.451 118.125 144.451 112.851H140.451ZM136.62 123.017C134.007 125.552 130.725 127.065 126.672 127.518L127.117 131.493C131.97 130.951 136.1 129.095 139.405 125.888L136.62 123.017ZM124.895 129.506V135.966H128.895V129.506H124.895ZM126.895 133.966H119.292V137.966H126.895V133.966ZM154.053 131H152.053V133H154.053V131ZM154.053 68.5098H156.053V66.5098H154.053V68.5098ZM144.868 68.5098H142.868V70.5098H144.868V68.5098ZM144.868 53.6562V51.6562H142.868V53.6562H144.868ZM178.706 53.6562H180.706V51.6562H178.706V53.6562ZM178.706 68.5098V70.5098H180.706V68.5098H178.706ZM169.521 68.5098V66.5098H167.521V68.5098H169.521ZM169.521 131V133H171.521V131H169.521ZM156.053 131V68.5098H152.053V131H156.053ZM154.053 66.5098H144.868V70.5098H154.053V66.5098ZM146.868 68.5098V53.6562H142.868V68.5098H146.868ZM144.868 55.6562H178.706V51.6562H144.868V55.6562ZM176.706 53.6562V68.5098H180.706V53.6562H176.706ZM178.706 66.5098H169.521V70.5098H178.706V66.5098ZM167.521 68.5098V131H171.521V68.5098H167.521ZM169.521 129H154.053V133H169.521V129ZM182.31 131H180.31V133H182.31V131ZM182.31 53.6562V51.6562H180.31V53.6562H182.31ZM197.251 53.6562H199.251V51.6562H197.251V53.6562ZM197.251 131V133H199.251V131H197.251ZM184.31 131V53.6562H180.31V131H184.31ZM182.31 55.6562H197.251V51.6562H182.31V55.6562ZM195.251 53.6562V131H199.251V53.6562H195.251ZM197.251 129H182.31V133H197.251V129ZM203.403 131H201.403V133H203.403V131ZM203.403 53.6562V51.6562H201.403V53.6562H203.403ZM226.958 53.6562L228.939 53.383L228.701 51.6562H226.958V53.6562ZM233.462 100.81L231.481 101.083L235.443 101.081L233.462 100.81ZM239.922 53.6562V51.6562H238.177L237.94 53.3848L239.922 53.6562ZM263.696 53.6562H265.696V51.6562H263.696V53.6562ZM263.696 131V133H265.696V131H263.696ZM249.546 131H247.546V133H249.546V131ZM249.546 75.2773H251.546L247.571 74.9627L249.546 75.2773ZM240.669 131V133H242.376L242.644 131.315L240.669 131ZM226.782 131L224.81 131.333L225.091 133H226.782V131ZM217.378 75.2773L219.35 74.9445L215.378 75.2773H217.378ZM217.378 131V133H219.378V131H217.378ZM205.403 131V53.6562H201.403V131H205.403ZM203.403 55.6562H226.958V51.6562H203.403V55.6562ZM224.977 53.9295L231.481 101.083L235.443 100.536L228.939 53.383L224.977 53.9295ZM235.443 101.081L241.903 53.9277L237.94 53.3848L231.48 100.538L235.443 101.081ZM239.922 55.6562H263.696V51.6562H239.922V55.6562ZM261.696 53.6562V131H265.696V53.6562H261.696ZM263.696 129H249.546V133H263.696V129ZM251.546 131V75.2773H247.546V131H251.546ZM247.571 74.9627L238.694 130.685L242.644 131.315L251.521 75.592L247.571 74.9627ZM240.669 129H226.782V133H240.669V129ZM228.754 130.667L219.35 74.9445L215.406 75.6102L224.81 131.333L228.754 130.667ZM215.378 75.2773V131H219.378V75.2773H215.378ZM217.378 129H203.403V133H217.378V129ZM270.552 131H268.552V133H270.552V131ZM270.552 53.6562V51.6562H268.552V53.6562H270.552ZM301.489 53.6562H303.489V51.6562H301.489V53.6562ZM301.489 68.5977V70.5977H303.489V68.5977H301.489ZM286.284 68.5977V66.5977H284.284V68.5977H286.284ZM286.284 83.6709H284.284V85.6709H286.284V83.6709ZM300.874 83.6709H302.874V81.6709H300.874V83.6709ZM300.874 98.2168V100.217H302.874V98.2168H300.874ZM286.284 98.2168V96.2168H284.284V98.2168H286.284ZM286.284 115.927H284.284V117.927H286.284V115.927ZM302.5 115.927H304.5V113.927H302.5V115.927ZM302.5 131V133H304.5V131H302.5ZM272.552 131V53.6562H268.552V131H272.552ZM270.552 55.6562H301.489V51.6562H270.552V55.6562ZM299.489 53.6562V68.5977H303.489V53.6562H299.489ZM301.489 66.5977H286.284V70.5977H301.489V66.5977ZM284.284 68.5977V83.6709H288.284V68.5977H284.284ZM286.284 85.6709H300.874V81.6709H286.284V85.6709ZM298.874 83.6709V98.2168H302.874V83.6709H298.874ZM300.874 96.2168H286.284V100.217H300.874V96.2168ZM284.284 98.2168V115.927H288.284V98.2168H284.284ZM286.284 117.927H302.5V113.927H286.284V117.927ZM300.5 115.927V131H304.5V115.927H300.5ZM302.5 129H270.552V133H302.5V129ZM307.642 131H305.642V133H307.642V131ZM307.642 53.6562V51.6562H305.642V53.6562H307.642ZM331.196 53.6562L333.178 53.383L332.939 51.6562H331.196V53.6562ZM337.7 100.81L335.719 101.083L339.682 101.081L337.7 100.81ZM344.16 53.6562V51.6562H342.415L342.179 53.3848L344.16 53.6562ZM367.935 53.6562H369.935V51.6562H367.935V53.6562ZM367.935 131V133H369.935V131H367.935ZM353.784 131H351.784V133H353.784V131ZM353.784 75.2773H355.784L351.809 74.9627L353.784 75.2773ZM344.907 131V133H346.614L346.882 131.315L344.907 131ZM331.021 131L329.048 131.333L329.33 133H331.021V131ZM321.616 75.2773L323.588 74.9445L319.616 75.2773H321.616ZM321.616 131V133H323.616V131H321.616ZM309.642 131V53.6562H305.642V131H309.642ZM307.642 55.6562H331.196V51.6562H307.642V55.6562ZM329.215 53.9295L335.719 101.083L339.681 100.536L333.178 53.383L329.215 53.9295ZM339.682 101.081L346.142 53.9277L342.179 53.3848L335.719 100.538L339.682 101.081ZM344.16 55.6562H367.935V51.6562H344.16V55.6562ZM365.935 53.6562V131H369.935V53.6562H365.935ZM367.935 129H353.784V133H367.935V129ZM355.784 131V75.2773H351.784V131H355.784ZM351.809 74.9627L342.932 130.685L346.882 131.315L355.759 75.592L351.809 74.9627ZM344.907 129H331.021V133H344.907V129ZM332.993 130.667L323.588 74.9445L319.644 75.6102L329.048 131.333L332.993 130.667ZM319.616 75.2773V131H323.616V75.2773H319.616ZM321.616 129H307.642V133H321.616V129ZM372.681 131L370.69 130.808L370.478 133H372.681V131ZM380.151 53.6562V51.6562H378.335L378.161 53.464L380.151 53.6562ZM406.387 53.6562L408.378 53.4673L408.206 51.6562H406.387V53.6562ZM413.726 131V133H415.924L415.717 130.811L413.726 131ZM399.092 131L397.099 131.175L397.26 133H399.092V131ZM397.993 118.52L399.985 118.344L399.825 116.52H397.993V118.52ZM388.677 118.52V116.52H386.826L386.683 118.365L388.677 118.52ZM387.71 131V133H389.561L389.704 131.154L387.71 131ZM389.775 106.171L387.781 106.022L387.62 108.171H389.775V106.171ZM396.807 106.171V108.171H398.986L398.799 105.999L396.807 106.171ZM393.423 66.8398L395.415 66.6684L395.258 64.8398H393.423V66.8398ZM392.72 66.8398V64.8398H390.864L390.725 66.6905L392.72 66.8398ZM374.671 131.192L382.142 53.8485L378.161 53.464L370.69 130.808L374.671 131.192ZM380.151 55.6562H406.387V51.6562H380.151V55.6562ZM404.396 53.8452L411.735 131.189L415.717 130.811L408.378 53.4673L404.396 53.8452ZM413.726 129H399.092V133H413.726V129ZM401.084 130.825L399.985 118.344L396.001 118.695L397.099 131.175L401.084 130.825ZM397.993 116.52H388.677V120.52H397.993V116.52ZM386.683 118.365L385.716 130.846L389.704 131.154L390.671 118.674L386.683 118.365ZM387.71 129H372.681V133H387.71V129ZM389.775 108.171H396.807V104.171H389.775V108.171ZM398.799 105.999L395.415 66.6684L391.43 67.0113L394.814 106.342L398.799 105.999ZM393.423 64.8398H392.72V68.8398H393.423V64.8398ZM390.725 66.6905L387.781 106.022L391.77 106.32L394.714 66.9891L390.725 66.6905ZM418.472 131H416.472V133H418.472V131ZM418.472 53.6562V51.6562H416.472V53.6562H418.472ZM449.058 56.5127L447.843 58.1014L447.852 58.1082L449.058 56.5127ZM454.727 89.4717L456.661 89.9799L456.662 89.9759L454.727 89.4717ZM449.849 97.5137L448.587 95.9614L448.578 95.9692L449.849 97.5137ZM433.677 100.37V98.3701H431.677V100.37H433.677ZM433.677 131V133H435.677V131H433.677ZM433.677 86.4834H431.677V88.4834H433.677V86.4834ZM439.829 70.1797L437.961 70.8931L437.969 70.9138L437.977 70.9343L439.829 70.1797ZM433.677 67.7627V65.7627H431.677V67.7627H433.677ZM420.472 131V53.6562H416.472V131H420.472ZM418.472 55.6562H438.906V51.6562H418.472V55.6562ZM438.906 55.6562C442.902 55.6562 445.809 56.5461 447.843 58.1014L450.273 54.924C447.326 52.6707 443.465 51.6562 438.906 51.6562V55.6562ZM447.852 58.1082C449.984 59.7195 451.57 62.049 452.552 65.2319L456.374 64.0533C455.188 60.2049 453.171 57.1145 450.264 54.9172L447.852 58.1082ZM452.552 65.2319C453.561 68.5065 454.089 72.4872 454.089 77.2109H458.089C458.089 72.2081 457.532 67.8099 456.374 64.0533L452.552 65.2319ZM454.089 77.2109C454.089 81.7763 453.646 85.6866 452.791 88.9675L456.662 89.9759C457.624 86.2841 458.089 82.0205 458.089 77.2109H454.089ZM452.792 88.9635C451.971 92.0875 450.544 94.3714 448.587 95.9614L451.11 99.0659C453.84 96.8473 455.665 93.7699 456.661 89.9799L452.792 88.9635ZM448.578 95.9692C446.747 97.4756 443.969 98.3701 439.961 98.3701V102.37C444.508 102.37 448.321 101.36 451.119 99.0581L448.578 95.9692ZM439.961 98.3701H433.677V102.37H439.961V98.3701ZM431.677 100.37V131H435.677V100.37H431.677ZM433.677 129H418.472V133H433.677V129ZM433.677 88.4834H434.556V84.4834H433.677V88.4834ZM434.556 88.4834C437.65 88.4834 440.565 87.6118 441.686 84.8092L437.972 83.3236C437.804 83.7436 437.204 84.4834 434.556 84.4834V88.4834ZM441.686 84.8092C442.473 82.8423 442.796 80.1649 442.796 76.9473H438.796C438.796 79.9992 438.474 82.0678 437.972 83.3236L441.686 84.8092ZM442.796 76.9473C442.796 73.9173 442.469 71.3593 441.681 69.4251L437.977 70.9343C438.478 72.1641 438.796 74.1179 438.796 76.9473H442.796ZM441.698 69.4663C441.224 68.227 440.384 67.2471 439.215 66.6105C438.089 65.9975 436.773 65.7627 435.391 65.7627V69.7627C436.352 69.7627 436.948 69.9307 437.302 70.1234C437.612 70.2924 437.819 70.521 437.961 70.8931L441.698 69.4663ZM435.391 65.7627H433.677V69.7627H435.391V65.7627ZM431.677 67.7627V86.4834H435.677V67.7627H431.677Z" fill="black" mask="url(#path-7-outside-1_19_1217)"/>
</g>
</g>
<defs>
<filter id="filter0_d_19_1217" x="82.2456" y="203.965" width="146.724" height="110.084" filterUnits="userSpaceOnUse" color-interpolation-filters="sRGB">
<feFlood flood-opacity="0" result="BackgroundImageFix"/>
<feColorMatrix in="SourceAlpha" type="matrix" values="0 0 0 0 0 0 0 0 0 0 0 0 0 0 0 0 0 0 127 0" result="hardAlpha"/>
<feOffset dx="-5" dy="5"/>
<feComposite in2="hardAlpha" operator="out"/>
<feColorMatrix type="matrix" values="0 0 0 0 0 0 0 0 0 0 0 0 0 0 0 0 0 0 1 0"/>
<feBlend mode="normal" in2="BackgroundImageFix" result="effect1_dropShadow_19_1217"/>
<feBlend mode="normal" in="SourceGraphic" in2="effect1_dropShadow_19_1217" result="shape"/>
</filter>
<filter id="filter1_d_19_1217" x="57.4263" y="164.09" width="172.307" height="80.1765" filterUnits="userSpaceOnUse" color-interpolation-filters="sRGB">
<feFlood flood-opacity="0" result="BackgroundImageFix"/>
<feColorMatrix in="SourceAlpha" type="matrix" values="0 0 0 0 0 0 0 0 0 0 0 0 0 0 0 0 0 0 127 0" result="hardAlpha"/>
<feOffset dx="-5" dy="5"/>
<feComposite in2="hardAlpha" operator="out"/>
<feColorMatrix type="matrix" values="0 0 0 0 0 0 0 0 0 0 0 0 0 0 0 0 0 0 1 0"/>
<feBlend mode="normal" in2="BackgroundImageFix" result="effect1_dropShadow_19_1217"/>
<feBlend mode="normal" in="SourceGraphic" in2="effect1_dropShadow_19_1217" result="shape"/>
</filter>
<filter id="filter2_d_19_1217" x="37.5332" y="10.9331" width="507.93" height="183.667" filterUnits="userSpaceOnUse" color-interpolation-filters="sRGB">
<feFlood flood-opacity="0" result="BackgroundImageFix"/>
<feColorMatrix in="SourceAlpha" type="matrix" values="0 0 0 0 0 0 0 0 0 0 0 0 0 0 0 0 0 0 127 0" result="hardAlpha"/>
<feOffset dx="-5" dy="5"/>
<feComposite in2="hardAlpha" operator="out"/>
<feColorMatrix type="matrix" values="0 0 0 0 0 0 0 0 0 0 0 0 0 0 0 0 0 0 1 0"/>
<feBlend mode="normal" in2="BackgroundImageFix" result="effect1_dropShadow_19_1217"/>
<feBlend mode="normal" in="SourceGraphic" in2="effect1_dropShadow_19_1217" result="shape"/>
</filter>
<filter id="filter3_d_19_1217" x="98.9111" y="53.6562" width="357.178" height="87.3096" filterUnits="userSpaceOnUse" color-interpolation-filters="sRGB">
<feFlood flood-opacity="0" result="BackgroundImageFix"/>
<feColorMatrix in="SourceAlpha" type="matrix" values="0 0 0 0 0 0 0 0 0 0 0 0 0 0 0 0 0 0 127 0" result="hardAlpha"/>
<feOffset dx="-5" dy="5"/>
<feComposite in2="hardAlpha" operator="out"/>
<feColorMatrix type="matrix" values="0 0 0 0 0 0 0 0 0 0 0 0 0 0 0 0 0 0 1 0"/>
<feBlend mode="normal" in2="BackgroundImageFix" result="effect1_dropShadow_19_1217"/>
<feBlend mode="normal" in="SourceGraphic" in2="effect1_dropShadow_19_1217" result="shape"/>
</filter>
<clipPath id="clip0_19_1217">
<rect width="588" height="320" fill="white"/>
</clipPath>
</defs>
</svg>
