<svg width="1439" height="87" viewBox="0 0 1439 87" fill="none" xmlns="http://www.w3.org/2000/svg">
<path d="M1441 47.826V47.0704L1440.5 46.5036L1405.4 6.67755L1403.9 4.97532L1402.4 6.67755L1368.79 44.8014L1335.19 6.67755L1333.69 4.97532L1332.19 6.67755L1298.59 44.8014L1264.98 6.67755L1263.48 4.97512L1261.98 6.67772L1228.39 44.801L1194.79 6.67772L1193.29 4.97512L1191.79 6.67755L1158.19 44.8012L1124.6 6.67772L1123.09 4.97512L1121.59 6.67755L1087.99 44.8012L1054.4 6.67772L1052.9 4.97512L1051.4 6.67755L1017.79 44.8012L984.198 6.67772L982.698 4.97492L981.197 6.67772L947.603 44.8009L914.008 6.67772L912.508 4.97512L911.007 6.67755L877.404 44.8012L843.809 6.67772L842.309 4.97492L840.808 6.67772L807.214 44.8009L773.619 6.67772L772.118 4.97473L770.618 6.67789L737.031 44.801L703.429 6.67755L701.928 4.97512L700.428 6.67772L666.833 44.8009L633.238 6.67772L631.738 4.97492L630.237 6.67772L596.642 44.8012L563.04 6.67755L561.539 4.97512L560.039 6.67772L526.444 44.8009L492.849 6.67772L491.349 4.97492L489.848 6.67772L456.253 44.8012L422.651 6.67755L421.15 4.97512L419.65 6.67772L386.055 44.801L352.461 6.67772L350.96 4.97492L349.46 6.67772L315.865 44.8012L282.262 6.67755L280.761 4.97492L279.261 6.67789L245.674 44.801L212.072 6.67755L210.571 4.97512L209.071 6.67772L175.476 44.801L141.881 6.67772L140.381 4.97492L138.88 6.67772L105.286 44.801L71.6909 6.67772L70.1904 4.97492L68.6899 6.67772L35.0952 44.801L1.50052 6.67772L-2 2.70532V8V95V97H0H1439H1441V95V47.826Z" fill="#EA92B6" stroke="black" stroke-width="4"/>
</svg>
