<svg width="49" height="48" viewBox="0 0 49 48" fill="none" xmlns="http://www.w3.org/2000/svg">
<rect x="2.89233" y="2" width="44" height="44" rx="22" fill="#FEDB63"/>
<rect x="2.89233" y="2" width="44" height="44" rx="22" stroke="black" stroke-width="4"/>
<path d="M11.9519 21.2356L34.6485 12.4845C35.702 12.104 36.622 12.7415 36.2806 14.3344L36.2826 14.3324L32.4181 32.5388C32.1317 33.8296 31.3647 34.1434 30.2916 33.5353L24.4066 29.198L21.5681 31.9326C21.2542 32.2465 20.9894 32.5113 20.3813 32.5113L20.7991 26.5223L31.706 16.6688C32.1807 16.251 31.6001 16.0156 30.9743 16.4314L17.4956 24.9177L11.6851 23.1051C10.4238 22.7049 10.3963 21.8437 11.9519 21.2356Z" fill="black"/>
</svg>
