<svg width="1440" height="2754" viewBox="0 0 1440 2754" fill="none" xmlns="http://www.w3.org/2000/svg">
<path d="M-2.68796 31.7124L-4 32.1931V33.5904V130.59V132.59H-2H1440H1442V130.59V23.0903V21.4113L1440.35 21.1205C1425.22 18.4605 1390.71 13.0904 1374.5 13.0904C1369.2 13.0904 1360.84 14.8509 1351.22 17.3746C1341.53 19.9173 1330.32 23.3039 1319.23 26.6769L1317.02 27.3493C1306.67 30.4987 1296.53 33.5873 1287.84 35.9413C1278.46 38.4867 1271.06 40.0903 1267 40.0903C1262.89 40.0903 1254.1 38.4657 1242.23 35.9162C1235.85 34.5449 1228.69 32.9315 1221.01 31.2029C1214.5 29.7379 1207.63 28.1902 1200.55 26.6369C1169.85 19.8977 1135.51 13.0904 1113 13.0904C1090.43 13.0904 1063.91 20.1794 1038.6 27.035L1037.37 27.369C1012.33 34.1557 988.643 40.5734 970.553 40.091C954.375 39.6596 940.696 34.4844 925.368 28.6855C923.323 27.9118 921.248 27.1269 919.135 26.3408C901.231 19.682 880.847 13.0904 852.5 13.0904C824.323 13.0904 803.686 16.3645 782.57 20.3119C779.582 20.8705 776.586 21.4423 773.558 22.0201C755.203 25.5227 735.686 29.247 709.819 31.5986C669.407 35.2724 630.893 34.0262 592.975 32.7992C574.223 32.1924 555.618 31.5904 537 31.5904C509.184 31.5904 478.079 26.9926 451.467 22.3699C444.82 21.2152 438.46 20.0602 432.505 18.9762L431.516 18.7962C425.937 17.7806 420.721 16.831 415.982 16.0103C406.008 14.2831 397.955 13.0904 393 13.0904C389.006 13.0904 379.586 13.8809 366.717 14.9607C363.928 15.1948 360.976 15.4426 357.882 15.6988C340.435 17.1435 318.305 18.8757 294.777 20.0303C247.61 22.3448 195.187 22.3127 163.555 13.169C137.524 5.64441 104.336 7.24338 73.6071 12.1908C42.8277 17.1463 14.2539 25.506 -2.68796 31.7124Z" fill="#DF5537" stroke="black" stroke-width="4"/>
<rect x="-7" y="120.59" width="1452" height="2633" fill="#DF5537"/>
<path d="M1034.26 454.851C1034.26 454.851 1031.93 437.164 1048.96 442.887C1065.98 448.61 1060.43 464.803 1053.94 459.262C1047.45 453.721 1059.63 434.926 1072.66 443.295C1085.68 451.664 1082.77 467.903 1073.53 469.101C1064.29 470.3 1079.12 450.194 1090.76 462.611C1102.4 475.028 1076.99 497.667 1066.59 489.343C1056.2 481.019 1064.34 467.586 1066.83 475.773C1069.32 483.961 1062.6 491.989 1044.16 491.672C1025.73 491.355 1034.12 462.994 1040.56 471.249C1047.01 479.504 1036.31 488.822 1023.31 479.096C1010.3 469.37 1025.14 449.264 1034.26 454.851Z" fill="#F1B4A7"/>
<path d="M1045.22 492.861L1044.14 492.852C1038.1 492.748 1033.85 489.651 1032.35 484.317C1029.17 483.914 1025.82 482.447 1022.6 480.04C1017.5 476.231 1015.78 470.446 1017.87 464.171C1020 457.742 1025.7 452.706 1030.83 452.706C1031.57 452.706 1032.28 452.805 1032.97 453.001C1032.95 450.541 1033.33 446.35 1035.82 443.506C1038.61 440.322 1043.2 439.707 1049.33 441.769C1051.69 442.562 1053.76 443.593 1055.5 444.84C1058.43 441.751 1062.17 440 1065.9 440C1068.43 440 1070.92 440.775 1073.3 442.302C1078.93 445.917 1082.34 451.479 1082.62 457.368C1085.93 457.462 1088.95 458.952 1091.63 461.803C1095.25 465.668 1095.92 470.861 1093.51 476.427C1089.84 484.889 1079.83 492.317 1072.08 492.317C1072.08 492.317 1072.08 492.317 1072.08 492.317C1069.65 492.317 1067.56 491.628 1065.86 490.265C1065.05 489.612 1064.31 488.909 1063.66 488.162C1059.59 491.24 1053.25 492.861 1045.22 492.861ZM1034.85 484.409C1035.91 487.388 1038.41 490.391 1044.19 490.49L1045.22 490.499C1054.48 490.499 1059.55 488.325 1062.26 486.261C1059.67 482.059 1059.87 477.47 1061.31 474.626C1062.15 472.984 1063.36 472.04 1064.63 472.04C1065.49 472.04 1067.06 472.48 1067.96 475.427C1069.21 479.527 1068.28 483.537 1065.42 486.586C1065.98 487.236 1066.62 487.85 1067.33 488.419C1068.61 489.438 1070.2 489.955 1072.08 489.955C1072.08 489.955 1072.08 489.955 1072.08 489.955C1078.88 489.955 1088.06 483.058 1091.34 475.488C1092.76 472.2 1093.67 467.436 1089.9 463.417C1087.68 461.049 1085.22 459.811 1082.57 459.73C1082.01 465.384 1078.47 469.65 1073.68 470.272C1073.36 470.313 1073.06 470.332 1072.78 470.332C1072.78 470.332 1072.78 470.332 1072.78 470.332C1070.42 470.332 1069.51 468.886 1069.46 467.535C1069.32 464.203 1074.13 458.601 1080.27 457.541C1080.04 452.395 1077.02 447.499 1072.02 444.289C1067.1 441.13 1061.47 442.067 1057.33 446.346C1061.35 450.174 1062.1 454.885 1060.98 458.028C1059.72 461.532 1056.08 462.635 1053.18 460.159C1049.59 457.101 1050.75 451.129 1053.99 446.662C1052.47 445.594 1050.66 444.704 1048.58 444.006C1043.43 442.278 1039.75 442.611 1037.6 445.062C1034.65 448.431 1035.42 454.634 1035.43 454.696C1035.49 455.149 1035.29 455.593 1034.91 455.84C1034.52 456.088 1034.03 456.094 1033.64 455.859C1032.79 455.334 1031.84 455.069 1030.83 455.069C1026.72 455.069 1021.91 459.487 1020.11 464.917C1019.28 467.4 1018.01 473.659 1024.01 478.151C1026.64 480.113 1029.33 481.377 1031.87 481.854C1031.35 477.274 1032.75 472.811 1034.6 470.516C1035.63 469.239 1036.83 468.562 1038.08 468.562C1038.94 468.562 1040.23 468.902 1041.49 470.522C1043.78 473.456 1044.3 476.762 1042.92 479.596C1041.56 482.392 1038.51 484.195 1034.85 484.409ZM1064.63 474.402C1064.42 474.402 1063.89 474.754 1063.42 475.695C1062.36 477.777 1062.19 481.305 1064.03 484.606C1066.06 482.224 1066.66 479.256 1065.7 476.116C1065.32 474.867 1064.84 474.402 1064.63 474.402ZM1038.08 470.923C1037.58 470.923 1037 471.303 1036.44 471.997C1034.86 473.95 1033.71 478.126 1034.28 482.067C1037.27 482.02 1039.76 480.685 1040.8 478.559C1041.77 476.567 1041.35 474.167 1039.63 471.974C1039.26 471.495 1038.69 470.923 1038.08 470.923ZM1080.16 459.965C1075.21 461.064 1071.74 465.612 1071.82 467.438C1071.83 467.664 1071.84 467.97 1072.78 467.97C1072.96 467.97 1073.16 467.957 1073.38 467.929C1076.92 467.47 1079.58 464.276 1080.16 459.965ZM1055.81 448.163C1053.02 452.053 1052.48 456.465 1054.71 458.365C1056.39 459.797 1058.02 459.275 1058.75 457.233C1059.6 454.855 1058.97 451.237 1055.81 448.163Z" fill="black"/>
<path d="M247.082 222.151C247.082 222.151 242.8 189.649 274.085 200.166C305.37 210.683 295.175 240.44 283.249 230.257C271.322 220.075 293.7 185.536 317.639 200.916C341.577 216.295 336.223 246.136 319.242 248.338C302.261 250.541 329.522 213.594 350.912 236.412C372.304 259.23 325.598 300.832 306.499 285.536C287.399 270.239 302.347 245.553 306.928 260.599C311.51 275.644 299.154 290.399 265.28 289.816C231.403 289.233 246.823 237.115 258.664 252.285C270.505 267.454 250.847 284.578 226.952 266.705C203.056 248.831 230.315 211.885 247.082 222.151Z" fill="#F1B4A7"/>
<path d="M267.213 292L265.243 291.984C254.14 291.792 246.322 286.102 243.57 276.301C237.727 275.559 231.566 272.864 225.652 268.441C216.286 261.44 213.118 250.81 216.952 239.278C220.88 227.464 231.344 218.211 240.775 218.211C242.134 218.211 243.448 218.392 244.709 218.752C244.668 214.232 245.365 206.531 249.953 201.303C255.079 195.452 263.513 194.323 274.774 198.112C279.115 199.569 282.919 201.464 286.109 203.756C291.494 198.078 298.36 194.861 305.223 194.861C309.87 194.861 314.444 196.285 318.814 199.09C329.158 205.734 335.439 215.955 335.954 226.777C342.025 226.951 347.587 229.689 352.497 234.927C359.157 242.029 360.384 251.572 355.954 261.801C349.217 277.352 330.818 291.002 316.577 291.002C316.577 291.002 316.575 291.002 316.573 291.002C312.118 291.002 308.273 289.735 305.146 287.231C303.652 286.031 302.302 284.739 301.112 283.366C293.635 289.022 281.984 292 267.213 292ZM248.17 276.47C250.104 281.944 254.696 287.461 265.318 287.644L267.213 287.661C284.243 287.661 293.547 283.665 298.539 279.872C293.769 272.151 294.134 263.718 296.789 258.49C298.323 255.473 300.548 253.739 302.897 253.739C304.471 253.739 307.358 254.548 309.007 259.963C311.301 267.497 309.599 274.866 304.347 280.469C305.374 281.665 306.552 282.791 307.857 283.839C310.196 285.711 313.128 286.66 316.573 286.66C316.575 286.66 316.575 286.66 316.575 286.66C329.076 286.66 345.945 273.986 351.972 260.075C354.59 254.033 356.256 245.278 349.331 237.893C345.253 233.541 340.719 231.266 335.848 231.117C334.828 241.507 328.324 249.347 319.523 250.49C318.928 250.565 318.374 250.6 317.871 250.6C317.869 250.6 317.869 250.6 317.869 250.6C313.519 250.6 311.863 247.943 311.761 245.46C311.515 239.338 320.338 229.043 331.625 227.095C331.213 217.638 325.651 208.641 316.469 202.743C307.432 196.937 297.08 198.658 289.467 206.522C296.858 213.557 298.233 222.214 296.171 227.99C293.871 234.43 287.175 236.457 281.841 231.905C275.258 226.286 277.385 215.311 283.33 207.103C280.541 205.141 277.21 203.505 273.394 202.222C263.935 199.048 257.167 199.659 253.217 204.163C247.789 210.355 249.217 221.753 249.232 221.868C249.342 222.699 248.965 223.516 248.264 223.97C247.563 224.424 246.661 224.437 245.947 224.005C244.375 223.039 242.635 222.552 240.777 222.552C233.231 222.552 224.389 230.671 221.07 240.65C219.552 245.213 217.215 256.714 228.249 264.969C233.074 268.575 238.012 270.898 242.692 271.774C241.73 263.357 244.303 255.155 247.7 250.938C249.594 248.591 251.801 247.348 254.091 247.348C255.676 247.348 258.051 247.972 260.374 250.95C264.581 256.341 265.534 262.416 262.994 267.624C260.488 272.762 254.881 276.076 248.17 276.47ZM302.897 258.079C302.495 258.079 301.536 258.727 300.658 260.456C298.714 264.282 298.396 270.765 301.786 276.83C305.519 272.454 306.613 267 304.854 261.229C304.158 258.934 303.282 258.079 302.897 258.079ZM254.091 251.686C253.176 251.686 252.106 252.385 251.08 253.66C248.187 257.25 246.066 264.922 247.121 272.165C252.618 272.079 257.189 269.626 259.094 265.719C260.881 262.058 260.101 257.647 256.955 253.617C256.269 252.737 255.213 251.686 254.091 251.686ZM331.429 231.549C322.333 233.57 315.962 241.927 316.098 245.282C316.115 245.698 316.137 246.26 317.867 246.26C318.203 246.26 318.57 246.236 318.965 246.185C325.478 245.342 330.36 239.472 331.429 231.549ZM286.68 209.862C281.552 217.011 280.57 225.117 284.659 228.609C287.745 231.241 290.748 230.282 292.085 226.529C293.645 222.159 292.488 215.511 286.68 209.862Z" fill="black"/>
<path d="M426.822 397.31C426.822 397.31 425.361 386.222 436.034 389.81C446.707 393.398 443.229 403.549 439.16 400.076C435.091 396.602 442.726 384.819 450.892 390.066C459.059 395.313 457.232 405.493 451.439 406.244C445.646 406.995 454.946 394.391 462.244 402.175C469.541 409.96 453.608 424.152 447.092 418.934C440.576 413.716 445.675 405.294 447.238 410.427C448.802 415.56 444.586 420.593 433.03 420.394C421.473 420.196 426.733 402.415 430.773 407.59C434.813 412.766 428.106 418.607 419.954 412.51C411.802 406.412 421.102 393.808 426.822 397.31Z" fill="#F1B4A7"/>
<path d="M433.69 421.139L433.017 421.134C429.229 421.068 426.563 419.127 425.624 415.783C423.63 415.53 421.528 414.611 419.511 413.102C416.316 410.714 415.235 407.087 416.543 403.153C417.883 399.123 421.453 395.966 424.67 395.966C425.134 395.966 425.582 396.028 426.012 396.151C425.998 394.608 426.236 391.981 427.801 390.198C429.55 388.202 432.427 387.817 436.269 389.109C437.75 389.606 439.048 390.253 440.136 391.035C441.973 389.097 444.315 388 446.657 388C448.242 388 449.803 388.486 451.293 389.443C454.822 391.709 456.965 395.196 457.141 398.888C459.212 398.948 461.109 399.882 462.784 401.669C465.056 404.091 465.475 407.347 463.964 410.837C461.665 416.142 455.389 420.799 450.53 420.799C450.53 420.799 450.53 420.799 450.529 420.799C449.009 420.799 447.697 420.366 446.63 419.512C446.121 419.103 445.66 418.662 445.254 418.194C442.703 420.123 438.729 421.139 433.69 421.139ZM427.193 415.841C427.853 417.709 429.419 419.591 433.043 419.653L433.69 419.659C439.499 419.659 442.674 418.296 444.376 417.002C442.749 414.368 442.874 411.491 443.779 409.707C444.303 408.678 445.062 408.087 445.863 408.087C446.4 408.087 447.385 408.362 447.947 410.21C448.73 412.78 448.15 415.294 446.358 417.205C446.708 417.613 447.11 417.998 447.555 418.355C448.353 418.994 449.354 419.318 450.529 419.318C450.53 419.318 450.53 419.318 450.53 419.318C454.794 419.318 460.549 414.994 462.605 410.248C463.498 408.187 464.067 405.2 461.704 402.681C460.313 401.196 458.766 400.42 457.105 400.369C456.756 403.914 454.538 406.588 451.535 406.978C451.332 407.004 451.143 407.015 450.972 407.015C450.971 407.015 450.971 407.015 450.971 407.015C449.487 407.015 448.922 406.109 448.887 405.262C448.803 403.173 451.813 399.661 455.664 398.997C455.523 395.771 453.626 392.701 450.493 390.689C447.41 388.708 443.879 389.296 441.281 391.978C443.803 394.378 444.272 397.332 443.569 399.302C442.784 401.499 440.499 402.191 438.68 400.638C436.434 398.721 437.16 394.977 439.188 392.176C438.236 391.507 437.1 390.949 435.798 390.511C432.571 389.428 430.262 389.637 428.915 391.174C427.063 393.286 427.55 397.174 427.555 397.213C427.593 397.497 427.464 397.776 427.225 397.931C426.986 398.086 426.678 398.09 426.435 397.942C425.898 397.613 425.305 397.447 424.671 397.447C422.096 397.447 419.08 400.217 417.948 403.621C417.43 405.178 416.633 409.101 420.397 411.918C422.043 413.148 423.728 413.94 425.324 414.239C424.996 411.368 425.874 408.57 427.032 407.131C427.679 406.33 428.432 405.906 429.213 405.906C429.754 405.906 430.564 406.119 431.356 407.135C432.792 408.974 433.117 411.047 432.25 412.823C431.395 414.576 429.482 415.707 427.193 415.841ZM445.863 409.567C445.726 409.567 445.399 409.788 445.099 410.378C444.436 411.683 444.328 413.895 445.484 415.964C446.758 414.471 447.131 412.611 446.531 410.641C446.293 409.859 445.994 409.567 445.863 409.567ZM429.213 407.386C428.901 407.386 428.536 407.624 428.186 408.059C427.199 409.284 426.475 411.902 426.835 414.372C428.71 414.343 430.27 413.506 430.92 412.173C431.529 410.924 431.263 409.42 430.19 408.045C429.956 407.745 429.596 407.386 429.213 407.386ZM455.597 400.516C452.494 401.206 450.32 404.057 450.367 405.201C450.372 405.343 450.38 405.535 450.97 405.535C451.085 405.535 451.21 405.527 451.345 405.509C453.567 405.222 455.232 403.219 455.597 400.516ZM440.331 393.118C438.581 395.556 438.246 398.322 439.641 399.513C440.694 400.411 441.719 400.084 442.175 398.804C442.707 397.313 442.312 395.045 440.331 393.118Z" fill="black"/>
<path d="M1141.68 280.976C1141.68 280.976 1137.13 246.467 1170.35 257.633C1203.57 268.799 1192.74 300.394 1180.08 289.583C1167.42 278.771 1191.18 242.099 1216.6 258.429C1242.01 274.759 1236.33 306.442 1218.3 308.781C1200.27 311.119 1229.21 271.89 1251.92 296.118C1274.64 320.345 1225.05 364.517 1204.77 348.276C1184.49 332.035 1200.36 305.824 1205.22 321.799C1210.09 337.773 1196.97 353.439 1161 352.82C1125.03 352.202 1141.41 296.864 1153.98 312.971C1166.55 329.078 1145.68 347.259 1120.31 328.282C1094.94 309.304 1123.88 270.075 1141.68 280.976Z" fill="#F1B4A7"/>
<path d="M1163.05 355.139L1160.96 355.122C1149.17 354.919 1140.87 348.877 1137.95 338.47C1131.75 337.683 1125.21 334.821 1118.93 330.125C1108.98 322.692 1105.62 311.405 1109.69 299.161C1113.86 286.617 1124.97 276.792 1134.98 276.792C1136.43 276.792 1137.82 276.984 1139.16 277.367C1139.12 272.567 1139.86 264.391 1144.73 258.84C1150.17 252.627 1159.13 251.429 1171.08 255.452C1175.69 256.999 1179.73 259.011 1183.12 261.444C1188.84 255.416 1196.13 252 1203.41 252C1208.35 252 1213.2 253.512 1217.84 256.491C1228.83 263.545 1235.49 274.397 1236.04 285.888C1242.49 286.072 1248.39 288.979 1253.61 294.541C1260.68 302.081 1261.98 312.214 1257.28 323.075C1250.12 339.586 1230.59 354.079 1215.47 354.079C1215.47 354.079 1215.47 354.079 1215.46 354.079C1210.73 354.079 1206.65 352.734 1203.33 350.075C1201.75 348.801 1200.31 347.43 1199.05 345.972C1191.11 351.977 1178.74 355.139 1163.05 355.139ZM1142.84 338.65C1144.89 344.462 1149.76 350.32 1161.04 350.515L1163.05 350.532C1181.14 350.532 1191.02 346.29 1196.32 342.262C1191.25 334.064 1191.64 325.11 1194.46 319.56C1196.09 316.356 1198.45 314.515 1200.94 314.515C1202.61 314.515 1205.68 315.374 1207.43 321.124C1209.87 329.123 1208.06 336.947 1202.48 342.896C1203.57 344.166 1204.82 345.362 1206.21 346.474C1208.69 348.462 1211.81 349.47 1215.46 349.47C1215.47 349.47 1215.47 349.47 1215.47 349.47C1228.74 349.47 1246.65 336.013 1253.05 321.243C1255.83 314.827 1257.6 305.532 1250.25 297.69C1245.91 293.07 1241.1 290.653 1235.93 290.496C1234.85 301.528 1227.94 309.851 1218.6 311.065C1217.96 311.145 1217.38 311.182 1216.84 311.182C1216.84 311.182 1216.84 311.182 1216.84 311.182C1212.22 311.182 1210.46 308.361 1210.35 305.724C1210.09 299.224 1219.46 288.293 1231.45 286.225C1231.01 276.184 1225.1 266.632 1215.35 260.369C1205.76 254.204 1194.77 256.032 1186.68 264.382C1194.53 271.851 1195.99 281.043 1193.8 287.175C1191.36 294.013 1184.25 296.165 1178.59 291.333C1171.6 285.367 1173.86 273.714 1180.17 264.998C1177.21 262.915 1173.67 261.178 1169.62 259.815C1159.57 256.445 1152.39 257.094 1148.19 261.877C1142.43 268.451 1143.95 280.554 1143.96 280.675C1144.08 281.557 1143.68 282.425 1142.94 282.907C1142.19 283.39 1141.23 283.403 1140.48 282.944C1138.81 281.919 1136.96 281.402 1134.99 281.402C1126.97 281.402 1117.59 290.022 1114.06 300.617C1112.45 305.462 1109.97 317.673 1121.68 326.439C1126.81 330.267 1132.05 332.733 1137.02 333.663C1136 324.727 1138.73 316.019 1142.34 311.541C1144.35 309.049 1146.69 307.729 1149.12 307.729C1150.8 307.729 1153.33 308.391 1155.79 311.554C1160.26 317.278 1161.27 323.728 1158.58 329.257C1155.91 334.713 1149.96 338.232 1142.84 338.65ZM1200.94 319.123C1200.52 319.123 1199.5 319.811 1198.57 321.647C1196.5 325.71 1196.16 332.593 1199.76 339.032C1203.73 334.386 1204.89 328.595 1203.02 322.467C1202.28 320.031 1201.35 319.123 1200.94 319.123ZM1149.12 312.335C1148.15 312.335 1147.02 313.077 1145.92 314.431C1142.85 318.242 1140.6 326.389 1141.72 334.079C1147.56 333.988 1152.41 331.384 1154.43 327.235C1156.33 323.347 1155.5 318.664 1152.16 314.385C1151.43 313.451 1150.31 312.335 1149.12 312.335ZM1231.24 290.954C1221.58 293.1 1214.81 301.973 1214.96 305.536C1214.98 305.977 1215 306.574 1216.84 306.574C1217.19 306.574 1217.58 306.548 1218 306.494C1224.92 305.599 1230.1 299.367 1231.24 290.954ZM1183.72 267.927C1178.28 275.518 1177.24 284.125 1181.58 287.833C1184.86 290.627 1188.04 289.609 1189.46 285.624C1191.12 280.984 1189.89 273.926 1183.72 267.927Z" fill="black"/>
<path d="M1168.25 1014C1167.28 1014 1166.33 1013.54 1165.74 1012.69C1165.62 1012.52 1162.86 1008.53 1159.4 1001.75C1158.64 1000.25 1159.23 998.415 1160.73 997.644C1162.23 996.888 1164.06 997.469 1164.84 998.973C1168.09 1005.35 1170.73 1009.17 1170.75 1009.21C1171.71 1010.59 1171.37 1012.49 1169.99 1013.45C1169.46 1013.82 1168.85 1014 1168.25 1014ZM1157.08 992.286C1155.87 992.286 1154.72 991.557 1154.24 990.36C1152.68 986.419 1151.31 982.436 1150.19 978.523C1149.72 976.9 1150.66 975.207 1152.27 974.742C1153.91 974.246 1155.58 975.207 1156.05 976.83C1157.12 980.55 1158.42 984.343 1159.92 988.103C1160.54 989.665 1159.78 991.444 1158.21 992.068C1157.84 992.215 1157.45 992.286 1157.08 992.286ZM1150.36 968.842C1148.91 968.842 1147.62 967.791 1147.36 966.306C1146.64 962.09 1146.18 957.874 1146 953.781C1145.93 952.094 1147.24 950.673 1148.92 950.596C1150.83 950.489 1152.03 951.836 1152.1 953.517C1152.26 957.357 1152.7 961.31 1153.38 965.269C1153.67 966.931 1152.55 968.511 1150.89 968.799C1150.72 968.829 1150.53 968.842 1150.36 968.842ZM1149.41 944.503C1149.3 944.503 1149.2 944.497 1149.1 944.485C1147.42 944.317 1146.2 942.823 1146.37 941.148C1146.79 936.901 1147.55 932.706 1148.62 928.668C1149.05 927.039 1150.7 926.05 1152.35 926.497C1153.98 926.926 1154.95 928.601 1154.52 930.229C1153.53 933.956 1152.83 937.838 1152.43 941.754C1152.28 943.328 1150.95 944.503 1149.41 944.503ZM1583.01 929.109C1581.48 929.109 1580.16 927.958 1579.98 926.396C1579.8 924.721 1581 923.212 1582.67 923.022C1586.08 922.639 1589.92 921.831 1594.09 920.615C1595.73 920.141 1597.4 921.072 1597.88 922.694C1598.35 924.311 1597.42 926.01 1595.8 926.479C1591.29 927.792 1587.11 928.668 1583.35 929.09C1583.24 929.103 1583.12 929.109 1583.01 929.109ZM1570.93 928.613C1570.69 928.613 1570.45 928.582 1570.2 928.53C1565.54 927.397 1561.66 925.214 1558.35 921.865C1557.16 920.667 1557.17 918.735 1558.37 917.548C1559.57 916.363 1561.5 916.369 1562.69 917.572C1565.18 920.095 1568.11 921.739 1571.65 922.593C1573.28 922.991 1574.29 924.645 1573.89 926.283C1573.56 927.679 1572.3 928.613 1570.93 928.613ZM1155.62 921.01C1155.21 921.01 1154.78 920.925 1154.37 920.741C1152.84 920.052 1152.15 918.246 1152.84 916.709C1154.55 912.897 1156.6 909.158 1158.92 905.591C1159.86 904.171 1161.75 903.794 1163.15 904.706C1164.56 905.628 1164.95 907.52 1164.04 908.932C1161.88 912.232 1159.98 915.686 1158.41 919.207C1157.9 920.34 1156.79 921.01 1155.62 921.01ZM1293.15 914.605C1291.65 914.605 1290.34 913.494 1290.13 911.96C1289.91 910.288 1291.08 908.751 1292.75 908.524L1296.22 907.961L1293.17 907.973C1293.17 907.407 1292.99 905.781 1291.41 902.86C1290.61 901.378 1291.15 899.523 1292.64 898.721C1294.11 897.928 1295.96 898.463 1296.78 899.948C1298.42 902.992 1299.27 905.683 1299.27 907.946C1299.27 911.565 1297.08 914.1 1293.56 914.571C1293.42 914.596 1293.28 914.605 1293.15 914.605ZM1553.97 912.594C1552.8 912.594 1551.68 911.914 1551.19 910.772C1549.76 907.548 1548.45 903.754 1547.05 898.837C1546.59 897.214 1547.53 895.527 1549.15 895.065C1550.79 894.584 1552.47 895.549 1552.93 897.165C1554.24 901.807 1555.46 905.346 1556.76 908.307C1557.45 909.847 1556.75 911.65 1555.21 912.33C1554.8 912.511 1554.38 912.594 1553.97 912.594ZM1281.43 912.244C1280.9 912.244 1280.37 912.11 1279.88 911.828C1276.22 909.682 1273.04 906.415 1270.42 902.122C1269.54 900.683 1269.99 898.803 1271.43 897.924C1272.86 897.046 1274.74 897.496 1275.62 898.938C1277.72 902.364 1280.19 904.927 1282.97 906.559C1284.42 907.41 1284.91 909.284 1284.06 910.738C1283.49 911.706 1282.47 912.244 1281.43 912.244ZM1168.89 900.628C1168.17 900.628 1167.45 900.377 1166.87 899.866C1165.61 898.751 1165.49 896.819 1166.6 895.555C1169.3 892.496 1172.29 889.505 1175.5 886.672C1176.75 885.558 1178.67 885.665 1179.81 886.939C1180.92 888.2 1180.8 890.132 1179.54 891.247C1176.52 893.914 1173.71 896.724 1171.18 899.596C1170.58 900.279 1169.74 900.628 1168.89 900.628ZM1286.8 894.7C1285.99 894.7 1285.17 894.379 1284.57 893.739C1281.98 890.977 1279.06 888.332 1275.88 885.864C1274.55 884.832 1274.31 882.916 1275.34 881.584C1276.38 880.249 1278.29 880.01 1279.62 881.042C1283.05 883.702 1286.21 886.565 1289.02 889.56C1290.18 890.787 1290.12 892.719 1288.88 893.874C1288.3 894.425 1287.55 894.7 1286.8 894.7ZM1268.3 892.358C1266.96 892.358 1265.73 891.47 1265.35 890.117C1264.3 886.274 1263.57 882.132 1263.2 877.796C1260.66 876.495 1258.07 875.344 1255.47 874.352C1253.89 873.752 1253.11 871.988 1253.71 870.414C1254.31 868.834 1256.09 868.054 1257.64 868.648C1261.52 870.126 1265.38 871.939 1269.1 874.036C1270.56 874.866 1271.08 876.725 1270.25 878.194C1270.04 878.562 1269.78 878.868 1269.46 879.11C1269.83 882.404 1270.42 885.552 1271.24 888.494C1271.69 890.12 1270.73 891.801 1269.11 892.248C1268.84 892.321 1268.57 892.358 1268.3 892.358ZM1546.87 889.235C1545.51 889.235 1544.27 888.323 1543.91 886.948C1542.93 883.127 1541.89 879.211 1540.7 875.283C1540.21 873.669 1541.12 871.964 1542.73 871.477C1544.37 870.99 1546.05 871.902 1546.54 873.513C1547.75 877.521 1548.81 881.516 1549.82 885.417C1550.25 887.049 1549.26 888.715 1547.64 889.137C1547.38 889.205 1547.12 889.235 1546.87 889.235ZM1187.1 884.453C1186.14 884.453 1185.19 883.999 1184.6 883.151C1183.63 881.767 1183.97 879.866 1185.34 878.899C1188.86 876.437 1192.48 874.232 1196.11 872.355C1197.6 871.593 1199.45 872.166 1200.23 873.666C1201 875.163 1200.41 877.003 1198.92 877.781C1195.53 879.535 1192.15 881.59 1188.85 883.901C1188.31 884.275 1187.7 884.453 1187.1 884.453ZM1424.87 882.75C1423.82 882.75 1422.76 882.545 1421.7 882.138C1418.34 880.846 1415.89 878.234 1414.62 874.578C1414.06 872.986 1414.91 871.244 1416.5 870.69C1418.06 870.139 1419.83 870.978 1420.39 872.567C1421.07 874.526 1422.21 875.791 1423.89 876.437C1424.55 876.694 1425.1 876.715 1425.63 876.486C1427.16 875.821 1428.96 876.532 1429.64 878.075C1430.3 879.621 1429.59 881.418 1428.05 882.092C1427.04 882.53 1425.97 882.75 1424.87 882.75ZM1208.74 873.354C1207.46 873.354 1206.27 872.545 1205.84 871.269C1205.32 869.667 1206.17 867.937 1207.78 867.405C1211.84 866.045 1215.99 865.038 1220.13 864.407C1221.78 864.168 1223.36 865.295 1223.6 866.964C1223.86 868.629 1222.72 870.188 1221.05 870.439C1217.26 871.017 1213.44 871.942 1209.71 873.191C1209.39 873.305 1209.06 873.354 1208.74 873.354ZM1432.69 872.117C1432.5 872.117 1432.31 872.098 1432.11 872.062C1430.45 871.743 1429.37 870.142 1429.69 868.488C1430.13 866.223 1430.35 863.691 1430.35 860.966C1430.34 859.735 1430.29 858.443 1430.2 857.12C1430.08 855.439 1431.34 853.979 1433.02 853.856C1434.67 853.724 1436.16 854.995 1436.29 856.679C1436.39 858.146 1436.44 859.576 1436.45 860.95C1436.45 864.076 1436.19 867 1435.68 869.643C1435.4 871.103 1434.12 872.117 1432.69 872.117ZM1244.87 871.134C1244.66 871.134 1244.46 871.112 1244.25 871.07C1240.41 870.286 1236.51 869.836 1232.66 869.728C1230.98 869.679 1229.65 868.277 1229.7 866.59C1229.75 864.906 1231.19 863.599 1232.83 863.623C1237.03 863.743 1241.28 864.236 1245.46 865.09C1247.11 865.427 1248.18 867.04 1247.85 868.691C1247.55 870.139 1246.29 871.134 1244.87 871.134ZM1266.13 868.136C1266.07 868.136 1266 868.133 1265.93 868.13C1264.25 868.017 1262.98 866.566 1263.09 864.882C1263.36 860.711 1263.94 856.502 1264.79 852.374C1265.14 850.718 1266.78 849.671 1268.4 850.001C1270.05 850.344 1271.11 851.961 1270.76 853.608C1269.97 857.463 1269.44 861.388 1269.18 865.286C1269.07 866.896 1267.73 868.136 1266.13 868.136ZM1539.55 865.938C1538.35 865.938 1537.22 865.228 1536.73 864.049C1535.13 860.185 1533.42 856.753 1531.5 853.547C1530.63 852.102 1531.1 850.225 1532.54 849.355C1533.99 848.495 1535.86 848.954 1536.73 850.399C1538.82 853.868 1540.66 857.576 1542.37 861.725C1543.01 863.28 1542.27 865.065 1540.71 865.711C1540.33 865.864 1539.94 865.938 1539.55 865.938ZM1417.51 864.572C1417.27 864.572 1417.04 864.545 1416.8 864.49C1415.16 864.098 1414.14 862.451 1414.54 860.813C1415.49 856.851 1417.1 852.785 1419.35 848.731C1420.17 847.255 1422.01 846.722 1423.5 847.54C1424.97 848.357 1425.5 850.216 1424.69 851.688C1422.74 855.213 1421.28 858.856 1420.47 862.233C1420.14 863.629 1418.89 864.572 1417.51 864.572ZM1431.22 847.922C1429.87 847.922 1428.63 847.016 1428.27 845.644C1428.02 844.717 1427.76 843.789 1427.48 842.87C1427.33 842.779 1427.18 842.671 1427.04 842.549C1426.05 841.679 1425.75 840.302 1426.21 839.135C1425.64 837.613 1425.02 836.113 1424.35 834.637C1423.65 833.103 1424.33 831.294 1425.87 830.596C1427.4 829.901 1429.21 830.577 1429.91 832.111C1430.2 832.76 1430.48 833.413 1430.76 834.071C1432.47 832.451 1434.27 830.933 1436.14 829.518C1437.47 828.508 1439.38 828.771 1440.41 830.121C1441.42 831.465 1441.15 833.379 1439.81 834.395C1437.42 836.199 1435.16 838.198 1433.08 840.366C1433.47 841.603 1433.83 842.846 1434.16 844.095C1434.59 845.727 1433.61 847.396 1431.98 847.821C1431.73 847.889 1431.47 847.922 1431.22 847.922ZM1526.91 845.216C1526.07 845.216 1525.24 844.876 1524.64 844.205C1522.06 841.346 1519.19 838.746 1516.09 836.484C1514.73 835.488 1514.44 833.581 1515.43 832.218C1516.42 830.859 1518.34 830.568 1519.69 831.554C1523.13 834.065 1526.31 836.946 1529.17 840.121C1530.3 841.373 1530.2 843.302 1528.95 844.432C1528.37 844.956 1527.63 845.216 1526.91 845.216ZM1271.05 844.276C1270.71 844.276 1270.37 844.218 1270.03 844.104C1268.44 843.541 1267.61 841.796 1268.17 840.207C1269.59 836.187 1271.28 832.286 1273.21 828.618C1273.99 827.118 1275.85 826.563 1277.33 827.332C1278.82 828.116 1279.4 829.962 1278.61 831.456C1276.82 834.864 1275.25 838.492 1273.93 842.24C1273.48 843.492 1272.3 844.276 1271.05 844.276ZM1507.42 830.884C1506.98 830.884 1506.54 830.792 1506.12 830.593C1504.29 829.729 1502.37 828.921 1500.34 828.174C1498.59 827.528 1496.87 826.952 1495.17 826.435C1493.55 825.948 1492.64 824.246 1493.13 822.632C1493.62 821.018 1495.34 820.109 1496.93 820.593C1498.74 821.138 1500.58 821.756 1502.45 822.445C1504.66 823.257 1506.75 824.135 1508.73 825.072C1510.25 825.795 1510.9 827.617 1510.18 829.138C1509.66 830.241 1508.56 830.884 1507.42 830.884ZM1448.41 828.713C1447.27 828.713 1446.17 828.064 1445.64 826.958C1444.93 825.434 1445.59 823.615 1447.12 822.898C1450.97 821.089 1455.04 819.677 1459.21 818.701C1460.92 818.327 1462.5 819.341 1462.89 820.979C1463.27 822.62 1462.25 824.261 1460.61 824.647C1456.84 825.525 1453.18 826.799 1449.7 828.428C1449.29 828.618 1448.85 828.713 1448.41 828.713ZM1421.15 825.792C1420.18 825.792 1419.22 825.326 1418.63 824.46C1416.44 821.242 1413.96 818.208 1411.25 815.446C1410.08 814.243 1410.1 812.308 1411.3 811.129C1412.52 809.95 1414.45 809.978 1415.62 811.178C1418.57 814.197 1421.28 817.51 1423.68 821.022C1424.62 822.415 1424.27 824.313 1422.87 825.265C1422.34 825.62 1421.75 825.792 1421.15 825.792ZM1484.16 823.887C1484.01 823.887 1483.86 823.878 1483.71 823.854C1480.44 823.376 1477.18 823.131 1474.01 823.131L1472.08 823.165C1470.48 823.217 1468.99 821.888 1468.94 820.207C1468.88 818.523 1470.21 817.112 1471.89 817.063C1475.95 816.916 1480.3 817.182 1484.6 817.813C1486.27 818.058 1487.42 819.607 1487.18 821.273C1486.95 822.797 1485.65 823.887 1484.16 823.887ZM1282.37 822.761C1281.73 822.761 1281.1 822.568 1280.55 822.16C1279.2 821.156 1278.91 819.246 1279.92 817.889C1282.46 814.451 1285.28 811.242 1288.3 808.346C1289.52 807.176 1291.45 807.228 1292.62 808.434C1293.78 809.65 1293.74 811.585 1292.52 812.752C1289.76 815.412 1287.16 818.364 1284.82 821.527C1284.22 822.335 1283.3 822.761 1282.37 822.761ZM1404.18 808.431C1403.56 808.431 1402.94 808.248 1402.4 807.862C1399.28 805.627 1395.91 803.618 1392.38 801.885C1390.86 801.144 1390.24 799.313 1390.97 797.801C1391.72 796.282 1393.56 795.664 1395.06 796.399C1398.89 798.279 1402.56 800.465 1405.96 802.896C1407.33 803.875 1407.64 805.783 1406.66 807.155C1406.06 807.987 1405.13 808.431 1404.18 808.431ZM1299.91 805.964C1298.92 805.964 1297.96 805.489 1297.37 804.607C1296.43 803.205 1296.81 801.31 1298.21 800.373C1301.7 798.037 1305.45 795.979 1309.35 794.258C1310.88 793.573 1312.69 794.277 1313.37 795.82C1314.05 797.363 1313.35 799.163 1311.81 799.846C1308.24 801.423 1304.8 803.306 1301.6 805.446C1301.08 805.795 1300.49 805.964 1299.91 805.964ZM1382.4 797.688C1382.1 797.688 1381.78 797.642 1381.48 797.547C1377.86 796.402 1374 795.462 1370.03 794.761C1368.37 794.47 1367.26 792.887 1367.55 791.224C1367.85 789.559 1369.47 788.441 1371.09 788.75C1375.33 789.497 1379.44 790.502 1383.32 791.723C1384.93 792.231 1385.82 793.946 1385.31 795.554C1384.9 796.855 1383.7 797.688 1382.4 797.688ZM1322.1 796.135C1320.74 796.135 1319.5 795.22 1319.15 793.842C1318.73 792.207 1319.71 790.544 1321.35 790.125C1325.31 789.105 1329.5 788.358 1333.77 787.902C1335.36 787.749 1336.95 788.931 1337.13 790.612C1337.3 792.287 1336.1 793.793 1334.42 793.971C1330.43 794.396 1326.55 795.094 1322.86 796.04C1322.61 796.108 1322.36 796.135 1322.1 796.135ZM1358.46 793.364C1358.4 793.364 1358.33 793.361 1358.26 793.358C1354.47 793.11 1350.48 793.046 1346.35 793.156C1344.38 793.269 1343.27 791.87 1343.22 790.186C1343.17 788.499 1344.5 787.097 1346.19 787.051C1350.51 786.941 1354.67 787.008 1358.66 787.265C1360.34 787.372 1361.62 788.824 1361.51 790.508C1361.4 792.124 1360.06 793.364 1358.46 793.364Z" fill="#241726"/>
<path d="M-59.7527 939C-60.7167 939 -61.6654 938.541 -62.256 937.69C-62.3753 937.521 -65.1417 933.529 -68.5967 926.753C-69.3648 925.249 -68.7712 923.415 -67.2686 922.644C-65.766 921.888 -63.936 922.469 -63.1618 923.973C-59.9088 930.347 -57.274 934.168 -57.2495 934.205C-56.2855 935.589 -56.6313 937.491 -58.0115 938.452C-58.5439 938.822 -59.1499 939 -59.7527 939ZM-70.9194 917.286C-72.1282 917.286 -73.2788 916.557 -73.7562 915.36C-75.323 911.419 -76.6879 907.436 -77.814 903.523C-78.2792 901.9 -77.3427 900.207 -75.727 899.742C-74.0928 899.246 -72.4189 900.207 -71.9476 901.83C-70.8765 905.55 -69.576 909.343 -68.0795 913.103C-67.4583 914.665 -68.2233 916.444 -69.7902 917.068C-70.1635 917.215 -70.546 917.286 -70.9194 917.286ZM-77.6365 893.842C-79.0901 893.842 -80.3846 892.791 -80.6386 891.306C-81.3608 887.09 -81.8198 882.874 -81.9973 878.781C-82.0677 877.094 -80.7579 875.673 -79.0779 875.596C-77.1653 875.489 -75.9749 876.836 -75.8953 878.517C-75.7362 882.357 -75.3047 886.31 -74.6192 890.269C-74.3315 891.931 -75.4485 893.511 -77.1102 893.799C-77.2846 893.829 -77.4652 893.842 -77.6365 893.842ZM-78.5944 869.503C-78.7015 869.503 -78.8024 869.497 -78.9034 869.485C-80.5835 869.317 -81.8045 867.823 -81.6332 866.148C-81.2109 861.901 -80.4488 857.706 -79.3808 853.668C-78.9524 852.039 -77.2999 851.05 -75.6505 851.497C-74.0224 851.926 -73.0524 853.601 -73.4808 855.229C-74.4692 858.956 -75.1669 862.838 -75.5678 866.754C-75.7239 868.328 -77.052 869.503 -78.5944 869.503ZM355.008 854.109C353.478 854.109 352.159 852.958 351.982 851.396C351.798 849.721 353.001 848.212 354.674 848.022C358.084 847.639 361.921 846.831 366.092 845.615C367.732 845.141 369.4 846.072 369.878 847.694C370.349 849.311 369.419 851.01 367.797 851.479C363.292 852.792 359.109 853.668 355.354 854.09C355.238 854.103 355.121 854.109 355.008 854.109ZM342.926 853.613C342.688 853.613 342.449 853.582 342.204 853.53C337.537 852.397 333.657 850.214 330.346 846.865C329.159 845.667 329.171 843.735 330.37 842.548C331.567 841.363 333.498 841.369 334.685 842.572C337.182 845.095 340.108 846.739 343.649 847.593C345.283 847.991 346.29 849.645 345.895 851.283C345.555 852.679 344.303 853.613 342.926 853.613ZM-72.376 846.01C-72.7922 846.01 -73.2206 845.925 -73.6276 845.741C-75.1639 845.052 -75.8494 843.246 -75.1608 841.709C-73.4502 837.897 -71.3998 834.158 -69.0771 830.591C-68.1407 829.171 -66.2465 828.794 -64.851 829.706C-63.4372 830.628 -63.0455 832.52 -63.9636 833.932C-66.121 837.232 -68.0153 840.686 -69.5943 844.207C-70.0993 845.34 -71.2132 846.01 -72.376 846.01ZM65.1492 839.605C63.6466 839.605 62.3369 838.494 62.1349 836.96C61.9085 835.288 63.0775 833.751 64.7514 833.524L68.2186 832.961L65.1676 832.973C65.1676 832.407 64.987 830.781 63.411 827.86C62.6062 826.378 63.154 824.523 64.6382 823.721C66.1101 822.928 67.9646 823.463 68.7755 824.948C70.425 827.992 71.2665 830.683 71.2727 832.946C71.2727 836.565 69.0846 839.1 65.5623 839.571C65.4216 839.596 65.2838 839.605 65.1492 839.605ZM325.973 837.594C324.804 837.594 323.684 836.914 323.185 835.772C321.762 832.548 320.449 828.754 319.051 823.837C318.592 822.214 319.534 820.527 321.153 820.065C322.79 819.584 324.467 820.549 324.926 822.165C326.242 826.807 327.463 830.346 328.764 833.307C329.449 834.847 328.745 836.65 327.209 837.33C326.802 837.511 326.383 837.594 325.973 837.594ZM53.4256 837.244C52.9023 837.244 52.3698 837.11 51.8833 836.828C48.2233 834.682 45.0376 831.415 42.415 827.122C41.5398 825.683 41.9927 823.803 43.4279 822.924C44.857 822.046 46.7421 822.496 47.6235 823.938C49.7166 827.364 52.1893 829.927 54.971 831.559C56.4246 832.41 56.9142 834.284 56.0604 835.738C55.4881 836.706 54.4691 837.244 53.4256 837.244ZM-59.1101 825.628C-59.8323 825.628 -60.5453 825.377 -61.1298 824.866C-62.3937 823.751 -62.513 821.819 -61.3991 820.555C-58.7 817.496 -55.7071 814.505 -52.5031 811.672C-51.2515 810.558 -49.3267 810.665 -48.1944 811.939C-47.0805 813.2 -47.1998 815.132 -48.4637 816.247C-51.478 818.914 -54.2933 821.724 -56.8241 824.596C-57.4239 825.279 -58.2624 825.628 -59.1101 825.628ZM58.7962 819.7C57.9853 819.7 57.1743 819.379 56.5745 818.739C53.9825 815.977 51.0571 813.332 47.8806 810.864C46.5524 809.832 46.3076 807.916 47.3389 806.584C48.3763 805.249 50.2889 805.01 51.6232 806.042C55.0506 808.702 58.2148 811.565 61.021 814.56C62.1777 815.787 62.1166 817.719 60.8833 818.874C60.2958 819.425 59.546 819.7 58.7962 819.7ZM40.2973 817.358C38.957 817.358 37.7299 816.47 37.3535 815.117C36.2977 811.274 35.5724 807.132 35.196 802.796C32.6591 801.495 30.0702 800.344 27.4721 799.352C25.893 798.752 25.1065 796.988 25.7094 795.414C26.3061 793.834 28.0872 793.054 29.6417 793.648C33.5221 795.126 37.3779 796.939 41.0961 799.036C42.5619 799.866 43.0791 801.725 42.2528 803.194C42.0447 803.562 41.7754 803.868 41.4602 804.11C41.8305 807.404 42.4242 810.552 43.2412 813.494C43.688 815.12 42.7333 816.801 41.1083 817.248C40.839 817.321 40.5666 817.358 40.2973 817.358ZM318.87 814.235C317.511 814.235 316.272 813.323 315.914 811.948C314.926 808.127 313.894 804.211 312.701 800.283C312.211 798.669 313.123 796.964 314.733 796.477C316.37 795.99 318.053 796.902 318.54 798.513C319.755 802.521 320.81 806.516 321.823 810.417C322.246 812.049 321.263 813.715 319.635 814.137C319.375 814.205 319.121 814.235 318.87 814.235ZM-40.9019 809.453C-41.8628 809.453 -42.8084 808.999 -43.399 808.151C-44.3722 806.767 -44.0294 804.866 -42.6554 803.899C-39.1392 801.437 -35.516 799.232 -31.8866 797.355C-30.4024 796.593 -28.554 797.166 -27.7737 798.666C-26.9994 800.163 -27.59 802.003 -29.0834 802.781C-32.468 804.535 -35.8526 806.59 -39.1484 808.901C-39.687 809.275 -40.296 809.453 -40.9019 809.453ZM196.872 807.75C195.823 807.75 194.758 807.545 193.702 807.138C190.342 805.846 187.891 803.234 186.624 799.578C186.064 797.986 186.911 796.244 188.5 795.69C190.06 795.139 191.826 795.978 192.386 797.567C193.065 799.526 194.21 800.791 195.89 801.437C196.551 801.694 197.099 801.715 197.625 801.486C199.161 800.821 200.964 801.532 201.637 803.075C202.304 804.621 201.594 806.418 200.046 807.092C199.036 807.53 197.968 807.75 196.872 807.75ZM-19.2602 798.354C-20.5363 798.354 -21.7267 797.545 -22.1552 796.269C-22.6846 794.667 -21.8277 792.937 -20.2242 792.405C-16.1602 791.045 -12.0075 790.038 -7.87016 789.407C-6.22071 789.168 -4.64468 790.295 -4.3968 791.964C-4.13975 793.629 -5.28428 795.188 -6.95209 795.439C-10.7406 796.017 -14.5567 796.942 -18.2932 798.191C-18.6145 798.305 -18.9389 798.354 -19.2602 798.354ZM204.691 797.117C204.495 797.117 204.306 797.098 204.107 797.062C202.451 796.743 201.371 795.142 201.686 793.488C202.127 791.223 202.347 788.691 202.347 785.966C202.341 784.735 202.292 783.443 202.197 782.12C202.078 780.439 203.342 778.979 205.022 778.856C206.668 778.724 208.161 779.995 208.287 781.679C208.394 783.146 208.443 784.576 208.449 785.95C208.449 789.076 208.186 792 207.681 794.643C207.396 796.103 206.12 797.117 204.691 797.117ZM16.8654 796.134C16.6635 796.134 16.4553 796.112 16.2503 796.07C12.4067 795.286 8.50805 794.836 4.66444 794.728C2.97827 794.679 1.65014 793.277 1.69604 791.59C1.745 789.906 3.18636 788.599 4.82969 788.623C9.03134 788.743 13.2789 789.236 17.4622 790.09C19.1116 790.427 20.1796 792.04 19.8461 793.691C19.5523 795.139 18.2854 796.134 16.8654 796.134ZM38.1338 793.136C38.0695 793.136 38.0022 793.133 37.9318 793.13C36.2518 793.017 34.9756 791.566 35.0889 789.882C35.3643 785.711 35.9366 781.502 36.7934 777.374C37.1392 775.718 38.7765 774.671 40.3984 775.001C42.0478 775.344 43.1096 776.961 42.7638 778.608C41.9712 782.463 41.4358 786.388 41.1787 790.286C41.0716 791.896 39.7312 793.136 38.1338 793.136ZM311.55 790.938C310.354 790.938 309.215 790.228 308.732 789.049C307.134 785.185 305.424 781.753 303.499 778.547C302.63 777.102 303.101 775.225 304.542 774.355C305.99 773.495 307.863 773.954 308.732 775.399C310.819 778.868 312.658 782.576 314.369 786.725C315.011 788.28 314.274 790.065 312.713 790.711C312.334 790.864 311.939 790.938 311.55 790.938ZM189.507 789.572C189.274 789.572 189.035 789.545 188.796 789.49C187.156 789.098 186.143 787.451 186.538 785.813C187.487 781.851 189.099 777.785 191.349 773.731C192.172 772.255 194.014 771.722 195.495 772.54C196.967 773.357 197.503 775.216 196.686 776.688C194.736 780.213 193.277 783.856 192.472 787.233C192.138 788.629 190.89 789.572 189.507 789.572ZM203.219 772.922C201.867 772.922 200.627 772.016 200.269 770.644C200.024 769.717 199.764 768.789 199.477 767.87C199.327 767.779 199.18 767.671 199.042 767.549C198.048 766.679 197.754 765.302 198.207 764.135C197.64 762.613 197.019 761.113 196.352 759.637C195.654 758.103 196.334 756.294 197.867 755.596C199.403 754.901 201.209 755.577 201.906 757.111C202.203 757.76 202.485 758.413 202.763 759.071C204.468 757.451 206.267 755.933 208.137 754.518C209.471 753.508 211.384 753.771 212.409 755.121C213.422 756.465 213.153 758.379 211.806 759.395C209.416 761.199 207.164 763.198 205.077 765.366C205.475 766.603 205.833 767.846 206.16 769.095C206.588 770.727 205.612 772.396 203.984 772.821C203.73 772.889 203.473 772.922 203.219 772.922ZM298.905 770.216C298.07 770.216 297.244 769.876 296.641 769.205C294.061 766.346 291.188 763.746 288.091 761.484C286.732 760.488 286.435 758.581 287.43 757.218C288.424 755.859 290.337 755.568 291.69 756.554C295.129 759.065 298.315 761.946 301.17 765.121C302.302 766.373 302.201 768.302 300.95 769.432C300.365 769.956 299.634 770.216 298.905 770.216ZM43.0454 769.276C42.7057 769.276 42.3661 769.218 42.0325 769.104C40.4412 768.541 39.6057 766.796 40.1688 765.207C41.5887 761.187 43.2841 757.286 45.209 753.618C45.9893 752.118 47.8499 751.563 49.328 752.332C50.8183 753.116 51.3967 754.962 50.6103 756.456C48.8231 759.864 47.2502 763.492 45.9251 767.24C45.4814 768.492 44.3032 769.276 43.0454 769.276ZM279.424 755.884C278.984 755.884 278.543 755.792 278.118 755.593C276.294 754.729 274.369 753.921 272.343 753.174C270.59 752.528 268.87 751.952 267.165 751.435C265.549 750.948 264.637 749.246 265.127 747.632C265.617 746.018 267.336 745.109 268.928 745.593C270.739 746.138 272.582 746.756 274.451 747.445C276.658 748.257 278.748 749.135 280.728 750.072C282.255 750.795 282.904 752.617 282.182 754.138C281.661 755.241 280.563 755.884 279.424 755.884ZM220.411 753.713C219.267 753.713 218.171 753.064 217.645 751.958C216.929 750.434 217.59 748.615 219.117 747.898C222.973 746.089 227.043 744.677 231.214 743.701C232.925 743.327 234.497 744.341 234.886 745.979C235.269 747.62 234.25 749.261 232.609 749.647C228.842 750.525 225.179 751.799 221.703 753.428C221.287 753.618 220.846 753.713 220.411 753.713ZM193.154 750.792C192.184 750.792 191.223 750.326 190.633 749.46C188.438 746.242 185.96 743.208 183.255 740.446C182.076 739.243 182.098 737.308 183.303 736.129C184.518 734.95 186.449 734.978 187.618 736.178C190.568 739.197 193.28 742.51 195.676 746.022C196.624 747.415 196.266 749.313 194.871 750.265C194.345 750.62 193.748 750.792 193.154 750.792ZM256.161 748.887C256.011 748.887 255.864 748.878 255.714 748.854C252.436 748.376 249.177 748.131 246.013 748.131L244.082 748.165C242.478 748.217 240.994 746.888 240.936 745.207C240.881 743.523 242.206 742.112 243.892 742.063C247.95 741.916 252.296 742.182 256.598 742.813C258.266 743.058 259.423 744.607 259.178 746.273C258.948 747.797 257.651 748.887 256.161 748.887ZM54.3682 747.761C53.7347 747.761 53.0982 747.568 52.5504 747.16C51.1978 746.156 50.9132 744.246 51.92 742.889C54.463 739.451 57.2845 736.242 60.305 733.346C61.5199 732.176 63.4508 732.228 64.6198 733.434C65.7826 734.65 65.7399 736.585 64.525 737.752C61.7586 740.412 59.1604 743.364 56.8194 746.527C56.2196 747.335 55.2985 747.761 54.3682 747.761ZM176.179 733.431C175.561 733.431 174.94 733.248 174.404 732.862C171.283 730.627 167.908 728.618 164.376 726.885C162.861 726.144 162.237 724.313 162.975 722.801C163.718 721.282 165.56 720.664 167.057 721.399C170.894 723.279 174.56 725.465 177.957 727.896C179.328 728.875 179.643 730.783 178.661 732.155C178.064 732.987 177.128 733.431 176.179 733.431ZM71.9061 730.964C70.9238 730.964 69.9568 730.489 69.3662 729.607C68.4298 728.205 68.8062 726.31 70.2077 725.373C73.6994 723.037 77.4482 720.979 81.353 719.258C82.88 718.573 84.6916 719.277 85.3741 720.82C86.0534 722.363 85.3496 724.163 83.8073 724.846C80.236 726.423 76.7994 728.306 73.6045 730.446C73.0782 730.795 72.4906 730.964 71.9061 730.964ZM154.4 722.688C154.097 722.688 153.785 722.642 153.482 722.547C149.859 721.402 146.003 720.462 142.027 719.761C140.366 719.47 139.261 717.887 139.555 716.224C139.852 714.559 141.468 713.441 143.089 713.75C147.328 714.497 151.444 715.502 155.318 716.723C156.928 717.231 157.815 718.946 157.307 720.554C156.897 721.855 155.697 722.688 154.4 722.688ZM94.1048 721.135C92.7399 721.135 91.5005 720.22 91.1486 718.842C90.7325 717.207 91.7148 715.544 93.3489 715.125C97.3119 714.105 101.495 713.358 105.773 712.902C107.359 712.749 108.95 713.931 109.127 715.612C109.305 717.287 108.096 718.793 106.416 718.971C102.435 719.396 98.5452 720.094 94.8607 721.04C94.6098 721.108 94.3557 721.135 94.1048 721.135ZM130.46 718.364C130.396 718.364 130.328 718.361 130.264 718.358C126.469 718.11 122.482 718.046 118.351 718.156C116.383 718.269 115.269 716.87 115.217 715.186C115.174 713.499 116.499 712.097 118.186 712.051C122.513 711.941 126.671 712.008 130.659 712.265C132.339 712.372 133.615 713.824 133.508 715.508C133.401 717.124 132.057 718.364 130.46 718.364Z" fill="#241726"/>
<path d="M284.464 2072.1C284.325 2072.1 284.186 2072.09 284.048 2072.07C283.235 2071.96 282.505 2071.52 282.023 2070.85L210.574 1972.33C209.601 1970.98 209.894 1969.11 211.232 1968.13L255.644 1935.58C256.344 1935.07 257.234 1934.89 258.071 1935.07C258.918 1935.25 259.643 1935.79 260.061 1936.55L318.714 2042.75C319.428 2044.04 319.103 2045.66 317.941 2046.58L286.326 2071.45C285.793 2071.87 285.132 2072.1 284.464 2072.1ZM217.213 1971.22L285.063 2064.78L312.202 2043.42L256.44 1942.46L217.213 1971.22Z" fill="#241726"/>
<path d="M325.881 2123.19H325.878C310.862 2123.19 298.289 2112.4 295.977 2097.54C294.735 2089.55 296.68 2081.54 301.452 2075.01C306.226 2068.48 313.26 2064.2 321.258 2062.95C338.132 2060.33 353.297 2071.84 355.849 2088.23C357.091 2096.23 355.149 2104.23 350.374 2110.76C345.6 2117.3 338.566 2121.58 330.568 2122.83C328.996 2123.07 327.429 2123.19 325.881 2123.19ZM325.948 2068.62C324.706 2068.62 323.449 2068.71 322.183 2068.91C308.963 2070.96 299.88 2083.39 301.934 2096.62C303.786 2108.52 313.857 2117.16 325.884 2117.16C327.125 2117.16 328.383 2117.06 329.646 2116.87C336.051 2115.87 341.683 2112.44 345.509 2107.21C349.335 2101.97 350.894 2095.56 349.897 2089.15C348.075 2077.45 337.777 2068.62 325.948 2068.62Z" fill="#241726"/>
<path d="M1086.83 2176.27C1082.85 2178.78 1078.75 2181.23 1074.51 2183.61C1072.51 2184.73 1069.99 2184.02 1068.86 2182.03C1067.74 2180.03 1068.47 2177.52 1070.45 2176.37C1074.55 2174.07 1078.54 2171.69 1082.4 2169.25L1084.45 2167.94C1086.63 2166.67 1088.95 2167.26 1090.19 2169.18C1091.44 2171.11 1090.88 2173.68 1088.95 2174.92L1086.83 2176.27ZM1102.58 2165.53C1100.76 2166.68 1098.32 2166.24 1097.03 2164.48C1095.67 2162.63 1096.06 2160.03 1097.91 2158.68C1102.37 2155.39 1106.65 2152.03 1110.73 2148.58C1112.47 2147.04 1115.1 2147.33 1116.58 2149.08C1118.06 2150.83 1117.83 2153.45 1116.08 2154.93C1111.85 2158.48 1107.44 2161.97 1102.83 2165.36C1102.74 2165.42 1102.66 2165.48 1102.58 2165.53ZM1349.01 2009.03L1345.78 2011.03C1343.82 2012.21 1341.26 2011.58 1340.07 2009.62C1338.9 2007.68 1339.5 2005.17 1341.41 2003.96C1341.43 2003.95 1341.46 2003.93 1341.48 2003.92L1344.59 2002.01C1348.19 1999.73 1351.65 1997.36 1354.95 1994.92C1356.8 1993.49 1359.39 1993.95 1360.75 1995.79C1362.12 1997.63 1361.73 2000.23 1359.89 2001.6C1356.42 2004.16 1352.8 2006.64 1349.01 2009.03ZM1060 2191.22C1059.88 2191.3 1059.75 2191.37 1059.61 2191.44C1054.67 2193.86 1049.57 2196.2 1044.3 2198.43C1042.19 2199.33 1039.75 2198.34 1038.86 2196.23C1037.96 2194.12 1038.93 2191.66 1041.06 2190.78C1046.18 2188.61 1051.14 2186.35 1055.96 2183.99C1058.02 2182.97 1060.5 2183.83 1061.51 2185.88C1062.45 2187.8 1061.77 2190.1 1060 2191.22ZM1331.25 2018.87C1331.12 2018.96 1330.98 2019.03 1330.84 2019.1C1325.84 2021.52 1320.6 2023.78 1315.27 2025.82C1313.13 2026.65 1310.73 2025.57 1309.91 2023.44C1309.09 2021.3 1310.14 2018.86 1312.3 2018.07C1317.41 2016.12 1322.43 2013.94 1327.22 2011.62C1329.28 2010.62 1331.77 2011.49 1332.76 2013.55C1333.69 2015.47 1333.01 2017.76 1331.25 2018.87ZM1372.44 1991.25C1370.77 1992.31 1368.53 1992.04 1367.16 1990.53C1365.62 1988.83 1365.75 1986.2 1367.44 1984.66C1371.43 1981.05 1375.27 1977.2 1378.87 1973.22C1380.4 1971.54 1383.04 1971.38 1384.74 1972.92C1386.44 1974.46 1386.57 1977.08 1385.03 1978.78C1381.25 1982.97 1377.21 1987.02 1373.02 1990.81C1372.84 1990.98 1372.64 1991.12 1372.44 1991.25ZM1127.95 2144.17C1126.32 2145.2 1124.14 2144.98 1122.75 2143.54C1121.16 2141.89 1121.21 2139.26 1122.86 2137.67C1126.78 2133.9 1130.59 2129.96 1134.21 2125.96C1135.75 2124.27 1138.38 2124.13 1140.07 2125.67C1141.77 2127.21 1141.91 2129.83 1140.37 2131.53C1136.63 2135.67 1132.68 2139.74 1128.62 2143.65C1128.41 2143.85 1128.19 2144.02 1127.95 2144.17ZM1029.46 2204.21C1029.22 2204.37 1028.95 2204.5 1028.67 2204.6C1023.5 2206.49 1018.2 2208.29 1012.75 2209.99C1010.57 2210.68 1008.24 2209.45 1007.55 2207.27C1006.87 2205.07 1008.12 2202.76 1010.28 2202.06C1015.6 2200.4 1020.78 2198.65 1025.82 2196.81C1027.97 2196.02 1030.35 2197.13 1031.14 2199.28C1031.82 2201.15 1031.08 2203.19 1029.46 2204.21ZM1300.3 2030.83C1299.99 2031.03 1299.65 2031.19 1299.28 2031.3C1293.75 2032.96 1288.24 2034.39 1282.9 2035.54C1280.66 2036.03 1278.44 2034.6 1277.96 2032.37C1277.47 2030.12 1278.9 2027.92 1281.14 2027.43C1286.27 2026.32 1291.57 2024.94 1296.88 2023.35C1299.08 2022.69 1301.39 2023.94 1302.06 2026.13C1302.6 2027.96 1301.83 2029.87 1300.3 2030.83ZM1394.68 1966.67C1393.27 1967.55 1391.41 1967.54 1389.99 1966.49C1388.15 1965.13 1387.76 1962.53 1389.12 1960.69C1392.31 1956.38 1395.34 1951.85 1398.13 1947.21C1399.33 1945.25 1401.86 1944.62 1403.82 1945.8C1405.79 1946.99 1406.42 1949.54 1405.24 1951.5C1402.31 1956.36 1399.14 1961.12 1395.8 1965.63C1395.48 1966.05 1395.1 1966.4 1394.68 1966.67ZM1150.19 2119.55C1148.75 2120.46 1146.84 2120.42 1145.41 2119.31C1143.61 2117.9 1143.29 2115.29 1144.71 2113.48C1148.06 2109.19 1151.28 2104.76 1154.27 2100.3C1155.53 2098.38 1158.12 2097.89 1160.03 2099.16C1161.93 2100.44 1162.44 2103.02 1161.16 2104.92C1158.06 2109.55 1154.72 2114.15 1151.24 2118.6C1150.94 2118.99 1150.58 2119.3 1150.19 2119.55ZM997.771 2214.12C997.42 2214.34 997.036 2214.51 996.617 2214.62C992.281 2215.76 987.864 2216.85 983.36 2217.87L980.31 2218.55C978.07 2219.04 975.857 2217.63 975.36 2215.39C974.874 2213.15 976.261 2210.93 978.521 2210.44L981.536 2209.77C985.939 2208.77 990.26 2207.71 994.497 2206.59C996.715 2206.01 998.987 2207.33 999.572 2209.54C1000.04 2211.34 999.267 2213.17 997.771 2214.12ZM1267.88 2037.8C1267.38 2038.11 1266.81 2038.33 1266.18 2038.4C1260.48 2039.12 1254.77 2039.54 1249.23 2039.68C1246.93 2039.73 1245.03 2037.91 1244.97 2035.62C1244.92 2033.33 1246.74 2031.44 1249.03 2031.37C1254.3 2031.25 1259.72 2030.85 1265.16 2030.16C1267.43 2029.88 1269.5 2031.5 1269.79 2033.77C1269.99 2035.42 1269.2 2036.96 1267.88 2037.8ZM965.364 2221.27C964.926 2221.54 964.426 2221.74 963.885 2221.84C958.209 2222.86 952.689 2223.74 947.318 2224.47C945.047 2224.79 942.956 2223.19 942.643 2220.92C942.329 2218.65 943.929 2216.55 946.194 2216.25C951.449 2215.53 956.856 2214.67 962.415 2213.67C964.67 2213.26 966.827 2214.76 967.235 2217.02C967.541 2218.73 966.751 2220.39 965.364 2221.27ZM1168.68 2092.01C1167.42 2092.8 1165.79 2092.89 1164.41 2092.11C1162.42 2090.98 1161.72 2088.44 1162.86 2086.44C1165.53 2081.73 1168.06 2076.87 1170.36 2071.99C1171.33 2069.93 1173.8 2069.03 1175.89 2070.01C1177.96 2070.99 1178.85 2073.46 1177.87 2075.54C1175.48 2080.6 1172.86 2085.65 1170.07 2090.55C1169.72 2091.16 1169.24 2091.65 1168.68 2092.01ZM1411.81 1938.27C1410.63 1939.01 1409.11 1939.14 1407.77 1938.49C1405.72 1937.49 1404.85 1935.01 1405.85 1932.95C1408.18 1928.16 1410.35 1923.14 1412.32 1918.03C1413.14 1915.88 1415.54 1914.82 1417.69 1915.65C1419.83 1916.47 1420.89 1918.87 1420.07 1921.02C1418.02 1926.34 1415.75 1931.58 1413.32 1936.58C1412.97 1937.29 1412.44 1937.87 1411.81 1938.27ZM1234.76 2038.53C1234.02 2038.99 1233.12 2039.23 1232.18 2039.15C1226.43 2038.64 1220.74 2037.79 1215.27 2036.62C1213.03 2036.14 1211.6 2033.94 1212.08 2031.69C1212.56 2029.46 1214.77 2028.03 1217.01 2028.5C1222.15 2029.61 1227.49 2030.41 1232.9 2030.88C1235.19 2031.08 1236.88 2033.09 1236.68 2035.38C1236.57 2036.72 1235.82 2037.86 1234.76 2038.53ZM932.474 2225.72C931.934 2226.06 931.301 2226.28 930.62 2226.35C924.828 2226.85 919.232 2227.17 913.825 2227.34C911.534 2227.41 909.623 2225.61 909.551 2223.32C909.48 2221.02 911.277 2219.11 913.573 2219.04C918.831 2218.88 924.27 2218.56 929.905 2218.07C932.19 2217.88 934.199 2219.57 934.398 2221.85C934.536 2223.45 933.744 2224.92 932.474 2225.72ZM1182.82 2061.99C1181.76 2062.67 1180.4 2062.85 1179.13 2062.36C1176.99 2061.56 1175.91 2059.16 1176.72 2057.01C1178.64 2051.94 1180.37 2046.75 1181.85 2041.58C1182.48 2039.39 1184.77 2038.11 1186.99 2038.74C1189.19 2039.38 1190.46 2041.68 1189.83 2043.88C1188.28 2049.26 1186.48 2054.67 1184.48 2059.96C1184.15 2060.83 1183.55 2061.53 1182.82 2061.99ZM1423.72 1907.3C1422.75 1907.92 1421.53 1908.12 1420.34 1907.77C1418.14 1907.13 1416.88 1904.82 1417.53 1902.62C1419.05 1897.45 1420.39 1892.14 1421.52 1886.82C1422 1884.58 1424.19 1883.14 1426.44 1883.62C1428.68 1884.09 1430.11 1886.3 1429.64 1888.54C1428.47 1894.07 1427.07 1899.6 1425.49 1904.96C1425.19 1905.97 1424.55 1906.78 1423.72 1907.3ZM899.318 2226.69C898.638 2227.12 897.826 2227.36 896.965 2227.33C891.223 2227.13 885.546 2226.72 880.098 2226.11C877.819 2225.86 876.178 2223.81 876.433 2221.53C876.69 2219.26 878.736 2217.61 881.016 2217.87C886.254 2218.45 891.717 2218.84 897.248 2219.03C899.54 2219.11 901.332 2221.04 901.255 2223.33C901.206 2224.74 900.442 2225.98 899.318 2226.69ZM1202.41 2031.53C1201.36 2032.19 1200.03 2032.37 1198.78 2031.92C1196.71 2031.18 1194.67 2030.38 1192.66 2029.52C1191.73 2030.47 1190.34 2030.94 1188.93 2030.67C1186.83 2030.26 1185.4 2028.33 1185.58 2026.24C1184.74 2025.81 1183.9 2025.37 1183.08 2024.93C1181.06 2023.85 1180.3 2021.33 1181.38 2019.31C1182.46 2017.29 1184.99 2016.52 1187 2017.62L1187.01 2017.62C1187.39 2014.98 1187.7 2012.36 1187.94 2009.78C1188.15 2007.5 1190.16 2005.82 1192.45 2006.02C1194.73 2006.23 1196.41 2008.25 1196.2 2010.54C1195.88 2014.11 1195.42 2017.75 1194.84 2021.42C1197.05 2022.39 1199.31 2023.28 1201.6 2024.11C1203.76 2024.89 1204.87 2027.27 1204.09 2029.43C1203.77 2030.33 1203.16 2031.05 1202.41 2031.53ZM1430.62 1874.8C1429.83 1875.3 1428.86 1875.54 1427.86 1875.41C1425.59 1875.1 1423.99 1873.02 1424.29 1870.75C1425.23 1863.65 1425.59 1858.03 1425.73 1854.55C1425.82 1852.26 1427.74 1850.48 1430.05 1850.57C1432.33 1850.66 1434.12 1852.59 1434.02 1854.89C1433.88 1858.53 1433.5 1864.43 1432.52 1871.83C1432.35 1873.11 1431.62 1874.17 1430.62 1874.8ZM866.38 2222.94C865.505 2223.49 864.429 2223.72 863.338 2223.5C857.648 2222.33 852.102 2220.9 846.847 2219.24C844.665 2218.55 843.456 2216.21 844.147 2214.03C844.844 2211.84 847.173 2210.64 849.361 2211.33C854.337 2212.91 859.591 2214.26 864.992 2215.36C867.241 2215.82 868.69 2218.01 868.233 2220.26C868.001 2221.41 867.302 2222.36 866.38 2222.94ZM1173.32 2015.78C1171.89 2016.69 1169.99 2016.66 1168.57 2015.56C1163.87 2011.93 1159.59 2007.97 1155.84 2003.77C1154.32 2002.06 1154.46 1999.44 1156.18 1997.91C1157.86 1996.36 1160.51 1996.54 1162.04 1998.25C1165.44 2002.06 1169.34 2005.67 1173.65 2008.99C1175.46 2010.39 1175.8 2012.99 1174.4 2014.81C1174.09 2015.21 1173.72 2015.53 1173.32 2015.78ZM761.728 2274.76C759.025 2276.46 756.226 2278.07 753.329 2279.56C751.292 2280.61 748.791 2279.82 747.738 2277.78C746.691 2275.74 747.563 2273.2 749.527 2272.18C754.316 2269.71 758.833 2266.9 763.092 2263.8C765.12 2262.48 767.544 2262.86 768.893 2264.71C770.245 2266.56 769.836 2269.16 767.988 2270.51C765.954 2271.99 763.87 2273.41 761.728 2274.76ZM780.42 2259.97C778.799 2260.99 776.624 2260.78 775.23 2259.35C773.632 2257.71 773.671 2255.08 775.313 2253.48C779.062 2249.83 782.677 2245.82 786.059 2241.55C787.485 2239.75 790.096 2239.44 791.889 2240.87C793.69 2242.29 793.988 2244.9 792.568 2246.7C788.962 2251.25 785.103 2255.53 781.1 2259.43C780.893 2259.64 780.659 2259.82 780.42 2259.97ZM738.366 2285.83C738.087 2286.01 737.788 2286.15 737.457 2286.26C732.087 2288.06 726.482 2289.47 720.789 2290.48C718.528 2290.87 716.376 2289.36 715.981 2287.11C715.589 2284.84 717.113 2282.7 719.349 2282.3C724.642 2281.37 729.853 2280.05 734.839 2278.39C737.012 2277.67 739.359 2278.84 740.086 2281.02C740.701 2282.86 739.943 2284.84 738.366 2285.83ZM1194.85 1997.08C1194.24 1997.46 1193.52 1997.69 1192.75 1997.71C1190.46 1997.78 1188.55 1995.96 1188.49 1993.67C1188.34 1988.04 1187.8 1982.71 1186.88 1977.82C1186.46 1975.57 1187.95 1973.39 1190.2 1972.97C1192.45 1972.56 1194.62 1974.04 1195.04 1976.29C1196.04 1981.6 1196.63 1987.38 1196.79 1993.45C1196.83 1994.97 1196.05 1996.32 1194.85 1997.08ZM834.858 2212.81C833.706 2213.54 832.223 2213.69 830.893 2213.07C825.575 2210.61 820.511 2207.81 815.853 2204.75C815.657 2204.62 815.477 2204.48 815.312 2204.32C814.292 2204.88 813.044 2205.01 811.871 2204.57C809.721 2203.77 808.628 2201.39 809.428 2199.24C811.306 2194.19 812.977 2188.99 814.396 2183.78C814.988 2181.57 817.272 2180.26 819.492 2180.86C821.704 2181.47 823.007 2183.74 822.407 2185.96C821.379 2189.73 820.227 2193.49 818.963 2197.21C819.462 2197.31 819.958 2197.5 820.409 2197.81C824.729 2200.64 829.433 2203.25 834.385 2205.54C836.466 2206.5 837.372 2208.97 836.406 2211.05C836.055 2211.8 835.513 2212.4 834.858 2212.81ZM801.049 2234.03C799.748 2234.85 798.041 2234.91 796.648 2234.05C794.699 2232.84 794.096 2230.29 795.301 2228.34C798.084 2223.83 800.698 2219.06 803.07 2214.15C804.067 2212.09 806.556 2211.23 808.613 2212.22C810.676 2213.22 811.543 2215.7 810.544 2217.77C808.048 2222.93 805.293 2227.96 802.36 2232.7C802.015 2233.26 801.564 2233.7 801.049 2234.03ZM705.784 2291.65C705.191 2292.02 704.493 2292.25 703.741 2292.28C698.202 2292.51 692.458 2292.39 686.664 2291.94C684.381 2291.76 682.673 2289.76 682.849 2287.47C683.039 2285.19 685.033 2283.48 687.318 2283.66C692.779 2284.09 698.191 2284.2 703.406 2283.99C705.694 2283.89 707.63 2285.68 707.718 2287.97C707.783 2289.51 706.998 2290.88 705.784 2291.65ZM1151.57 1991.01C1151.49 1991.06 1151.4 1991.11 1151.32 1991.16C1149.3 1992.24 1146.78 1991.49 1145.7 1989.47C1142.59 1983.68 1140.62 1977.96 1139.85 1972.46C1139.53 1970.19 1141.12 1968.09 1143.39 1967.78C1145.66 1967.46 1147.76 1969.05 1148.07 1971.32C1148.7 1975.84 1150.36 1980.62 1153 1985.53C1154.04 1987.47 1153.39 1989.86 1151.57 1991.01ZM1188.29 1964.75C1188.14 1964.84 1187.99 1964.93 1187.83 1965C1185.76 1965.98 1183.29 1965.08 1182.31 1963.01C1181.63 1961.56 1180.9 1960.21 1180.11 1958.97C1178.16 1955.87 1175.95 1953.52 1173.54 1951.97C1171.61 1950.72 1171.06 1948.15 1172.3 1946.22C1173.56 1944.31 1176.11 1943.74 1178.04 1944.98C1181.47 1947.2 1184.53 1950.41 1187.14 1954.54C1188.09 1956.06 1189 1957.71 1189.83 1959.48C1190.73 1961.39 1190.03 1963.65 1188.29 1964.75ZM672.748 2289.16C671.901 2289.69 670.858 2289.92 669.795 2289.73C664.945 2288.85 659.94 2287.74 654.911 2286.42L653.267 2285.98C651.055 2285.38 649.742 2283.1 650.339 2280.89C650.945 2278.68 653.213 2277.37 655.426 2277.96L657.026 2278.39C661.837 2279.66 666.633 2280.72 671.271 2281.56C673.528 2281.97 675.027 2284.13 674.618 2286.38C674.401 2287.58 673.698 2288.56 672.748 2289.16ZM807.301 2194.57C805.745 2195.55 803.662 2195.41 802.255 2194.09C797.95 2190.06 794.072 2185.69 790.738 2181.08C789.394 2179.23 789.808 2176.63 791.667 2175.28C793.505 2174 796.115 2174.36 797.465 2176.21C800.483 2180.38 804.002 2184.36 807.926 2188.02C809.6 2189.58 809.692 2192.21 808.128 2193.89C807.874 2194.15 807.595 2194.39 807.301 2194.57ZM824.28 2172.18C823.432 2172.71 822.39 2172.95 821.331 2172.75C819.077 2172.34 817.575 2170.18 817.978 2167.93C818.955 2162.52 819.657 2157.11 820.079 2151.86C820.264 2149.58 822.251 2147.87 824.549 2148.05C826.834 2148.23 828.539 2150.23 828.359 2152.52C827.913 2158.05 827.174 2163.72 826.154 2169.4C825.936 2170.59 825.23 2171.58 824.28 2172.18ZM640.599 2280.92C639.612 2281.54 638.368 2281.75 637.169 2281.38C631.64 2279.68 626.328 2277.93 621.239 2276.13C619.076 2275.36 617.942 2272.99 618.712 2270.83C619.486 2268.67 621.856 2267.53 624.009 2268.3C628.996 2270.07 634.193 2271.79 639.6 2273.44C641.795 2274.11 643.023 2276.44 642.355 2278.63C642.048 2279.62 641.409 2280.41 640.599 2280.92ZM1148.83 1959.34C1147.55 1960.15 1145.86 1960.23 1144.48 1959.39C1142.51 1958.21 1141.88 1955.66 1143.05 1953.7C1146.34 1948.22 1151.81 1944.35 1158.79 1942.53C1161 1941.95 1163.27 1943.27 1163.85 1945.49C1164.43 1947.7 1163.13 1949.99 1160.89 1950.55C1156.04 1951.83 1152.35 1954.33 1150.17 1957.97C1149.82 1958.55 1149.36 1959.01 1148.83 1959.34ZM788.056 2167.8C787.885 2167.91 787.704 2168.01 787.508 2168.1C785.41 2169.02 782.959 2168.07 782.035 2165.96C779.629 2160.49 777.899 2154.84 776.884 2149.19C776.479 2146.93 777.981 2144.77 780.241 2144.37C782.498 2143.97 784.656 2145.47 785.059 2147.73C785.951 2152.73 787.489 2157.75 789.635 2162.62C790.478 2164.53 789.766 2166.72 788.056 2167.8ZM826.768 2139.1C826.179 2139.47 825.491 2139.7 824.743 2139.73C822.456 2139.84 820.51 2138.06 820.408 2135.77C820.14 2129.82 819.408 2124.59 818.231 2120.25C817.639 2118.04 818.936 2115.76 821.153 2115.15C823.37 2114.55 825.647 2115.86 826.248 2118.07C827.583 2123.01 828.409 2128.84 828.704 2135.4C828.771 2136.94 827.988 2138.33 826.768 2139.1ZM609.339 2269.8C608.24 2270.49 606.831 2270.66 605.539 2270.13C600.138 2267.9 595.015 2265.61 590.159 2263.26C588.096 2262.26 587.234 2259.78 588.233 2257.72C589.228 2255.66 591.712 2254.79 593.775 2255.79C598.485 2258.07 603.461 2260.29 608.698 2262.46C610.816 2263.33 611.829 2265.75 610.953 2267.87C610.614 2268.7 610.04 2269.36 609.339 2269.8ZM782.533 2135.44C781.769 2135.92 780.835 2136.16 779.869 2136.05C777.59 2135.8 775.946 2133.75 776.198 2131.47C776.921 2124.9 778.74 2119.06 781.594 2114.1C782.739 2112.11 785.278 2111.44 787.262 2112.58C789.25 2113.72 789.929 2116.26 788.782 2118.25C786.534 2122.15 785.038 2127.03 784.446 2132.38C784.302 2133.69 783.564 2134.79 782.533 2135.44ZM815.793 2109.08C814.641 2109.8 813.158 2109.95 811.828 2109.33C811.652 2109.26 811.47 2109.19 811.283 2109.13C806.709 2107.8 802.498 2107.84 798.774 2109.24C796.625 2110.04 794.23 2108.95 793.429 2106.81C792.626 2104.66 793.728 2102.28 795.86 2101.46C801.299 2099.43 807.262 2099.33 813.58 2101.15C814.164 2101.32 814.749 2101.54 815.317 2101.8C817.398 2102.77 818.302 2105.23 817.338 2107.32C816.992 2108.07 816.448 2108.66 815.793 2109.08ZM579.506 2255.29C578.245 2256.08 576.591 2256.17 575.212 2255.38C570.154 2252.46 565.334 2249.41 560.893 2246.31C559.014 2245 558.553 2242.41 559.862 2240.53C561.179 2238.67 563.76 2238.19 565.643 2239.5C569.893 2242.46 574.508 2245.39 579.361 2248.19C581.349 2249.33 582.026 2251.88 580.881 2253.86C580.535 2254.46 580.058 2254.94 579.506 2255.29ZM552.381 2236.24C550.873 2237.19 548.865 2237.09 547.448 2235.86C543.024 2232.03 538.914 2227.99 535.237 2223.86C533.712 2222.16 533.865 2219.53 535.575 2218C537.275 2216.48 539.906 2216.63 541.435 2218.34C544.878 2222.2 548.734 2225.99 552.887 2229.59C554.618 2231.09 554.807 2233.71 553.3 2235.45C553.032 2235.76 552.719 2236.03 552.381 2236.24ZM530.448 2211.46C528.536 2212.67 525.999 2212.12 524.757 2210.22L523.892 2208.87C521.075 2204.41 518.611 2199.75 516.563 2195.03C515.65 2192.93 516.615 2190.51 518.722 2189.57C520.825 2188.66 523.27 2189.62 524.181 2191.73C526.056 2196.06 528.324 2200.34 530.915 2204.44L531.712 2205.69C532.965 2207.6 532.428 2210.18 530.508 2211.43C530.485 2211.44 530.467 2211.45 530.448 2211.46ZM517.37 2181.17C516.988 2181.41 516.567 2181.59 516.103 2181.7C513.874 2182.22 511.641 2180.84 511.114 2178.61C509.811 2173.06 508.973 2167.31 508.616 2161.51C508.479 2159.22 510.236 2157.26 512.508 2157.12C514.801 2156.98 516.766 2158.72 516.905 2161.01C517.229 2166.34 517.998 2171.62 519.196 2176.71C519.61 2178.48 518.826 2180.25 517.37 2181.17ZM515.276 2148.2C514.528 2148.67 513.625 2148.91 512.677 2148.82C510.394 2148.61 508.721 2146.58 508.934 2144.3C509.451 2138.76 510.388 2133.06 511.708 2127.37C512.225 2125.14 514.458 2123.74 516.689 2124.26C518.925 2124.78 520.311 2127.01 519.793 2129.24C518.558 2134.58 517.686 2139.9 517.196 2145.07C517.07 2146.41 516.328 2147.54 515.276 2148.2ZM522.66 2115.88C521.617 2116.53 520.295 2116.72 519.046 2116.28C516.885 2115.5 515.762 2113.13 516.532 2110.97C518.405 2105.74 520.6 2100.44 523.066 2095.24C524.047 2093.16 526.526 2092.28 528.598 2093.26C530.672 2094.25 531.554 2096.72 530.574 2098.79C528.226 2103.75 526.134 2108.79 524.357 2113.76C524.025 2114.68 523.417 2115.4 522.66 2115.88ZM536.848 2085.85C535.572 2086.65 533.899 2086.73 532.513 2085.91C530.542 2084.74 529.891 2082.2 531.062 2080.22C536.333 2071.33 540.442 2066.1 540.614 2065.89C542.054 2064.1 544.649 2063.79 546.441 2065.2C548.244 2066.62 548.547 2069.23 547.129 2071.03C547.088 2071.08 543.162 2076.09 538.201 2084.46C537.853 2085.04 537.385 2085.51 536.848 2085.85Z" fill="#241726"/>
<path d="M-123.545 2059.73C-122.546 2063.46 -121.429 2067.19 -120.2 2070.9C-119.533 2072.93 -117.345 2074.03 -115.319 2073.36C-113.285 2072.69 -112.1 2070.46 -112.855 2068.48C-114.033 2064.91 -115.111 2061.32 -116.074 2057.73L-117.055 2053.92C-117.059 2053.91 -117.065 2053.88 -117.072 2053.86C-117.616 2051.83 -119.695 2050.61 -121.74 2051.12C-123.813 2051.64 -125.075 2053.73 -124.559 2055.8L-123.545 2059.73ZM-127.608 2040.74C-127.103 2042.63 -125.24 2043.86 -123.268 2043.55C-121.159 2043.21 -119.718 2041.23 -120.058 2039.13C-120.852 2034.09 -121.43 2029.04 -121.76 2024.13C-121.87 2022 -123.739 2020.4 -125.875 2020.54C-128.003 2020.69 -129.62 2022.53 -129.476 2024.65C-129.13 2029.79 -128.538 2035.07 -127.698 2040.34C-127.671 2040.48 -127.643 2040.61 -127.608 2040.74ZM-114.877 2085.16C-114.833 2085.32 -114.783 2085.48 -114.715 2085.64C-112.709 2090.44 -110.492 2095.25 -108.119 2099.92C-107.155 2101.83 -104.825 2102.58 -102.917 2101.62C-101.01 2100.65 -100.214 2098.31 -101.219 2096.43C-103.504 2091.92 -105.645 2087.29 -107.564 2082.67C-108.39 2080.7 -110.65 2079.77 -112.625 2080.59C-114.436 2081.35 -115.371 2083.32 -114.877 2085.16ZM-129.591 2009.97C-129.164 2011.56 -127.741 2012.76 -126.004 2012.82C-123.869 2012.9 -122.072 2011.24 -121.993 2009.11C-121.797 2004.01 -121.302 1999 -120.533 1994.22C-120.179 1992.1 -121.628 1990.14 -123.736 1989.8C-125.845 1989.46 -127.829 1990.89 -128.166 1993C-128.994 1998.09 -129.515 2003.41 -129.722 2008.82C-129.736 2009.22 -129.689 2009.61 -129.591 2009.97ZM-100.9 2112.66C-100.807 2113.01 -100.663 2113.35 -100.466 2113.68C-97.6889 2118.23 -94.7549 2122.64 -91.7438 2126.78C-90.4911 2128.51 -88.073 2128.89 -86.3437 2127.64C-84.6144 2126.39 -84.2283 2123.98 -85.4795 2122.25C-88.3607 2118.27 -91.1848 2114.03 -93.8592 2109.65C-94.9639 2107.83 -97.3485 2107.26 -99.1673 2108.37C-100.671 2109.28 -101.332 2111.05 -100.9 2112.66ZM-82.7189 2137.58C-82.5685 2138.14 -82.2897 2138.68 -81.8775 2139.15C-78.1794 2143.29 -74.3544 2147.05 -70.4958 2150.34C-68.8665 2151.72 -66.423 2151.52 -65.0454 2149.9C-63.6512 2148.27 -63.8469 2145.85 -65.4714 2144.46C-69.0662 2141.41 -72.6353 2137.89 -76.0907 2134.01C-77.5099 2132.42 -79.9556 2132.28 -81.5542 2133.7C-82.686 2134.7 -83.0851 2136.22 -82.7189 2137.58ZM-124.52 1979.59C-124.191 1980.82 -123.263 1981.86 -121.964 1982.28C-119.93 1982.92 -117.751 1981.8 -117.1 1979.77C-115.56 1974.96 -113.639 1970.39 -111.408 1966.19C-110.403 1964.3 -111.115 1961.98 -113.002 1960.97C-114.891 1959.97 -117.23 1960.69 -118.23 1962.57C-120.688 1967.17 -122.788 1972.17 -124.47 1977.43C-124.7 1978.16 -124.704 1978.91 -124.52 1979.59ZM-59.1563 2157.36C-58.9025 2158.31 -58.2903 2159.16 -57.3752 2159.69C-52.5464 2162.51 -47.5543 2164.74 -42.5202 2166.33C-40.4868 2166.97 -38.3093 2165.85 -37.6653 2163.82C-37.0164 2161.78 -38.135 2159.62 -40.1768 2158.97C-44.6639 2157.55 -49.1388 2155.56 -53.4686 2153.03C-55.313 2151.96 -57.6799 2152.57 -58.7606 2154.41C-59.3006 2155.34 -59.4138 2156.4 -59.1563 2157.36ZM-109.905 1952.61C-109.708 1953.34 -109.293 1954.02 -108.672 1954.55C-107.043 1955.93 -104.601 1955.73 -103.214 1954.1C-100.059 1950.38 -96.494 1947.05 -92.6143 1944.19C-90.8903 1942.92 -90.5266 1940.5 -91.7941 1938.79C-93.0658 1937.08 -95.486 1936.71 -97.2025 1937.98C-101.565 1941.2 -105.569 1944.94 -109.118 1949.12C-109.97 1950.12 -110.222 1951.43 -109.905 1952.61ZM-29.9285 2166.43C-29.5092 2168 -28.1265 2169.19 -26.4126 2169.29C-21.0365 2169.59 -15.5385 2169.21 -10.079 2168.16C-7.97453 2167.75 -6.60186 2165.73 -7.0032 2163.64C-7.33774 2161.46 -9.43399 2160.17 -11.5277 2160.58C-16.3702 2161.51 -21.2232 2161.85 -25.9681 2161.59C-28.097 2161.46 -29.9297 2163.09 -30.048 2165.22C-30.081 2165.64 -30.0312 2166.05 -29.9285 2166.43ZM-85.2771 1934.42C-85.2284 1934.6 -85.1657 1934.78 -85.0854 1934.96C-84.2419 1936.92 -81.9601 1937.81 -79.9957 1936.96C-76.7586 1935.56 -73.2971 1934.35 -69.7154 1933.39C-68.5044 1933.06 -67.2689 1932.76 -66.0296 1932.49C-63.9384 1932.04 -62.6136 1929.98 -63.0687 1927.9C-63.3439 1925.85 -65.5692 1924.5 -67.6613 1924.95C-69.0356 1925.24 -70.387 1925.57 -71.7138 1925.93C-75.6669 1926.99 -79.4952 1928.32 -83.0813 1929.88C-84.8632 1930.66 -85.7645 1932.6 -85.2771 1934.42ZM0.202535 2160.79C0.24942 2160.96 0.310397 2161.14 0.382205 2161.31C1.22582 2163.27 3.49713 2164.18 5.46079 2163.34C10.2518 2161.29 15.0275 2158.7 19.6562 2155.66C21.444 2154.48 21.9526 2152.09 20.7662 2150.31C19.594 2148.53 17.1924 2148.04 15.4103 2149.21C11.1623 2152.01 6.78837 2154.37 2.41638 2156.24C0.63028 2157.01 -0.285778 2158.97 0.202535 2160.79ZM-55.2604 1927.67C-54.7968 1929.4 -53.171 1930.63 -51.305 1930.52C-46.5457 1930.24 -41.5071 1930.28 -36.3306 1930.62C-34.203 1930.77 -32.3583 1929.15 -32.2085 1927.03C-32.0969 1924.9 -33.679 1923.06 -35.8131 1922.92C-41.3016 1922.55 -46.6592 1922.51 -51.7439 1922.81C-53.8779 1922.93 -55.509 1924.76 -55.382 1926.89C-55.3759 1927.16 -55.3276 1927.42 -55.2604 1927.67ZM26.0454 2144.01C26.1958 2144.57 26.4746 2145.11 26.8934 2145.57C28.306 2147.16 30.7517 2147.31 32.3503 2145.89C36.2288 2142.44 40.0008 2138.62 43.5617 2134.55C44.9678 2132.94 44.8001 2130.5 43.1871 2129.1C41.5783 2127.7 39.1343 2127.87 37.7273 2129.48C34.3818 2133.31 30.8453 2136.89 27.2067 2140.12C26.0782 2141.13 25.6792 2142.64 26.0454 2144.01ZM-24.4439 1929.57C-24.0635 1930.99 -22.8901 1932.13 -21.3431 1932.38C-16.563 1933.18 -11.5697 1934.21 -6.49724 1935.46C-4.4268 1935.97 -2.32546 1934.71 -1.81584 1932.64C-1.28394 1930.56 -2.55672 1928.47 -4.63861 1927.97C-9.89801 1926.67 -15.0906 1925.59 -20.0673 1924.77C-22.1783 1924.42 -24.1673 1925.84 -24.5185 1927.94C-24.6124 1928.51 -24.581 1929.06 -24.4439 1929.57ZM46.3933 2120.8C46.6233 2121.66 47.1453 2122.45 47.9383 2122.98C49.6944 2124.19 52.1065 2123.74 53.3174 2121.99C54.2791 2120.59 55.2213 2119.17 56.1351 2117.73C58.8153 2120.64 61.8342 2123.48 65.1628 2126.2C66.8148 2127.55 69.2444 2127.31 70.6032 2125.66C71.9588 2124.01 71.7314 2121.58 70.0693 2120.22C66.3635 2117.19 63.0799 2114.02 60.2962 2110.78C60.7354 2109.99 61.1605 2109.21 61.5805 2108.42C62.5719 2106.55 61.8814 2104.2 59.9933 2103.2C58.1043 2102.2 55.764 2102.91 54.757 2104.79C52.4163 2109.16 49.7857 2113.48 46.9353 2117.61C46.2774 2118.58 46.1111 2119.75 46.3933 2120.8ZM41.7168 2092.63C42.4812 2095.48 43.5171 2098.33 44.7923 2101.08C45.6862 2103.01 47.9838 2103.86 49.9274 2102.96C51.8685 2102.06 52.7566 2099.76 51.8063 2097.83C49.7865 2093.44 48.4801 2088.83 48.0125 2084.26C47.7912 2082.15 45.8974 2080.6 43.7674 2080.81C41.6449 2081.03 40.0974 2082.93 40.3106 2085.05C40.5737 2087.58 41.0481 2090.13 41.7168 2092.63ZM41.6669 2070.36C42.0102 2071.64 43.0096 2072.71 44.3833 2073.08C46.4412 2073.64 48.574 2072.43 49.1329 2070.37C50.7506 2064.47 53.4012 2060.47 55.3317 2058.16C56.6983 2056.52 56.4916 2054.08 54.8361 2052.72C53.1971 2051.35 50.7597 2051.57 49.3907 2053.22C45.9144 2057.38 43.2414 2062.61 41.674 2068.34C41.4849 2069.03 41.4962 2069.72 41.6669 2070.36ZM60.9076 2093.59C61.2145 2094.73 62.0506 2095.72 63.2397 2096.19C65.2361 2096.96 67.4756 2095.97 68.2483 2093.99C70.2467 2088.86 71.8579 2083.73 73.0311 2078.73C73.5447 2076.65 72.2231 2074.58 70.154 2074.1C68.0756 2073.61 65.9899 2074.9 65.5061 2076.97C64.4128 2081.62 62.9081 2086.4 61.043 2091.2C60.7302 2091.99 60.7023 2092.82 60.9076 2093.59ZM76.5028 2133.1C76.7496 2134.02 77.3406 2134.85 78.2118 2135.39C80.6555 2136.89 83.2467 2138.37 85.9904 2139.82C88.0864 2140.93 90.148 2141.97 92.1807 2142.92C94.1065 2143.84 96.4101 2143.01 97.3258 2141.08C98.2498 2139.16 97.4206 2136.85 95.4882 2135.94C93.5642 2135.04 91.61 2134.06 89.6246 2133C87.0249 2131.62 84.5787 2130.22 82.2676 2128.81C80.4441 2127.7 78.0615 2128.27 76.9454 2130.08C76.3675 2131.02 76.2383 2132.12 76.5028 2133.1ZM61.8053 2050.3C62.1299 2051.51 63.0407 2052.54 64.318 2052.97C65.7689 2053.44 66.5223 2055.53 66.8443 2056.73C67.2742 2058.33 67.49 2060.3 67.4879 2062.57C67.486 2064.7 69.2042 2066.44 71.3469 2066.44C73.482 2066.44 75.2186 2064.72 75.2187 2062.59C75.2254 2059.63 74.9248 2056.99 74.3188 2054.73C72.7167 2048.75 69.3268 2046.49 66.7699 2045.64C64.7359 2044.97 62.5505 2046.07 61.8732 2048.09C61.6252 2048.83 61.6177 2049.6 61.8053 2050.3ZM104.443 2146.14C104.771 2147.36 105.698 2148.4 106.992 2148.82C112.321 2150.52 117.606 2151.74 122.698 2152.44C124.818 2152.73 126.768 2151.26 127.063 2149.14C127.339 2147.05 125.884 2145.09 123.763 2144.8C119.108 2144.15 114.273 2143.04 109.369 2141.46C107.334 2140.82 105.154 2141.93 104.502 2143.96C104.26 2144.7 104.258 2145.44 104.443 2146.14ZM134.923 2150.12C135.397 2151.88 137.08 2153.11 138.962 2152.96C143.065 2152.63 147.11 2151.94 151.001 2150.89C152.358 2150.53 153.696 2150.13 155.01 2149.68C157.033 2149 158.191 2146.81 157.437 2144.79C156.753 2142.77 154.562 2141.68 152.533 2142.37C151.379 2142.76 150.197 2143.12 149.003 2143.44C145.565 2144.36 141.984 2144.97 138.354 2145.26C136.226 2145.44 134.635 2147.29 134.797 2149.42C134.825 2149.66 134.863 2149.89 134.923 2150.12ZM163.942 2140.37C164.041 2140.74 164.194 2141.1 164.408 2141.44C165.548 2143.24 167.942 2143.77 169.743 2142.63C174.172 2139.84 178.458 2136.46 182.483 2132.59C184.033 2131.11 184.091 2128.67 182.591 2127.13C181.115 2125.6 178.664 2125.55 177.127 2127.03C173.469 2130.54 169.595 2133.6 165.616 2136.11C164.144 2137.04 163.516 2138.78 163.942 2140.37ZM186.282 2119.22C186.498 2120.02 186.975 2120.76 187.692 2121.3C189.403 2122.58 191.822 2122.24 193.109 2120.53C196.199 2116.42 199.14 2111.92 201.838 2107.17C202.899 2105.31 202.243 2102.96 200.383 2101.91C198.523 2100.85 196.163 2101.51 195.11 2103.36C192.576 2107.83 189.819 2112.05 186.924 2115.89C186.178 2116.88 185.986 2118.11 186.282 2119.22ZM201.615 2092.41C201.911 2093.51 202.693 2094.47 203.824 2094.96C205.786 2095.8 208.061 2094.89 208.906 2092.94C212.665 2084.23 214.335 2078.11 214.399 2077.86C214.952 2075.81 213.74 2073.68 211.677 2073.13C209.614 2072.58 207.491 2073.8 206.931 2075.85C206.914 2075.91 205.321 2081.73 201.799 2089.89C201.442 2090.72 201.399 2091.6 201.615 2092.41Z" fill="#241726"/>
</svg>
