<svg width="49" height="48" viewBox="0 0 49 48" fill="none" xmlns="http://www.w3.org/2000/svg">
<rect x="2.53174" y="2" width="44" height="44" rx="22" fill="#FEDB63"/>
<rect x="2.53174" y="2" width="44" height="44" rx="22" stroke="black" stroke-width="4"/>
<path d="M27.3408 22.1667L36.3024 11.7495H34.1788L26.3974 20.7946L20.1824 11.7495H13.0142L22.4124 25.4273L13.0142 36.3513H15.1379L23.3553 26.7994L29.9187 36.3513H37.087L27.3402 22.1667H27.3408ZM15.9031 13.3483H19.165L34.1797 34.8253H30.9178L15.9031 13.3483Z" fill="black"/>
<path d="M27.3408 22.1667L36.3024 11.7495H34.1788L26.3974 20.7946L20.1824 11.7495H13.0142L22.4124 25.4273L13.0142 36.3513H15.1379L23.3553 26.7994L29.9187 36.3513H37.087L27.3402 22.1667H27.3408ZM15.9031 13.3483H19.165L34.1797 34.8253H30.9178L15.9031 13.3483Z" fill="black"/>
</svg>
