<svg width="85" height="85" viewBox="0 0 85 85" fill="none" xmlns="http://www.w3.org/2000/svg">
<path d="M73.1416 61.8664C72.9398 58.5426 72.698 55.2218 72.4281 51.9028C71.8829 45.2091 71.124 38.535 70.118 31.8949C69.4297 27.3481 66.7945 23.7873 63.7912 20.4466C62.8033 19.3477 60.9745 18.7588 59.1386 18.455C59.7972 16.0536 59.705 12.9947 57.6225 11.4056C55.7657 9.98826 53.3042 12.1283 52.3536 13.6209C52.0047 14.1687 51.6168 15.0185 51.2706 16.0148C50.1501 15.7475 48.9994 15.7474 47.8472 16.1828C45.4141 17.1026 42.9681 18.0094 40.6686 19.2368C38.1889 20.5602 36.3631 22.4277 34.4303 24.4332C30.0067 29.0245 25.7224 33.7499 21.5704 38.5885C19.4723 41.0333 17.408 43.5062 15.3737 46.0046C14.4834 47.0981 13.6248 48.1338 13.294 49.5377C13.0738 50.4751 13.0492 51.5589 13.3864 52.4738C13.9034 53.8781 15.1664 55.1425 16.1379 56.2386C17.5094 57.7844 18.9824 59.2391 20.4981 60.6426C23.3054 63.2407 26.3052 65.8797 29.6492 67.7736C30.1976 68.0845 30.7589 68.3451 31.3547 68.5498C33.59 69.2212 35.7824 67.9844 37.2837 66.4308C38.5944 65.0757 39.892 63.708 41.1822 62.3333C41.4919 65.9483 41.7416 70.2491 44.5174 72.533C46.6264 74.2687 51.0717 73.6383 53.5472 73.5501C57.7545 73.3995 61.9642 72.8922 66.1134 72.1879C69.1863 71.6666 72.0223 71.2659 73.1534 68.0203C73.799 66.1682 73.255 63.7497 73.1416 61.8664ZM57.1512 18.2254C56.5462 18.1824 55.9814 18.1634 55.4849 18.1597C54.7067 17.5848 53.8842 17.059 53.033 16.6506C53.593 15.3094 55.9769 11.1466 57.1904 14.053C57.7464 15.3847 57.5646 16.8801 57.1512 18.2254Z" fill="#FDBC26"/>
<path d="M63.8087 23.4499C66.6544 26.7734 67.8827 30.2136 68.5079 34.4966C69.837 43.6037 70.5841 52.7891 71.1598 61.9702C71.2753 63.8235 71.5804 65.7556 71.2146 67.5934C70.7821 69.7684 67.7123 69.8994 66.0095 70.2062C62.979 70.7511 59.9115 71.095 56.8452 71.3565C53.8761 71.61 50.8493 71.7631 47.8749 71.5025C43.1067 71.0849 43.4451 64.1704 42.9803 60.4002C43.2906 60.0649 43.6055 59.7327 43.9149 59.3955C44.2703 59.0085 44.6192 58.616 44.9727 58.2273C45.2185 59.9045 45.4584 61.5828 45.7422 63.2548C45.9812 64.6623 46.0691 66.6845 47.2183 67.7109C49.0417 69.3398 51.6682 69.1336 53.9597 69.1486C57.5004 69.171 61.0872 68.9882 64.563 68.2835C67.1417 67.7616 68.5123 66.5446 68.6877 63.8944C69.0639 58.2034 68.2939 52.126 67.8422 46.4692C67.5309 42.5798 67.1283 38.6899 66.4803 34.8403C66.0665 32.3862 65.3368 29.992 63.6373 28.1654C63.2995 25.5531 61.5385 23.4629 58.9566 21.0949C58.5747 20.7443 57.6574 20.1565 59.3422 20.636C61.0366 21.1175 62.563 21.9947 63.8087 23.4499Z" fill="#FEDB63"/>
<path d="M63.364 30.6051C63.4224 30.3654 63.4765 30.1404 63.5238 29.92C64.7242 31.712 65.1376 33.9119 65.4839 36.0748C65.9672 39.0971 66.27 42.1495 66.5409 45.1973C66.9565 49.8683 67.242 54.5594 67.3876 59.2469C67.4505 61.2539 68.271 64.9312 66.4586 66.3556C64.3801 67.9888 60.0568 67.7571 57.5507 67.8823C55.1742 68.0006 52.7318 68.069 50.3598 67.83C47.6616 67.5585 47.3452 65.4409 46.9315 63.1924C46.5594 61.1692 46.3025 59.1257 46.0027 57.0903C49.6095 53.0916 53.1286 49.0142 56.5353 44.8435C58.3051 42.6767 60.0749 40.6168 61.1486 38.0046C62.1297 35.6177 62.7532 33.1071 63.364 30.6051Z" fill="#FEDB63"/>
<path d="M53.7974 28.4146C52.6028 29.2971 51.3008 29.0853 50.2428 28.1016C49.0251 26.9701 49.5297 25.6024 50.536 24.7144C50.9074 24.3873 51.1761 24.6349 51.4414 24.8731C51.9881 25.3633 52.7545 25.626 53.7959 25.5585C54.4 25.5195 54.4938 25.6739 54.5761 26.1421C54.7254 26.9964 54.5077 27.8895 53.7974 28.4146Z" fill="#FEDB63"/>
<path d="M40.6643 49.3335C40.4369 48.7717 40.0431 48.1955 39.5558 47.912C38.8224 47.4846 37.9585 47.5423 37.1028 47.9187C35.7712 48.5338 34.8513 49.9877 35.4306 51.38C35.9267 52.5731 37.3065 53.4992 38.6115 53.2987C39.1292 53.2193 39.6261 52.9482 40.0547 52.6442C40.4482 52.3653 40.7918 51.9704 40.923 51.4984C41.1247 50.7732 40.9396 50.0142 40.6643 49.3335ZM39.8603 51.4547C39.4786 52.1125 38.6694 52.507 37.9196 52.4171C37.0579 52.3144 36.3357 51.5869 36.1951 50.7434C36.1332 50.3702 36.2239 49.9518 36.4167 49.6289C36.6646 49.2115 37.0251 48.9343 37.4605 48.7334C38.0892 48.4557 38.8887 48.5367 39.3885 49.0308C39.7002 49.3394 39.9087 49.7524 39.9996 50.18C40.0908 50.6073 40.0864 51.0653 39.8603 51.4547Z" fill="#FEDB63"/>
<path d="M38.5721 51.1042C38.2459 51.2839 37.9879 51.2971 37.6981 51.076C37.2037 50.699 37.3512 50.1728 37.77 49.9057C37.9402 49.7974 38.4884 49.5829 38.7552 50.1805C39.012 50.7558 38.7398 51.0111 38.5721 51.1042Z" fill="#FEDB63"/>
<path d="M38.1127 35.4786C37.8849 34.9169 37.4907 34.3407 37.0041 34.0575C36.16 33.5666 34.9022 33.5181 33.66 34.6555C32.8576 35.3901 32.4413 36.475 32.8782 37.5251C33.3745 38.7182 34.7545 39.6442 36.0599 39.4437C36.5768 39.3644 37.0745 39.0936 37.5031 38.7892C37.8961 38.5103 38.2401 38.1159 38.3714 37.6434C38.573 36.9187 38.3879 36.1597 38.1127 35.4786ZM37.3212 37.5713C36.9395 38.2291 36.1307 38.6236 35.3808 38.5337C34.5191 38.431 33.7966 37.7031 33.6563 36.8597C33.5945 36.4869 33.6848 36.0685 33.878 35.7452C34.1255 35.3282 34.4859 35.051 34.9214 34.8501C35.55 34.5724 36.3498 34.6534 36.8498 35.1475C37.1614 35.4557 37.37 35.869 37.4605 36.2963C37.552 36.7239 37.5473 37.1819 37.3212 37.5713Z" fill="#FEDB63"/>
<path d="M36.0328 37.2208C35.7069 37.4006 35.4485 37.4134 35.1588 37.1927C34.6647 36.8157 34.8123 36.2895 35.231 36.022C35.4012 35.9137 35.9494 35.6996 36.2162 36.2972C36.473 36.8725 36.2005 37.1278 36.0328 37.2208Z" fill="#FEDB63"/>
<path d="M61.099 26.7713C60.6105 25.7558 59.9411 24.8761 59.1225 24.0237C57.6871 22.5295 56.1068 21.1562 54.4518 19.9105C53.8005 19.4205 53.1583 18.9906 52.4806 18.6412C52.2375 19.7266 52.0441 21.0207 52.21 22.0099C53.586 21.9687 54.9437 22.5345 55.6882 23.8151C56.9311 25.9538 57.0872 28.8482 54.664 30.2172C52.501 31.4386 49.6916 31.1038 48.2941 28.8311C46.8124 26.4205 47.8289 23.7125 50.3017 22.4746C50.3147 22.468 50.327 22.4656 50.3396 22.4601C50.1563 21.1034 50.3461 19.4799 50.705 17.9601C49.5618 17.616 48.3921 18.0964 47.5268 18.4232C46.4053 18.847 45.2852 19.2767 44.1821 19.7485C42.1008 20.6391 39.9401 21.6871 38.3098 23.2937C36.1712 25.4014 34.1201 27.6078 32.0749 29.8058C28.0524 34.1288 24.149 38.5626 20.3556 43.087C19.3994 44.2278 18.4508 45.3734 17.5084 46.5245C15.1511 49.4031 14.1411 50.606 16.4024 53.4924C18.6742 56.3901 21.4606 58.9392 24.2506 61.3258C25.6691 62.5394 27.1257 63.7161 28.6533 64.7904C30.8682 66.3486 32.0365 67.2133 34.023 66.4427C35.2712 65.9581 36.1501 64.7533 37.0499 63.8137C38.045 62.775 39.0339 61.7315 40.0165 60.6813C42.0478 58.5126 44.0521 56.32 46.0274 54.1014C49.9812 49.6606 53.8875 45.1427 57.5362 40.4466C58.9668 38.6057 59.7608 36.315 60.4054 34.1009C60.741 32.9496 61.0329 31.7861 61.3177 30.6209C61.827 28.5428 61.837 28.3064 61.099 26.7713ZM34.1752 32.934C35.5066 32.3465 37.154 32.45 38.2244 33.5092C39.4581 34.7288 40.1528 37.0508 39.2347 38.6316C38.4726 39.9444 36.7637 40.7942 35.2651 40.6291C33.4885 40.4334 31.8502 38.9491 31.5524 37.1781C31.2341 35.2891 32.5462 33.6865 34.1752 32.934ZM41.7871 52.4862C41.0246 53.7987 39.3154 54.6481 37.8175 54.4834C36.0406 54.2883 34.4026 52.8037 34.104 51.0328C33.7861 49.143 35.0978 47.5404 36.7268 46.789C38.059 46.2004 39.7057 46.3051 40.7764 47.3636C42.0098 48.5836 42.7051 50.9048 41.7871 52.4862ZM44.3986 43.4836C43.2731 44.1196 41.9083 44.4079 40.6777 44.7657C37.5033 45.6875 34.266 46.3871 30.9969 46.8789C30.1189 46.9985 28.3675 47.1914 27.8093 46.2721C27.1326 45.1557 28.7965 44.3451 29.5736 44.0085C30.9557 43.411 32.44 42.9935 33.8823 42.5683C35.4615 42.1028 37.0576 41.6913 38.6654 41.3341C40.1066 41.0142 41.6105 40.6219 43.0839 40.502C43.8395 40.4407 44.8865 40.5212 45.3601 41.2085C45.9886 42.1201 45.1813 43.0415 44.3986 43.4836Z" fill="#FEDB63"/>
<path d="M29.6446 45.278C30.1087 45.0473 30.6036 44.88 31.0927 44.7108C33.5519 43.8611 36.0572 43.1458 38.5934 42.5654C39.8842 42.2696 41.1829 42.0106 42.4883 41.7895C42.8052 41.7353 43.1148 41.6808 43.4363 41.6787C44.3518 41.672 44.8257 41.9091 43.8126 42.4273C42.6189 43.0393 39.9334 43.7419 39.6393 43.8247C36.7786 44.6259 33.8721 45.2475 30.9346 45.6899C30.5407 45.7433 30.1437 45.7715 29.7451 45.7633C28.7323 45.7405 29.0435 45.5778 29.6446 45.278Z" fill="#FEDB63"/>
<path d="M29.7452 45.7633C30.1439 45.7715 30.5409 45.7432 30.9347 45.6899C33.8724 45.2474 36.7788 44.626 39.6394 43.8247C39.8799 43.7573 41.713 43.2771 43.0284 42.7688C41.8323 43.0589 40.6375 43.3544 39.4314 43.6101C37.4465 44.0313 35.4438 44.3648 33.4389 44.6785C32.4082 44.84 31.2451 45.096 30.1407 45.0652C29.9734 45.1329 29.8058 45.1984 29.6447 45.2781C29.0437 45.5778 28.7325 45.7405 29.7452 45.7633Z" fill="#FEDB63"/>
<path d="M36.0601 39.4439C36.5769 39.3645 37.0746 39.0938 37.5032 38.7894C37.8963 38.5105 38.2403 38.116 38.3716 37.6436C38.5208 37.1059 38.457 36.5498 38.302 36.0207C38.2705 37.0847 37.9545 38.1118 37.0101 38.753C35.8019 39.5732 34.2006 38.9653 33.3429 37.9626C32.7989 37.328 32.7227 36.4342 32.9357 35.6333C32.6657 36.2167 32.609 36.8772 32.8785 37.5252C33.3747 38.7183 34.7546 39.6444 36.0601 39.4439Z" fill="#FEDB63"/>
<path d="M35.6318 49.2322C35.2489 49.8752 35.1202 50.6346 35.4308 51.38C35.9269 52.5731 37.3067 53.4992 38.6117 53.2987C39.1294 53.2193 39.6263 52.9482 40.0549 52.6442C40.4484 52.3653 40.792 51.9704 40.9232 51.4984C41.0759 50.9502 41.0064 50.3823 40.845 49.844C40.9085 50.7669 40.6351 51.6879 39.8543 52.3221C39.0859 52.9459 37.7152 52.9177 36.8624 52.5271C35.5978 51.947 35.339 50.4858 35.6318 49.2322Z" fill="#FEDB63"/>
<path d="M52.1009 26.7377C52.8676 26.8384 53.6485 27.1571 54.1593 27.7536C54.2035 27.8046 54.2293 27.8611 54.2652 27.9148C54.5956 27.4081 54.6856 26.7657 54.5764 26.1421C54.4941 25.6739 54.4003 25.5195 53.7962 25.5585C52.7546 25.626 51.9884 25.3633 51.4417 24.8731C51.1763 24.6349 50.9077 24.3874 50.5362 24.7144C49.8145 25.352 49.3545 26.2361 49.6001 27.1027C50.3022 26.6957 51.3216 26.6342 52.1009 26.7377Z" fill="#FEDB63"/>
<path d="M50.3595 67.8301C52.7316 68.0689 55.174 68.0006 57.5505 67.8823C60.0565 67.7572 64.3799 67.9888 66.4584 66.3557C67.5342 65.51 67.6804 63.8703 67.6103 62.2575C67.393 62.7808 67.1557 63.2929 66.8757 63.7723C65.6655 65.8464 63.5481 66.1344 61.362 66.4009C59.201 66.664 57.0049 66.7279 54.8302 66.6792C52.1036 66.6175 49.6566 66.0867 48.9231 63.0304C47.3732 56.5707 53.232 51.5252 56.7035 46.8417C58.8925 43.8891 60.7296 40.6631 61.4637 37.158C61.3581 37.4399 61.2631 37.7256 61.1486 38.0047C60.0748 40.617 58.305 42.677 56.5352 44.8436C53.1285 49.0144 49.6094 53.0917 46.0026 57.0905C46.3025 59.1258 46.5593 61.1694 46.9314 63.1926C47.3449 65.4409 47.6613 67.5586 50.3595 67.8301Z" fill="#FEDB63"/>
<path d="M65.1496 54.3644C65.0525 52.1244 64.9476 49.8708 64.7839 47.6241C64.6038 45.1493 63.7518 45.8364 62.8126 47.596C61.987 49.1425 60.9076 50.58 59.853 51.86C58.0484 54.0484 55.5384 55.6014 54.4575 58.33C53.8066 59.9737 53.7708 63.2237 55.8954 63.9097C56.9113 64.237 57.985 64.0107 59.0238 63.9195C60.2088 63.8155 61.3906 63.7223 62.5401 63.4051C66.32 62.3644 65.2775 57.3158 65.1496 54.3644Z" fill="#FEDB63"/>
<path d="M52.4804 18.6412C52.2374 19.7266 52.044 21.0207 52.2099 22.0099C53.5858 21.9687 54.9436 22.5345 55.6881 23.8151C56.454 25.1324 56.8042 26.7358 56.3962 28.0933C56.9777 27.1738 57.1728 25.9463 56.9211 24.9571C56.6528 23.9048 56.2115 23.0462 55.3999 22.3186C54.8994 21.8702 54.2469 21.6004 53.7191 21.185C53.0513 20.6596 52.9916 19.8439 53.1876 19.0546C52.9542 18.9112 52.7209 18.7651 52.4804 18.6412Z" fill="#FEDB63"/>
<path d="M19.3333 44.3211C23.3791 40.5695 27.0987 36.3719 30.8457 32.4031C32.8158 30.3164 34.7665 28.2109 36.7281 26.117C38.4636 24.2653 40.3211 22.5565 42.4909 21.2255C44.199 20.1781 46.3713 19.2098 48.5244 18.7768C49.5268 18.5745 49.7621 18.766 49.7393 19.5749C49.7177 20.3569 49.9021 21.5796 49.2754 22.153C48.0068 23.3146 46.62 24.8684 47.0669 27.5279C47.4765 29.9659 50.18 31.7625 52.621 31.1955C53.2099 31.0583 53.9577 30.7148 54.6123 30.2433C52.4563 31.4312 49.6806 31.0853 48.294 28.8309C46.8124 26.4203 47.8289 23.7124 50.3016 22.4745C50.3146 22.4679 50.3269 22.4654 50.3395 22.46C50.1562 21.1032 50.346 19.4797 50.705 17.9599C49.5617 17.6158 48.392 18.0962 47.5267 18.4231C46.4052 18.8469 45.2851 19.2765 44.182 19.7483C42.1007 20.639 39.94 21.6869 38.3097 23.2935C36.1711 25.4012 34.12 27.6076 32.0748 29.8057C28.0523 34.1286 24.1489 38.5624 20.3555 43.0869C20.0123 43.4963 19.6746 43.9103 19.3333 44.3211Z" fill="#FEDB63"/>
<path d="M70.9565 62.3227C71.0595 62.9613 71.1838 63.5918 71.3324 64.2091C71.2805 63.4575 71.2058 62.7074 71.1598 61.9702C70.5841 52.7891 69.8371 43.6037 68.5079 34.4966C67.8827 30.2137 66.6544 26.7734 63.8087 23.4499C62.563 21.9947 61.0366 21.1176 59.3422 20.6361C57.6575 20.1566 58.5748 20.7444 58.9567 21.0949C59.0544 21.1847 59.1429 21.2717 59.2381 21.3609C62.8375 22.2692 65.5319 26.0481 66.8386 29.382C67.9467 32.2073 68.1857 35.4832 68.5671 38.4622C69.3103 44.2672 69.6874 50.1067 70.2193 55.9324C70.415 58.0781 70.5927 60.2266 70.9565 62.3227Z" fill="#FEDB63"/>
</svg>
